<?xml version="1.0" standalone="no"?>
<!DOCTYPE svg PUBLIC "-//W3C//DTD SVG 1.1//EN" "http://www.w3.org/Graphics/SVG/1.1/DTD/svg11.dtd">
<svg xmlns="http://www.w3.org/2000/svg">
<defs >
<font id="InriaSerif" horiz-adv-x="566" ><font-face
    font-family="Inria Serif Light"
    units-per-em="1000"
    panose-1="0 0 0 0 0 0 0 0 0 0"
    ascent="976"
    descent="-223"
    alphabetic="0" />
<glyph unicode=" " glyph-name="space" horiz-adv-x="230" />
<glyph unicode="!" glyph-name="exclam" horiz-adv-x="261" d="M145 172H117Q117 244 116 297T112 393T107 477T103 567T101 680H161Q161 616 160 568T156 478T151 393T147 297T145 172ZM130 -10Q110 -10 97 3T83 38Q83 58 96 71T130 85Q151 85 164 72T178 38Q178
17 165 4T130 -10Z" />
<glyph unicode="&quot;" glyph-name="quotedbl" horiz-adv-x="411" d="M144 459H116Q116 513 112 543T104 590T95 617T91 643Q91 666 102 678T130 690Q147 690 158 678T169 643Q169 628 165 617T157 590T148 544T144 459ZM295 459H267Q267 513 263 543T255 590T246
617T242 643Q242 666 253 678T281 690Q298 690 309 678T320 643Q320 628 316 617T308 590T299 544T295 459Z" />
<glyph unicode="#" glyph-name="numbersign" horiz-adv-x="651" d="M553 213H435L366 -10L334 0L400 213H173L104 -10L72 0L138 213H29V243H147L207 437H98V467H216L285 690L317 680L251 467H478L547 690L579 680L513 467H622V437H504L444 243H553V213ZM182 243H409L469
437H242L182 243Z" />
<glyph unicode="$" glyph-name="dollar" horiz-adv-x="540" d="M484 174Q484 101 436 48T286 -10V-125H251V-10Q204 -8 162 9T89 65T46 173L101 191Q106 128 128 92T182 39T251 21V317L221 325Q139 347 99 395T58 512Q58 557 78 596T141 662T251 690V805H286V689Q356
685 398 655T457 579T464 483L401 467Q411 553 384 603T286 660V378L308 372Q395 349 439 299T484 174ZM118 527Q118 476 146 442T251 387V661Q189 658 154 624T118 527ZM424 159Q424 212 394 249T286 308V21Q349 26 386 61T424 159Z" />
<glyph unicode="%" glyph-name="percent" horiz-adv-x="715" d="M308 546V515Q308 478 293 446T248 395T176 375Q134 375 105 394T60 446T44 515V546Q44 583 59 614T104 665T176 685Q218 685 247 666T292 615T308 546ZM533 680L558 664L182 0L157 16L533 680ZM257
571Q257 614 236 639T176 665Q138 665 117 640T96 571V490Q96 447 117 421T176 395Q214 395 235 421T257 490V571ZM671 166V135Q671 98 656 66T611 15T539 -5Q497 -5 468 14T423 66T407 135V166Q407 203 422 234T467 285T539 305Q581 305 610 286T655 235T671 166ZM620
191Q620 234 599 259T539 285Q501 285 480 260T459 191V110Q459 67 480 41T539 15Q577 15 598 41T620 110V191Z" />
<glyph unicode="&amp;" glyph-name="ampersand" horiz-adv-x="616" d="M248 20Q302 20 337 51T379 131T356 236L405 266L529 69Q546 42 552 37T575 30L624 25V0H500L410 148Q411 105 391 69T335 12T246 -10Q193 -10 151 8T84 61T59 146Q59 195 81 230T139 294T211
349L230 362Q163 407 132 450T100 541Q100 579 120 613T177 668T264 690Q316 690 352 669T409 613T429 538Q429 499 412 471T365 420T303 375L232 327Q187 296 156 253T124 146Q124 100 142 72T188 32T248 20ZM165 545Q165 508 182 466T255 380L283 399Q319 424
341 458T364 544Q364 600 337 630T265 660Q222 660 194 632T165 545Z" />
<glyph unicode="&apos;" glyph-name="quotesingle" horiz-adv-x="260" d="M144 459H116Q116 513 112 543T104 590T95 617T91 643Q91 666 102 678T130 690Q147 690 158 678T169 643Q169 628 165 617T157 590T148 544T144 459Z" />
<glyph unicode="(" glyph-name="parenleft" horiz-adv-x="339" d="M82 280V317Q82 442 134 551T289 750L312 726Q225 644 186 539T147 317V280Q147 165 186 60T312 -129L289 -153Q186 -63 134 46T82 280Z" />
<glyph unicode=")" glyph-name="parenright" horiz-adv-x="339" d="M257 317V280Q257 156 206 47T50 -153L27 -129Q114 -46 153 59T192 280V317Q192 433 153 538T27 726L50 750Q154 660 205 551T257 317Z" />
<glyph unicode="*" glyph-name="asterisk" horiz-adv-x="440" d="M50 578Q85 567 105 556T147 533T208 508Q208 549 204 573T196 621T191 680H249Q249 644 245 621T237 574T232 508Q271 521 292 532T334 555T390 578L408 523Q373 512 350 509T303 502T239 486Q263
453 281 436T316 403T354 357L307 323Q286 353 276 374T255 417T220 471Q196 439 185 417T165 374T133 323L86 357Q108 387 124 403T159 436T201 486Q162 499 138 502T90 508T32 523L50 578Z" />
<glyph unicode="+" glyph-name="plus" horiz-adv-x="588" d="M501 318H311V124H277V318H87V350H277V544H311V350H501V318Z" />
<glyph unicode="," glyph-name="comma" horiz-adv-x="261" d="M176 27Q176 -20 148 -81T70 -199L49 -181Q90 -131 108 -87T130 -10Q111 -10 98 3T85 36Q85 56 98 68T130 81Q150 81 163 67T176 27Z" />
<glyph unicode="-" glyph-name="hyphen" horiz-adv-x="418" d="M77 318V352H341V318H77Z" />
<glyph unicode="." glyph-name="period" horiz-adv-x="261" d="M130 -10Q110 -10 97 3T83 38Q83 58 96 71T130 85Q151 85 164 72T178 38Q178 17 165 4T130 -10Z" />
<glyph unicode="/" glyph-name="slash" horiz-adv-x="383" d="M331 740L365 725L19 -143L-15 -128L331 740Z" />
<glyph unicode="0" glyph-name="zero" horiz-adv-x="614" d="M531 372V309Q531 213 505 141T428 30T307 -10Q235 -10 185 29T109 141T83 309V372Q83 468 109 539T185 650T307 690Q378 690 428 651T504 540T531 372ZM458 442Q458 559 419 609T307 660Q234 660 195
610T156 442V239Q156 121 195 71T307 20Q380 20 419 70T458 239V442Z" />
<glyph unicode="1" glyph-name="one" horiz-adv-x="345" d="M38 601L165 680H220V79Q220 44 223 38T242 30L297 25V0H58V25L133 30Q149 31 152 37T155 79V638L54 576L38 601Z" />
<glyph unicode="2" glyph-name="two" horiz-adv-x="543" d="M434 184H459V0H69V43Q69 117 94 165T159 246T243 308Q278 332 310 356T364 415T385 502Q385 584 353 622T259 660Q182 660 153 610T133 467L68 483Q59 537 77 584T141 660T260 690Q332 690 376 664T440
595T460 505Q460 453 442 417T393 357T326 313T253 274Q214 252 181 224T128 156T104 57H353Q388 57 395 61T407 83L434 184Z" />
<glyph unicode="3" glyph-name="three" horiz-adv-x="531" d="M211 336H184V366H211Q301 366 338 408T375 516Q375 587 343 623T250 660Q173 660 144 610T125 467L60 483Q51 537 68 584T132 660T251 690Q322 690 366 666T430 602T450 516Q450 446 411 406T297
351Q378 337 421 292T464 170Q464 123 443 82T376 15T255 -10Q186 -10 133 23T50 146L107 163Q116 106 139 75T192 32T253 20Q319 20 354 58T389 170Q389 244 349 290T211 336Z" />
<glyph unicode="4" glyph-name="four" horiz-adv-x="490" d="M314 79V176H20V206Q71 262 110 313T178 420T228 538T265 680H345Q308 540 234 426T56 206H314V367L379 377V206H456V176H379V79Q379 44 382 38T401 30L456 25V0H217V25L292 30Q308 31 311 37T314 79Z" />
<glyph unicode="5" glyph-name="five" horiz-adv-x="509" d="M403 760H428V621H128L116 394Q147 415 180 424T248 433Q346 433 401 371T456 205Q456 148 435 99T367 20T246 -10Q182 -10 133 23T54 146L111 163Q120 106 140 75T188 32T245 20Q310 20 345 67T381
205Q381 291 350 345T242 400Q205 400 168 388T96 344L79 349L97 680H341Q366 680 376 681T390 688T395 706L403 760Z" />
<glyph unicode="6" glyph-name="six" horiz-adv-x="572" d="M508 189Q508 129 482 84T410 15T303 -10Q197 -10 140 69T82 305V368Q82 533 142 611T300 690Q367 690 413 661T481 584T493 483L428 467Q439 560 407 610T299 660Q259 660 226 642T174 573T155 427V325Q212
399 311 399Q402 399 455 345T508 199V189ZM155 246Q155 160 172 111T222 41T303 20Q363 20 399 58T435 189V199Q435 277 401 322T302 367Q262 367 223 347T155 276V246Z" />
<glyph unicode="7" glyph-name="seven" horiz-adv-x="452" d="M49 494H24V680H436V629Q390 569 356 511T298 382T261 220T243 0H163Q175 107 194 193T241 351T309 489T401 621H130Q95 621 88 617T76 595L49 494Z" />
<glyph unicode="8" glyph-name="eight" horiz-adv-x="538" d="M478 166Q478 88 427 39T274 -10Q203 -10 155 13T84 75T60 156Q60 210 97 258T204 338Q143 364 109 407T74 511Q74 560 95 600T159 665T265 690Q327 690 371 667T439 606T463 523Q463 471 432 431T330
361Q406 332 442 285T478 166ZM260 389L297 374Q355 400 376 437T398 524Q398 592 362 626T266 660Q211 660 170 629T129 532Q129 479 162 447T260 389ZM125 157Q125 94 163 57T274 20Q345 20 384 53T423 149Q423 205 392 240T289 304L235 325Q183 302 154 257T125
157Z" />
<glyph unicode="9" glyph-name="nine" horiz-adv-x="572" d="M490 312Q490 147 428 69T263 -10Q198 -10 148 23T69 146L126 163Q135 106 156 75T206 32T263 20Q303 20 338 38T395 107T417 253V340Q360 266 261 266Q170 266 117 320T64 466V491Q64 552 90 596T162
665T269 690Q376 690 433 611T490 375V312ZM137 466Q137 388 171 343T270 298Q311 298 350 318T417 389V434Q417 520 400 569T350 639T269 660Q209 660 173 622T137 491V466Z" />
<glyph unicode=":" glyph-name="colon" horiz-adv-x="261" d="M130 402Q110 402 97 415T83 450Q83 470 96 483T130 497Q151 497 164 484T178 450Q178 429 165 416T130 402ZM130 -10Q110 -10 97 3T83 38Q83 58 96 71T130 85Q151 85 164 72T178 38Q178 17 165 4T130 -10Z" />
<glyph unicode=";" glyph-name="semicolon" horiz-adv-x="261" d="M130 402Q110 402 97 415T83 450Q83 470 96 483T130 497Q151 497 164 484T178 450Q178 429 165 416T130 402ZM176 27Q176 -20 148 -81T70 -199L49 -181Q90 -131 108 -87T130 -10Q111 -10 98 3T85
36Q85 56 98 68T130 81Q150 81 163 67T176 27Z" />
<glyph unicode="&lt;" glyph-name="less" horiz-adv-x="588" d="M501 188L489 158L87 319V347L489 508L501 479L135 334L501 188Z" />
<glyph unicode="=" glyph-name="equal" horiz-adv-x="588" d="M87 418V450H501V418H87ZM87 218V250H501V218H87Z" />
<glyph unicode="&gt;" glyph-name="greater" horiz-adv-x="588" d="M501 319L99 158L87 187L453 333L87 478L99 508L501 347V319Z" />
<glyph unicode="?" glyph-name="question" horiz-adv-x="471" d="M252 172H209V198Q209 244 223 273T259 323T302 366T338 420T353 503Q353 583 322 621T232 660Q158 660 129 610T109 467L49 483Q40 537 57 584T118 660T233 690Q301 690 343 665T404 600T423 514Q423
466 410 435T375 382T330 343T286 308T256 264T249 199L252 172ZM229 -10Q209 -10 196 3T182 38Q182 58 195 71T229 85Q250 85 263 72T277 38Q277 17 264 4T229 -10Z" />
<glyph unicode="@" glyph-name="at" horiz-adv-x="976" d="M747 -167Q692 -195 624 -209T493 -223Q396 -223 318 -191T184 -100T98 39T68 214Q68 315 100 401T190 552T327 653T502 690Q590 690 665 659T795 571T881 440T912 278Q912 200 885 137T810 37T702 0Q655
0 622 25T584 98Q549 43 511 19T431 -5Q378 -5 344 29T297 120T297 246L301 268Q313 331 343 376T416 447T507 472Q549 472 579 454T632 402Q640 417 647 432T662 462H702L647 155Q638 103 645 76T669 39T706 29Q753 29 792 61T856 149T880 278Q880 359 852 428T772
550T652 631T502 660Q414 660 341 626T213 531T130 389T100 214Q100 95 148 3T285 -141T493 -193Q549 -193 610 -178T727 -121L747 -167ZM359 216Q345 128 367 77T436 25Q460 25 484 36T534 77T588 160L623 359Q601 401 574 421T509 442Q452 442 417 398T369 276L359
216Z" />
<glyph unicode="A" glyph-name="A" horiz-adv-x="622" d="M189 25V0H0V25L55 30Q66 31 71 33T80 46T92 79L287 680H334L531 79Q539 56 543 46T552 34T567 30L622 25V0H401V25L456 30Q473 32 474 38T464 79L421 210H168L126 79Q115 45 116 39T134 30L189 25ZM178
240H412L295 600L178 240Z" />
<glyph unicode="B" glyph-name="B" horiz-adv-x="598" d="M52 655V680H322Q405 680 455 636T505 517V491Q505 439 476 403T394 350Q459 339 497 298T535 195V169Q535 93 484 47T347 0H52V25L107 30Q123 32 126 38T129 79V601Q129 636 126 642T107 650L52 655ZM322
650H194V360H322Q379 360 408 391T437 481V527Q437 585 408 617T322 650ZM347 330H194V30H347Q406 30 436 64T467 159V205Q467 263 437 296T347 330Z" />
<glyph unicode="C" glyph-name="C" horiz-adv-x="579" d="M323 -10Q202 -10 141 73T80 299V382Q80 475 108 544T189 652T320 690Q394 690 441 661T509 584T519 483L454 467Q465 560 431 610T322 660Q239 660 196 607T153 432V249Q153 128 197 74T326 20Q359 20
390 31T443 70T470 144L526 131Q504 54 449 22T323 -10Z" />
<glyph unicode="D" glyph-name="D" horiz-adv-x="652" d="M52 655V680H329Q407 680 461 643T543 539T572 382V299Q572 209 544 142T461 37T329 0H52V25L107 30Q123 32 126 38T129 79V601Q129 636 126 642T107 650L52 655ZM329 650H194V30H329Q412 30 455 81T499
249V432Q499 549 456 599T329 650Z" />
<glyph unicode="E" glyph-name="E" horiz-adv-x="565" d="M496 157H520V0H52V25L107 30Q123 32 126 38T129 79V601Q129 636 126 642T107 650L52 655V680H506V523H482L455 624Q451 641 444 645T401 650H194V359H342Q366 359 376 360T389 367T396 385L413 456H437V232H413L396
303Q393 315 390 320T376 327T342 329H194V30H415Q450 30 457 34T469 56L496 157Z" />
<glyph unicode="F" glyph-name="F" horiz-adv-x="537" d="M403 445H428V221H403L386 292Q383 304 380 309T366 316T332 318H194V79Q194 44 197 38T216 30L291 25V0H52V25L107 30Q123 32 126 38T129 79V601Q129 636 126 642T107 650L52 655V680H498V523H473L446
624Q442 641 435 645T392 650H194V348H332Q356 348 366 349T379 356T386 374L403 445Z" />
<glyph unicode="G" glyph-name="G" horiz-adv-x="640" d="M380 283V308H616V283L561 278Q545 277 542 271T539 229V0H517Q511 14 502 25T482 47Q422 -10 324 -10Q246 -10 192 28T109 136T80 299V382Q80 475 109 544T193 652T328 690Q405 690 455 661T526 584T537
483L472 467Q483 560 447 610T330 661Q243 661 198 608T153 432V249Q153 128 197 74T329 20Q376 20 413 36T477 91V229Q477 264 474 270T455 278L380 283Z" />
<glyph unicode="H" glyph-name="H" horiz-adv-x="716" d="M664 25V0H445V25L500 30Q516 32 519 38T522 79V329H194V79Q194 44 197 38T216 30L271 25V0H52V25L107 30Q123 32 126 38T129 79V601Q129 636 126 642T107 650L52 655V680H271V655L216 650Q200 649 197
643T194 601V359H522V601Q522 636 519 642T500 650L445 655V680H664V655L609 650Q593 649 590 643T587 601V79Q587 44 590 38T609 30L664 25Z" />
<glyph unicode="I" glyph-name="I" horiz-adv-x="323" d="M52 655V680H271V655L216 650Q200 649 197 643T194 601V79Q194 44 197 38T216 30L271 25V0H52V25L107 30Q123 32 126 38T129 79V601Q129 636 126 642T107 650L52 655Z" />
<glyph unicode="J" glyph-name="J" horiz-adv-x="452" d="M193 655V680H412V655L357 650Q341 649 338 643T335 601V202Q335 149 320 100T269 21T167 -10Q134 -10 101 2T45 44T17 129L67 144Q69 92 84 66T121 30T165 20Q197 20 220 36T257 92T270 202V601Q270 636
267 642T248 650L193 655Z" />
<glyph unicode="K" glyph-name="K" horiz-adv-x="636" d="M52 656V680H271V656L216 651Q200 650 197 644T194 602V290L452 612Q474 639 474 644T457 651L408 656V680H590V656L541 651Q532 650 527 648T514 638T492 612L324 403L526 79Q541 56 548 46T561 34T577
30L627 25V0H495L282 351L194 242V79Q194 44 197 38T216 30L271 25V0H52V25L107 30Q123 32 126 38T129 79V602Q129 637 126 643T107 651L52 656Z" />
<glyph unicode="L" glyph-name="L" horiz-adv-x="504" d="M468 161H493V0H52V25L107 30Q123 32 126 38T129 79V601Q129 636 126 642T107 650L52 655V680H271V655L216 650Q200 649 197 643T194 601V30H387Q422 30 429 34T441 56L468 161Z" />
<glyph unicode="M" glyph-name="M" horiz-adv-x="853" d="M801 25V0H582V25L637 30Q653 32 656 38T659 79V638L434 80H392L164 638V79Q164 45 167 39T186 30L241 25V0H52V25L107 30Q123 32 126 38T129 79V601Q129 636 126 642T107 650L52 655V680H216L431 154L641
680H801V655L746 650Q730 649 727 643T724 601V79Q724 45 727 39T746 30L801 25Z" />
<glyph unicode="N" glyph-name="N" horiz-adv-x="695" d="M459 655V680H648V655L593 650Q577 649 574 643T571 601V0H526L164 630V79Q164 45 167 39T186 30L241 25V0H52V25L107 30Q123 32 126 38T129 79V601Q129 636 126 642T107 650L52 655V680H206L536 106V601Q536
636 533 642T514 650L459 655Z" />
<glyph unicode="O" glyph-name="O" horiz-adv-x="662" d="M582 382V299Q582 206 553 137T467 29T331 -10Q250 -10 194 28T109 136T80 299V382Q80 475 109 544T194 652T331 690Q411 690 467 652T552 545T582 382ZM509 432Q509 554 463 607T331 660Q246 660 200
607T153 432V249Q153 128 199 74T331 20Q417 20 463 74T509 249V432Z" />
<glyph unicode="P" glyph-name="P" horiz-adv-x="558" d="M52 655V680H324Q416 680 466 632T517 502V469Q517 388 467 339T324 290H194V79Q194 44 197 38T216 30L291 25V0H52V25L107 30Q123 32 126 38T129 79V601Q129 636 126 642T107 650L52 655ZM324 650H194V320H324Q386
320 417 353T449 459V512Q449 584 418 617T324 650Z" />
<glyph unicode="Q" glyph-name="Q" horiz-adv-x="662" d="M556 -109L567 -173Q491 -173 431 -138T336 -10H331Q250 -10 194 28T109 136T80 299V382Q80 475 109 544T194 652T331 690Q411 690 467 652T552 545T582 382V299Q582 170 527 88T369 -8Q395 -69 439 -89T556
-109ZM509 432Q509 554 463 607T331 660Q246 660 200 607T153 432V249Q153 128 199 74T331 20Q417 20 463 74T509 249V432Z" />
<glyph unicode="R" glyph-name="R" horiz-adv-x="608" d="M52 655V680H314Q406 680 456 635T507 512V477Q507 414 473 371T375 314L506 79Q519 56 525 46T538 34T554 30L599 25V0H472L307 308H194V79Q194 44 197 38T216 30L271 25V0H52V25L107 30Q123 32 126 38T129
79V601Q129 636 126 642T107 650L52 655ZM314 650H194V338H314Q370 338 404 375T439 477V512Q439 577 405 613T314 650Z" />
<glyph unicode="S" glyph-name="S" horiz-adv-x="540" d="M267 20Q338 20 381 56T424 159Q424 215 391 252T274 311L221 325Q139 347 99 395T58 512Q58 558 79 598T146 664T262 690Q341 690 389 661T455 584T464 483L401 467Q412 560 379 610T263 661Q196 661
157 627T118 527Q118 476 147 442T255 386L308 372Q395 349 439 299T484 174Q484 123 461 82T389 15T267 -10Q217 -10 171 5T92 61T46 173L101 191Q107 124 131 87T192 35T267 20Z" />
<glyph unicode="T" glyph-name="T" horiz-adv-x="549" d="M14 680H535V523H510L483 624Q479 641 472 645T429 650H307V79Q307 44 310 38T329 30L384 25V0H165V25L220 30Q236 32 239 38T242 79V650H120Q85 650 78 646T66 624L39 523H14V680Z" />
<glyph unicode="U" glyph-name="U" horiz-adv-x="673" d="M446 655V680H635V655L580 650Q564 649 561 643T558 601V231Q558 122 505 56T341 -10Q226 -10 171 61T115 251V601Q115 636 112 642T93 650L38 655V680H257V655L202 650Q186 649 183 643T180 601V231Q180
127 219 74T347 21Q439 21 481 78T523 231V601Q523 636 520 642T501 650L446 655Z" />
<glyph unicode="V" glyph-name="V" horiz-adv-x="612" d="M531 611L334 0H279L82 611Q73 639 69 644T49 650L0 655V680H209V655L160 650Q144 649 143 644T149 611L323 66L497 611Q506 638 505 643T486 650L437 655V680H612V655L563 650Q549 649 545 644T531 611Z" />
<glyph unicode="W" glyph-name="W" horiz-adv-x="911" d="M632 0L458 591L281 0H230L79 611Q72 638 68 643T49 650L0 655V680H205V655L156 650Q140 649 138 644T143 611L272 86L449 680H497L671 90L799 611Q806 638 804 643T786 650L737 655V680H911V655L862 650Q849
649 845 644T833 611L682 0H632Z" />
<glyph unicode="X" glyph-name="X" horiz-adv-x="583" d="M182 25V0H3V25L52 30Q66 32 72 36T95 69L260 339L102 611Q92 630 87 637T76 647T61 650L12 655V680H226V655L177 650Q161 649 160 644T175 611L304 389L439 611Q456 637 456 643T439 650L390 655V680H569V655L520
650Q506 649 500 644T477 611L322 358L489 69Q505 42 510 37T531 30L580 25V0H366V25L415 30Q431 32 432 37T417 69L278 308L133 69Q117 43 117 38T133 30L182 25Z" />
<glyph unicode="Y" glyph-name="Y" horiz-adv-x="570" d="M395 25V0H176V25L231 30Q247 32 250 38T253 79V290L90 611Q77 638 71 643T49 650L0 655V680H214V655L165 650Q150 649 150 644T162 611L303 328L444 611Q458 638 457 643T441 650L392 655V680H570V655L521
650Q505 649 500 644T480 611L318 290V79Q318 44 321 38T340 30L395 25Z" />
<glyph unicode="Z" glyph-name="Z" horiz-adv-x="522" d="M456 157H481V0H41V20L395 650H157Q122 650 115 646T103 624L76 523H51V680H471V660L117 30H375Q410 30 417 34T429 56L456 157Z" />
<glyph unicode="[" glyph-name="bracketleft" horiz-adv-x="360" d="M333 710H168V-113H333V-143H108V740H333V710Z" />
<glyph unicode="\" glyph-name="backslash" horiz-adv-x="383" d="M52 740L398 -128L364 -143L18 725L52 740Z" />
<glyph unicode="]" glyph-name="bracketright" horiz-adv-x="360" d="M27 740H252V-143H27V-113H192V710H27V740Z" />
<glyph unicode="^" glyph-name="asciicircum" horiz-adv-x="588" d="M469 278L438 266L293 631L148 266L119 278L280 680H308L469 278Z" />
<glyph unicode="_" glyph-name="underscore" horiz-adv-x="404" d="M20 -143V-109H384V-143H20Z" />
<glyph unicode="`" glyph-name="grave" horiz-adv-x="500" d="M251 579Q177 652 123 740H199Q212 694 227 663T270 598L251 579Z" />
<glyph unicode="a" glyph-name="a" horiz-adv-x="542" d="M452 -5Q418 -5 396 14T369 69Q332 27 289 9T204 -10Q134 -10 102 29T69 122Q69 181 108 214T241 247H368V328Q368 408 337 437T253 467Q219 467 193 456T155 414T149 326L91 336Q85 406 127 451T255 497Q324
497 361 474T413 412T428 328V107Q428 56 441 43T471 30Q479 30 490 34T512 48L530 24Q516 11 497 3T452 -5ZM221 25Q250 25 287 41T368 112V217H249Q188 217 160 196T132 127Q132 79 154 52T221 25Z" />
<glyph unicode="b" glyph-name="b" horiz-adv-x="571" d="M30 715V740H167V417Q199 461 237 479T319 497Q407 497 453 434T499 254V234Q499 122 446 56T296 -10Q258 -10 225 4T166 46Q154 36 146 23T129 -5H107V661Q107 696 104 702T85 710L30 715ZM315 467Q280
467 242 447T167 367V96Q214 20 296 20Q367 20 399 69T431 204V284Q431 379 401 423T315 467Z" />
<glyph unicode="c" glyph-name="c" horiz-adv-x="502" d="M269 467Q208 467 174 423T139 274V214Q139 111 171 66T279 20Q327 20 356 43T399 124L445 111Q427 44 379 17T274 -10Q172 -10 122 56T71 234V254Q71 364 121 430T269 497Q329 497 369 474T428 410T438
318L381 309Q392 386 363 426T269 467Z" />
<glyph unicode="d" glyph-name="d" horiz-adv-x="578" d="M541 24V0H408V76Q377 30 337 10T252 -10Q164 -10 118 54T72 233V253Q72 365 125 431T275 497Q353 497 404 442V661Q404 696 401 702T382 710L327 715V740H464V79Q464 44 467 38T486 30L541 24ZM140 203Q140
108 170 64T256 20Q291 20 329 40T404 120V391Q357 467 275 467Q205 467 173 418T140 283V203Z" />
<glyph unicode="e" glyph-name="e" horiz-adv-x="523" d="M453 111Q435 44 386 17T278 -10Q174 -10 123 56T71 234V254Q71 364 121 430T269 497Q320 497 363 476T432 413T458 306Q458 278 452 245H139V214Q139 111 172 66T283 20Q332 20 363 43T407 124L453 111ZM269
467Q203 467 171 423T139 275H393Q394 287 394 296T395 314Q395 396 360 431T269 467Z" />
<glyph unicode="f" glyph-name="f" horiz-adv-x="355" d="M278 25V0H44V25L99 30Q115 32 118 38T121 79V408Q121 443 119 449T99 457L44 462V487H121V571Q121 618 134 659T180 725T274 750Q352 750 389 706T416 595L359 586Q368 651 347 685T274 720Q244 720 224
709T192 667T181 581V487H346V457H181V79Q181 44 184 38T203 30L278 25Z" />
<glyph unicode="g" glyph-name="g" horiz-adv-x="546" d="M495 -63Q495 -142 438 -182T280 -223Q168 -223 119 -183T70 -82L122 -67Q119 -124 154 -158T280 -193Q358 -193 406 -165T454 -80Q454 -39 427 -18T337 4H215Q157 4 131 31T105 93Q105 148 159 192Q121
212 98 247T74 333Q74 388 99 424T165 479T258 497H275Q331 497 373 476L518 513L528 454H407Q431 434 444 404T458 333Q458 281 434 245T368 190T275 171H258Q221 171 191 180Q151 152 151 114Q151 92 165 78T212 63H342Q416 63 455 32T495 -63ZM275 201Q306 201
332 212T374 252T390 333Q390 386 374 415T332 455T275 467H258Q227 467 201 456T158 415T142 333Q142 281 158 253T200 213T258 201H275Z" />
<glyph unicode="h" glyph-name="h" horiz-adv-x="607" d="M576 25V0H362V25L417 30Q433 32 436 38T439 79V326Q439 403 413 433T339 463Q301 463 259 444T174 372V79Q174 44 177 38T196 30L251 25V0H37V25L92 30Q108 32 111 38T114 79V661Q114 696 111 702T92
710L37 715V740H174V414Q214 458 259 477T348 497Q422 497 460 453T499 327V79Q499 44 502 38T521 30L576 25Z" />
<glyph unicode="i" glyph-name="i" horiz-adv-x="294" d="M149 617Q130 617 117 630T104 663Q104 683 117 695T149 708Q169 708 182 696T195 663Q195 643 182 630T149 617ZM43 462V487H180V79Q180 44 183 38T202 30L257 25V0H43V25L98 30Q114 32 117 38T120 79V408Q120
443 117 449T98 457L43 462Z" />
<glyph unicode="j" glyph-name="j" horiz-adv-x="280" d="M142 617Q123 617 110 630T97 663Q97 683 110 695T142 708Q162 708 175 696T188 663Q188 643 175 630T142 617ZM36 462V487H173V-64Q173 -106 160 -142T118 -200T41 -223Q-5 -223 -37 -198T-80 -111L-31
-99Q-27 -152 -10 -172T38 -193Q75 -193 94 -167T113 -64V408Q113 443 110 449T91 457L36 462Z" />
<glyph unicode="k" glyph-name="k" horiz-adv-x="546" d="M37 715V740H174V210L372 418Q398 445 399 450T383 457L334 462V487H520V462L471 457Q462 456 456 454T442 444T416 418L297 294L447 69Q459 51 465 43T477 33T493 30L542 25V0H419L256 251L174 165V79Q174
44 177 38T196 30L251 25V0H37V25L92 30Q108 32 111 38T114 79V661Q114 696 111 702T92 710L37 715Z" />
<glyph unicode="l" glyph-name="l" horiz-adv-x="288" d="M37 715V740H174V79Q174 44 177 38T196 30L251 25V0H37V25L92 30Q108 32 111 38T114 79V661Q114 696 111 702T92 710L37 715Z" />
<glyph unicode="m" glyph-name="m" horiz-adv-x="918" d="M572 25V0H358V25L413 30Q429 32 432 38T435 79V326Q435 403 411 433T340 463Q303 463 263 444T180 372V79Q180 44 183 38T202 30L257 25V0H43V25L98 30Q114 32 117 38T120 79V408Q120 443 117 449T98
457L43 462V487H176V409Q216 456 260 476T349 497Q402 497 436 473T485 402Q526 452 572 474T664 497Q735 497 772 453T810 327V79Q810 44 813 38T832 30L887 25V0H673V25L728 30Q744 32 747 38T750 79V326Q750 403 726 433T655 463Q618 463 577 443T492 369Q495
350 495 327V79Q495 44 498 38T517 30L572 25Z" />
<glyph unicode="n" glyph-name="n" horiz-adv-x="613" d="M582 25V0H368V25L423 30Q439 32 442 38T445 79V326Q445 403 419 433T345 463Q307 463 265 444T180 372V79Q180 44 183 38T202 30L257 25V0H43V25L98 30Q114 32 117 38T120 79V408Q120 443 117 449T98
457L43 462V487H176V409Q217 456 262 476T354 497Q428 497 466 453T505 327V79Q505 44 508 38T527 30L582 25Z" />
<glyph unicode="o" glyph-name="o" horiz-adv-x="554" d="M485 254V234Q485 123 431 57T277 -10Q177 -10 123 56T69 234V254Q69 364 123 430T277 497Q377 497 431 431T485 254ZM417 274Q417 378 381 422T277 467Q210 467 174 423T137 274V214Q137 111 173 66T277
20Q345 20 381 65T417 214V274Z" />
<glyph unicode="p" glyph-name="p" horiz-adv-x="577" d="M36 463V487H169V411Q201 458 240 477T325 497Q413 497 459 434T505 254V234Q505 122 452 56T302 -10Q224 -10 173 45V-134Q173 -169 176 -175T195 -183L270 -188V-213H36V-188L91 -183Q107 -181 110 -175T113
-134V408Q113 443 110 449T91 457L36 463ZM321 467Q286 467 248 447T173 367V96Q220 20 302 20Q373 20 405 69T437 204V284Q437 379 407 423T321 467Z" />
<glyph unicode="q" glyph-name="q" horiz-adv-x="571" d="M541 -188V-213H307V-188L382 -183Q398 -182 401 -176T404 -134V70Q373 27 335 9T252 -10Q164 -10 118 54T72 233V253Q72 365 125 431T275 497Q313 497 346 484T405 441Q417 452 425 464T442 492H464V-134Q464
-169 467 -175T486 -183L541 -188ZM140 203Q140 108 170 64T256 20Q291 20 329 40T404 120V391Q357 467 275 467Q205 467 173 418T140 283V203Z" />
<glyph unicode="r" glyph-name="r" horiz-adv-x="425" d="M43 462V487H176V409Q214 456 249 476T318 497Q387 497 424 426L375 392Q359 425 341 439T296 453Q268 453 242 436T180 368V79Q180 44 183 38T202 30L277 25V0H43V25L98 30Q114 32 117 38T120 79V408Q120
443 117 449T98 457L43 462Z" />
<glyph unicode="s" glyph-name="s" horiz-adv-x="470" d="M244 211L187 226Q130 241 99 274T67 361Q67 395 83 426T135 477T226 497Q290 497 328 476T381 420T391 344L334 334Q345 399 317 433T225 467Q174 467 144 444T114 374Q114 343 134 321T207 284L265 269Q327
253 365 219T403 126Q403 65 359 28T237 -10Q167 -10 119 22T55 111L104 127Q118 66 154 43T239 19Q266 19 293 28T338 58T356 113Q356 147 331 171T244 211Z" />
<glyph unicode="t" glyph-name="t" horiz-adv-x="382" d="M356 102Q340 45 312 18T234 -10Q189 -10 162 10T122 63T109 129V408Q109 443 107 449T87 457L32 462V487H109V629L169 641V487H334V457H169V129Q169 67 187 44T237 20Q269 20 285 43T309 114L356 102Z" />
<glyph unicode="u" glyph-name="u" horiz-adv-x="595" d="M558 25V0H425V78Q385 32 341 11T252 -10Q181 -10 144 34T106 160V408Q106 443 103 449T84 457L29 462V487H166V161Q166 84 190 54T261 24Q298 24 338 43T421 115V408Q421 443 418 449T399 457L324 462V487H481V79Q481
44 484 38T503 30L558 25Z" />
<glyph unicode="v" glyph-name="v" horiz-adv-x="513" d="M430 418L282 0H234L84 418Q74 445 70 450T49 457L0 462V487H201V462L152 457Q136 456 135 451T143 418L270 61L396 418Q405 445 404 450T386 457L337 462V487H513V462L464 457Q448 456 444 451T430 418Z" />
<glyph unicode="w" glyph-name="w" horiz-adv-x="759" d="M679 418L565 0H517L379 422L242 0H194L81 418Q74 445 70 450T49 457L0 462V487H201V462L152 457Q136 456 135 451T140 418L232 70L367 487H416L552 69L644 418Q652 445 650 450T632 457L583 462V487H759V462L710
457Q695 456 691 451T679 418Z" />
<glyph unicode="x" glyph-name="x" horiz-adv-x="510" d="M196 25V0H12V25L61 30Q72 31 77 33T89 43T108 69L228 242L115 418Q104 436 98 444T87 454T70 457L21 462V487H228V462L179 457Q163 456 163 451T180 418L264 287L354 418Q373 445 372 450T356 457L307
462V487H491V462L442 457Q432 456 426 454T414 444T395 418L283 257L404 69Q416 51 421 43T433 33T449 30L498 25V0H291V25L340 30Q356 32 356 36T339 69L246 214V210L149 69Q130 42 131 37T147 30L196 25Z" />
<glyph unicode="y" glyph-name="y" horiz-adv-x="514" d="M265 -50Q233 -141 192 -182T77 -223V-163Q117 -163 145 -154T195 -118T233 -43L248 0H234L84 418Q75 444 70 449T49 456L0 462V487H201V462L152 456Q136 454 135 449T143 418L270 62L396 418Q405 444
404 449T386 456L337 462V487H514V462L465 456Q450 455 446 450T431 418L265 -50Z" />
<glyph unicode="z" glyph-name="z" horiz-adv-x="459" d="M383 137H408V0H51V25L329 457H167Q144 457 134 456T121 449T113 431L86 350H61V487H398V462L120 30H302Q326 30 335 31T348 39T356 56L383 137Z" />
<glyph unicode="{" glyph-name="braceleft" horiz-adv-x="407" d="M380 -114V-144H295Q216 -144 175 -98T150 41L170 147Q181 207 166 245T103 283H30V313H103Q150 313 165 351T170 449L150 555Q133 647 174 693T295 740H380V710H295Q237 710 218 675T211 574L231
468Q244 399 223 356T156 298Q201 283 222 241T231 128L211 22Q199 -43 218 -78T295 -114H380Z" />
<glyph unicode="|" glyph-name="bar" horiz-adv-x="251" d="M108 740H143V-213H108V740Z" />
<glyph unicode="}" glyph-name="braceright" horiz-adv-x="407" d="M257 41Q274 -51 233 -97T112 -144H27V-114H112Q170 -114 189 -79T196 22L176 128Q163 197 184 240T251 298Q206 313 185 355T176 468L196 574Q208 639 189 674T112 710H27V740H112Q191 740 232
694T257 555L237 449Q226 389 242 351T304 313H377V283H304Q258 283 242 245T237 147L257 41Z" />
<glyph unicode="~" glyph-name="asciitilde" horiz-adv-x="588" d="M390 258Q354 258 330 275T286 316T247 356T198 374Q173 374 154 356T117 284L87 298Q111 363 138 385T198 408Q234 408 258 391T301 350T340 310T390 292Q415 292 434 310T471 382L501 368Q477
303 450 281T390 258Z" />
<glyph unicode="&#xa0;" glyph-name="uni00A0" horiz-adv-x="230" />
<glyph unicode="&#xa1;" glyph-name="exclamdown" horiz-adv-x="261" d="M131 497Q151 497 164 484T178 449Q178 429 165 416T131 402Q110 402 97 415T83 449Q83 470 96 483T131 497ZM116 315H144Q144 243 145 190T149 94T154 10T158 -80T160 -193H100Q100 -128
101 -80T105 9T110 94T114 190T116 315Z" />
<glyph unicode="&#xa2;" glyph-name="cent" horiz-adv-x="502" d="M445 111Q428 48 384 21T287 -10V-125H252V-9Q161 -1 116 64T71 234V254Q71 359 117 424T252 496V612H287V496Q368 491 408 441T438 318L381 309Q391 380 367 420T287 466V20Q331 22 359 45T399
124L445 111ZM139 214Q139 120 165 75T252 22V466Q198 461 169 416T139 274V214Z" />
<glyph unicode="&#xa3;" glyph-name="sterling" horiz-adv-x="522" d="M427 160H452V0H67V46Q109 92 131 123T161 180T169 233Q169 259 161 285H59V315H150Q136 346 118 374T87 436T74 511Q74 554 93 595T154 663T265 690Q337 690 382 661T445 584T453 483L388
467Q398 560 370 610T266 660Q210 660 180 622T149 516Q149 473 159 439T181 376T203 315H383V285H210Q213 267 213 247Q213 197 188 152T114 53H356Q391 53 398 57T410 79L427 160Z" />
<glyph unicode="&#xa4;" glyph-name="currency" horiz-adv-x="592" d="M542 67L520 43L418 147Q393 127 362 115T296 103Q261 103 230 115T174 147L72 43L50 67L150 171Q128 197 116 230T104 300Q104 338 116 371T150 429L50 533L72 557L173 453Q225 497 296 497Q366
497 418 453L520 557L542 533L442 429Q464 404 476 371T488 300Q488 263 476 230T442 171L542 67ZM296 133Q341 133 377 155T435 215T456 300Q456 347 435 385T378 445T296 467Q251 467 215 445T158 385T136 300Q136 253 157 215T215 155T296 133Z" />
<glyph unicode="&#xa5;" glyph-name="yen" horiz-adv-x="594" d="M407 25V0H188V25L243 30Q259 32 262 38T265 79V214H72V244H265V290L232 354H72V384H217L102 611Q89 638 83 643T61 650L12 655V680H226V655L177 650Q162 649 162 644T174 611L315 328L456 611Q470
638 469 643T453 650L404 655V680H582V655L533 650Q517 649 512 644T492 611L378 384H523V354H362L330 290V244H523V214H330V79Q330 44 333 38T352 30L407 25Z" />
<glyph unicode="&#xa6;" glyph-name="brokenbar" horiz-adv-x="237" d="M101 740H136V357H101V740ZM101 170H136V-213H101V170Z" />
<glyph unicode="&#xa7;" glyph-name="section" horiz-adv-x="533" d="M455 -56Q455 -126 407 -174T260 -223Q213 -223 171 -209T98 -156T55 -50L110 -32Q115 -95 137 -130T191 -179T260 -193Q322 -193 360 -163T399 -74Q399 -26 372 6T275 58L209 76Q134 96 92
137T50 235Q50 283 80 323T169 382Q125 405 101 444T77 532Q77 573 95 609T154 667T260 690Q333 690 376 662T436 589T443 493L380 477Q390 565 362 613T260 661Q199 661 166 632T133 547Q133 501 157 470T248 420L314 402Q397 380 440 339T483 239Q483 189 454
150T369 90Q455 43 455 -56ZM309 113Q314 112 319 111T329 107Q376 118 401 146T427 219Q427 266 394 295T280 347L214 365Q106 350 106 254Q106 210 135 181T243 131L309 113Z" />
<glyph unicode="&#xa8;" glyph-name="dieresis" horiz-adv-x="500" d="M150 619Q131 619 119 631T107 663Q107 682 119 694T150 706Q170 706 182 694T194 663Q194 644 182 632T150 619ZM349 619Q330 619 318 631T306 663Q306 682 318 694T349 706Q369 706 381
694T393 663Q393 644 381 632T349 619Z" />
<glyph unicode="&#xa9;" glyph-name="copyright" horiz-adv-x="858" d="M429 -37Q350 -37 283 -8T165 72T86 192T57 340Q57 420 85 488T164 608T282 688T429 717Q507 717 575 689T693 609T772 489T801 340Q801 261 773 192T694 72T575 -8T429 -37ZM429 -7Q501
-7 563 19T671 93T743 203T769 340Q769 414 743 477T671 587T563 660T429 687Q357 687 295 661T187 587T115 477T89 340Q89 267 115 204T187 93T295 20T429 -7ZM434 544Q376 544 343 504T310 371V310Q310 217 341 177T443 136Q490 136 519 160T561 248L606 234Q587
164 541 136T438 108Q340 108 291 168T242 330V351Q242 452 291 512T434 572Q493 572 532 549T589 487T599 398L542 389Q553 464 525 504T434 544Z" />
<glyph unicode="&#xaa;" glyph-name="ordfeminine" horiz-adv-x="387" d="M311 339Q260 339 251 386Q226 359 198 347T143 335Q96 335 74 362T52 426Q52 467 79 490T170 513H249V568Q249 624 230 642T177 661Q156 661 140 654T116 627T112 567L68 574Q64 622 92
653T178 685Q224 685 249 669T285 626T295 568V416Q295 381 304 374T324 366Q330 366 337 368T353 378L365 359Q355 350 342 345T311 339ZM154 362Q174 362 197 372T249 417V489H175Q135 489 118 476T100 430Q100 362 154 362Z" />
<glyph unicode="&#xab;" glyph-name="guillemotleft" horiz-adv-x="642" d="M583 26L568 10L306 232V256L568 478L583 462L383 244L583 26ZM333 26L318 10L56 232V256L318 478L333 462L133 244L333 26Z" />
<glyph unicode="&#xac;" glyph-name="logicalnot" horiz-adv-x="588" d="M87 429V461H501V238H467V429H87Z" />
<glyph unicode="&#xad;" glyph-name="uni00AD" horiz-adv-x="0" />
<glyph unicode="&#xae;" glyph-name="registered" horiz-adv-x="570" d="M285 241Q219 241 166 273T82 359T51 479Q51 546 82 600T166 685T285 717Q351 717 404 686T488 600T519 479Q519 413 488 359T404 273T285 241ZM285 270Q342 270 388 297T460 372T487 479Q487
539 461 586T388 660T285 688Q229 688 183 661T110 586T83 479Q83 420 110 373T183 298T285 270ZM182 588V608H288Q326 608 347 590T368 543V527Q368 480 324 464L367 394Q375 381 377 378T385 375L403 374V353H340L281 458H253V394Q253 381 254 378T261 375L282
374V353H182V374L203 375Q209 375 210 378T212 394V568Q212 581 211 583T203 586L182 588ZM288 586H253V481H288Q325 481 325 527V543Q325 586 288 586Z" />
<glyph unicode="&#xaf;" glyph-name="overscore" horiz-adv-x="500" d="M394 662V619H107V662H394Z" />
<glyph unicode="&#xb0;" glyph-name="degree" horiz-adv-x="402" d="M201 366Q156 366 121 387T65 445T44 528Q44 575 64 611T120 669T201 690Q246 690 281 669T337 612T358 528Q358 482 338 445T282 387T201 366ZM201 398Q254 398 288 434T322 528Q322 585 288
621T201 658Q148 658 114 622T80 528Q80 471 114 435T201 398Z" />
<glyph unicode="&#xb1;" glyph-name="plusminus" horiz-adv-x="588" d="M501 318H311V124H277V318H87V350H277V544H311V350H501V318ZM87 0V32H501V0H87Z" />
<glyph unicode="&#xb2;" glyph-name="uni00B2" horiz-adv-x="285" d="M225 530H243V445H32V468Q32 507 42 530T73 569T127 605Q152 619 171 638T191 694Q191 734 176 752T135 770Q101 770 88 747T79 679L31 687Q24 727 50 758T135 790Q194 790 218 762T243 696Q243
661 226 640T183 605T132 578Q93 559 78 536T60 477H190Q207 477 211 479T217 490L225 530Z" />
<glyph unicode="&#xb3;" glyph-name="uni00B3" horiz-adv-x="291" d="M116 610H102V630H116Q158 630 175 650T193 703Q193 770 135 770Q100 770 87 747T78 679L30 687Q23 727 49 758T136 790Q195 790 220 764T245 703Q245 639 174 620Q212 611 232 589T252 530Q252
495 226 468T138 440Q102 440 73 455T30 510L60 520Q66 486 89 473T137 460Q200 460 200 530Q200 565 181 587T116 610Z" />
<glyph unicode="&#xb4;" glyph-name="acute" horiz-adv-x="500" d="M249 579L230 598Q257 632 272 663T301 740H377Q323 652 249 579Z" />
<glyph unicode="&#xb5;" glyph-name="uni00B5" horiz-adv-x="606" d="M330 462V487H487V107Q487 56 500 43T530 30Q538 30 549 34T571 48L589 24Q575 11 556 3T511 -5Q475 -5 454 16T428 74Q389 30 346 10T258 -10Q190 -10 152 31Q153 -24 155 -61T164 -129T180
-193L112 -213V408Q112 443 109 449T90 457L35 462V487H172V161Q172 85 196 56T267 27Q304 27 344 46T427 118V408Q427 443 424 449T405 457L330 462Z" />
<glyph unicode="&#xb6;" glyph-name="paragraph" horiz-adv-x="555" d="M41 502Q41 583 91 631T234 680H506V655L451 650Q435 649 432 643T429 601V-64Q429 -99 432 -105T451 -113L506 -118V-143H267V-118L342 -113Q358 -112 361 -106T364 -64V650H293V290H234Q142
290 92 339T41 469V502Z" />
<glyph unicode="&#xb7;" glyph-name="middot" horiz-adv-x="500" d="M250 339Q231 339 218 352T205 385Q205 405 218 417T250 430Q270 430 283 418T296 385Q296 365 283 352T250 339Z" />
<glyph unicode="&#xb8;" glyph-name="cedilla" horiz-adv-x="500" d="M355 -141Q355 -179 326 -201T250 -223Q213 -223 183 -206T145 -145L189 -132Q193 -168 208 -183T248 -198Q277 -198 289 -182T302 -141Q302 -117 289 -102T241 -86Q226 -86 216 -88L207 -63L233
0H265L240 -60H244Q294 -60 324 -81T355 -141Z" />
<glyph unicode="&#xb9;" glyph-name="uni00B9" horiz-adv-x="201" d="M25 746L89 785H131V490Q131 472 133 469T142 465L170 463V445H35V463L73 465Q81 466 82 469T84 490V758L36 729L25 746Z" />
<glyph unicode="&#xba;" glyph-name="ordmasculine" horiz-adv-x="398" d="M343 517V504Q343 427 305 381T199 335Q130 335 93 381T55 504V517Q55 594 92 639T199 685Q268 685 305 640T343 517ZM290 531Q290 602 268 631T199 661Q153 661 131 632T108 531V490Q108
419 130 389T199 359Q246 359 268 389T290 490V531Z" />
<glyph unicode="&#xbb;" glyph-name="guillemotright" horiz-adv-x="642" d="M59 463L74 479L336 257V233L74 11L59 27L259 245L59 463ZM309 463L324 479L586 257V233L324 11L309 27L509 245L309 463Z" />
<glyph unicode="&#xbc;" glyph-name="onequarter" horiz-adv-x="531" d="M25 641L89 680H131V385Q131 367 133 364T142 360L170 358V340H35V358L73 360Q81 361 82 364T84 385V653L36 624L25 641ZM432 680L457 664L81 0L56 16L432 680ZM433 45V83H281V103Q315 141
339 175T379 248T403 340H458Q444 270 401 214T304 103H433V184L480 189V103H519V83H480V45Q480 27 482 24T491 20L519 18V0H394V18L422 20Q430 21 431 24T433 45Z" />
<glyph unicode="&#xbd;" glyph-name="onehalf" horiz-adv-x="567" d="M25 641L89 680H131V385Q131 367 133 364T142 360L170 358V340H35V358L73 360Q81 361 82 364T84 385V653L36 624L25 641ZM432 680L457 664L81 0L56 16L432 680ZM507 85H525V0H314V23Q314 62
324 85T355 124T409 160Q434 174 453 193T473 249Q473 289 458 307T417 325Q383 325 370 302T361 234L313 242Q306 282 332 313T417 345Q476 345 500 317T525 251Q525 216 508 195T465 160T414 133Q375 114 360 91T342 32H472Q489 32 493 34T499 45L507 85Z" />
<glyph unicode="&#xbe;" glyph-name="threequarters" horiz-adv-x="591" d="M116 505H102V525H116Q158 525 175 545T193 598Q193 665 135 665Q100 665 87 642T78 574L30 582Q23 622 49 653T136 685Q195 685 220 659T245 598Q245 534 174 515Q212 506 232 484T252
425Q252 390 226 363T138 335Q102 335 73 350T30 405L60 415Q66 381 89 368T137 355Q200 355 200 425Q200 460 181 482T116 505ZM492 680L517 664L141 0L116 16L492 680ZM493 45V83H341V103Q375 141 399 175T439 248T463 340H518Q504 270 461 214T364 103H493V184L540
189V103H579V83H540V45Q540 27 542 24T551 20L579 18V0H454V18L482 20Q490 21 491 24T493 45Z" />
<glyph unicode="&#xbf;" glyph-name="questiondown" horiz-adv-x="471" d="M243 497Q263 497 276 484T290 449Q290 429 277 416T243 402Q222 402 209 415T195 449Q195 470 208 483T243 497ZM220 315H263V289Q263 243 249 214T213 164T170 121T134 67T119 -16Q119
-96 150 -134T240 -173Q314 -173 343 -123T363 20L423 4Q433 -50 416 -97T354 -173T239 -203Q171 -203 129 -178T68 -113T49 -27Q49 21 62 52T97 105T142 144T186 179T216 223T223 288L220 315Z" />
<glyph unicode="&#xc0;" glyph-name="Agrave" horiz-adv-x="622" d="M189 25V0H0V25L55 30Q66 31 71 33T80 46T92 79L287 680H334L531 79Q539 56 543 46T552 34T567 30L622 25V0H401V25L456 30Q473 32 474 38T464 79L421 210H168L126 79Q115 45 116 39T134 30L189
25ZM178 240H412L295 600L178 240ZM312 772Q238 845 184 933H260Q273 887 288 856T331 791L312 772Z" />
<glyph unicode="&#xc1;" glyph-name="Aacute" horiz-adv-x="622" d="M189 25V0H0V25L55 30Q66 31 71 33T80 46T92 79L287 680H334L531 79Q539 56 543 46T552 34T567 30L622 25V0H401V25L456 30Q473 32 474 38T464 79L421 210H168L126 79Q115 45 116 39T134 30L189
25ZM178 240H412L295 600L178 240ZM310 772L291 791Q318 825 333 856T362 933H438Q384 845 310 772Z" />
<glyph unicode="&#xc2;" glyph-name="Acircumflex" horiz-adv-x="622" d="M189 25V0H0V25L55 30Q66 31 71 33T80 46T92 79L287 680H334L531 79Q539 56 543 46T552 34T567 30L622 25V0H401V25L456 30Q473 32 474 38T464 79L421 210H168L126 79Q115 45 116 39T134
30L189 25ZM178 240H412L295 600L178 240ZM438 791L419 772Q387 800 360 826T308 878Q286 852 260 827T203 772L184 791Q209 817 225 837T255 879T285 933H337Q353 901 366 879T397 837T438 791Z" />
<glyph unicode="&#xc3;" glyph-name="Atilde" horiz-adv-x="622" d="M189 25V0H0V25L55 30Q66 31 71 33T80 46T92 79L287 680H334L531 79Q539 56 543 46T552 34T567 30L622 25V0H401V25L456 30Q473 32 474 38T464 79L421 210H168L126 79Q115 45 116 39T134 30L189
25ZM178 240H412L295 600L178 240ZM382 786Q357 786 338 800T302 832T270 865T236 879Q218 879 205 861T191 801H162Q164 866 186 897T242 928Q268 928 287 914T322 882T353 849T386 835Q404 835 417 854T431 913H460Q459 848 437 817T382 786Z" />
<glyph unicode="&#xc4;" glyph-name="Adieresis" horiz-adv-x="622" d="M189 25V0H0V25L55 30Q66 31 71 33T80 46T92 79L287 680H334L531 79Q539 56 543 46T552 34T567 30L622 25V0H401V25L456 30Q473 32 474 38T464 79L421 210H168L126 79Q115 45 116 39T134
30L189 25ZM178 240H412L295 600L178 240ZM207 812Q188 812 176 824T164 856Q164 875 176 887T207 899Q227 899 239 887T251 856Q251 837 239 825T207 812ZM406 812Q387 812 375 824T363 856Q363 875 375 887T406 899Q426 899 438 887T450 856Q450 837 438 825T406
812Z" />
<glyph unicode="&#xc5;" glyph-name="Aring" horiz-adv-x="622" d="M189 25V0H0V25L55 30Q66 31 71 33T80 46T92 79L280 658Q238 667 215 696T192 760V771Q192 797 206 820T246 859T310 875Q347 875 373 860T414 821T428 771V760Q428 727 405 698T341 658L531
79Q539 56 543 46T552 34T567 30L622 25V0H401V25L456 30Q473 32 474 38T464 79L421 210H168L126 79Q115 45 116 39T134 30L189 25ZM377 778Q377 812 360 831T310 850Q279 850 262 831T244 778V753Q244 719 261 700T310 680Q342 680 359 699T377 753V778ZM178 240H412L295
600L178 240Z" />
<glyph unicode="&#xc6;" glyph-name="AE" horiz-adv-x="875" d="M827 157V0H362V25L417 30Q433 32 436 38T439 79V210H211L140 79Q122 45 122 39T138 30L193 25V0H0V25L55 30Q66 31 71 33T83 46T102 79L384 601Q403 636 403 642T388 650L333 655V680H817V523H793L766
624Q762 641 755 645T712 650H504V359H652Q676 359 686 360T699 367T706 385L723 456H747V232H723L706 303Q703 315 700 320T686 327T652 329H504V30H722Q757 30 764 34T776 56L803 157H827ZM227 240H439V632L227 240Z" />
<glyph unicode="&#xc7;" glyph-name="Ccedilla" horiz-adv-x="579" d="M431 -141Q431 -179 402 -201T326 -223Q289 -223 259 -206T221 -145L265 -132Q269 -168 284 -183T324 -198Q353 -198 365 -182T378 -141Q378 -117 365 -102T317 -86Q302 -86 292 -88L283 -63L305
-9Q193 -3 137 80T80 299V382Q80 475 108 544T189 652T320 690Q394 690 441 661T509 584T519 483L454 467Q465 560 431 610T322 660Q239 660 196 607T153 432V249Q153 128 197 74T326 20Q359 20 390 31T443 70T470 144L526 131Q505 58 454 26T337 -10L316 -60H320Q370
-60 400 -81T431 -141Z" />
<glyph unicode="&#xc8;" glyph-name="Egrave" horiz-adv-x="565" d="M496 157H520V0H52V25L107 30Q123 32 126 38T129 79V601Q129 636 126 642T107 650L52 655V680H506V523H482L455 624Q451 641 444 645T401 650H194V359H342Q366 359 376 360T389 367T396 385L413
456H437V232H413L396 303Q393 315 390 320T376 327T342 329H194V30H415Q450 30 457 34T469 56L496 157ZM304 772Q230 845 176 933H252Q265 887 280 856T323 791L304 772Z" />
<glyph unicode="&#xc9;" glyph-name="Eacute" horiz-adv-x="565" d="M496 157H520V0H52V25L107 30Q123 32 126 38T129 79V601Q129 636 126 642T107 650L52 655V680H506V523H482L455 624Q451 641 444 645T401 650H194V359H342Q366 359 376 360T389 367T396 385L413
456H437V232H413L396 303Q393 315 390 320T376 327T342 329H194V30H415Q450 30 457 34T469 56L496 157ZM302 772L283 791Q310 825 325 856T354 933H430Q376 845 302 772Z" />
<glyph unicode="&#xca;" glyph-name="Ecircumflex" horiz-adv-x="565" d="M496 157H520V0H52V25L107 30Q123 32 126 38T129 79V601Q129 636 126 642T107 650L52 655V680H506V523H482L455 624Q451 641 444 645T401 650H194V359H342Q366 359 376 360T389 367T396
385L413 456H437V232H413L396 303Q393 315 390 320T376 327T342 329H194V30H415Q450 30 457 34T469 56L496 157ZM430 791L411 772Q379 800 352 826T300 878Q278 852 252 827T195 772L176 791Q201 817 217 837T247 879T277 933H329Q345 901 358 879T389 837T430
791Z" />
<glyph unicode="&#xcb;" glyph-name="Edieresis" horiz-adv-x="565" d="M496 157H520V0H52V25L107 30Q123 32 126 38T129 79V601Q129 636 126 642T107 650L52 655V680H506V523H482L455 624Q451 641 444 645T401 650H194V359H342Q366 359 376 360T389 367T396 385L413
456H437V232H413L396 303Q393 315 390 320T376 327T342 329H194V30H415Q450 30 457 34T469 56L496 157ZM203 812Q184 812 172 824T160 856Q160 875 172 887T203 899Q223 899 235 887T247 856Q247 837 235 825T203 812ZM402 812Q383 812 371 824T359 856Q359 875
371 887T402 899Q422 899 434 887T446 856Q446 837 434 825T402 812Z" />
<glyph unicode="&#xcc;" glyph-name="Igrave" horiz-adv-x="323" d="M52 655V680H271V655L216 650Q200 649 197 643T194 601V79Q194 44 197 38T216 30L271 25V0H52V25L107 30Q123 32 126 38T129 79V601Q129 636 126 642T107 650L52 655ZM163 772Q89 845 35 933H111Q124
887 139 856T182 791L163 772Z" />
<glyph unicode="&#xcd;" glyph-name="Iacute" horiz-adv-x="323" d="M52 655V680H271V655L216 650Q200 649 197 643T194 601V79Q194 44 197 38T216 30L271 25V0H52V25L107 30Q123 32 126 38T129 79V601Q129 636 126 642T107 650L52 655ZM161 772L142 791Q169 825
184 856T213 933H289Q235 845 161 772Z" />
<glyph unicode="&#xce;" glyph-name="Icircumflex" horiz-adv-x="323" d="M52 655V680H271V655L216 650Q200 649 197 643T194 601V79Q194 44 197 38T216 30L271 25V0H52V25L107 30Q123 32 126 38T129 79V601Q129 636 126 642T107 650L52 655ZM289 791L270 772Q238
800 211 826T159 878Q137 852 111 827T54 772L35 791Q60 817 76 837T106 879T136 933H188Q204 901 217 879T248 837T289 791Z" />
<glyph unicode="&#xcf;" glyph-name="Idieresis" horiz-adv-x="323" d="M52 655V680H271V655L216 650Q200 649 197 643T194 601V79Q194 44 197 38T216 30L271 25V0H52V25L107 30Q123 32 126 38T129 79V601Q129 636 126 642T107 650L52 655ZM62 812Q43 812 31 824T19
856Q19 875 31 887T62 899Q82 899 94 887T106 856Q106 837 94 825T62 812ZM261 812Q242 812 230 824T218 856Q218 875 230 887T261 899Q281 899 293 887T305 856Q305 837 293 825T261 812Z" />
<glyph unicode="&#xd0;" glyph-name="Eth" horiz-adv-x="655" d="M55 655V680H332Q410 680 464 643T546 539T575 382V299Q575 209 547 142T464 37T332 0H55V25L110 30Q126 32 129 38T132 79V339H55V369H132V601Q132 636 129 642T110 650L55 655ZM359 339H197V30H332Q415
30 458 81T502 249V432Q502 549 459 599T332 650H197V369H359V339Z" />
<glyph unicode="&#xd1;" glyph-name="Ntilde" horiz-adv-x="695" d="M459 655V680H648V655L593 650Q577 649 574 643T571 601V0H526L164 630V79Q164 45 167 39T186 30L241 25V0H52V25L107 30Q123 32 126 38T129 79V601Q129 636 126 642T107 650L52 655V680H206L536
106V601Q536 636 533 642T514 650L459 655ZM423 786Q398 786 379 800T343 832T311 865T277 879Q259 879 246 861T232 801H203Q205 866 227 897T283 928Q309 928 328 914T363 882T394 849T427 835Q445 835 458 854T472 913H501Q500 848 478 817T423 786Z" />
<glyph unicode="&#xd2;" glyph-name="Ograve" horiz-adv-x="662" d="M582 382V299Q582 206 553 137T467 29T331 -10Q250 -10 194 28T109 136T80 299V382Q80 475 109 544T194 652T331 690Q411 690 467 652T552 545T582 382ZM509 432Q509 554 463 607T331 660Q246
660 200 607T153 432V249Q153 128 199 74T331 20Q417 20 463 74T509 249V432ZM332 772Q258 845 204 933H280Q293 887 308 856T351 791L332 772Z" />
<glyph unicode="&#xd3;" glyph-name="Oacute" horiz-adv-x="662" d="M582 382V299Q582 206 553 137T467 29T331 -10Q250 -10 194 28T109 136T80 299V382Q80 475 109 544T194 652T331 690Q411 690 467 652T552 545T582 382ZM509 432Q509 554 463 607T331 660Q246
660 200 607T153 432V249Q153 128 199 74T331 20Q417 20 463 74T509 249V432ZM330 772L311 791Q338 825 353 856T382 933H458Q404 845 330 772Z" />
<glyph unicode="&#xd4;" glyph-name="Ocircumflex" horiz-adv-x="662" d="M582 382V299Q582 206 553 137T467 29T331 -10Q250 -10 194 28T109 136T80 299V382Q80 475 109 544T194 652T331 690Q411 690 467 652T552 545T582 382ZM509 432Q509 554 463 607T331 660Q246
660 200 607T153 432V249Q153 128 199 74T331 20Q417 20 463 74T509 249V432ZM458 791L439 772Q407 800 380 826T328 878Q306 852 280 827T223 772L204 791Q229 817 245 837T275 879T305 933H357Q373 901 386 879T417 837T458 791Z" />
<glyph unicode="&#xd5;" glyph-name="Otilde" horiz-adv-x="662" d="M582 382V299Q582 206 553 137T467 29T331 -10Q250 -10 194 28T109 136T80 299V382Q80 475 109 544T194 652T331 690Q411 690 467 652T552 545T582 382ZM509 432Q509 554 463 607T331 660Q246
660 200 607T153 432V249Q153 128 199 74T331 20Q417 20 463 74T509 249V432ZM402 786Q377 786 358 800T322 832T290 865T256 879Q238 879 225 861T211 801H182Q184 866 206 897T262 928Q288 928 307 914T342 882T373 849T406 835Q424 835 437 854T451 913H480Q479
848 457 817T402 786Z" />
<glyph unicode="&#xd6;" glyph-name="Odieresis" horiz-adv-x="662" d="M582 382V299Q582 206 553 137T467 29T331 -10Q250 -10 194 28T109 136T80 299V382Q80 475 109 544T194 652T331 690Q411 690 467 652T552 545T582 382ZM509 432Q509 554 463 607T331 660Q246
660 200 607T153 432V249Q153 128 199 74T331 20Q417 20 463 74T509 249V432ZM231 812Q212 812 200 824T188 856Q188 875 200 887T231 899Q251 899 263 887T275 856Q275 837 263 825T231 812ZM430 812Q411 812 399 824T387 856Q387 875 399 887T430 899Q450 899
462 887T474 856Q474 837 462 825T430 812Z" />
<glyph unicode="&#xd7;" glyph-name="multiply" horiz-adv-x="588" d="M481 171L457 147L294 310L131 147L107 171L270 334L107 497L131 521L294 358L457 521L481 497L318 334L481 171Z" />
<glyph unicode="&#xd8;" glyph-name="Oslash" horiz-adv-x="662" d="M582 299Q582 206 553 137T467 29T331 -10Q224 -10 159 58L120 0H80L137 85Q80 167 80 299V382Q80 475 109 544T194 652T331 690Q385 690 428 673T502 622L542 680H582L524 595Q582 514 582
382V299ZM153 249Q153 178 169 131L478 585Q456 624 419 642T331 660Q246 660 200 607T153 432V249ZM509 432Q509 504 493 549L185 95Q207 56 244 38T331 20Q417 20 463 74T509 249V432Z" />
<glyph unicode="&#xd9;" glyph-name="Ugrave" horiz-adv-x="673" d="M446 655V680H635V655L580 650Q564 649 561 643T558 601V231Q558 122 505 56T341 -10Q226 -10 171 61T115 251V601Q115 636 112 642T93 650L38 655V680H257V655L202 650Q186 649 183 643T180
601V231Q180 127 219 74T347 21Q439 21 481 78T523 231V601Q523 636 520 642T501 650L446 655ZM351 772Q277 845 223 933H299Q312 887 327 856T370 791L351 772Z" />
<glyph unicode="&#xda;" glyph-name="Uacute" horiz-adv-x="673" d="M446 655V680H635V655L580 650Q564 649 561 643T558 601V231Q558 122 505 56T341 -10Q226 -10 171 61T115 251V601Q115 636 112 642T93 650L38 655V680H257V655L202 650Q186 649 183 643T180
601V231Q180 127 219 74T347 21Q439 21 481 78T523 231V601Q523 636 520 642T501 650L446 655ZM349 772L330 791Q357 825 372 856T401 933H477Q423 845 349 772Z" />
<glyph unicode="&#xdb;" glyph-name="Ucircumflex" horiz-adv-x="673" d="M446 655V680H635V655L580 650Q564 649 561 643T558 601V231Q558 122 505 56T341 -10Q226 -10 171 61T115 251V601Q115 636 112 642T93 650L38 655V680H257V655L202 650Q186 649 183 643T180
601V231Q180 127 219 74T347 21Q439 21 481 78T523 231V601Q523 636 520 642T501 650L446 655ZM477 791L458 772Q426 800 399 826T347 878Q325 852 299 827T242 772L223 791Q248 817 264 837T294 879T324 933H376Q392 901 405 879T436 837T477 791Z" />
<glyph unicode="&#xdc;" glyph-name="Udieresis" horiz-adv-x="673" d="M446 655V680H635V655L580 650Q564 649 561 643T558 601V231Q558 122 505 56T341 -10Q226 -10 171 61T115 251V601Q115 636 112 642T93 650L38 655V680H257V655L202 650Q186 649 183 643T180
601V231Q180 127 219 74T347 21Q439 21 481 78T523 231V601Q523 636 520 642T501 650L446 655ZM250 812Q231 812 219 824T207 856Q207 875 219 887T250 899Q270 899 282 887T294 856Q294 837 282 825T250 812ZM449 812Q430 812 418 824T406 856Q406 875 418 887T449
899Q469 899 481 887T493 856Q493 837 481 825T449 812Z" />
<glyph unicode="&#xdd;" glyph-name="Yacute" horiz-adv-x="570" d="M395 25V0H176V25L231 30Q247 32 250 38T253 79V290L90 611Q77 638 71 643T49 650L0 655V680H214V655L165 650Q150 649 150 644T162 611L303 328L444 611Q458 638 457 643T441 650L392 655V680H570V655L521
650Q505 649 500 644T480 611L318 290V79Q318 44 321 38T340 30L395 25ZM299 772L280 791Q307 825 322 856T351 933H427Q373 845 299 772Z" />
<glyph unicode="&#xde;" glyph-name="Thorn" horiz-adv-x="558" d="M52 655V680H291V655L216 650Q200 649 197 643T194 601V536H324Q416 536 466 488T517 358V325Q517 244 467 195T324 146H194V79Q194 44 197 38T216 30L291 25V0H52V25L107 30Q123 32 126 38T129
79V601Q129 636 126 642T107 650L52 655ZM324 506H194V176H324Q386 176 417 209T449 315V368Q449 440 418 473T324 506Z" />
<glyph unicode="&#xdf;" glyph-name="germandbls" horiz-adv-x="615" d="M181 581V0H44V25L99 30Q115 32 118 38T121 79V408Q121 443 118 449T99 457L44 462V487H121V571Q121 618 135 659T188 725T294 750Q355 750 391 731T443 682T459 621Q459 587 446 560T415
508T384 456T370 396Q370 364 387 346T441 300L484 268Q522 240 546 205T570 121Q570 66 534 28T427 -10Q361 -10 318 20T261 111L310 127Q323 63 353 41T426 19Q464 19 493 41T523 108Q523 133 508 157T453 211L411 243Q374 272 349 298T323 370Q323 403 335 429T362
482T390 540T402 615Q402 643 394 667T362 705T294 720Q259 720 234 709T195 667T181 581Z" />
<glyph unicode="&#xe0;" glyph-name="agrave" horiz-adv-x="542" d="M452 -5Q418 -5 396 14T369 69Q332 27 289 9T204 -10Q134 -10 102 29T69 122Q69 181 108 214T241 247H368V328Q368 408 337 437T253 467Q219 467 193 456T155 414T149 326L91 336Q85 406 127
451T255 497Q324 497 361 474T413 412T428 328V107Q428 56 441 43T471 30Q479 30 490 34T512 48L530 24Q516 11 497 3T452 -5ZM221 25Q250 25 287 41T368 112V217H249Q188 217 160 196T132 127Q132 79 154 52T221 25ZM262 579Q188 652 134 740H210Q223 694 238
663T281 598L262 579Z" />
<glyph unicode="&#xe1;" glyph-name="aacute" horiz-adv-x="542" d="M452 -5Q418 -5 396 14T369 69Q332 27 289 9T204 -10Q134 -10 102 29T69 122Q69 181 108 214T241 247H368V328Q368 408 337 437T253 467Q219 467 193 456T155 414T149 326L91 336Q85 406 127
451T255 497Q324 497 361 474T413 412T428 328V107Q428 56 441 43T471 30Q479 30 490 34T512 48L530 24Q516 11 497 3T452 -5ZM221 25Q250 25 287 41T368 112V217H249Q188 217 160 196T132 127Q132 79 154 52T221 25ZM260 579L241 598Q268 632 283 663T312 740H388Q334
652 260 579Z" />
<glyph unicode="&#xe2;" glyph-name="acircumflex" horiz-adv-x="542" d="M452 -5Q418 -5 396 14T369 69Q332 27 289 9T204 -10Q134 -10 102 29T69 122Q69 181 108 214T241 247H368V328Q368 408 337 437T253 467Q219 467 193 456T155 414T149 326L91 336Q85 406
127 451T255 497Q324 497 361 474T413 412T428 328V107Q428 56 441 43T471 30Q479 30 490 34T512 48L530 24Q516 11 497 3T452 -5ZM221 25Q250 25 287 41T368 112V217H249Q188 217 160 196T132 127Q132 79 154 52T221 25ZM388 598L369 579Q337 607 310 633T258
685Q236 659 210 634T153 579L134 598Q159 624 175 644T205 686T235 740H287Q303 708 316 686T347 644T388 598Z" />
<glyph unicode="&#xe3;" glyph-name="atilde" horiz-adv-x="542" d="M452 -5Q418 -5 396 14T369 69Q332 27 289 9T204 -10Q134 -10 102 29T69 122Q69 181 108 214T241 247H368V328Q368 408 337 437T253 467Q219 467 193 456T155 414T149 326L91 336Q85 406 127
451T255 497Q324 497 361 474T413 412T428 328V107Q428 56 441 43T471 30Q479 30 490 34T512 48L530 24Q516 11 497 3T452 -5ZM221 25Q250 25 287 41T368 112V217H249Q188 217 160 196T132 127Q132 79 154 52T221 25ZM332 593Q307 593 288 607T252 639T220 672T186
686Q168 686 155 668T141 608H112Q114 673 136 704T192 735Q218 735 237 721T272 689T303 656T336 642Q354 642 367 661T381 720H410Q409 655 387 624T332 593Z" />
<glyph unicode="&#xe4;" glyph-name="adieresis" horiz-adv-x="542" d="M452 -5Q418 -5 396 14T369 69Q332 27 289 9T204 -10Q134 -10 102 29T69 122Q69 181 108 214T241 247H368V328Q368 408 337 437T253 467Q219 467 193 456T155 414T149 326L91 336Q85 406
127 451T255 497Q324 497 361 474T413 412T428 328V107Q428 56 441 43T471 30Q479 30 490 34T512 48L530 24Q516 11 497 3T452 -5ZM221 25Q250 25 287 41T368 112V217H249Q188 217 160 196T132 127Q132 79 154 52T221 25ZM161 619Q142 619 130 631T118 663Q118
682 130 694T161 706Q181 706 193 694T205 663Q205 644 193 632T161 619ZM360 619Q341 619 329 631T317 663Q317 682 329 694T360 706Q380 706 392 694T404 663Q404 644 392 632T360 619Z" />
<glyph unicode="&#xe5;" glyph-name="aring" horiz-adv-x="542" d="M452 -5Q418 -5 396 14T369 69Q332 27 289 9T204 -10Q134 -10 102 29T69 122Q69 181 108 214T241 247H368V328Q368 408 337 437T253 467Q219 467 193 456T155 414T149 326L91 336Q85 406 127
451T255 497Q324 497 361 474T413 412T428 328V107Q428 56 441 43T471 30Q479 30 490 34T512 48L530 24Q516 11 497 3T452 -5ZM221 25Q250 25 287 41T368 112V217H249Q188 217 160 196T132 127Q132 79 154 52T221 25ZM379 677V666Q379 640 365 616T325 577T261
561Q224 561 198 576T157 616T143 666V677Q143 703 157 726T197 765T261 781Q298 781 324 766T365 727T379 677ZM328 684Q328 718 311 737T261 756Q230 756 213 737T195 684V659Q195 625 212 606T261 586Q293 586 310 605T328 659V684Z" />
<glyph unicode="&#xe6;" glyph-name="ae" horiz-adv-x="820" d="M750 111Q732 44 683 17T575 -10Q508 -10 463 18T394 98Q351 40 302 15T204 -10Q134 -10 102 29T69 122Q69 181 108 214T241 247H368V328Q368 408 337 437T253 467Q219 467 193 456T155 414T149
326L91 336Q85 406 127 451T255 497Q323 497 359 472T409 406Q432 449 471 473T566 497Q617 497 660 476T729 413T755 306Q755 278 749 245H436V214Q436 111 469 66T580 20Q629 20 660 43T704 124L750 111ZM566 467Q500 467 468 423T436 275H690V279Q691 288 691
297T692 314Q692 396 657 431T566 467ZM221 25Q254 25 295 45T382 129Q376 149 373 171T368 217H249Q188 217 160 196T132 127Q132 79 154 52T221 25Z" />
<glyph unicode="&#xe7;" glyph-name="ccedilla" horiz-adv-x="502" d="M386 -141Q386 -179 357 -201T281 -223Q244 -223 214 -206T176 -145L220 -132Q224 -168 239 -183T279 -198Q308 -198 320 -182T333 -141Q333 -117 320 -102T272 -86Q257 -86 247 -88L238 -63L260
-10Q165 -5 118 61T71 234V254Q71 364 121 430T269 497Q329 497 369 474T428 410T438 318L381 309Q392 386 363 426T269 467Q208 467 174 423T139 274V214Q139 111 171 66T279 20Q327 20 356 43T399 124L445 111Q429 50 386 23T292 -9L271 -60H275Q325 -60 355
-81T386 -141Z" />
<glyph unicode="&#xe8;" glyph-name="egrave" horiz-adv-x="523" d="M453 111Q435 44 386 17T278 -10Q174 -10 123 56T71 234V254Q71 364 121 430T269 497Q320 497 363 476T432 413T458 306Q458 278 452 245H139V214Q139 111 172 66T283 20Q332 20 363 43T407
124L453 111ZM269 467Q203 467 171 423T139 275H393Q394 287 394 296T395 314Q395 396 360 431T269 467ZM268 579Q194 652 140 740H216Q229 694 244 663T287 598L268 579Z" />
<glyph unicode="&#xe9;" glyph-name="eacute" horiz-adv-x="523" d="M453 111Q435 44 386 17T278 -10Q174 -10 123 56T71 234V254Q71 364 121 430T269 497Q320 497 363 476T432 413T458 306Q458 278 452 245H139V214Q139 111 172 66T283 20Q332 20 363 43T407
124L453 111ZM269 467Q203 467 171 423T139 275H393Q394 287 394 296T395 314Q395 396 360 431T269 467ZM266 579L247 598Q274 632 289 663T318 740H394Q340 652 266 579Z" />
<glyph unicode="&#xea;" glyph-name="ecircumflex" horiz-adv-x="523" d="M453 111Q435 44 386 17T278 -10Q174 -10 123 56T71 234V254Q71 364 121 430T269 497Q320 497 363 476T432 413T458 306Q458 278 452 245H139V214Q139 111 172 66T283 20Q332 20 363 43T407
124L453 111ZM269 467Q203 467 171 423T139 275H393Q394 287 394 296T395 314Q395 396 360 431T269 467ZM394 598L375 579Q343 607 316 633T264 685Q242 659 216 634T159 579L140 598Q165 624 181 644T211 686T241 740H293Q309 708 322 686T353 644T394 598Z" />
<glyph unicode="&#xeb;" glyph-name="edieresis" horiz-adv-x="523" d="M453 111Q435 44 386 17T278 -10Q174 -10 123 56T71 234V254Q71 364 121 430T269 497Q320 497 363 476T432 413T458 306Q458 278 452 245H139V214Q139 111 172 66T283 20Q332 20 363 43T407
124L453 111ZM269 467Q203 467 171 423T139 275H393Q394 287 394 296T395 314Q395 396 360 431T269 467ZM167 619Q148 619 136 631T124 663Q124 682 136 694T167 706Q187 706 199 694T211 663Q211 644 199 632T167 619ZM366 619Q347 619 335 631T323 663Q323 682
335 694T366 706Q386 706 398 694T410 663Q410 644 398 632T366 619Z" />
<glyph unicode="&#xec;" glyph-name="igrave" horiz-adv-x="294" d="M43 462V487H180V79Q180 44 183 38T202 30L257 25V0H43V25L98 30Q114 32 117 38T120 79V408Q120 443 117 449T98 457L43 462ZM401 579Q327 652 273 740H349Q362 694 377 663T420 598L401 579Z" />
<glyph unicode="&#xed;" glyph-name="iacute" horiz-adv-x="294" d="M43 462V487H180V79Q180 44 183 38T202 30L257 25V0H43V25L98 30Q114 32 117 38T120 79V408Q120 443 117 449T98 457L43 462ZM399 579L380 598Q407 632 422 663T451 740H527Q473 652 399 579Z" />
<glyph unicode="&#xee;" glyph-name="icircumflex" horiz-adv-x="294" d="M43 462V487H180V79Q180 44 183 38T202 30L257 25V0H43V25L98 30Q114 32 117 38T120 79V408Q120 443 117 449T98 457L43 462ZM527 598L508 579Q476 607 449 633T397 685Q375 659 349 634T292
579L273 598Q298 624 314 644T344 686T374 740H426Q442 708 455 686T486 644T527 598Z" />
<glyph unicode="&#xef;" glyph-name="idieresis" horiz-adv-x="294" d="M43 462V487H180V79Q180 44 183 38T202 30L257 25V0H43V25L98 30Q114 32 117 38T120 79V408Q120 443 117 449T98 457L43 462ZM300 619Q281 619 269 631T257 663Q257 682 269 694T300 706Q320
706 332 694T344 663Q344 644 332 632T300 619ZM499 619Q480 619 468 631T456 663Q456 682 468 694T499 706Q519 706 531 694T543 663Q543 644 531 632T499 619Z" />
<glyph unicode="&#xf0;" glyph-name="eth" horiz-adv-x="558" d="M485 264Q485 140 432 65T275 -10Q177 -10 123 49T69 209V229Q69 328 122 387T271 447Q309 447 344 434T411 392Q400 469 371 525T304 623L183 534L167 559L283 644Q255 671 225 691T164 726L174
750Q212 733 246 712T311 665L427 750L443 725L334 645Q404 580 444 490T485 284V264ZM137 189Q137 99 173 60T275 20Q348 20 382 72T417 244V304Q417 315 417 325T416 345Q380 389 344 403T271 417Q208 417 173 379T137 249V189Z" />
<glyph unicode="&#xf1;" glyph-name="ntilde" horiz-adv-x="613" d="M582 25V0H368V25L423 30Q439 32 442 38T445 79V326Q445 403 419 433T345 463Q307 463 265 444T180 372V79Q180 44 183 38T202 30L257 25V0H43V25L98 30Q114 32 117 38T120 79V408Q120 443 117
449T98 457L43 462V487H176V409Q217 456 262 476T354 497Q428 497 466 453T505 327V79Q505 44 508 38T527 30L582 25ZM384 593Q359 593 340 607T304 639T272 672T238 686Q220 686 207 668T193 608H164Q166 673 188 704T244 735Q270 735 289 721T324 689T355 656T388
642Q406 642 419 661T433 720H462Q461 655 439 624T384 593Z" />
<glyph unicode="&#xf2;" glyph-name="ograve" horiz-adv-x="554" d="M485 254V234Q485 123 431 57T277 -10Q177 -10 123 56T69 234V254Q69 364 123 430T277 497Q377 497 431 431T485 254ZM417 274Q417 378 381 422T277 467Q210 467 174 423T137 274V214Q137 111
173 66T277 20Q345 20 381 65T417 214V274ZM278 579Q204 652 150 740H226Q239 694 254 663T297 598L278 579Z" />
<glyph unicode="&#xf3;" glyph-name="oacute" horiz-adv-x="554" d="M485 254V234Q485 123 431 57T277 -10Q177 -10 123 56T69 234V254Q69 364 123 430T277 497Q377 497 431 431T485 254ZM417 274Q417 378 381 422T277 467Q210 467 174 423T137 274V214Q137 111
173 66T277 20Q345 20 381 65T417 214V274ZM276 579L257 598Q284 632 299 663T328 740H404Q350 652 276 579Z" />
<glyph unicode="&#xf4;" glyph-name="ocircumflex" horiz-adv-x="554" d="M485 254V234Q485 123 431 57T277 -10Q177 -10 123 56T69 234V254Q69 364 123 430T277 497Q377 497 431 431T485 254ZM417 274Q417 378 381 422T277 467Q210 467 174 423T137 274V214Q137
111 173 66T277 20Q345 20 381 65T417 214V274ZM404 598L385 579Q353 607 326 633T274 685Q252 659 226 634T169 579L150 598Q175 624 191 644T221 686T251 740H303Q319 708 332 686T363 644T404 598Z" />
<glyph unicode="&#xf5;" glyph-name="otilde" horiz-adv-x="554" d="M485 254V234Q485 123 431 57T277 -10Q177 -10 123 56T69 234V254Q69 364 123 430T277 497Q377 497 431 431T485 254ZM417 274Q417 378 381 422T277 467Q210 467 174 423T137 274V214Q137 111
173 66T277 20Q345 20 381 65T417 214V274ZM348 593Q323 593 304 607T268 639T236 672T202 686Q184 686 171 668T157 608H128Q130 673 152 704T208 735Q234 735 253 721T288 689T319 656T352 642Q370 642 383 661T397 720H426Q425 655 403 624T348 593Z" />
<glyph unicode="&#xf6;" glyph-name="odieresis" horiz-adv-x="554" d="M485 254V234Q485 123 431 57T277 -10Q177 -10 123 56T69 234V254Q69 364 123 430T277 497Q377 497 431 431T485 254ZM417 274Q417 378 381 422T277 467Q210 467 174 423T137 274V214Q137
111 173 66T277 20Q345 20 381 65T417 214V274ZM177 619Q158 619 146 631T134 663Q134 682 146 694T177 706Q197 706 209 694T221 663Q221 644 209 632T177 619ZM376 619Q357 619 345 631T333 663Q333 682 345 694T376 706Q396 706 408 694T420 663Q420 644 408
632T376 619Z" />
<glyph unicode="&#xf7;" glyph-name="divide" horiz-adv-x="588" d="M294 493Q274 493 261 506T247 541Q247 561 260 574T294 588Q315 588 328 575T342 541Q342 520 329 507T294 493ZM87 318V350H501V318H87ZM294 80Q274 80 261 93T247 128Q247 148 260 161T294
175Q315 175 328 162T342 128Q342 107 329 94T294 80Z" />
<glyph unicode="&#xf8;" glyph-name="oslash" horiz-adv-x="554" d="M485 234Q485 123 431 57T277 -10Q234 -10 200 3T139 39L109 0H69L118 63Q69 127 69 234V254Q69 364 123 430T277 497Q320 497 354 484T415 448L445 487H485L436 424Q485 360 485 254V234ZM137
214Q137 149 152 107L387 412Q370 441 342 454T277 467Q210 467 174 423T137 274V214ZM417 274Q417 336 403 380L167 75Q184 47 212 34T277 20Q345 20 381 65T417 214V274Z" />
<glyph unicode="&#xf9;" glyph-name="ugrave" horiz-adv-x="595" d="M558 25V0H425V78Q385 32 341 11T252 -10Q181 -10 144 34T106 160V408Q106 443 103 449T84 457L29 462V487H166V161Q166 84 190 54T261 24Q298 24 338 43T421 115V408Q421 443 418 449T399 457L324
462V487H481V79Q481 44 484 38T503 30L558 25ZM295 579Q221 652 167 740H243Q256 694 271 663T314 598L295 579Z" />
<glyph unicode="&#xfa;" glyph-name="uacute" horiz-adv-x="595" d="M558 25V0H425V78Q385 32 341 11T252 -10Q181 -10 144 34T106 160V408Q106 443 103 449T84 457L29 462V487H166V161Q166 84 190 54T261 24Q298 24 338 43T421 115V408Q421 443 418 449T399 457L324
462V487H481V79Q481 44 484 38T503 30L558 25ZM293 579L274 598Q301 632 316 663T345 740H421Q367 652 293 579Z" />
<glyph unicode="&#xfb;" glyph-name="ucircumflex" horiz-adv-x="595" d="M558 25V0H425V78Q385 32 341 11T252 -10Q181 -10 144 34T106 160V408Q106 443 103 449T84 457L29 462V487H166V161Q166 84 190 54T261 24Q298 24 338 43T421 115V408Q421 443 418 449T399
457L324 462V487H481V79Q481 44 484 38T503 30L558 25ZM421 598L402 579Q370 607 343 633T291 685Q269 659 243 634T186 579L167 598Q192 624 208 644T238 686T268 740H320Q336 708 349 686T380 644T421 598Z" />
<glyph unicode="&#xfc;" glyph-name="udieresis" horiz-adv-x="595" d="M558 25V0H425V78Q385 32 341 11T252 -10Q181 -10 144 34T106 160V408Q106 443 103 449T84 457L29 462V487H166V161Q166 84 190 54T261 24Q298 24 338 43T421 115V408Q421 443 418 449T399
457L324 462V487H481V79Q481 44 484 38T503 30L558 25ZM194 619Q175 619 163 631T151 663Q151 682 163 694T194 706Q214 706 226 694T238 663Q238 644 226 632T194 619ZM393 619Q374 619 362 631T350 663Q350 682 362 694T393 706Q413 706 425 694T437 663Q437
644 425 632T393 619Z" />
<glyph unicode="&#xfd;" glyph-name="yacute" horiz-adv-x="514" d="M265 -50Q233 -141 192 -182T77 -223V-163Q117 -163 145 -154T195 -118T233 -43L248 0H234L84 418Q75 444 70 449T49 456L0 462V487H201V462L152 456Q136 454 135 449T143 418L270 62L396 418Q405
444 404 449T386 456L337 462V487H514V462L465 456Q450 455 446 450T431 418L265 -50ZM268 579L249 598Q276 632 291 663T320 740H396Q342 652 268 579Z" />
<glyph unicode="&#xfe;" glyph-name="thorn" horiz-adv-x="575" d="M34 716V740H171V415Q204 459 242 478T323 497Q411 497 457 434T503 254V234Q503 122 450 56T300 -10Q222 -10 171 45V-134Q171 -169 174 -175T193 -183L268 -188V-213H34V-188L89 -183Q105 -181
108 -175T111 -134V661Q111 696 108 702T89 710L34 716ZM319 467Q284 467 246 447T171 367V96Q218 20 300 20Q371 20 403 69T435 204V284Q435 379 405 423T319 467Z" />
<glyph unicode="&#xff;" glyph-name="ydieresis" horiz-adv-x="514" d="M265 -50Q233 -141 192 -182T77 -223V-163Q117 -163 145 -154T195 -118T233 -43L248 0H234L84 418Q75 444 70 449T49 456L0 462V487H201V462L152 456Q136 454 135 449T143 418L270 62L396
418Q405 444 404 449T386 456L337 462V487H514V462L465 456Q450 455 446 450T431 418L265 -50ZM169 619Q150 619 138 631T126 663Q126 682 138 694T169 706Q189 706 201 694T213 663Q213 644 201 632T169 619ZM368 619Q349 619 337 631T325 663Q325 682 337 694T368
706Q388 706 400 694T412 663Q412 644 400 632T368 619Z" />
<glyph unicode="&#x2013;" glyph-name="endash" horiz-adv-x="618" d="M77 318V352H541V318H77Z" />
<glyph unicode="&#x2014;" glyph-name="emdash" horiz-adv-x="818" d="M77 318V352H741V318H77Z" />
<glyph unicode="&#x2018;" glyph-name="quoteleft" horiz-adv-x="261" d="M171 492Q171 473 159 461T128 449Q109 449 97 462T84 501Q84 541 107 592T167 690L188 672Q159 631 144 599T126 536H128Q147 536 159 524T171 492Z" />
<glyph unicode="&#x2019;" glyph-name="quoteright" horiz-adv-x="261" d="M177 638Q177 598 154 547T94 449L73 467Q102 508 117 540T135 603H133Q114 603 102 615T90 647Q90 666 102 678T133 690Q153 690 165 677T177 638Z" />
<glyph unicode="&#x201a;" glyph-name="quotesinglbase" horiz-adv-x="261" d="M174 25Q174 -15 151 -66T91 -164L70 -146Q99 -105 114 -73T132 -10H130Q111 -10 99 2T87 34Q87 53 99 65T130 77Q150 77 162 64T174 25Z" />
<glyph unicode="&#x201c;" glyph-name="quotedblleft" horiz-adv-x="411" d="M321 492Q321 473 309 461T278 449Q259 449 247 462T234 501Q234 541 257 592T317 690L338 672Q309 631 294 599T276 536H278Q297 536 309 524T321 492ZM171 492Q171 473 159 461T128
449Q109 449 97 462T84 501Q84 541 107 592T167 690L188 672Q159 631 144 599T126 536H128Q147 536 159 524T171 492Z" />
<glyph unicode="&#x201d;" glyph-name="quotedblright" horiz-adv-x="411" d="M177 638Q177 598 154 547T94 449L73 467Q102 508 117 540T135 603H133Q114 603 102 615T90 647Q90 666 102 678T133 690Q153 690 165 677T177 638ZM327 638Q327 598 304 547T244 449L223
467Q252 508 267 540T285 603H283Q264 603 252 615T240 647Q240 666 252 678T283 690Q303 690 315 677T327 638Z" />
<glyph unicode="&#x201e;" glyph-name="quotedblbase" horiz-adv-x="411" d="M174 25Q174 -15 151 -66T91 -164L70 -146Q99 -105 114 -73T132 -10H130Q111 -10 99 2T87 34Q87 53 99 65T130 77Q150 77 162 64T174 25ZM324 25Q324 -15 301 -66T241 -164L220 -146Q249
-105 264 -73T282 -10H280Q261 -10 249 2T237 34Q237 53 249 65T280 77Q300 77 312 64T324 25Z" />
<glyph unicode="&#x2022;" glyph-name="bullet" horiz-adv-x="263" d="M131 267Q103 267 84 286T65 334Q65 363 84 381T131 400Q160 400 179 382T198 334Q198 305 179 286T131 267Z" />
<glyph unicode="&#x2039;" glyph-name="guilsinglleft" horiz-adv-x="392" d="M333 26L318 10L56 232V256L318 478L333 462L133 244L333 26Z" />
<glyph unicode="&#x203a;" glyph-name="guilsinglright" horiz-adv-x="392" d="M59 463L74 479L336 257V233L74 11L59 27L259 245L59 463Z" />
</font>
</defs>
</svg>
