<?xml version="1.0" standalone="no"?>
<!DOCTYPE svg PUBLIC "-//W3C//DTD SVG 1.1//EN" "http://www.w3.org/Graphics/SVG/1.1/DTD/svg11.dtd">
<svg xmlns="http://www.w3.org/2000/svg">
<defs >
<font id="InriaSerif" horiz-adv-x="580" ><font-face
    font-family="Inria Serif"
    units-per-em="1000"
    panose-1="0 0 0 0 0 0 0 0 0 0"
    ascent="976"
    descent="-223"
    alphabetic="0" />
<glyph unicode=" " glyph-name="space" horiz-adv-x="224" />
<glyph unicode="!" glyph-name="exclam" horiz-adv-x="255" d="M136 202H101Q113 270 118 321T124 413T126 494T131 577T145 680H260Q250 622 238 578T213 494T187 414T161 321T136 202ZM88 -10Q57 -10 40 7T23 53Q23 85 43 108T99 131Q130 131 147 114T164 68Q164
36 144 13T88 -10Z" />
<glyph unicode="&quot;" glyph-name="quotedbl" horiz-adv-x="449" d="M168 407H143Q147 426 148 442T149 473Q149 505 144 527T134 569T129 611Q129 643 148 666T199 690Q224 690 239 675T255 630Q255 605 245 586T221 545T192 491T168 407ZM362 407H337Q341
426 342 442T343 473Q343 505 338 527T328 569T323 611Q323 643 342 666T393 690Q418 690 433 675T449 630Q449 605 439 586T415 545T386 491T362 407Z" />
<glyph unicode="#" glyph-name="numbersign" horiz-adv-x="638" d="M541 210H423L317 -10L283 4L382 210H161L55 -10L21 4L120 210H12L18 245H137L228 435H121L127 470H245L351 690L385 676L286 470H507L613 690L647 676L548 470H656L650 435H531L440 245H547L541
210ZM178 245H399L490 435H269L178 245Z" />
<glyph unicode="$" glyph-name="dollar" horiz-adv-x="562" d="M501 200Q501 142 473 94T387 18T246 -10L226 -125H190L210 -9Q158 -4 116 15T51 72T30 171L101 195Q96 136 109 100T151 47T217 26L263 288L215 308Q159 332 128 376T96 488Q96 546 121 591T198
663T328 690H334L354 805H390L369 687Q422 680 456 659T509 607T531 545T526 483L407 462Q431 534 420 583T362 649L318 396L377 371Q436 346 468 304T501 200ZM198 536Q198 492 217 461T284 410L327 655H318Q263 655 231 626T198 536ZM305 270L296 274L252 25Q324
27 361 60T399 151Q399 191 379 219T305 270Z" />
<glyph unicode="%" glyph-name="percent" horiz-adv-x="725" d="M372 526L370 513Q360 448 318 412T214 375Q141 375 107 420T82 533L84 546Q95 612 137 648T240 685Q313 685 348 640T372 526ZM607 680L634 662L145 0L118 18L607 680ZM294 544Q304 600 288 628T242
657Q215 657 196 633T167 556L160 516Q150 460 165 432T211 403Q238 403 258 427T287 504L294 544ZM673 146L671 133Q661 68 619 32T515 -5Q442 -5 408 40T383 153L385 166Q396 232 438 268T541 305Q614 305 649 260T673 146ZM595 164Q605 220 589 248T543 277Q516
277 497 253T468 176L461 136Q451 80 466 52T512 23Q539 23 559 47T588 124L595 164Z" />
<glyph unicode="&amp;" glyph-name="ampersand" horiz-adv-x="624" d="M510 178Q510 121 478 79T386 14T248 -10Q144 -10 84 29T24 145Q24 199 52 236T131 300T247 346Q184 382 149 426T114 525Q114 574 142 611T219 669T328 690Q404 690 450 664T513 595T515
504L396 478Q420 563 397 609T327 655Q290 655 263 625T235 532Q235 492 248 443T288 358L400 388Q464 405 511 427T602 480L625 378Q584 368 547 362T475 351L403 340Q459 309 484 268T510 178ZM145 151Q145 86 175 56T257 25Q319 25 360 69T401 199Q401 277 360
333L302 324Q223 311 184 267T145 151Z" />
<glyph unicode="&apos;" glyph-name="quotesingle" horiz-adv-x="256" d="M168 407H143Q147 426 148 442T149 473Q149 505 144 527T134 569T129 611Q129 643 148 666T199 690Q224 690 239 675T255 630Q255 605 245 586T221 545T192 491T168 407Z" />
<glyph unicode="(" glyph-name="parenleft" horiz-adv-x="333" d="M65 297L71 335Q86 429 125 501T229 633T387 750L407 720Q313 649 265 550T190 315L183 278Q170 208 171 132T192 -12T253 -131L228 -153Q162 -88 122 -13T67 142T65 297Z" />
<glyph unicode=")" glyph-name="parenright" horiz-adv-x="333" d="M283 300L277 262Q262 169 223 97T119 -35T-39 -153L-59 -123Q35 -52 84 47T158 282L165 319Q179 390 178 465T157 609T95 728L120 750Q187 685 227 610T281 455T283 300Z" />
<glyph unicode="*" glyph-name="asterisk" horiz-adv-x="450" d="M394 319L309 277Q296 303 293 322T288 359T281 400T260 455Q234 430 222 411T201 376T183 343T152 306L86 374Q107 394 124 403T158 420T195 439T241 476Q209 493 187 499T147 507T109 514T64
532L110 616Q135 603 149 590T175 562T204 533T254 501Q260 536 259 559T255 600T250 637T253 685L346 669Q341 641 333 623T316 589T297 552T282 495Q317 500 338 508T376 526T410 542T457 554L470 459Q442 455 423 457T385 464T344 470T285 467Q301 435 315 417T343
387T369 360T394 319Z" />
<glyph unicode="+" glyph-name="plus" horiz-adv-x="588" d="M512 317H323L289 122H253L287 317H98L104 352H293L327 547H363L329 352H518L512 317Z" />
<glyph unicode="," glyph-name="comma" horiz-adv-x="255" d="M161 56Q161 1 115 -60T0 -186L-20 -164Q30 -114 53 -78T84 -10Q27 -7 27 49Q27 81 46 103T99 125Q126 125 143 108T161 56Z" />
<glyph unicode="-" glyph-name="hyphen" horiz-adv-x="384" d="M71 317L77 352H341L335 317H71Z" />
<glyph unicode="." glyph-name="period" horiz-adv-x="255" d="M23 53Q23 85 43 108T99 131Q130 131 147 114T164 68Q164 36 144 13T88 -10Q57 -10 40 7T23 53Z" />
<glyph unicode="/" glyph-name="slash" horiz-adv-x="373" d="M407 740L444 722L-51 -143L-88 -125L407 740Z" />
<glyph unicode="0" glyph-name="zero" horiz-adv-x="616" d="M568 357L559 304Q505 -10 274 -10Q192 -10 143 31T76 147T77 324L86 377Q140 690 370 690Q452 690 502 650T569 534T568 357ZM449 415Q470 545 449 600T368 655Q310 655 276 601T221 419L196 266Q175
138 196 82T275 25Q334 25 368 80T424 262L449 415Z" />
<glyph unicode="1" glyph-name="one" horiz-adv-x="365" d="M78 591L233 680H329L224 84Q218 50 220 44T237 35L291 28L286 0H-8L-3 28L73 35Q89 37 93 43T104 84L198 619L93 559L78 591Z" />
<glyph unicode="2" glyph-name="two" horiz-adv-x="533" d="M466 241L424 0H5L17 70Q30 141 64 187T146 267T241 330Q283 356 319 384T378 453T401 554Q401 607 383 631T328 655Q273 655 243 606T206 467L89 483Q89 538 116 585T196 661T328 690Q398 690 442 668T506
609T527 526Q527 469 502 431T435 366T344 320T245 276Q184 248 136 209T67 104H328Q352 104 362 105T377 112T387 130L438 241H466Z" />
<glyph unicode="3" glyph-name="three" horiz-adv-x="523" d="M464 200Q464 139 434 92T346 17T208 -10Q119 -10 68 30T9 150L71 169Q74 117 91 86T136 40T192 25Q234 25 266 49T316 117T335 213Q335 271 309 301T221 331H194L201 366H228Q286 366 321 390T372
457T389 552Q389 607 371 631T315 655Q260 655 230 606T193 467L76 483Q76 537 102 584T183 660T318 690Q422 690 469 644T517 529Q517 461 473 414T342 348Q464 313 464 200Z" />
<glyph unicode="4" glyph-name="four" horiz-adv-x="512" d="M262 84L278 176H-2L4 211Q82 282 138 352T235 502T311 680H456Q415 587 356 509T221 358T56 211H284L311 364L434 382L404 211H481L475 176H398L382 84Q376 50 378 44T395 35L449 28L444 0H150L155
28L231 35Q248 37 252 43T262 84Z" />
<glyph unicode="5" glyph-name="five" horiz-adv-x="514" d="M84 347L162 680H417Q441 680 451 681T466 688T475 706L498 767H526L493 576H173L128 386Q188 423 266 423Q358 423 411 377T465 241Q465 198 450 154T401 72T316 13T192 -10Q120 -10 73 29T20 150L82
169Q84 90 111 58T184 25Q232 25 266 58T320 147T339 269Q339 328 319 358T246 388Q215 388 181 376T106 332L84 347Z" />
<glyph unicode="6" glyph-name="six" horiz-adv-x="581" d="M519 177Q512 118 478 76T391 12T279 -10Q193 -10 143 30T76 144T77 318L88 381Q117 548 189 619T372 690Q439 690 484 666T550 602T565 517L446 502Q462 575 443 615T370 655Q340 655 313 637T264 572T226
437L210 348Q244 380 279 391T348 403Q404 403 446 378T509 308T522 201L519 177ZM194 256Q179 169 184 119T213 47T270 25Q317 25 350 61T395 182L397 197Q407 270 392 314T321 359Q296 359 265 344T198 279L194 256Z" />
<glyph unicode="7" glyph-name="seven" horiz-adv-x="462" d="M503 586Q450 529 409 470T335 343T275 191T224 0H79Q101 71 129 138T198 273T300 415T447 576H190Q167 576 156 575T141 568T131 550L93 459H65L104 680H520L503 586Z" />
<glyph unicode="8" glyph-name="eight" horiz-adv-x="554" d="M491 189Q491 135 463 90T381 18T250 -10Q181 -10 132 11T58 68T32 146Q32 199 74 249T207 334Q161 366 133 406T105 501Q105 553 131 596T207 664T330 690Q423 690 476 650T530 548Q530 500 493 455T364
378Q420 343 455 299T491 189ZM294 420L336 395Q386 421 403 462T421 543Q421 597 395 626T323 655Q280 655 248 627T215 540Q215 493 236 468T294 420ZM141 149Q141 91 170 58T254 25Q310 25 346 60T382 156Q382 200 362 226T300 277L235 316Q189 291 165 248T141
149Z" />
<glyph unicode="9" glyph-name="nine" horiz-adv-x="581" d="M522 299Q502 184 459 117T355 20T218 -10Q170 -10 130 7T65 59T40 148L114 167Q110 91 137 58T214 25Q246 25 279 43T341 108T384 243L395 308Q363 279 329 268T262 257Q206 257 163 283T100 358T88
471L92 498Q101 560 135 602T220 667T331 690Q417 690 467 650T534 536T533 362L522 299ZM212 468Q201 392 217 347T289 301Q314 301 344 315T407 374L416 424Q432 512 426 562T398 633T340 655Q294 655 262 619T216 494L212 468Z" />
<glyph unicode=":" glyph-name="colon" horiz-adv-x="255" d="M156 376Q125 376 108 393T91 439Q91 471 111 494T167 517Q198 517 215 500T232 454Q232 422 212 399T156 376ZM88 -10Q57 -10 40 7T23 53Q23 85 43 108T99 131Q130 131 147 114T164 68Q164 36 144
13T88 -10Z" />
<glyph unicode=";" glyph-name="semicolon" horiz-adv-x="255" d="M156 376Q125 376 108 393T91 439Q91 471 111 494T167 517Q198 517 215 500T232 454Q232 422 212 399T156 376ZM161 56Q161 1 115 -60T0 -186L-20 -164Q30 -114 53 -78T84 -10Q27 -7 27 49Q27
81 46 103T99 125Q126 125 143 108T161 56Z" />
<glyph unicode="&lt;" glyph-name="less" horiz-adv-x="588" d="M489 189L472 157L98 318L103 346L533 507L542 473L157 329L489 189Z" />
<glyph unicode="=" glyph-name="equal" horiz-adv-x="588" d="M116 417L122 452H536L530 417H116ZM80 217L86 252H500L494 217H80Z" />
<glyph unicode="&gt;" glyph-name="greater" horiz-adv-x="588" d="M512 318L82 157L73 191L458 335L126 475L143 507L517 346L512 318Z" />
<glyph unicode="?" glyph-name="question" horiz-adv-x="492" d="M253 202H202L204 218Q210 265 229 295T274 349T323 398T363 458T379 549Q379 655 303 655Q255 655 228 606T193 467L81 483Q82 539 106 586T181 661T310 690Q405 690 454 646T504 538Q504 496
487 466T442 414T383 373T323 333T275 285T254 219L253 202ZM196 -10Q165 -10 148 7T131 53Q131 85 151 108T207 131Q238 131 255 114T272 68Q272 36 252 13T196 -10Z" />
<glyph unicode="@" glyph-name="at" horiz-adv-x="950" d="M734 -167Q679 -195 611 -209T480 -223Q383 -223 305 -191T171 -100T85 39T55 214Q55 315 87 401T178 552T318 653T499 690Q587 690 660 659T787 571T870 440T899 278Q899 199 872 135T796 33T686 -5Q637
-5 602 19T556 87Q524 35 487 13T409 -10Q357 -10 320 22T267 112T265 246L269 268Q282 337 315 383T393 453T489 477Q536 477 568 458T616 410Q661 434 694 467H721L664 150Q655 101 656 75T668 39T693 29Q738 29 776 61T838 149T862 278Q862 358 836 426T761
546T646 626T499 655Q408 655 334 622T205 528T122 387T92 214Q92 96 139 6T274 -136T480 -188Q536 -188 597 -173T714 -116L734 -167ZM369 216Q352 113 370 69T423 25Q439 25 459 34T503 73T556 161L595 378Q579 412 552 427T497 442Q446 442 419 398T379 276L369
216Z" />
<glyph unicode="A" glyph-name="A" horiz-adv-x="639" d="M151 28L146 0H-51L-46 28L10 35Q21 37 27 39T38 52T55 84L351 680H437L524 84Q529 50 533 44T551 35L605 28L600 0H328L333 28L389 35Q406 37 408 43T406 84L389 208H160L98 84Q82 50 82 44T97 35L151
28ZM177 243H385L341 571L177 243Z" />
<glyph unicode="B" glyph-name="B" horiz-adv-x="616" d="M113 652L118 680H389Q466 680 510 658T572 598T581 517L576 488Q567 436 530 400T427 349Q499 335 531 292T553 187L548 158Q541 115 514 79T437 22T305 0H-2L3 28L59 35Q76 37 80 43T90 84L180 596Q186
630 184 636T167 645L113 652ZM388 645H309L259 365H338Q381 365 408 393T447 483L453 515Q466 583 449 614T388 645ZM357 330H253L201 35H305Q350 35 379 64T420 160L426 193Q439 263 421 296T357 330Z" />
<glyph unicode="C" glyph-name="C" horiz-adv-x="597" d="M318 -10Q229 -10 171 33T88 151T79 324L88 382Q103 477 143 546T247 652T393 690Q469 690 519 660T588 581T594 477L472 448Q499 548 478 601T391 655Q332 655 288 603T224 432L199 274Q180 149 209 87T320
25Q350 25 377 37T428 81T467 167L538 143Q501 59 444 25T318 -10Z" />
<glyph unicode="D" glyph-name="D" horiz-adv-x="669" d="M113 652L118 680H395Q488 680 543 638T617 522T621 357L612 304Q588 162 506 81T295 0H-2L3 28L59 35Q76 37 80 43T90 84L180 596Q186 630 184 636T167 645L113 652ZM396 645H309L201 35H293Q367 35 413
92T477 259L502 412Q521 528 497 586T396 645Z" />
<glyph unicode="E" glyph-name="E" horiz-adv-x="603" d="M523 172L493 0H-2L3 28L59 35Q76 37 80 43T90 84L180 596Q186 630 184 636T167 645L113 652L118 680H603L573 508H545L532 619Q531 631 529 636T517 643T483 645H309L259 361H373Q397 361 407 362T421
369T431 387L468 468H496L452 219H424L416 300Q415 318 408 322T366 326H253L201 35H385Q409 35 419 36T434 43T444 61L495 172H523Z" />
<glyph unicode="F" glyph-name="F" horiz-adv-x="554" d="M297 28L292 0H-2L3 28L59 35Q75 37 79 43T90 84L180 596Q186 630 184 636T167 645L113 652L118 680H592L562 508H534L521 619Q520 631 518 636T506 643T472 645H308L257 355H361Q385 355 395 356T409
363T419 381L455 462H483L440 213H412L404 294Q403 312 396 316T354 320H251L210 84Q204 50 206 44T223 35L297 28Z" />
<glyph unicode="G" glyph-name="G" horiz-adv-x="663" d="M499 12Q489 25 477 36T451 57Q426 29 388 10T301 -10Q219 -10 164 33T87 151T79 324L88 382Q103 477 144 546T251 652T400 690Q479 690 530 660T601 581T608 477L486 448Q513 549 491 602T398 655Q337
655 290 603T224 432L199 274Q160 25 306 25Q338 25 371 38T429 89L453 224Q459 258 458 265T440 273L366 280L371 308H655L650 280L594 273Q578 271 574 265T563 224L526 12H499Z" />
<glyph unicode="H" glyph-name="H" horiz-adv-x="743" d="M277 28L272 0H-2L3 28L59 35Q76 37 80 43T90 84L180 596Q186 630 184 636T167 645L113 652L118 680H392L387 652L331 645Q315 643 311 637T300 596L259 361H522L563 596Q569 630 567 636T550 645L496
652L501 680H775L770 652L714 645Q698 643 694 637T683 596L593 84Q587 50 589 44T606 35L660 28L655 0H381L386 28L442 35Q459 37 463 43T473 84L515 326H253L210 84Q204 50 206 44T223 35L277 28Z" />
<glyph unicode="I" glyph-name="I" horiz-adv-x="360" d="M113 652L118 680H392L387 652L331 645Q315 643 311 637T300 596L210 84Q204 50 206 44T223 35L277 28L272 0H-2L3 28L59 35Q76 37 80 43T90 84L180 596Q186 630 184 636T167 645L113 652Z" />
<glyph unicode="J" glyph-name="J" horiz-adv-x="476" d="M242 652L247 680H521L516 652L460 645Q444 643 440 637T429 596L356 182Q340 92 283 41T133 -10Q93 -10 59 4T4 52T-14 142L63 162Q56 107 63 78T86 37T122 25Q143 25 164 37T205 81T235 174L309 596Q315
630 313 636T296 645L242 652Z" />
<glyph unicode="K" glyph-name="K" horiz-adv-x="656" d="M277 28L272 0H-2L3 28L59 35Q76 37 80 43T90 84L180 596Q186 630 184 636T167 645L113 652L118 680H392L387 652L331 645Q318 643 312 637T300 596L256 346L522 596Q557 629 559 636T547 645L493 652L498
680H706L701 652L645 645Q635 644 628 641T611 628T576 596L411 441L527 84Q538 52 545 45T568 35L612 28L607 0H422L317 353L245 285L210 84Q204 50 206 44T223 35L277 28Z" />
<glyph unicode="L" glyph-name="L" horiz-adv-x="532" d="M503 172L473 0H-2L3 28L59 35Q76 37 80 43T90 84L180 596Q186 630 184 636T167 645L113 652L118 680H392L387 652L331 645Q315 643 311 637T300 596L201 35H365Q389 35 399 36T414 43T424 61L475 172H503Z" />
<glyph unicode="M" glyph-name="M" horiz-adv-x="871" d="M197 28L192 0H-2L3 28L59 35Q73 37 78 43T90 84L180 596Q186 630 184 636T167 645L113 652L118 680H321L413 158L691 680H903L898 652L842 645Q826 643 822 637T811 596L721 84Q715 50 717 44T734 35L788
28L783 0H509L514 28L570 35Q587 37 591 43T601 84L692 598L417 80H310L220 596L130 84Q124 50 126 44T143 35L197 28Z" />
<glyph unicode="N" glyph-name="N" horiz-adv-x="687" d="M113 652L118 680H310L531 202L602 596Q608 630 606 636T589 645L535 652L540 680H734L729 652L673 645Q657 643 653 637T642 596L537 0H494L220 594L130 84Q124 50 126 44T143 35L197 28L192 0H-2L3 28L59
35Q76 37 80 43T90 84L180 596Q186 630 184 636T167 645L113 652Z" />
<glyph unicode="O" glyph-name="O" horiz-adv-x="674" d="M628 357L619 304Q594 158 511 74T299 -10Q207 -10 153 34T80 154T77 324L86 377Q111 523 194 606T405 690Q497 690 552 646T625 527T628 357ZM509 412Q529 532 505 593T403 655Q330 655 286 596T221 422L196
269Q177 151 200 88T300 25Q374 25 419 85T484 259L509 412Z" />
<glyph unicode="P" glyph-name="P" horiz-adv-x="598" d="M113 652L118 680H414Q485 680 530 655T594 585T604 487L600 463Q587 381 530 334T356 286H246L210 84Q204 50 206 44T223 35L297 28L292 0H-2L3 28L59 35Q76 37 80 43T90 84L180 596Q186 630 184 636T167
645L113 652ZM413 645H309L252 321H356Q400 321 429 355T469 447L480 510Q491 572 474 608T413 645Z" />
<glyph unicode="Q" glyph-name="Q" horiz-adv-x="678" d="M517 -83L512 -208Q433 -208 378 -161T303 -10Q210 -9 155 35T82 154T79 324L88 377Q113 523 194 606T404 690Q497 690 552 646T627 527T630 357L621 304Q598 168 526 86T341 -8Q353 -48 391 -65T517 -83ZM511
412Q531 532 507 593T405 655Q332 655 288 596T223 422L198 269Q179 151 202 88T302 25Q376 25 421 85T486 259L511 412Z" />
<glyph unicode="R" glyph-name="R" horiz-adv-x="651" d="M113 652L118 680H415Q485 680 530 656T596 592T607 500L603 477Q580 349 448 319L531 84Q539 62 543 52T552 40T567 35L611 28L606 0H426L330 310H250L210 84Q204 50 206 44T223 35L277 28L272 0H-2L3
28L59 35Q76 37 80 43T90 84L180 596Q186 630 184 636T167 645L113 652ZM414 645H309L256 345H361Q405 345 434 374T474 467L481 510Q492 580 475 612T414 645Z" />
<glyph unicode="S" glyph-name="S" horiz-adv-x="562" d="M245 -10Q184 -10 134 7T56 64T30 171L101 195Q95 128 113 91T166 40T245 25Q320 25 359 58T399 151Q399 191 379 219T305 270L215 308Q159 332 128 376T96 488Q96 546 121 591T198 663T328 690Q393 690
436 670T502 618T530 550T526 483L407 462Q436 549 414 602T318 655Q263 655 231 626T198 536Q198 492 217 461T286 409L377 371Q436 346 468 304T501 200Q501 142 472 94T387 18T245 -10Z" />
<glyph unicode="T" glyph-name="T" horiz-adv-x="574" d="M57 508L87 680H637L607 508H579L566 619Q565 632 563 637T551 644T517 645H416L317 84Q311 50 313 44T330 35L384 28L379 0H105L110 28L166 35Q183 37 187 43T197 84L296 645H195Q172 645 162 644T147
638T136 619L85 508H57Z" />
<glyph unicode="U" glyph-name="U" horiz-adv-x="684" d="M535 652L540 680H734L729 652L673 645Q659 643 654 637T642 596L577 229Q557 114 496 52T330 -10Q249 -10 193 19T112 105T101 239L164 596Q170 630 168 636T151 645L97 652L102 680H376L371 652L315
645Q301 643 296 637T284 596L219 229Q200 122 231 74T339 25Q416 25 467 73T537 229L602 596Q608 630 606 636T589 645L535 652Z" />
<glyph unicode="V" glyph-name="V" horiz-adv-x="632" d="M608 596L314 0H228L143 596Q139 630 135 636T116 645L62 652L67 680H342L337 652L281 645Q265 643 263 637T264 596L332 119L566 596Q583 630 583 636T567 645L513 652L518 680H713L708 652L652 645Q641
644 636 641T625 629T608 596Z" />
<glyph unicode="W" glyph-name="W" horiz-adv-x="938" d="M583 0L516 547L264 0H177L143 596Q142 630 139 636T119 645L65 652L70 680H343L338 652L282 645Q266 643 264 637T262 596L285 132L534 680H617L688 140L871 596Q885 631 884 637T869 645L815 652L820
680H1018L1013 652L957 645Q946 644 940 641T929 629T915 596L671 0H583Z" />
<glyph unicode="X" glyph-name="X" horiz-adv-x="621" d="M162 28L157 0H-45L-40 28L16 35Q27 37 33 39T48 51T75 84L268 326L169 596Q161 619 157 628T147 641T132 645L78 652L83 680H364L359 652L303 645Q287 643 286 637T297 596L365 411L512 596Q539 630 540
636T527 645L473 652L478 680H680L675 652L619 645Q609 644 603 641T588 629T560 596L380 369L484 84Q492 62 496 52T506 40T521 35L575 28L570 0H290L295 28L351 35Q368 37 369 43T357 84L283 285L123 84Q96 50 95 44T108 35L162 28Z" />
<glyph unicode="Y" glyph-name="Y" horiz-adv-x="615" d="M406 28L401 0H127L132 28L188 35Q202 37 206 41T215 64L255 292L150 596Q142 619 138 628T129 641T114 645L60 652L65 680H347L342 652L286 645Q270 643 269 637T278 596L361 338L540 596Q563 629 563
636T550 645L496 652L501 680H700L695 652L639 645Q629 644 623 641T610 629T586 596L375 292L339 84Q333 50 335 44T352 35L406 28Z" />
<glyph unicode="Z" glyph-name="Z" horiz-adv-x="546" d="M493 172L463 0H-7L-3 25L424 645H237Q214 645 203 644T188 637T178 619L127 508H99L129 680H573L568 655L141 35H355Q379 35 389 36T404 43T414 61L465 172H493Z" />
<glyph unicode="[" glyph-name="bracketleft" horiz-adv-x="350" d="M276 -108L270 -143H25L180 740H425L419 705H289L146 -108H276Z" />
<glyph unicode="\" glyph-name="backslash" horiz-adv-x="373" d="M133 740L327 -128L287 -139L93 729L133 740Z" />
<glyph unicode="]" glyph-name="bracketright" horiz-adv-x="350" d="M340 740L185 -143H-60L-54 -108H76L219 705H89L95 740H340Z" />
<glyph unicode="^" glyph-name="asciicircum" horiz-adv-x="588" d="M473 278L439 266L360 622L156 266L123 278L355 680H383L473 278Z" />
<glyph unicode="_" glyph-name="underscore" horiz-adv-x="418" d="M-54 -145L-47 -110H337L330 -145H-54Z" />
<glyph unicode="`" glyph-name="grave" horiz-adv-x="500" d="M308 579Q260 620 229 657T172 740H293Q296 694 307 663T335 597L308 579Z" />
<glyph unicode="a" glyph-name="a" horiz-adv-x="587" d="M447 -5Q406 -5 381 17T350 82Q318 29 280 10T202 -10Q141 -10 104 27T54 127T55 266L59 288Q73 363 108 414T191 491T294 517Q371 517 411 465Q434 471 458 481T505 507H532L469 150Q456 80 457 58T473
35Q487 35 503 51T532 105L571 83Q549 37 518 16T447 -5ZM175 248Q156 138 172 85T227 31Q241 31 261 40T306 78T356 163L400 415Q384 450 359 463T307 477Q255 477 227 430T184 300L175 248Z" />
<glyph unicode="b" glyph-name="b" horiz-adv-x="582" d="M522 219Q509 145 474 94T390 16T286 -10Q209 -10 168 42Q145 36 122 24T74 -5H47L163 656Q169 690 167 696T150 705L97 712L101 740H293L237 424Q269 477 305 497T380 517Q441 517 478 480T527 381T526
241L522 219ZM353 476Q339 476 318 464T272 417T218 314L179 92Q196 58 221 44T273 30Q326 30 354 77T397 207L406 259Q425 369 409 422T353 476Z" />
<glyph unicode="c" glyph-name="c" horiz-adv-x="489" d="M310 482Q268 482 233 438T180 295L170 235Q136 25 249 25Q281 25 318 48T375 129L428 98Q393 37 344 14T240 -10Q168 -10 121 24T55 118T51 260L55 282Q68 352 104 404T195 487T316 517Q376 517 416 490T472
418T469 322L356 306Q382 387 368 434T310 482Z" />
<glyph unicode="d" glyph-name="d" horiz-adv-x="590" d="M449 -5Q405 -5 379 21T351 94Q317 35 280 13T201 -10Q141 -10 104 27T54 127T55 266L59 288Q73 363 108 414T192 491T295 517Q370 517 411 468L444 656Q450 690 448 696T431 705L378 712L382 740H575L471
150Q458 80 459 58T475 35Q489 35 505 51T534 105L573 83Q551 37 520 16T449 -5ZM175 248Q156 138 172 85T228 31Q242 31 263 43T309 90T363 192L402 415Q385 450 360 463T308 477Q255 477 227 430T184 300L175 248Z" />
<glyph unicode="e" glyph-name="e" horiz-adv-x="497" d="M440 98Q405 37 352 14T244 -10Q171 -10 123 24T56 118T51 260L55 282Q68 352 104 404T197 487T322 517Q374 517 409 500T462 456T480 397Q480 345 445 308T349 250T206 222L168 219Q139 25 253 25Q275
25 301 34T350 67T387 128L440 98ZM180 295L173 254L205 256Q277 261 315 283T368 338T383 401Q383 439 366 460T316 482Q271 482 234 438T180 295Z" />
<glyph unicode="f" glyph-name="f" horiz-adv-x="337" d="M403 472H253L132 -213H17L130 423Q136 457 134 463T116 472L62 479L67 507H144L154 561Q163 613 186 655T251 724T361 750Q424 750 460 727T507 668T507 597L394 581Q417 654 407 684T360 715Q340 715
324 704T295 665T272 581L259 507H409L403 472Z" />
<glyph unicode="g" glyph-name="g" horiz-adv-x="574" d="M445 9Q434 -52 403 -105T315 -190T174 -223Q95 -223 59 -183T25 -78L82 -64Q78 -133 103 -161T172 -190Q231 -190 270 -149T329 -1L341 66Q310 23 275 7T203 -10Q142 -10 104 27T54 127T55 266L59 288Q73
363 108 414T192 491T295 517Q372 517 413 465Q436 471 460 481T506 507H533L445 9ZM175 248Q156 138 172 85T228 31Q242 31 262 40T308 78T358 163L402 414Q386 449 360 463T308 477Q255 477 227 430T184 300L175 248Z" />
<glyph unicode="h" glyph-name="h" horiz-adv-x="619" d="M603 83Q581 37 550 16T479 -5Q424 -5 397 33T384 142L423 336Q437 405 424 436T380 468Q362 468 336 457T281 415T222 328L164 0H49L164 656Q170 690 168 696T151 705L97 712L102 740H294L238 419Q277
470 321 493T413 517Q484 517 519 470T538 337L501 150Q488 81 488 58T505 35Q519 35 535 51T564 105L603 83Z" />
<glyph unicode="i" glyph-name="i" horiz-adv-x="308" d="M216 595Q187 595 171 611T154 655Q154 686 174 708T228 730Q257 730 273 714T290 670Q290 639 271 617T216 595ZM56 479L61 507H253L191 150Q179 80 179 58T195 35Q209 35 225 51T254 105L293 83Q271
37 240 16T169 -5Q114 -5 88 33T74 142L123 423Q129 457 127 463T110 472L56 479Z" />
<glyph unicode="j" glyph-name="j" horiz-adv-x="301" d="M214 595Q184 595 169 613T159 663Q164 693 186 711T238 730Q267 730 283 712T294 663Q289 632 266 614T214 595ZM60 479L65 507H257L161 -34Q153 -84 129 -127T62 -196T-44 -223Q-105 -223 -138 -192T-167
-101L-102 -79Q-105 -123 -99 -146T-79 -179T-52 -188Q-17 -188 6 -159T43 -54L127 423Q133 457 131 463T114 472L60 479Z" />
<glyph unicode="k" glyph-name="k" horiz-adv-x="539" d="M344 0L255 246L189 190L156 0H41L156 656Q162 690 160 696T143 705L90 712L94 740H286L200 251L314 353Q355 389 382 415T432 460T475 492T525 517L541 398Q477 389 430 368T344 320L435 84Q448 50 455
44T478 35L532 28L527 0H344Z" />
<glyph unicode="l" glyph-name="l" horiz-adv-x="300" d="M88 712L93 740H285L182 151Q169 80 170 58T186 35Q200 35 216 51T245 105L284 83Q262 37 231 16T160 -5Q105 -5 79 33T65 142L155 656Q161 690 159 696T142 705L88 712Z" />
<glyph unicode="m" glyph-name="m" horiz-adv-x="927" d="M902 83Q880 37 849 16T778 -5Q723 -5 696 33T683 142L722 336Q736 405 724 436T684 468Q666 468 642 457T589 416T532 331L474 0H359L418 336Q430 405 419 436T380 468Q362 468 338 457T285 415T228 330L169
0H54L128 423Q134 457 132 463T115 472L61 479L66 507H252L235 410Q276 466 320 491T413 517Q466 517 498 488T536 406Q577 464 622 490T717 517Q785 517 819 470T837 337L800 150Q787 81 787 58T804 35Q818 35 834 51T863 105L902 83Z" />
<glyph unicode="n" glyph-name="n" horiz-adv-x="624" d="M608 83Q586 37 555 16T484 -5Q429 -5 402 33T389 142L428 336Q442 405 429 436T385 468Q367 468 341 457T286 415T227 329L169 0H54L128 423Q134 457 132 463T115 472L61 479L66 507H252L235 409Q276
465 322 491T418 517Q489 517 524 470T543 337L506 150Q493 81 493 58T510 35Q524 35 540 51T569 105L608 83Z" />
<glyph unicode="o" glyph-name="o" horiz-adv-x="557" d="M505 244L501 223Q480 113 414 52T240 -10Q167 -10 120 26T55 124T51 263L55 284Q76 394 142 455T315 517Q389 517 436 481T502 383T505 244ZM387 274Q408 387 387 434T317 482Q265 482 231 437T179 294L168
233Q148 120 169 73T238 25Q291 25 325 70T376 213L387 274Z" />
<glyph unicode="p" glyph-name="p" horiz-adv-x="588" d="M292 -10Q215 -10 176 40L131 -213H16L128 423Q134 457 132 463T115 472L61 479L66 507H252L234 408Q269 470 307 493T386 517Q447 517 484 480T533 381T532 241L528 219Q515 145 480 94T396 16T292 -10ZM359
476Q345 476 324 464T278 418T224 315L185 92Q202 58 227 44T279 30Q332 30 360 77T403 207L412 259Q431 369 415 422T359 476Z" />
<glyph unicode="q" glyph-name="q" horiz-adv-x="574" d="M534 512L406 -213H291L343 82Q312 30 276 10T201 -10Q141 -10 104 27T54 127T55 266L59 288Q73 363 108 414T192 491T295 517Q372 517 413 465Q436 471 460 483T507 512H534ZM175 248Q156 138 172 85T228
31Q242 31 263 43T309 90T363 192L402 415Q386 450 360 463T308 477Q255 477 227 430T184 300L175 248Z" />
<glyph unicode="r" glyph-name="r" horiz-adv-x="457" d="M342 447Q320 447 291 422T226 325L169 0H54L128 424Q134 457 132 463T115 472L61 479L66 507H252L234 407Q310 517 396 517Q429 517 455 498T491 425L393 377Q386 418 372 432T342 447Z" />
<glyph unicode="s" glyph-name="s" horiz-adv-x="468" d="M199 -10Q160 -10 119 0T49 39T14 119L84 145Q79 79 111 52T197 25Q254 25 281 50T308 111Q308 139 291 157T228 193L171 215Q120 235 92 270T64 354Q64 394 84 431T148 492T263 517Q328 517 370 495T429
436T430 356L317 340Q339 408 323 445T255 482Q215 482 191 460T167 400Q167 363 187 344T239 313L295 291Q348 270 379 238T411 149Q411 106 389 70T319 12T199 -10Z" />
<glyph unicode="t" glyph-name="t" horiz-adv-x="369" d="M349 104Q324 40 288 15T207 -10Q150 -10 117 14T73 76T69 160L114 423Q120 457 118 463T101 472L47 479L52 507H129L149 623L268 646L244 507H404L398 472H237L179 139Q168 75 178 50T213 25Q242 25 261
47T294 123L349 104Z" />
<glyph unicode="u" glyph-name="u" horiz-adv-x="610" d="M470 -5Q426 -5 400 20T371 93Q331 40 287 15T196 -10Q128 -10 95 37T76 170L120 423Q126 457 124 463T106 472L52 479L57 507H250L191 171Q179 102 190 71T229 39Q247 39 271 50T324 91T381 176L440 507H555L492
150Q479 80 480 58T496 35Q510 35 526 51T555 105L594 83Q572 37 541 16T470 -5Z" />
<glyph unicode="v" glyph-name="v" horiz-adv-x="548" d="M47 479L52 507H245L196 218Q179 118 193 79T248 39Q271 39 298 52T352 102T394 204T411 376Q411 400 410 426T407 480L526 517Q523 379 493 279T415 115T314 21T208 -10Q162 -10 129 15T82 90T81 217L116
423Q122 457 120 463T101 472L47 479Z" />
<glyph unicode="w" glyph-name="w" horiz-adv-x="830" d="M808 517Q805 379 775 279T699 115T601 21T500 -10Q450 -10 416 20T373 113Q332 49 286 20T190 -10Q122 -10 89 37T71 170L115 423Q121 457 119 463T101 472L47 479L52 507H245L186 171Q174 102 180 71T219
39Q238 39 263 51T316 95T372 183Q373 191 374 199T377 217L426 507H541L492 218Q476 119 487 79T537 39Q557 39 583 52T635 102T676 204T693 376Q693 400 692 426T689 480L808 517Z" />
<glyph unicode="x" glyph-name="x" horiz-adv-x="528" d="M231 203Q193 144 157 91T84 -10L-17 55Q64 113 119 155T218 237L152 423Q144 446 139 455T127 468T111 472L57 479L62 507H239L310 309Q346 365 381 416T456 517L554 452Q473 394 419 352T322 273L390
84Q402 50 409 44T430 35L484 28L479 0H303L231 203Z" />
<glyph unicode="y" glyph-name="y" horiz-adv-x="595" d="M466 9Q456 -52 425 -105T337 -190T195 -223Q116 -223 80 -183T46 -78L103 -64Q99 -133 124 -161T193 -190Q252 -190 292 -149T350 -1L365 85Q327 36 285 13T196 -10Q128 -10 95 37T76 170L120 423Q126
457 124 463T106 472L52 479L57 507H250L191 171Q179 102 190 71T229 39Q247 39 271 50T324 91T381 176L439 507H554L466 9Z" />
<glyph unicode="z" glyph-name="z" horiz-adv-x="456" d="M113 52Q95 52 75 42T33 6L28 0L-3 25L334 413H189Q166 413 155 412T140 406T129 390L88 316H60L94 507H451L447 482L131 119Q158 133 181 133Q207 133 229 120T275 94T324 80Q354 80 369 103T395 170L422
164Q411 88 380 39T291 -10Q256 -10 226 5T168 36T113 52Z" />
<glyph unicode="{" glyph-name="braceleft" horiz-adv-x="392" d="M318 -109L312 -144H237Q173 -144 130 -123T74 -60T89 41L138 147Q164 203 157 242T120 281H37L43 316H126Q146 316 162 333T186 381T191 449L180 555Q173 626 194 666T261 723T372 740H467L461
705H376Q329 705 310 670T296 574L308 468Q316 392 284 350T190 294Q240 278 259 236T248 128L199 22Q171 -38 178 -73T233 -109H318Z" />
<glyph unicode="|" glyph-name="bar" horiz-adv-x="216" d="M173 740H213L45 -213H5L173 740Z" />
<glyph unicode="}" glyph-name="braceright" horiz-adv-x="392" d="M227 41Q235 -30 213 -70T146 -127T35 -144H-60L-54 -109H31Q78 -109 97 -74T111 22L99 128Q91 205 123 247T217 302Q168 318 149 360T159 468L208 574Q236 634 229 669T174 705H89L95 740H170Q235
740 278 719T333 656T318 555L269 449Q244 393 251 354T287 315H370L364 280H281Q262 280 246 263T221 215T216 147L227 41Z" />
<glyph unicode="~" glyph-name="asciitilde" horiz-adv-x="588" d="M390 257Q362 257 343 268T311 297T286 332T260 361T222 373Q196 373 175 353T124 275L93 290Q124 359 157 384T225 410Q253 410 271 399T303 370T329 335T356 306T394 294Q420 294 441 314T491
392L522 377Q491 308 458 283T390 257Z" />
<glyph unicode="&#xa0;" glyph-name="uni00A0" horiz-adv-x="224" />
<glyph unicode="&#xa1;" glyph-name="exclamdown" horiz-adv-x="255" d="M167 517Q198 517 215 500T232 454Q232 422 212 399T156 376Q125 376 108 393T91 439Q91 471 111 494T167 517ZM119 305H154Q142 237 137 186T131 94T129 13T124 -70T110 -173H-5Q5 -115
17 -71T42 13T68 93T94 186T119 305Z" />
<glyph unicode="&#xa2;" glyph-name="cent" horiz-adv-x="489" d="M428 98Q393 37 344 14T242 -10L222 -125H186L207 -8Q115 4 73 76T51 260L55 282Q67 349 101 400T185 482T299 516L319 632H355L335 516Q389 512 425 484T473 414T469 322L356 306Q379 378 371
423T328 479L248 25Q281 25 318 48T375 129L428 98ZM170 235Q141 62 214 32L292 480Q255 472 225 428T180 295L170 235Z" />
<glyph unicode="&#xa3;" glyph-name="sterling" horiz-adv-x="531" d="M469 221L430 0H11L23 70Q82 102 110 133T148 192T158 242Q158 253 157 263T153 284H53L59 319H143Q130 356 114 393T97 480Q97 516 110 553T151 621T226 671T340 690Q422 690 468 660T526
582T520 483L397 467Q423 557 410 606T342 655Q305 655 279 631T240 565T226 470Q226 439 230 399T236 319H398L392 284H237V280Q237 259 232 232T204 173T134 104H349Q384 104 392 108T408 130L441 221H469Z" />
<glyph unicode="&#xa4;" glyph-name="currency" horiz-adv-x="564" d="M498 67L471 43L395 138Q370 122 341 113T277 103Q201 103 151 148L31 43L8 69L128 174Q97 219 97 282Q97 329 114 370T162 440L88 533L115 557L190 463Q215 479 245 488T308 497Q386 497
434 452L555 557L578 531L457 425Q488 382 488 318Q488 272 471 231T424 161L498 67ZM308 461Q258 461 220 438T160 375T138 283Q138 216 175 178T277 139Q328 139 366 162T425 225T447 317Q447 385 410 423T308 461Z" />
<glyph unicode="&#xa5;" glyph-name="yen" horiz-adv-x="629" d="M413 28L408 0H134L139 28L195 35Q209 37 213 41T222 64L249 214H83L89 249H255L262 292L241 354H107L114 389H229L157 596Q149 619 145 628T136 641T121 645L67 652L72 680H354L349 652L293 645Q277
643 276 637T285 596L368 338L547 596Q570 629 570 636T557 645L503 652L508 680H707L702 652L646 645Q636 644 630 641T617 629T593 596L449 389H566L559 354H425L382 292L375 249H541L535 214H369L346 84Q340 50 342 44T359 35L413 28Z" />
<glyph unicode="&#xa6;" glyph-name="brokenbar" horiz-adv-x="206" d="M168 740H208L141 357H101L168 740ZM68 170H108L40 -213H0L68 170Z" />
<glyph unicode="&#xa7;" glyph-name="section" horiz-adv-x="550" d="M423 -33Q423 -86 397 -129T319 -197T190 -223Q133 -223 87 -203T15 -143T-8 -42L63 -18Q57 -78 72 -115T119 -170T190 -188Q253 -188 287 -160T321 -82Q321 -47 303 -25T235 19L157 52Q102
75 70 114T38 207Q38 268 78 313T179 378Q149 401 133 433T116 508Q116 586 168 638T328 690Q383 690 420 674T479 631T508 575T510 517L391 496Q412 568 393 611T318 655Q272 655 245 631T218 556Q218 520 237 497T305 452L377 422Q436 398 468 359T501 264Q501
205 462 162T361 95Q391 72 407 40T423 -33ZM228 157L321 118Q399 141 399 211Q399 248 379 271T305 317L220 353Q183 346 162 324T140 263Q140 226 159 202T228 157Z" />
<glyph unicode="&#xa8;" glyph-name="dieresis" horiz-adv-x="500" d="M212 600Q186 600 171 615T155 656Q155 684 173 704T224 725Q250 725 265 710T281 669Q281 641 263 621T212 600ZM420 600Q394 600 379 615T363 656Q363 684 381 704T432 725Q458 725 473
710T489 669Q489 641 471 621T420 600Z" />
<glyph unicode="&#xa9;" glyph-name="copyright" horiz-adv-x="844" d="M437 -37Q358 -37 291 -8T173 72T94 192T65 340Q65 420 93 488T172 608T290 688T437 717Q515 717 583 689T701 609T780 489T809 340Q809 261 781 192T702 72T583 -8T437 -37ZM437 -2Q508
-2 569 24T675 96T746 205T772 340Q772 412 747 474T676 583T569 656T437 682Q366 682 305 656T199 584T128 475T102 340Q102 268 127 206T198 97T305 24T437 -2ZM439 539Q387 539 359 500T330 371V310Q330 220 358 181T448 141Q492 141 519 162T558 237L616 224Q599
160 550 134T443 108Q343 108 293 168T242 330V351Q242 452 292 512T439 572Q500 572 540 549T599 487T609 398L532 389Q543 462 518 500T439 539Z" />
<glyph unicode="&#xaa;" glyph-name="ordfeminine" horiz-adv-x="404" d="M350 338Q323 338 306 353T285 395Q264 361 239 348T188 335Q148 335 123 359T90 424T91 516L94 533Q107 607 151 646T249 685Q308 685 332 641Q358 655 382 678H406L364 440Q356 394 356
379T367 364Q376 364 387 375T406 411L432 396Q403 338 350 338ZM170 507Q157 434 168 398T204 362Q218 362 241 377T289 447L319 616Q308 639 291 648T257 658Q223 658 205 627T176 541L170 507Z" />
<glyph unicode="&#xab;" glyph-name="guillemotleft" horiz-adv-x="651" d="M305 28L282 10L46 232L50 256L364 478L385 452L176 237L305 28ZM555 28L532 10L296 232L300 256L614 478L635 452L426 237L555 28Z" />
<glyph unicode="&#xac;" glyph-name="logicalnot" horiz-adv-x="588" d="M117 428L124 463H538L498 236H461L494 428H117Z" />
<glyph unicode="&#xad;" glyph-name="uni00AD" horiz-adv-x="0" />
<glyph unicode="&#xae;" glyph-name="registered" horiz-adv-x="536" d="M308 241Q242 241 189 273T105 359T74 479Q74 546 105 600T189 685T308 717Q374 717 427 686T511 600T542 479Q542 413 511 359T427 273T308 241ZM308 273Q365 273 410 300T482 374T509
479Q509 537 483 584T411 658T308 686Q251 686 206 659T134 584T107 479Q107 421 133 375T205 301T308 273ZM194 589V611H312Q354 611 377 593T400 545V529Q400 484 355 468L398 399Q406 386 408 384T416 381L434 379V356H358L299 461H278V399Q278 386 279 384T286
381L307 379V356H194V379L215 381Q220 382 221 384T223 399V569Q223 582 222 584T215 587L194 589ZM312 587H278V486H312Q344 486 344 529V545Q344 587 312 587Z" />
<glyph unicode="&#xaf;" glyph-name="overscore" horiz-adv-x="500" d="M468 674L458 619H171L181 674H468Z" />
<glyph unicode="&#xb0;" glyph-name="degree" horiz-adv-x="366" d="M216 366Q152 366 112 405T71 510Q71 560 94 601T156 666T247 690Q312 690 352 651T392 546Q392 496 369 455T307 390T216 366ZM247 654Q187 654 150 614T112 511Q112 460 139 431T216 402Q276
402 313 443T351 545Q351 596 324 625T247 654Z" />
<glyph unicode="&#xb1;" glyph-name="plusminus" horiz-adv-x="588" d="M512 317H323L289 122H253L287 317H98L104 352H293L327 547H363L329 352H518L512 317ZM42 0L48 35H462L456 0H42Z" />
<glyph unicode="&#xb2;" glyph-name="uni00B2" horiz-adv-x="299" d="M307 566L286 445H61L67 480Q75 528 95 550T159 595Q202 617 223 636T251 676T259 720Q259 763 232 763Q182 763 176 676L102 684Q103 725 135 757T230 790Q288 790 313 766T338 706Q338 667
312 643T248 603T169 569Q144 558 129 544T106 507H235Q252 507 256 509T264 520L283 566H307Z" />
<glyph unicode="&#xb3;" glyph-name="uni00B3" horiz-adv-x="293" d="M307 550Q307 508 272 474T165 440Q126 440 97 457T68 519L106 529Q104 490 120 477T159 463Q194 463 210 488T227 553Q227 579 216 594T178 609H154L158 631H182Q221 631 238 660T255 724Q255
768 225 768Q201 768 187 745T171 679L98 687Q97 728 127 759T223 790Q281 790 307 767T334 708Q334 677 313 654T251 619Q307 602 307 550Z" />
<glyph unicode="&#xb4;" glyph-name="acute" horiz-adv-x="500" d="M306 579L285 603Q311 635 330 665T367 740H498Q457 694 413 657T306 579Z" />
<glyph unicode="&#xb5;" glyph-name="uni00B5" horiz-adv-x="616" d="M133 -180L1 -213L114 423Q120 457 118 463T100 472L46 479L51 507H244L185 171Q173 102 184 71T223 39Q241 39 265 50T318 91T375 176L434 507H549L486 150Q473 80 474 58T490 35Q504 35 520
51T549 105L588 83Q566 37 535 16T464 -5Q420 -5 394 20T365 93Q325 40 281 15T190 -10Q160 -10 135 1T87 42Q83 -25 95 -78T133 -180Z" />
<glyph unicode="&#xb6;" glyph-name="paragraph" horiz-adv-x="598" d="M78 503Q92 585 149 632T322 680H630L625 652L569 645Q553 643 549 637T538 596L423 -59Q417 -93 418 -99T436 -108L490 -115L485 -143H191L196 -115L272 -108Q288 -106 292 -100T303 -59L427
645H364L300 286H264Q194 286 149 312T84 381T74 479L78 503Z" />
<glyph unicode="&#xb7;" glyph-name="middot" horiz-adv-x="500" d="M267 317Q238 317 222 333T205 377Q205 408 225 430T279 452Q308 452 324 436T341 392Q341 361 322 339T267 317Z" />
<glyph unicode="&#xb8;" glyph-name="cedilla" horiz-adv-x="500" d="M296 -132Q296 -169 263 -196T172 -223Q129 -223 97 -205T64 -145L122 -131Q120 -164 130 -177T159 -191Q187 -191 200 -171T214 -128Q214 -108 204 -98T170 -87Q166 -87 160 -87T149 -89L141
-63L178 0H218L186 -55Q239 -56 267 -77T296 -132Z" />
<glyph unicode="&#xb9;" glyph-name="uni00B9" horiz-adv-x="240" d="M120 741L197 785H260L209 497Q206 481 207 478T216 473L243 469L239 445H77L81 469L119 473Q127 474 129 477T134 497L177 740L133 715L120 741Z" />
<glyph unicode="&#xba;" glyph-name="ordmasculine" horiz-adv-x="392" d="M391 504L389 491Q378 417 333 376T222 335Q171 335 139 359T95 424T91 516L93 529Q104 603 149 644T260 685Q312 685 343 661T387 596T391 504ZM313 524Q325 592 311 626T262 661Q231
661 209 631T176 536L169 496Q157 429 171 394T219 359Q251 359 273 389T306 484L313 524Z" />
<glyph unicode="&#xbb;" glyph-name="guillemotright" horiz-adv-x="651" d="M597 232L283 10L262 36L471 251L342 460L365 478L601 256L597 232ZM347 232L33 10L12 36L221 251L92 460L115 478L351 256L347 232Z" />
<glyph unicode="&#xbc;" glyph-name="onequarter" horiz-adv-x="589" d="M102 636L179 680H242L191 392Q188 376 189 373T198 368L225 364L221 340H59L63 364L101 368Q109 369 111 372T116 392L159 635L115 610L102 636ZM537 680L564 662L75 0L48 18L537 680ZM438
48L445 88H303L308 111Q346 146 373 179T422 250T460 340H547Q529 295 497 257T426 183T343 111H449L462 182L538 191L524 111H562L558 88H520L513 48Q510 32 511 29T520 24L546 20L542 0H380L384 20L423 24Q431 25 433 28T438 48Z" />
<glyph unicode="&#xbd;" glyph-name="onehalf" horiz-adv-x="625" d="M102 636L179 680H242L191 392Q188 376 189 373T198 368L225 364L221 340H59L63 364L101 368Q109 369 111 372T116 392L159 635L115 610L102 636ZM537 680L564 662L75 0L48 18L537 680ZM556
121L535 0H310L316 35Q324 83 344 105T408 150Q451 172 472 191T500 231T508 275Q508 318 481 318Q431 318 425 231L351 239Q352 280 384 312T479 345Q537 345 562 321T587 261Q587 222 561 198T497 158T418 124Q393 113 378 99T355 62H484Q501 62 505 64T513 75L532
121H556Z" />
<glyph unicode="&#xbe;" glyph-name="threequarters" horiz-adv-x="629" d="M289 445Q289 403 254 369T147 335Q108 335 79 352T50 414L88 424Q86 385 102 372T141 358Q176 358 192 383T209 448Q209 474 198 489T160 504H136L140 526H164Q203 526 220 555T237
619Q237 663 207 663Q183 663 169 640T153 574L80 582Q79 623 109 654T205 685Q263 685 289 662T316 603Q316 572 295 549T233 514Q289 497 289 445ZM577 680L604 662L115 0L88 18L577 680ZM478 48L485 88H343L348 111Q386 146 413 179T462 250T500 340H587Q569
295 537 257T466 183T383 111H489L502 182L578 191L564 111H602L598 88H560L553 48Q550 32 551 29T560 24L586 20L582 0H420L424 20L463 24Q471 25 473 28T478 48Z" />
<glyph unicode="&#xbf;" glyph-name="questiondown" horiz-adv-x="492" d="M299 517Q330 517 347 500T364 454Q364 422 344 399T288 376Q257 376 240 393T223 439Q223 471 243 494T299 517ZM242 305H293L291 289Q285 242 266 212T221 158T172 109T132 49T116 -42Q116
-148 192 -148Q240 -148 267 -99T302 40L414 24Q413 -32 389 -79T315 -154T185 -183Q90 -183 41 -139T-9 -31Q-9 12 8 41T53 93T112 134T172 174T220 222T241 288L242 305Z" />
<glyph unicode="&#xc0;" glyph-name="Agrave" horiz-adv-x="639" d="M151 28L146 0H-51L-46 28L10 35Q21 37 27 39T38 52T55 84L351 680H437L524 84Q529 50 533 44T551 35L605 28L600 0H328L333 28L389 35Q406 37 408 43T406 84L389 208H160L98 84Q82 50 82 44T97
35L151 28ZM177 243H385L341 571L177 243ZM406 752Q358 793 327 830T270 913H391Q394 867 405 836T433 770L406 752Z" />
<glyph unicode="&#xc1;" glyph-name="Aacute" horiz-adv-x="639" d="M151 28L146 0H-51L-46 28L10 35Q21 37 27 39T38 52T55 84L351 680H437L524 84Q529 50 533 44T551 35L605 28L600 0H328L333 28L389 35Q406 37 408 43T406 84L389 208H160L98 84Q82 50 82 44T97
35L151 28ZM177 243H385L341 571L177 243ZM404 752L383 776Q409 808 428 838T465 913H596Q555 867 511 830T404 752Z" />
<glyph unicode="&#xc2;" glyph-name="Acircumflex" horiz-adv-x="639" d="M151 28L146 0H-51L-46 28L10 35Q21 37 27 39T38 52T55 84L351 680H437L524 84Q529 50 533 44T551 35L605 28L600 0H328L333 28L389 35Q406 37 408 43T406 84L389 208H160L98 84Q82 50
82 44T97 35L151 28ZM177 243H385L341 571L177 243ZM528 754Q497 775 471 797T423 841Q395 819 360 796T289 753L272 774Q301 802 319 821T352 861T389 913H477Q487 882 495 862T515 822T546 774L528 754Z" />
<glyph unicode="&#xc3;" glyph-name="Atilde" horiz-adv-x="639" d="M151 28L146 0H-51L-46 28L10 35Q21 37 27 39T38 52T55 84L351 680H437L524 84Q529 50 533 44T551 35L605 28L600 0H328L333 28L389 35Q406 37 408 43T406 84L389 208H160L98 84Q82 50 82 44T97
35L151 28ZM177 243H385L341 571L177 243ZM478 756Q454 756 437 768T405 797T378 826T348 839Q331 839 319 821T294 761H258Q278 848 303 883T362 918Q387 918 404 906T436 877T463 848T493 835Q510 835 522 854T546 913H582Q563 826 538 791T478 756Z" />
<glyph unicode="&#xc4;" glyph-name="Adieresis" horiz-adv-x="639" d="M152 28L147 0H-50L-45 28L11 35Q22 37 28 39T39 52T56 84L352 680H438L525 84Q530 50 534 44T552 35L606 28L601 0H329L334 28L390 35Q407 37 409 43T407 84L390 208H161L99 84Q83 50 83
44T98 35L152 28ZM178 243H386L342 571L178 243ZM304 773Q278 773 263 788T247 829Q247 857 265 877T316 898Q342 898 357 883T373 842Q373 814 355 794T304 773ZM512 773Q486 773 471 788T455 829Q455 857 473 877T524 898Q550 898 565 883T581 842Q581 814 563
794T512 773Z" />
<glyph unicode="&#xc5;" glyph-name="Aring" horiz-adv-x="639" d="M151 28L146 0H-51L-46 28L10 35Q21 37 27 39T38 52T55 84L343 663Q309 678 294 709T285 775L287 786Q295 830 329 861T419 893Q461 893 487 875T525 829T530 771L528 760Q522 726 500 698T440
659L524 84Q529 50 533 44T551 35L605 28L600 0H328L333 28L389 35Q406 37 408 43T406 84L389 208H160L98 84Q82 50 82 44T97 35L151 28ZM391 680Q438 680 454 760L459 785Q467 828 457 847T422 866Q377 866 361 786L356 761Q348 720 358 700T391 680ZM177 243H385L341
571L177 243Z" />
<glyph unicode="&#xc6;" glyph-name="AE" horiz-adv-x="908" d="M390 652L395 680H908L878 508H850L837 619Q836 631 834 636T822 643T788 645H614L564 361H678Q702 361 712 362T726 369T736 387L773 468H801L757 219H729L721 300Q720 318 713 322T671 326H557L506
35H690Q714 35 724 36T739 43T749 61L800 172H828L798 0H303L308 28L364 35Q381 37 385 43T395 84L417 208H203L115 84Q91 50 89 44T102 35L156 28L151 0H-51L-46 28L10 35Q22 37 28 39T43 52T67 84L433 596Q457 630 458 636T444 645L390 652ZM228 243H423L487
605L228 243Z" />
<glyph unicode="&#xc7;" glyph-name="Ccedilla" horiz-adv-x="597" d="M393 -132Q393 -169 360 -196T269 -223Q226 -223 194 -205T161 -145L219 -131Q217 -164 227 -177T256 -191Q284 -191 297 -171T311 -128Q311 -108 301 -98T267 -87Q263 -87 257 -87T246 -89L238
-63L271 -7Q198 5 151 49T85 165T79 324L88 382Q103 477 143 546T247 652T393 690Q469 690 519 660T588 581T594 477L472 448Q499 548 478 601T391 655Q332 655 288 603T224 432L199 274Q180 149 209 87T320 25Q350 25 377 37T428 81T467 167L538 143Q501 59 444
25T318 -10H309L283 -55Q336 -56 364 -77T393 -132Z" />
<glyph unicode="&#xc8;" glyph-name="Egrave" horiz-adv-x="603" d="M523 172L493 0H-2L3 28L59 35Q76 37 80 43T90 84L180 596Q186 630 184 636T167 645L113 652L118 680H603L573 508H545L532 619Q531 631 529 636T517 643T483 645H309L259 361H373Q397 361 407
362T421 369T431 387L468 468H496L452 219H424L416 300Q415 318 408 322T366 326H253L201 35H385Q409 35 419 36T434 43T444 61L495 172H523ZM396 752Q348 793 317 830T260 913H381Q384 867 395 836T423 770L396 752Z" />
<glyph unicode="&#xc9;" glyph-name="Eacute" horiz-adv-x="603" d="M523 172L493 0H-2L3 28L59 35Q76 37 80 43T90 84L180 596Q186 630 184 636T167 645L113 652L118 680H603L573 508H545L532 619Q531 631 529 636T517 643T483 645H309L259 361H373Q397 361 407
362T421 369T431 387L468 468H496L452 219H424L416 300Q415 318 408 322T366 326H253L201 35H385Q409 35 419 36T434 43T444 61L495 172H523ZM394 752L373 776Q399 808 418 838T455 913H586Q545 867 501 830T394 752Z" />
<glyph unicode="&#xca;" glyph-name="Ecircumflex" horiz-adv-x="603" d="M523 172L493 0H-2L3 28L59 35Q76 37 80 43T90 84L180 596Q186 630 184 636T167 645L113 652L118 680H603L573 508H545L532 619Q531 631 529 636T517 643T483 645H309L259 361H373Q397
361 407 362T421 369T431 387L468 468H496L452 219H424L416 300Q415 318 408 322T366 326H253L201 35H385Q409 35 419 36T434 43T444 61L495 172H523ZM518 754Q487 775 461 797T413 841Q385 819 350 796T279 753L262 774Q291 802 309 821T342 861T379 913H467Q477
882 485 862T505 822T536 774L518 754Z" />
<glyph unicode="&#xcb;" glyph-name="Edieresis" horiz-adv-x="603" d="M523 172L493 0H-2L3 28L59 35Q76 37 80 43T90 84L180 596Q186 630 184 636T167 645L113 652L118 680H603L573 508H545L532 619Q531 631 529 636T517 643T483 645H309L259 361H373Q397 361
407 362T421 369T431 387L468 468H496L452 219H424L416 300Q415 318 408 322T366 326H253L201 35H385Q409 35 419 36T434 43T444 61L495 172H523ZM299 773Q273 773 258 788T242 829Q242 857 260 877T311 898Q337 898 352 883T368 842Q368 814 350 794T299 773ZM507
773Q481 773 466 788T450 829Q450 857 468 877T519 898Q545 898 560 883T576 842Q576 814 558 794T507 773Z" />
<glyph unicode="&#xcc;" glyph-name="Igrave" horiz-adv-x="360" d="M113 652L118 680H392L387 652L331 645Q315 643 311 637T300 596L210 84Q204 50 206 44T223 35L277 28L272 0H-2L3 28L59 35Q76 37 80 43T90 84L180 596Q186 630 184 636T167 645L113 652ZM266
752Q218 793 187 830T130 913H251Q254 867 265 836T293 770L266 752Z" />
<glyph unicode="&#xcd;" glyph-name="Iacute" horiz-adv-x="360" d="M113 652L118 680H392L387 652L331 645Q315 643 311 637T300 596L210 84Q204 50 206 44T223 35L277 28L272 0H-2L3 28L59 35Q76 37 80 43T90 84L180 596Q186 630 184 636T167 645L113 652ZM264
752L243 776Q269 808 288 838T325 913H456Q415 867 371 830T264 752Z" />
<glyph unicode="&#xce;" glyph-name="Icircumflex" horiz-adv-x="360" d="M113 652L118 680H392L387 652L331 645Q315 643 311 637T300 596L210 84Q204 50 206 44T223 35L277 28L272 0H-2L3 28L59 35Q76 37 80 43T90 84L180 596Q186 630 184 636T167 645L113 652ZM388
754Q357 775 331 797T283 841Q255 819 220 796T149 753L132 774Q161 802 179 821T212 861T249 913H337Q347 882 355 862T375 822T406 774L388 754Z" />
<glyph unicode="&#xcf;" glyph-name="Idieresis" horiz-adv-x="360" d="M113 652L118 680H392L387 652L331 645Q315 643 311 637T300 596L210 84Q204 50 206 44T223 35L277 28L272 0H-2L3 28L59 35Q76 37 80 43T90 84L180 596Q186 630 184 636T167 645L113 652ZM170
773Q144 773 129 788T113 829Q113 857 131 877T182 898Q208 898 223 883T239 842Q239 814 221 794T170 773ZM378 773Q352 773 337 788T321 829Q321 857 339 877T390 898Q416 898 431 883T447 842Q447 814 429 794T378 773Z" />
<glyph unicode="&#xd0;" glyph-name="Eth" horiz-adv-x="674" d="M118 652L123 680H400Q493 680 548 638T622 522T626 357L617 304Q593 162 511 81T300 0H3L8 28L64 35Q81 37 85 43T95 84L139 337H62L69 372H146L185 596Q191 630 189 636T172 645L118 652ZM399
337H259L206 35H298Q372 35 418 92T482 259L507 412Q526 528 502 586T401 645H314L266 372H406L399 337Z" />
<glyph unicode="&#xd1;" glyph-name="Ntilde" horiz-adv-x="687" d="M113 652L118 680H310L531 202L602 596Q608 630 606 636T589 645L535 652L540 680H734L729 652L673 645Q657 643 653 637T642 596L537 0H494L220 594L130 84Q124 50 126 44T143 35L197 28L192
0H-2L3 28L59 35Q76 37 80 43T90 84L180 596Q186 630 184 636T167 645L113 652ZM518 756Q494 756 477 768T445 797T418 826T388 839Q371 839 359 821T334 761H298Q318 848 343 883T402 918Q427 918 444 906T476 877T503 848T533 835Q550 835 562 854T586 913H622Q603
826 578 791T518 756Z" />
<glyph unicode="&#xd2;" glyph-name="Ograve" horiz-adv-x="674" d="M628 357L619 304Q594 158 511 74T299 -10Q207 -10 153 34T80 154T77 324L86 377Q111 523 194 606T405 690Q497 690 552 646T625 527T628 357ZM509 412Q529 532 505 593T403 655Q330 655 286
596T221 422L196 269Q177 151 200 88T300 25Q374 25 419 85T484 259L509 412ZM422 752Q374 793 343 830T286 913H407Q410 867 421 836T449 770L422 752Z" />
<glyph unicode="&#xd3;" glyph-name="Oacute" horiz-adv-x="674" d="M628 357L619 304Q594 158 511 74T299 -10Q207 -10 153 34T80 154T77 324L86 377Q111 523 194 606T405 690Q497 690 552 646T625 527T628 357ZM509 412Q529 532 505 593T403 655Q330 655 286
596T221 422L196 269Q177 151 200 88T300 25Q374 25 419 85T484 259L509 412ZM420 752L399 776Q425 808 444 838T481 913H612Q571 867 527 830T420 752Z" />
<glyph unicode="&#xd4;" glyph-name="Ocircumflex" horiz-adv-x="674" d="M628 357L619 304Q594 158 511 74T299 -10Q207 -10 153 34T80 154T77 324L86 377Q111 523 194 606T405 690Q497 690 552 646T625 527T628 357ZM509 412Q529 532 505 593T403 655Q330 655
286 596T221 422L196 269Q177 151 200 88T300 25Q374 25 419 85T484 259L509 412ZM544 754Q513 775 487 797T439 841Q411 819 376 796T305 753L288 774Q317 802 335 821T368 861T405 913H493Q503 882 511 862T531 822T562 774L544 754Z" />
<glyph unicode="&#xd5;" glyph-name="Otilde" horiz-adv-x="674" d="M628 357L619 304Q594 158 511 74T299 -10Q207 -10 153 34T80 154T77 324L86 377Q111 523 194 606T405 690Q497 690 552 646T625 527T628 357ZM509 412Q529 532 505 593T403 655Q330 655 286
596T221 422L196 269Q177 151 200 88T300 25Q374 25 419 85T484 259L509 412ZM494 756Q470 756 453 768T421 797T394 826T364 839Q347 839 335 821T310 761H274Q294 848 319 883T378 918Q403 918 420 906T452 877T479 848T509 835Q526 835 538 854T562 913H598Q579
826 554 791T494 756Z" />
<glyph unicode="&#xd6;" glyph-name="Odieresis" horiz-adv-x="674" d="M628 357L619 304Q594 158 511 74T299 -10Q207 -10 153 34T80 154T77 324L86 377Q111 523 194 606T405 690Q497 690 552 646T625 527T628 357ZM509 412Q529 532 505 593T403 655Q330 655
286 596T221 422L196 269Q177 151 200 88T300 25Q374 25 419 85T484 259L509 412ZM326 773Q300 773 285 788T269 829Q269 857 287 877T338 898Q364 898 379 883T395 842Q395 814 377 794T326 773ZM534 773Q508 773 493 788T477 829Q477 857 495 877T546 898Q572
898 587 883T603 842Q603 814 585 794T534 773Z" />
<glyph unicode="&#xd7;" glyph-name="multiply" horiz-adv-x="588" d="M465 172L438 146L303 309L112 146L87 173L280 337L147 499L175 525L309 362L503 526L527 499L332 334L465 172Z" />
<glyph unicode="&#xd8;" glyph-name="Oslash" horiz-adv-x="674" d="M619 304Q594 158 511 74T299 -10Q241 -10 199 8T127 59L74 0H21L103 92Q78 136 72 195T77 324L86 377Q111 523 194 606T405 690Q463 690 506 672T578 621L630 680H683L601 589Q627 544 633
485T628 357L619 304ZM196 269Q189 224 187 186L515 552Q508 603 481 629T403 655Q330 655 286 596T221 422L196 269ZM509 412Q517 459 518 496L190 129Q204 25 300 25Q374 25 419 85T484 259L509 412Z" />
<glyph unicode="&#xd9;" glyph-name="Ugrave" horiz-adv-x="684" d="M535 652L540 680H734L729 652L673 645Q659 643 654 637T642 596L577 229Q557 114 496 52T330 -10Q249 -10 193 19T112 105T101 239L164 596Q170 630 168 636T151 645L97 652L102 680H376L371
652L315 645Q301 643 296 637T284 596L219 229Q200 122 231 74T339 25Q416 25 467 73T537 229L602 596Q608 630 606 636T589 645L535 652ZM460 752Q412 793 381 830T324 913H445Q448 867 459 836T487 770L460 752Z" />
<glyph unicode="&#xda;" glyph-name="Uacute" horiz-adv-x="684" d="M535 652L540 680H734L729 652L673 645Q659 643 654 637T642 596L577 229Q557 114 496 52T330 -10Q249 -10 193 19T112 105T101 239L164 596Q170 630 168 636T151 645L97 652L102 680H376L371
652L315 645Q301 643 296 637T284 596L219 229Q200 122 231 74T339 25Q416 25 467 73T537 229L602 596Q608 630 606 636T589 645L535 652ZM458 752L437 776Q463 808 482 838T519 913H650Q609 867 565 830T458 752Z" />
<glyph unicode="&#xdb;" glyph-name="Ucircumflex" horiz-adv-x="684" d="M535 652L540 680H734L729 652L673 645Q659 643 654 637T642 596L577 229Q557 114 496 52T330 -10Q249 -10 193 19T112 105T101 239L164 596Q170 630 168 636T151 645L97 652L102 680H376L371
652L315 645Q301 643 296 637T284 596L219 229Q200 122 231 74T339 25Q416 25 467 73T537 229L602 596Q608 630 606 636T589 645L535 652ZM582 754Q551 775 525 797T477 841Q449 819 414 796T343 753L326 774Q355 802 373 821T406 861T443 913H531Q541 882 549
862T569 822T600 774L582 754Z" />
<glyph unicode="&#xdc;" glyph-name="Udieresis" horiz-adv-x="684" d="M535 652L540 680H734L729 652L673 645Q659 643 654 637T642 596L577 229Q557 114 496 52T330 -10Q249 -10 193 19T112 105T101 239L164 596Q170 630 168 636T151 645L97 652L102 680H376L371
652L315 645Q301 643 296 637T284 596L219 229Q200 122 231 74T339 25Q416 25 467 73T537 229L602 596Q608 630 606 636T589 645L535 652ZM364 773Q338 773 323 788T307 829Q307 857 325 877T376 898Q402 898 417 883T433 842Q433 814 415 794T364 773ZM572 773Q546
773 531 788T515 829Q515 857 533 877T584 898Q610 898 625 883T641 842Q641 814 623 794T572 773Z" />
<glyph unicode="&#xdd;" glyph-name="Yacute" horiz-adv-x="615" d="M406 28L401 0H127L132 28L188 35Q202 37 206 41T215 64L255 292L150 596Q142 619 138 628T129 641T114 645L60 652L65 680H347L342 652L286 645Q270 643 269 637T278 596L361 338L540 596Q563
629 563 636T550 645L496 652L501 680H700L695 652L639 645Q629 644 623 641T610 629T586 596L375 292L339 84Q333 50 335 44T352 35L406 28ZM408 752L387 776Q413 808 432 838T469 913H600Q559 867 515 830T408 752Z" />
<glyph unicode="&#xde;" glyph-name="Thorn" horiz-adv-x="598" d="M297 28L292 0H-2L3 28L59 35Q76 37 80 43T90 84L180 596Q186 630 184 636T167 645L113 652L118 680H412L407 652L331 645Q315 644 311 637T300 596L290 541H390Q461 541 506 516T570 446T580
348L576 324Q563 242 506 195T332 147H221L210 84Q204 50 206 44T223 35L297 28ZM389 506H284L227 182H332Q376 182 405 216T445 308L456 371Q467 433 450 469T389 506Z" />
<glyph unicode="&#xdf;" glyph-name="germandbls" horiz-adv-x="623" d="M272 581L132 -213H17L130 423Q136 457 134 463T116 472L62 479L67 507H144L154 561Q163 613 188 656T260 724T385 750Q472 750 517 716T563 632Q563 601 550 580T516 542T475 507T441 468T427
414Q427 383 446 358T494 307L528 278Q560 252 574 220T589 153Q589 109 568 72T505 12T402 -10Q369 -10 338 0T283 39T254 119L324 145Q319 79 341 52T404 25Q444 25 467 48T490 109Q490 135 480 154T443 194L408 222Q377 248 356 276T334 344Q334 378 348 406T383
460T424 511T459 568T473 637Q473 683 448 699T389 715Q346 715 316 687T272 581Z" />
<glyph unicode="&#xe0;" glyph-name="agrave" horiz-adv-x="587" d="M447 -5Q406 -5 381 17T350 82Q318 29 280 10T202 -10Q141 -10 104 27T54 127T55 266L59 288Q73 363 108 414T191 491T294 517Q371 517 411 465Q434 471 458 481T505 507H532L469 150Q456 80
457 58T473 35Q487 35 503 51T532 105L571 83Q549 37 518 16T447 -5ZM175 248Q156 138 172 85T227 31Q241 31 261 40T306 78T356 163L400 415Q384 450 359 463T307 477Q255 477 227 430T184 300L175 248ZM325 579Q277 620 246 657T189 740H310Q313 694 324 663T352
597L325 579Z" />
<glyph unicode="&#xe1;" glyph-name="aacute" horiz-adv-x="587" d="M447 -5Q406 -5 381 17T350 82Q318 29 280 10T202 -10Q141 -10 104 27T54 127T55 266L59 288Q73 363 108 414T191 491T294 517Q371 517 411 465Q434 471 458 481T505 507H532L469 150Q456 80
457 58T473 35Q487 35 503 51T532 105L571 83Q549 37 518 16T447 -5ZM175 248Q156 138 172 85T227 31Q241 31 261 40T306 78T356 163L400 415Q384 450 359 463T307 477Q255 477 227 430T184 300L175 248ZM323 579L302 603Q328 635 347 665T384 740H515Q474 694
430 657T323 579Z" />
<glyph unicode="&#xe2;" glyph-name="acircumflex" horiz-adv-x="587" d="M447 -5Q406 -5 381 17T350 82Q318 29 280 10T202 -10Q141 -10 104 27T54 127T55 266L59 288Q73 363 108 414T191 491T294 517Q371 517 411 465Q434 471 458 481T505 507H532L469 150Q456
80 457 58T473 35Q487 35 503 51T532 105L571 83Q549 37 518 16T447 -5ZM175 248Q156 138 172 85T227 31Q241 31 261 40T306 78T356 163L400 415Q384 450 359 463T307 477Q255 477 227 430T184 300L175 248ZM447 581Q416 602 390 624T342 668Q314 646 279 623T208
580L191 601Q220 629 238 648T271 688T308 740H396Q406 709 414 689T434 649T465 601L447 581Z" />
<glyph unicode="&#xe3;" glyph-name="atilde" horiz-adv-x="587" d="M447 -5Q406 -5 381 17T350 82Q318 29 280 10T202 -10Q141 -10 104 27T54 127T55 266L59 288Q73 363 108 414T191 491T294 517Q371 517 411 465Q434 471 458 481T505 507H532L469 150Q456 80
457 58T473 35Q487 35 503 51T532 105L571 83Q549 37 518 16T447 -5ZM175 248Q156 138 172 85T227 31Q241 31 261 40T306 78T356 163L400 415Q384 450 359 463T307 477Q255 477 227 430T184 300L175 248ZM397 583Q373 583 356 595T324 624T297 653T267 666Q250
666 238 648T213 588H177Q197 675 222 710T281 745Q306 745 323 733T355 704T382 675T412 662Q429 662 441 681T465 740H501Q482 653 457 618T397 583Z" />
<glyph unicode="&#xe4;" glyph-name="adieresis" horiz-adv-x="587" d="M447 -5Q406 -5 381 17T350 82Q318 29 280 10T202 -10Q141 -10 104 27T54 127T55 266L59 288Q73 363 108 414T191 491T294 517Q371 517 411 465Q434 471 458 481T505 507H532L469 150Q456
80 457 58T473 35Q487 35 503 51T532 105L571 83Q549 37 518 16T447 -5ZM175 248Q156 138 172 85T227 31Q241 31 261 40T306 78T356 163L400 415Q384 450 359 463T307 477Q255 477 227 430T184 300L175 248ZM229 600Q203 600 188 615T172 656Q172 684 190 704T241
725Q267 725 282 710T298 669Q298 641 280 621T229 600ZM437 600Q411 600 396 615T380 656Q380 684 398 704T449 725Q475 725 490 710T506 669Q506 641 488 621T437 600Z" />
<glyph unicode="&#xe5;" glyph-name="aring" horiz-adv-x="587" d="M447 -5Q406 -5 381 17T350 82Q318 29 280 10T202 -10Q141 -10 104 27T54 127T55 266L59 288Q73 363 108 414T191 491T294 517Q371 517 411 465Q434 471 458 481T505 507H532L469 150Q456 80
457 58T473 35Q487 35 503 51T532 105L571 83Q549 37 518 16T447 -5ZM175 248Q156 138 172 85T227 31Q241 31 261 40T306 78T356 163L400 415Q384 450 359 463T307 477Q255 477 227 430T184 300L175 248ZM354 803Q396 803 422 785T460 739T465 681L463 670Q456
627 422 595T331 563Q290 563 263 581T226 627T220 685L222 696Q230 740 264 771T354 803ZM326 590Q373 590 389 670L394 695Q402 738 392 757T357 776Q312 776 296 696L291 671Q283 630 293 610T326 590Z" />
<glyph unicode="&#xe6;" glyph-name="ae" horiz-adv-x="787" d="M730 98Q695 37 642 14T534 -10Q465 -10 419 20T352 106Q325 61 291 36T222 1T157 -10Q99 -10 64 21T29 109Q29 149 48 182T116 236T250 257H341L356 338Q370 421 354 451T300 482Q275 482 252 470T215
424T200 327L92 343Q93 389 117 428T187 492T298 517Q359 517 393 497T441 444Q508 517 612 517Q664 517 699 500T752 456T770 397Q770 345 735 306T639 244T496 222H458Q429 25 543 25Q565 25 591 34T640 67T677 128L730 98ZM470 295L464 257H495Q567 257 605
280T658 336T673 401Q673 439 656 460T606 482Q561 482 524 438T470 295ZM198 43Q213 43 236 50T286 81T340 152Q338 169 338 186T338 222H260Q198 222 173 192T148 112Q148 43 198 43Z" />
<glyph unicode="&#xe7;" glyph-name="ccedilla" horiz-adv-x="489" d="M329 -132Q329 -169 296 -196T205 -223Q162 -223 130 -205T97 -145L155 -131Q153 -164 163 -177T192 -191Q220 -191 233 -171T247 -128Q247 -108 237 -98T203 -87Q199 -87 193 -87T182 -89L174
-63L206 -8Q115 4 73 76T51 260L55 282Q68 352 104 404T195 487T316 517Q376 517 416 490T472 418T469 322L356 306Q382 387 368 434T310 482Q268 482 233 438T180 295L170 235Q136 25 249 25Q281 25 318 48T375 129L428 98Q394 39 346 15T245 -10L219 -55Q272
-56 300 -77T329 -132Z" />
<glyph unicode="&#xe8;" glyph-name="egrave" horiz-adv-x="497" d="M440 98Q405 37 352 14T244 -10Q171 -10 123 24T56 118T51 260L55 282Q68 352 104 404T197 487T322 517Q374 517 409 500T462 456T480 397Q480 345 445 308T349 250T206 222L168 219Q139 25
253 25Q275 25 301 34T350 67T387 128L440 98ZM180 295L173 254L205 256Q277 261 315 283T368 338T383 401Q383 439 366 460T316 482Q271 482 234 438T180 295ZM329 579Q281 620 250 657T193 740H314Q317 694 328 663T356 597L329 579Z" />
<glyph unicode="&#xe9;" glyph-name="eacute" horiz-adv-x="497" d="M440 98Q405 37 352 14T244 -10Q171 -10 123 24T56 118T51 260L55 282Q68 352 104 404T197 487T322 517Q374 517 409 500T462 456T480 397Q480 345 445 308T349 250T206 222L168 219Q139 25
253 25Q275 25 301 34T350 67T387 128L440 98ZM180 295L173 254L205 256Q277 261 315 283T368 338T383 401Q383 439 366 460T316 482Q271 482 234 438T180 295ZM327 579L306 603Q332 635 351 665T388 740H519Q478 694 434 657T327 579Z" />
<glyph unicode="&#xea;" glyph-name="ecircumflex" horiz-adv-x="497" d="M440 98Q405 37 352 14T244 -10Q171 -10 123 24T56 118T51 260L55 282Q68 352 104 404T197 487T322 517Q374 517 409 500T462 456T480 397Q480 345 445 308T349 250T206 222L168 219Q139
25 253 25Q275 25 301 34T350 67T387 128L440 98ZM180 295L173 254L205 256Q277 261 315 283T368 338T383 401Q383 439 366 460T316 482Q271 482 234 438T180 295ZM451 581Q420 602 394 624T346 668Q318 646 283 623T212 580L195 601Q224 629 242 648T275 688T312
740H400Q410 709 418 689T438 649T469 601L451 581Z" />
<glyph unicode="&#xeb;" glyph-name="edieresis" horiz-adv-x="497" d="M440 98Q405 37 352 14T244 -10Q171 -10 123 24T56 118T51 260L55 282Q68 352 104 404T197 487T322 517Q374 517 409 500T462 456T480 397Q480 345 445 308T349 250T206 222L168 219Q139
25 253 25Q275 25 301 34T350 67T387 128L440 98ZM180 295L173 254L205 256Q277 261 315 283T368 338T383 401Q383 439 366 460T316 482Q271 482 234 438T180 295ZM232 600Q206 600 191 615T175 656Q175 684 193 704T244 725Q270 725 285 710T301 669Q301 641 283
621T232 600ZM440 600Q414 600 399 615T383 656Q383 684 401 704T452 725Q478 725 493 710T509 669Q509 641 491 621T440 600Z" />
<glyph unicode="&#xec;" glyph-name="igrave" horiz-adv-x="308" d="M56 479L61 507H253L191 150Q179 80 179 58T195 35Q209 35 225 51T254 105L293 83Q271 37 240 16T169 -5Q114 -5 88 33T74 142L124 423Q130 457 128 463T110 472L56 479ZM445 579Q397 620 366
657T309 740H430Q433 694 444 663T472 597L445 579Z" />
<glyph unicode="&#xed;" glyph-name="iacute" horiz-adv-x="308" d="M56 479L61 507H253L191 150Q179 80 179 58T195 35Q209 35 225 51T254 105L293 83Q271 37 240 16T169 -5Q114 -5 88 33T74 142L124 423Q130 457 128 463T110 472L56 479ZM443 579L422 603Q448
635 467 665T504 740H635Q594 694 550 657T443 579Z" />
<glyph unicode="&#xee;" glyph-name="icircumflex" horiz-adv-x="308" d="M56 479L61 507H253L191 150Q179 80 179 58T195 35Q209 35 225 51T254 105L293 83Q271 37 240 16T169 -5Q114 -5 88 33T74 142L124 423Q130 457 128 463T110 472L56 479ZM567 581Q536 602
510 624T462 668Q434 646 399 623T328 580L311 601Q340 629 358 648T391 688T428 740H516Q526 709 534 689T554 649T585 601L567 581Z" />
<glyph unicode="&#xef;" glyph-name="idieresis" horiz-adv-x="308" d="M56 479L61 507H253L191 150Q179 80 179 58T195 35Q209 35 225 51T254 105L293 83Q271 37 240 16T169 -5Q114 -5 88 33T74 142L124 423Q130 457 128 463T110 472L56 479ZM349 600Q323 600
308 615T292 656Q292 684 310 704T361 725Q387 725 402 710T418 669Q418 641 400 621T349 600ZM557 600Q531 600 516 615T500 656Q500 684 518 704T569 725Q595 725 610 710T626 669Q626 641 608 621T557 600Z" />
<glyph unicode="&#xf0;" glyph-name="eth" horiz-adv-x="561" d="M504 244Q482 120 417 55T241 -10Q130 -10 80 56T46 231L49 251Q60 322 92 367T171 435T271 457Q315 457 347 444T404 407Q406 463 394 513T352 609L228 528L210 559L331 638Q293 684 234 722L250
750Q319 715 372 665L503 750L522 719L398 638Q471 560 499 466T511 284L504 244ZM161 194Q145 103 165 64T236 25Q271 25 298 44T346 108T380 232L394 312Q396 324 398 336T401 359Q375 396 347 409T294 422Q248 422 218 384T172 254L161 194Z" />
<glyph unicode="&#xf1;" glyph-name="ntilde" horiz-adv-x="624" d="M608 83Q586 37 555 16T484 -5Q429 -5 402 33T389 142L428 336Q442 405 429 436T385 468Q367 468 341 457T286 415T227 329L169 0H54L128 423Q134 457 132 463T115 472L61 479L66 507H252L235
409Q276 465 322 491T418 517Q489 517 524 470T543 337L506 150Q493 81 493 58T510 35Q524 35 540 51T569 105L608 83ZM452 583Q428 583 411 595T379 624T352 653T322 666Q305 666 293 648T268 588H232Q252 675 277 710T336 745Q361 745 378 733T410 704T437 675T467
662Q484 662 496 681T520 740H556Q537 653 512 618T452 583Z" />
<glyph unicode="&#xf2;" glyph-name="ograve" horiz-adv-x="557" d="M505 244L501 223Q480 113 414 52T240 -10Q167 -10 120 26T55 124T51 263L55 284Q76 394 142 455T315 517Q389 517 436 481T502 383T505 244ZM387 274Q408 387 387 434T317 482Q265 482 231
437T179 294L168 233Q148 120 169 73T238 25Q291 25 325 70T376 213L387 274ZM339 579Q291 620 260 657T203 740H324Q327 694 338 663T366 597L339 579Z" />
<glyph unicode="&#xf3;" glyph-name="oacute" horiz-adv-x="557" d="M505 244L501 223Q480 113 414 52T240 -10Q167 -10 120 26T55 124T51 263L55 284Q76 394 142 455T315 517Q389 517 436 481T502 383T505 244ZM387 274Q408 387 387 434T317 482Q265 482 231
437T179 294L168 233Q148 120 169 73T238 25Q291 25 325 70T376 213L387 274ZM337 579L316 603Q342 635 361 665T398 740H529Q488 694 444 657T337 579Z" />
<glyph unicode="&#xf4;" glyph-name="ocircumflex" horiz-adv-x="557" d="M505 244L501 223Q480 113 414 52T240 -10Q167 -10 120 26T55 124T51 263L55 284Q76 394 142 455T315 517Q389 517 436 481T502 383T505 244ZM387 274Q408 387 387 434T317 482Q265 482
231 437T179 294L168 233Q148 120 169 73T238 25Q291 25 325 70T376 213L387 274ZM461 581Q430 602 404 624T356 668Q328 646 293 623T222 580L205 601Q234 629 252 648T285 688T322 740H410Q420 709 428 689T448 649T479 601L461 581Z" />
<glyph unicode="&#xf5;" glyph-name="otilde" horiz-adv-x="557" d="M505 244L501 223Q480 113 414 52T240 -10Q167 -10 120 26T55 124T51 263L55 284Q76 394 142 455T315 517Q389 517 436 481T502 383T505 244ZM387 274Q408 387 387 434T317 482Q265 482 231
437T179 294L168 233Q148 120 169 73T238 25Q291 25 325 70T376 213L387 274ZM411 583Q387 583 370 595T338 624T311 653T281 666Q264 666 252 648T227 588H191Q211 675 236 710T295 745Q320 745 337 733T369 704T396 675T426 662Q443 662 455 681T479 740H515Q496
653 471 618T411 583Z" />
<glyph unicode="&#xf6;" glyph-name="odieresis" horiz-adv-x="557" d="M505 244L501 223Q480 113 414 52T240 -10Q167 -10 120 26T55 124T51 263L55 284Q76 394 142 455T315 517Q389 517 436 481T502 383T505 244ZM387 274Q408 387 387 434T317 482Q265 482 231
437T179 294L168 233Q148 120 169 73T238 25Q291 25 325 70T376 213L387 274ZM243 600Q217 600 202 615T186 656Q186 684 204 704T255 725Q281 725 296 710T312 669Q312 641 294 621T243 600ZM451 600Q425 600 410 615T394 656Q394 684 412 704T463 725Q489 725
504 710T520 669Q520 641 502 621T451 600Z" />
<glyph unicode="&#xf7;" glyph-name="divide" horiz-adv-x="588" d="M272 519Q272 551 292 574T348 597Q379 597 396 580T413 534Q413 502 393 479T337 456Q306 456 289 473T272 519ZM98 317L104 352H518L512 317H98ZM204 133Q204 165 224 188T280 211Q311 211
328 194T345 148Q345 116 325 93T269 70Q238 70 221 87T204 133Z" />
<glyph unicode="&#xf8;" glyph-name="oslash" horiz-adv-x="562" d="M503 223Q482 113 416 52T242 -10Q198 -10 163 4T103 43L61 0H7L79 74Q57 110 50 159T53 263L57 284Q78 394 144 455T317 517Q362 517 397 503T458 464L500 507H554L482 433Q505 396 511 348T507
244L503 223ZM170 233Q163 191 161 158L397 401Q391 444 371 463T319 482Q267 482 233 437T181 294L170 233ZM389 274Q397 315 398 347L163 105Q169 62 189 44T240 25Q293 25 327 70T378 213L389 274Z" />
<glyph unicode="&#xf9;" glyph-name="ugrave" horiz-adv-x="610" d="M470 -5Q426 -5 400 20T371 93Q331 40 287 15T196 -10Q128 -10 95 37T76 170L120 423Q126 457 124 463T106 472L52 479L57 507H250L191 171Q179 102 190 71T229 39Q247 39 271 50T324 91T381
176L440 507H555L492 150Q479 80 480 58T496 35Q510 35 526 51T555 105L594 83Q572 37 541 16T470 -5ZM357 579Q309 620 278 657T221 740H342Q345 694 356 663T384 597L357 579Z" />
<glyph unicode="&#xfa;" glyph-name="uacute" horiz-adv-x="610" d="M470 -5Q426 -5 400 20T371 93Q331 40 287 15T196 -10Q128 -10 95 37T76 170L120 423Q126 457 124 463T106 472L52 479L57 507H250L191 171Q179 102 190 71T229 39Q247 39 271 50T324 91T381
176L440 507H555L492 150Q479 80 480 58T496 35Q510 35 526 51T555 105L594 83Q572 37 541 16T470 -5ZM355 579L334 603Q360 635 379 665T416 740H547Q506 694 462 657T355 579Z" />
<glyph unicode="&#xfb;" glyph-name="ucircumflex" horiz-adv-x="610" d="M470 -5Q426 -5 400 20T371 93Q331 40 287 15T196 -10Q128 -10 95 37T76 170L120 423Q126 457 124 463T106 472L52 479L57 507H250L191 171Q179 102 190 71T229 39Q247 39 271 50T324 91T381
176L440 507H555L492 150Q479 80 480 58T496 35Q510 35 526 51T555 105L594 83Q572 37 541 16T470 -5ZM479 581Q448 602 422 624T374 668Q346 646 311 623T240 580L223 601Q252 629 270 648T303 688T340 740H428Q438 709 446 689T466 649T497 601L479 581Z" />
<glyph unicode="&#xfc;" glyph-name="udieresis" horiz-adv-x="610" d="M470 -5Q426 -5 400 20T371 93Q331 40 287 15T196 -10Q128 -10 95 37T76 170L120 423Q126 457 124 463T106 472L52 479L57 507H250L191 171Q179 102 190 71T229 39Q247 39 271 50T324 91T381
176L440 507H555L492 150Q479 80 480 58T496 35Q510 35 526 51T555 105L594 83Q572 37 541 16T470 -5ZM261 600Q235 600 220 615T204 656Q204 684 222 704T273 725Q299 725 314 710T330 669Q330 641 312 621T261 600ZM469 600Q443 600 428 615T412 656Q412 684
430 704T481 725Q507 725 522 710T538 669Q538 641 520 621T469 600Z" />
<glyph unicode="&#xfd;" glyph-name="yacute" horiz-adv-x="595" d="M466 9Q456 -52 425 -105T337 -190T195 -223Q116 -223 80 -183T46 -78L103 -64Q99 -133 124 -161T193 -190Q252 -190 292 -149T350 -1L365 85Q327 36 285 13T196 -10Q128 -10 95 37T76 170L120
423Q126 457 124 463T106 472L52 479L57 507H250L191 171Q179 102 190 71T229 39Q247 39 271 50T324 91T381 176L439 507H554L466 9ZM365 579L344 603Q370 635 389 665T426 740H557Q516 694 472 657T365 579Z" />
<glyph unicode="&#xfe;" glyph-name="thorn" horiz-adv-x="585" d="M289 -10Q213 -10 172 40L128 -213H13L165 656Q171 691 167 697T152 705L98 712L103 740H295L239 423Q271 476 307 496T383 517Q444 517 481 480T530 381T529 241L525 219Q512 145 477 94T393
16T289 -10ZM356 476Q342 476 321 464T274 416T220 312L182 93Q199 58 224 44T276 30Q329 30 357 77T400 207L409 259Q428 369 412 422T356 476Z" />
<glyph unicode="&#xff;" glyph-name="ydieresis" horiz-adv-x="595" d="M466 9Q456 -52 425 -105T337 -190T195 -223Q116 -223 80 -183T46 -78L103 -64Q99 -133 124 -161T193 -190Q252 -190 292 -149T350 -1L365 85Q327 36 285 13T196 -10Q128 -10 95 37T76 170L120
423Q126 457 124 463T106 472L52 479L57 507H250L191 171Q179 102 190 71T229 39Q247 39 271 50T324 91T381 176L439 507H554L466 9ZM271 600Q245 600 230 615T214 656Q214 684 232 704T283 725Q309 725 324 710T340 669Q340 641 322 621T271 600ZM479 600Q453
600 438 615T422 656Q422 684 440 704T491 725Q517 725 532 710T548 669Q548 641 530 621T479 600Z" />
<glyph unicode="&#x2013;" glyph-name="endash" horiz-adv-x="584" d="M71 317L77 352H541L535 317H71Z" />
<glyph unicode="&#x2014;" glyph-name="emdash" horiz-adv-x="784" d="M71 317L77 352H741L735 317H71Z" />
<glyph unicode="&#x2018;" glyph-name="quoteleft" horiz-adv-x="255" d="M232 480Q232 449 214 428T162 406Q136 406 119 423T102 473Q102 521 139 573T243 690L263 668Q222 627 203 596T177 537Q232 534 232 480Z" />
<glyph unicode="&#x2019;" glyph-name="quoteright" horiz-adv-x="255" d="M256 623Q256 575 220 523T115 406L95 428Q136 469 155 500T181 559Q126 562 126 616Q126 647 144 668T196 690Q222 690 239 673T256 623Z" />
<glyph unicode="&#x201a;" glyph-name="quotesinglbase" horiz-adv-x="255" d="M159 54Q159 6 123 -46T18 -163L-2 -141Q39 -100 58 -69T84 -10Q29 -7 29 47Q29 78 47 99T99 121Q125 121 142 104T159 54Z" />
<glyph unicode="&#x201c;" glyph-name="quotedblleft" horiz-adv-x="448" d="M425 480Q425 449 407 428T355 406Q329 406 312 423T295 473Q295 521 332 573T436 690L456 668Q415 627 396 596T370 537Q425 534 425 480ZM232 480Q232 449 214 428T162 406Q136 406
119 423T102 473Q102 521 139 573T243 690L263 668Q222 627 203 596T177 537Q232 534 232 480Z" />
<glyph unicode="&#x201d;" glyph-name="quotedblright" horiz-adv-x="448" d="M256 623Q256 575 220 523T115 406L95 428Q136 469 155 500T181 559Q126 562 126 616Q126 647 144 668T196 690Q222 690 239 673T256 623ZM449 623Q449 575 413 523T308 406L288 428Q329
469 348 500T374 559Q319 562 319 616Q319 647 337 668T389 690Q415 690 432 673T449 623Z" />
<glyph unicode="&#x201e;" glyph-name="quotedblbase" horiz-adv-x="448" d="M159 54Q159 6 123 -46T18 -163L-2 -141Q39 -100 58 -69T84 -10Q29 -7 29 47Q29 78 47 99T99 121Q125 121 142 104T159 54ZM352 54Q352 6 316 -46T211 -163L191 -141Q232 -100 251 -69T277
-10Q222 -7 222 47Q222 78 240 99T292 121Q318 121 335 104T352 54Z" />
<glyph unicode="&#x2022;" glyph-name="bullet" horiz-adv-x="264" d="M139 240Q99 240 76 262T53 323Q53 366 80 396T154 426Q195 426 217 404T239 343Q239 300 213 270T139 240Z" />
<glyph unicode="&#x2039;" glyph-name="guilsinglleft" horiz-adv-x="401" d="M305 28L282 10L46 232L50 256L364 478L385 452L176 237L305 28Z" />
<glyph unicode="&#x203a;" glyph-name="guilsinglright" horiz-adv-x="401" d="M347 233L33 11L12 37L221 252L92 461L115 479L351 257L347 233Z" />
</font>
</defs>
</svg>
