<?xml version="1.0" standalone="no"?>
<!DOCTYPE svg PUBLIC "-//W3C//DTD SVG 1.1//EN" "http://www.w3.org/Graphics/SVG/1.1/DTD/svg11.dtd">
<svg xmlns="http://www.w3.org/2000/svg">
<defs >
<font id="InriaSerif" horiz-adv-x="579" ><font-face
    font-family="Inria Serif"
    units-per-em="1000"
    panose-1="0 0 0 0 0 0 0 0 0 0"
    ascent="976"
    descent="-223"
    alphabetic="0" />
<glyph unicode=" " glyph-name="space" horiz-adv-x="224" />
<glyph unicode="!" glyph-name="exclam" horiz-adv-x="255" d="M145 202H110Q110 270 106 321T96 413T84 494T74 577T70 680H185Q185 622 181 578T171 494T159 414T149 321T145 202ZM127 -10Q96 -10 77 9T57 61Q57 93 76 112T127 131Q158 131 178 112T198 61Q198
29 178 10T127 -10Z" />
<glyph unicode="&quot;" glyph-name="quotedbl" horiz-adv-x="449" d="M141 407H116Q116 454 109 485T92 538T75 580T67 621Q67 653 84 671T128 690Q154 690 171 672T189 621Q189 599 182 580T166 539T149 485T141 407ZM334 407H309Q309 454 302 485T285 538T268
580T260 621Q260 653 277 671T321 690Q347 690 364 672T382 621Q382 599 375 580T359 539T342 485T334 407Z" />
<glyph unicode="#" glyph-name="numbersign" horiz-adv-x="638" d="M549 210H430L362 -10L326 1L390 210H168L100 -10L64 1L128 210H20V245H139L198 435H89V470H208L276 690L312 679L248 470H470L538 690L574 679L510 470H618V435H499L440 245H549V210ZM178 245H401L460
435H237L178 245Z" />
<glyph unicode="$" glyph-name="dollar" horiz-adv-x="562" d="M507 186Q507 105 454 50T293 -10V-125H257V-10Q205 -8 160 10T83 65T44 164L111 188Q116 129 136 95T188 45T257 26V279L200 296Q130 317 93 368T55 497Q55 546 76 588T143 659T257 690V805H293V689Q367
686 412 656T475 580T484 483L369 462Q383 542 363 590T293 651V395L355 376Q431 354 469 310T507 186ZM148 539Q148 493 173 458T257 406V655Q208 654 178 624T148 539ZM293 268V26Q346 30 380 58T414 143Q414 188 388 218T293 268Z" />
<glyph unicode="%" glyph-name="percent" horiz-adv-x="725" d="M324 546V515Q324 478 307 446T258 395T178 375Q132 375 100 394T50 446T33 515V546Q33 583 50 614T99 665T178 685Q224 685 256 666T306 615T324 546ZM531 680L560 663L185 0L156 17L531 680ZM242
561Q242 605 226 631T178 658Q147 658 131 632T114 561V500Q114 455 130 429T178 403Q209 403 225 429T242 500V561ZM692 166V135Q692 98 675 66T626 15T546 -5Q500 -5 468 14T418 66T401 135V166Q401 203 418 234T467 285T546 305Q592 305 624 286T674 235T692
166ZM610 181Q610 225 594 251T546 278Q515 278 499 252T482 181V120Q482 75 498 49T546 23Q577 23 593 49T610 120V181Z" />
<glyph unicode="&amp;" glyph-name="ampersand" horiz-adv-x="624" d="M262 27Q308 27 336 56T367 134T342 237L431 295L553 69Q568 41 575 37T599 30L648 25V0H469L403 124Q399 69 361 30T246 -10Q155 -10 98 31T41 149Q41 182 56 215T110 283T224 358Q151 389
114 434T76 530Q76 571 99 607T164 667T264 690Q323 690 365 669T430 612T453 533Q453 472 409 430T297 351L262 332Q206 301 184 259T161 159Q161 92 188 60T262 27ZM196 537Q196 497 208 455T257 376L265 380Q303 400 318 439T333 531Q333 597 315 626T265 655Q235
655 216 629T196 537Z" />
<glyph unicode="&apos;" glyph-name="quotesingle" horiz-adv-x="256" d="M141 407H116Q116 454 109 485T92 538T75 580T67 621Q67 653 84 671T128 690Q154 690 171 672T189 621Q189 599 182 580T166 539T149 485T141 407Z" />
<glyph unicode="(" glyph-name="parenleft" horiz-adv-x="333" d="M56 280V317Q56 442 116 546T300 750L323 726Q267 674 236 608T192 468T179 317V280Q179 203 191 129T235 -11T323 -129L300 -153Q177 -54 117 51T56 280Z" />
<glyph unicode=")" glyph-name="parenright" horiz-adv-x="333" d="M277 317V280Q277 156 217 51T33 -153L10 -129Q66 -77 97 -11T141 129T154 280V317Q154 394 142 468T98 608T10 726L33 750Q156 651 216 547T277 317Z" />
<glyph unicode="*" glyph-name="asterisk" horiz-adv-x="450" d="M381 344L304 288Q287 311 280 329T268 365T254 404T224 454Q203 426 194 405T181 367T169 331T145 289L68 345Q85 368 100 380T130 403T163 428T202 472Q168 483 145 485T104 486T67 486T19 496L49
587Q76 578 92 568T123 546T157 522T211 499Q211 535 206 557T195 597T183 633T178 680H273Q273 651 268 632T257 596T245 557T240 498Q274 509 293 521T327 544T357 566T402 586L431 495Q404 486 385 485T347 485T305 484T248 471Q269 442 286 427T318 402T349
380T381 344Z" />
<glyph unicode="+" glyph-name="plus" horiz-adv-x="588" d="M501 317H312V122H276V317H87V352H276V547H312V352H501V317Z" />
<glyph unicode="," glyph-name="comma" horiz-adv-x="255" d="M196 44Q196 1 165 -59T78 -186L55 -166Q96 -116 113 -79T131 -10H128Q98 -10 80 8T61 58Q61 88 79 106T128 125Q157 125 176 104T196 44Z" />
<glyph unicode="-" glyph-name="hyphen" horiz-adv-x="384" d="M60 317V352H324V317H60Z" />
<glyph unicode="." glyph-name="period" horiz-adv-x="255" d="M127 -10Q96 -10 77 9T57 61Q57 93 76 112T127 131Q158 131 178 112T198 61Q198 29 178 10T127 -10Z" />
<glyph unicode="/" glyph-name="slash" horiz-adv-x="373" d="M324 740L363 725L17 -143L-22 -128L324 740Z" />
<glyph unicode="0" glyph-name="zero" horiz-adv-x="616" d="M553 372V309Q553 213 525 141T441 30T308 -10Q230 -10 175 29T92 141T63 309V372Q63 468 91 539T175 650T308 690Q386 690 441 651T524 540T553 372ZM420 442Q420 556 391 605T308 655Q254 655 225
606T196 442V239Q196 124 225 75T308 25Q362 25 391 74T420 239V442Z" />
<glyph unicode="1" glyph-name="one" horiz-adv-x="365" d="M19 591L158 680H254V84Q254 50 257 44T276 35L331 28V0H37V28L112 35Q128 37 131 43T134 84V622L38 561L19 591Z" />
<glyph unicode="2" glyph-name="two" horiz-adv-x="533" d="M440 221H468V0H49V70Q49 132 68 174T121 248T192 303Q229 328 265 354T326 419T350 518Q350 655 259 655Q203 655 181 606T168 467L48 483Q39 537 58 584T128 660T260 690Q339 690 387 665T457 598T480
508Q480 449 456 411T393 349T309 307T222 269Q171 246 135 208T91 104H364Q388 104 398 105T411 112T418 130L440 221Z" />
<glyph unicode="3" glyph-name="three" horiz-adv-x="523" d="M209 331H182V366H209Q280 366 309 408T339 516Q339 655 248 655Q192 655 170 606T157 467L37 483Q28 537 47 584T117 660T249 690Q328 690 376 666T446 602T469 516Q469 446 421 404T284 349Q377
337 426 293T476 170Q476 91 416 41T237 -10Q158 -10 103 26T32 148L103 167Q113 91 145 58T228 25Q290 25 318 61T346 170Q346 241 315 286T209 331Z" />
<glyph unicode="4" glyph-name="four" horiz-adv-x="512" d="M292 84V176H12V211Q62 264 96 315T155 420T199 538T236 680H381Q350 586 305 507T199 355T61 211H292V364L412 382V211H489V176H412V84Q412 50 415 44T434 35L489 28V0H195V28L270 35Q286 37 289 43T292 84Z" />
<glyph unicode="5" glyph-name="five" horiz-adv-x="514" d="M408 767H436V576H117L106 383Q133 402 168 412T244 423Q312 423 362 397T441 324T469 212Q469 153 446 103T372 21T236 -10Q160 -10 108 26T41 148L112 167Q122 91 151 58T227 25Q285 25 312 68T339
212Q339 264 330 303T295 365T225 388Q195 388 161 376T92 332L68 347L87 680H342Q377 680 384 684T396 706L408 767Z" />
<glyph unicode="6" glyph-name="six" horiz-adv-x="581" d="M531 195Q531 101 470 46T304 -10Q190 -10 128 72T66 305V368Q66 533 128 611T301 690Q368 690 417 667T493 604T519 516L401 502Q406 576 379 615T301 655Q270 655 246 637T208 570T194 427V341Q223
375 259 389T335 403Q391 403 435 379T505 310T531 205V195ZM194 246Q194 162 207 114T245 45T308 25Q353 25 380 62T408 189V199Q408 273 386 316T310 359Q281 359 249 343T194 289V246Z" />
<glyph unicode="7" glyph-name="seven" horiz-adv-x="462" d="M57 459H29V680H445V586Q402 529 371 470T319 343T286 191T269 0H124Q134 71 152 138T201 273T282 415T403 576H133Q110 576 100 575T86 568T79 550L57 459Z" />
<glyph unicode="8" glyph-name="eight" horiz-adv-x="554" d="M504 183Q504 128 480 85T406 16T281 -10Q203 -10 152 13T75 74T50 157Q50 213 87 256T194 330Q134 360 99 401T64 511Q64 560 89 600T160 665T273 690Q373 690 429 645T486 531Q486 485 452 450T350
387Q421 355 462 310T504 183ZM269 422L317 401Q352 425 364 456T376 530Q376 655 271 655Q221 655 194 627T166 548Q166 502 193 473T269 422ZM160 160Q160 96 190 61T281 25Q340 25 371 56T402 147Q402 196 378 228T295 286L228 314Q194 292 177 252T160 160Z"
/>
<glyph unicode="9" glyph-name="nine" horiz-adv-x="581" d="M515 312Q515 147 445 69T258 -10Q185 -10 130 26T59 148L130 167Q140 91 172 58T253 25Q289 25 319 43T368 110T387 253V319Q358 285 322 271T246 257Q190 257 146 281T76 350T50 455V482Q50 577 112
633T277 690Q391 690 453 609T515 375V312ZM173 461Q173 387 195 344T271 301Q300 301 332 317T387 371V434Q387 519 374 567T336 635T273 655Q228 655 201 618T173 491V461Z" />
<glyph unicode=":" glyph-name="colon" horiz-adv-x="255" d="M127 376Q96 376 77 395T57 447Q57 479 76 498T127 517Q158 517 178 498T198 447Q198 415 178 396T127 376ZM127 -10Q96 -10 77 9T57 61Q57 93 76 112T127 131Q158 131 178 112T198 61Q198 29 178
10T127 -10Z" />
<glyph unicode=";" glyph-name="semicolon" horiz-adv-x="255" d="M127 376Q96 376 77 395T57 447Q57 479 76 498T127 517Q158 517 178 498T198 447Q198 415 178 396T127 376ZM196 44Q196 1 165 -59T78 -186L55 -166Q96 -116 113 -79T131 -10H128Q98 -10 80 8T61
58Q61 88 79 106T128 125Q157 125 176 104T196 44Z" />
<glyph unicode="&lt;" glyph-name="less" horiz-adv-x="588" d="M501 191L489 157L87 318V346L489 507L501 474L145 333L501 191Z" />
<glyph unicode="=" glyph-name="equal" horiz-adv-x="588" d="M87 417V452H501V417H87ZM87 217V252H501V217H87Z" />
<glyph unicode="&gt;" glyph-name="greater" horiz-adv-x="588" d="M501 318L99 157L87 190L443 332L87 473L99 507L501 346V318Z" />
<glyph unicode="?" glyph-name="question" horiz-adv-x="492" d="M262 202H211V218Q211 262 223 288T252 334T287 373T317 425T329 509Q329 580 307 617T241 655Q187 655 167 606T156 467L41 483Q31 537 49 584T116 660T242 690Q317 690 363 666T432 602T454 519Q454
476 439 447T401 397T351 359T303 324T268 281T260 219L262 202ZM235 -10Q204 -10 185 9T165 61Q165 93 184 112T235 131Q266 131 286 112T306 61Q306 29 286 10T235 -10Z" />
<glyph unicode="@" glyph-name="at" horiz-adv-x="950" d="M734 -167Q679 -195 611 -209T480 -223Q383 -223 305 -191T171 -100T85 39T55 214Q55 315 87 401T178 552T318 653T499 690Q587 690 660 659T787 571T870 440T899 278Q899 199 872 135T796 33T686 -5Q637
-5 602 19T556 87Q524 35 487 13T409 -10Q357 -10 320 22T267 112T265 246L269 268Q282 337 315 383T393 453T489 477Q536 477 568 458T616 410Q661 434 694 467H721L664 150Q655 101 656 75T668 39T693 29Q738 29 776 61T838 149T862 278Q862 358 836 426T761
546T646 626T499 655Q408 655 334 622T205 528T122 387T92 214Q92 96 139 6T274 -136T480 -188Q536 -188 597 -173T714 -116L734 -167ZM369 216Q352 113 370 69T423 25Q439 25 459 34T503 73T556 161L595 378Q579 412 552 427T497 442Q446 442 419 398T379 276L369
216Z" />
<glyph unicode="A" glyph-name="A" horiz-adv-x="639" d="M187 28V0H-6V28L49 35Q60 37 65 39T74 52T85 84L276 680H362L554 84Q561 62 565 52T574 40T590 35L645 28V0H369V28L424 35Q440 37 441 43T432 84L394 208H163L124 84Q114 50 115 44T132 35L187 28ZM175
243H383L280 575L175 243Z" />
<glyph unicode="B" glyph-name="B" horiz-adv-x="616" d="M43 652V680H319Q399 680 446 658T513 600T534 520V493Q534 441 502 404T407 350Q483 337 523 296T564 193V165Q564 120 543 83T474 23T344 0H43V28L98 35Q114 37 117 43T120 84V596Q120 630 117 636T98
645L43 652ZM319 645H240V365H319Q362 365 384 394T406 488V520Q406 585 384 615T319 645ZM344 330H240V35H344Q389 35 412 65T436 165V198Q436 330 344 330Z" />
<glyph unicode="C" glyph-name="C" horiz-adv-x="597" d="M352 -10Q260 -10 196 29T99 141T66 309V372Q66 468 95 539T184 650T332 690Q408 690 459 661T534 583T555 477L438 448Q448 548 418 601T327 655Q263 655 229 601T194 422V259Q194 135 233 80T352 25Q385
25 413 37T461 78T486 162L558 143Q544 87 513 53T441 5T352 -10Z" />
<glyph unicode="D" glyph-name="D" horiz-adv-x="669" d="M43 652V680H338Q466 680 534 605T603 372V309Q603 151 535 76T338 0H43V28L98 35Q114 37 117 43T120 84V596Q120 630 117 636T98 645L43 652ZM333 645H240V35H333Q384 35 415 52T460 118T475 259V422Q475
514 461 562T415 627T333 645Z" />
<glyph unicode="E" glyph-name="E" horiz-adv-x="603" d="M510 172H538V0H43V28L98 35Q114 37 117 43T120 84V596Q120 630 117 636T98 645L43 652V680H528V508H500L468 619Q465 631 462 636T448 643T414 645H240V361H354Q378 361 388 362T401 369T408 387L430
468H458V219H430L408 300Q405 312 402 317T388 324T354 326H240V35H424Q448 35 458 36T471 43T478 61L510 172Z" />
<glyph unicode="F" glyph-name="F" horiz-adv-x="554" d="M419 462H447V213H419L397 294Q394 306 391 311T377 318T343 320H240V84Q240 50 243 44T262 35L337 28V0H43V28L98 35Q114 37 117 43T120 84V596Q120 630 117 636T98 645L43 652V680H517V508H489L457 619Q454
631 451 636T437 643T403 645H240V355H343Q367 355 377 356T390 363T397 381L419 462Z" />
<glyph unicode="G" glyph-name="G" horiz-adv-x="663" d="M361 280V308H645V280L590 273Q574 271 571 265T568 224V0H541Q514 28 481 47Q454 23 417 7T327 -10Q245 -10 187 31T97 146T66 314V377Q66 468 97 538T188 649T335 690Q417 690 470 661T549 583T568 477L451
448Q462 548 429 601T331 655Q194 655 194 412V269Q194 25 339 25Q371 25 403 38T458 76V224Q458 258 455 265T436 273L361 280Z" />
<glyph unicode="H" glyph-name="H" horiz-adv-x="743" d="M700 28V0H426V28L481 35Q497 37 500 43T503 84V326H240V84Q240 50 243 44T262 35L317 28V0H43V28L98 35Q114 37 117 43T120 84V596Q120 630 117 636T98 645L43 652V680H317V652L262 645Q246 643 243 637T240
596V361H503V596Q503 630 500 636T481 645L426 652V680H700V652L645 645Q629 643 626 637T623 596V84Q623 50 626 44T645 35L700 28Z" />
<glyph unicode="I" glyph-name="I" horiz-adv-x="360" d="M43 652V680H317V652L262 645Q246 643 243 637T240 596V84Q240 50 243 44T262 35L317 28V0H43V28L98 35Q114 37 117 43T120 84V596Q120 630 117 636T98 645L43 652Z" />
<glyph unicode="J" glyph-name="J" horiz-adv-x="476" d="M172 652V680H446V652L391 645Q375 643 372 637T369 596V194Q369 137 350 91T288 17T173 -10Q136 -10 101 2T40 48T6 142L75 162Q78 107 91 78T124 37T167 25Q190 25 208 37T238 81T249 174V596Q249 630
246 636T227 645L172 652Z" />
<glyph unicode="K" glyph-name="K" horiz-adv-x="656" d="M43 652V680H317V652L262 645Q246 643 243 637T240 596V327L477 596Q506 629 507 636T493 645L438 652V680H641V652L586 645Q576 644 570 641T555 628T526 596L386 438L559 84Q570 63 576 53T590 40T612
35L657 28V0H467L305 346L240 272V84Q240 50 243 44T262 35L317 28V0H43V28L98 35Q114 37 117 43T120 84V596Q120 630 117 636T98 645L43 652Z" />
<glyph unicode="L" glyph-name="L" horiz-adv-x="532" d="M490 172H518V0H43V28L98 35Q114 37 117 43T120 84V596Q120 630 117 636T98 645L43 652V680H317V652L262 645Q246 643 243 637T240 596V35H404Q428 35 438 36T451 43T458 61L490 172Z" />
<glyph unicode="M" glyph-name="M" horiz-adv-x="871" d="M828 28V0H554V28L609 35Q625 37 628 43T631 84V598L448 80H341L160 595V84Q160 50 163 44T182 35L237 28V0H43V28L98 35Q114 37 117 43T120 84V596Q120 630 117 636T98 645L43 652V680H254L437 160L623
680H828V652L773 645Q757 643 754 637T751 596V84Q751 50 754 44T773 35L828 28Z" />
<glyph unicode="N" glyph-name="N" horiz-adv-x="687" d="M465 652V680H659V652L604 645Q588 643 585 637T582 596V0H527L160 593V84Q160 50 163 44T182 35L237 28V0H43V28L98 35Q114 37 117 43T120 84V596Q120 630 117 636T98 645L43 652V680H244L542 201V596Q542
630 539 636T520 645L465 652Z" />
<glyph unicode="O" glyph-name="O" horiz-adv-x="674" d="M608 372V309Q608 155 540 73T337 -10Q203 -10 135 72T66 309V372Q66 526 134 608T337 690Q471 690 539 608T608 372ZM480 422Q480 510 465 560T419 633T337 655Q288 655 256 633T209 561T194 422V259Q194
172 209 121T256 48T337 25Q387 25 418 47T465 121T480 259V422Z" />
<glyph unicode="P" glyph-name="P" horiz-adv-x="598" d="M43 652V680H344Q454 680 508 630T563 495V472Q563 388 509 337T344 286H240V84Q240 50 243 44T262 35L337 28V0H43V28L98 35Q114 37 117 43T120 84V596Q120 630 117 636T98 645L43 652ZM344 645H240V321H344Q388
321 411 356T435 452V515Q435 576 412 610T344 645Z" />
<glyph unicode="Q" glyph-name="Q" horiz-adv-x="678" d="M575 -83L592 -208Q538 -208 493 -190T412 -128T348 -10H339Q204 -10 135 72T66 309V372Q66 526 135 608T339 690Q473 690 542 608T612 372V309Q612 170 555 89T387 -7Q407 -47 450 -65T575 -83ZM484 422Q484
510 469 560T421 633T339 655Q289 655 257 633T210 561T194 422V259Q194 172 209 121T257 48T339 25Q389 25 421 47T468 121T484 259V422Z" />
<glyph unicode="R" glyph-name="R" horiz-adv-x="651" d="M43 652V680H345Q450 680 507 633T564 507V484Q564 424 531 382T436 322L561 84Q573 62 579 52T590 40T606 35L651 28V0H464L313 310H240V84Q240 50 243 44T262 35L317 28V0H43V28L98 35Q114 37 117 43T120
84V596Q120 630 117 636T98 645L43 652ZM345 645H240V345H345Q389 345 412 372T436 474V517Q436 591 413 618T345 645Z" />
<glyph unicode="S" glyph-name="S" horiz-adv-x="562" d="M275 25Q335 25 374 53T414 143Q414 188 388 218T293 268L200 296Q130 317 93 368T55 497Q55 548 78 592T150 663T273 690Q354 690 404 661T474 584T484 483L369 462Q385 555 356 605T260 655Q209 655
179 625T148 539Q148 493 174 458T262 404L355 376Q431 354 469 310T507 186Q507 130 482 86T405 16T276 -10Q220 -10 170 6T87 61T44 164L111 188Q116 124 139 89T198 39T275 25Z" />
<glyph unicode="T" glyph-name="T" horiz-adv-x="574" d="M12 680H562V508H534L502 619Q499 632 496 637T482 644T448 645H347V84Q347 50 350 44T369 35L424 28V0H150V28L205 35Q221 37 224 43T227 84V645H126Q103 645 93 644T79 638T72 619L40 508H12V680Z" />
<glyph unicode="U" glyph-name="U" horiz-adv-x="684" d="M461 652V680H655V652L600 645Q584 643 581 637T578 596V231Q578 111 528 51T373 -10Q252 -10 178 56T104 246V596Q104 630 101 636T82 645L27 652V680H301V652L246 645Q230 643 227 637T224 596V239Q224
127 265 77T382 27Q456 27 497 74T538 229V596Q538 630 535 636T516 645L461 652Z" />
<glyph unicode="V" glyph-name="V" horiz-adv-x="632" d="M549 596L360 0H274L84 596Q77 619 73 628T64 641T48 645L-7 652V680H271V652L216 645Q200 643 199 637T208 596L360 119L510 596Q521 630 520 636T502 645L447 652V680H639V652L584 645Q574 644 569 641T560
629T549 596Z" />
<glyph unicode="W" glyph-name="W" horiz-adv-x="938" d="M628 0L464 546L309 0H222L83 596Q78 619 75 628T67 641T50 645L-5 652V680H272V652L217 645Q201 643 200 637T206 596L310 130L463 680H546L709 140L815 596Q823 631 821 637T804 645L749 652V680H943V652L888
645Q877 644 872 641T864 629T855 596L716 0H628Z" />
<glyph unicode="X" glyph-name="X" horiz-adv-x="621" d="M198 28V0H1V28L56 35Q66 37 71 39T84 51T106 84L257 324L109 596Q97 619 91 628T80 641T63 645L8 652V680H294V652L239 645Q224 643 224 637T242 596L342 412L457 596Q478 630 478 636T463 645L408 652V680H605V652L550
645Q540 644 535 641T522 629T500 596L362 375L519 84Q531 62 537 52T549 40T565 35L620 28V0H335V28L390 35Q406 37 406 43T387 84L276 288L149 84Q128 50 128 44T143 35L198 28Z" />
<glyph unicode="Y" glyph-name="Y" horiz-adv-x="615" d="M446 28V0H172V28L227 35Q243 37 246 43T249 84V291L90 596Q78 619 72 628T61 641T45 645L-10 652V680H275V652L220 645Q205 643 205 637T221 596L350 338L484 596Q501 629 501 636T485 645L430 652V680H625V652L570
645Q560 644 555 641T544 629T526 596L369 293V84Q369 50 372 44T391 35L446 28Z" />
<glyph unicode="Z" glyph-name="Z" horiz-adv-x="546" d="M480 172H508V0H38V25L362 645H168Q145 645 135 644T121 637T114 619L82 508H54V680H498V655L174 35H394Q418 35 428 36T441 43T448 61L480 172Z" />
<glyph unicode="[" glyph-name="bracketleft" horiz-adv-x="350" d="M340 705H210V-108H340V-143H95V740H340V705Z" />
<glyph unicode="\" glyph-name="backslash" horiz-adv-x="373" d="M49 740L395 -128L356 -143L10 725L49 740Z" />
<glyph unicode="]" glyph-name="bracketright" horiz-adv-x="350" d="M10 740H255V-143H10V-108H140V705H10V740Z" />
<glyph unicode="^" glyph-name="asciicircum" horiz-adv-x="588" d="M469 278L434 266L293 621L152 266L119 278L280 680H308L469 278Z" />
<glyph unicode="_" glyph-name="underscore" horiz-adv-x="418" d="M17 -145V-110H401V-145H17Z" />
<glyph unicode="`" glyph-name="grave" horiz-adv-x="500" d="M251 579Q196 620 159 657T87 740H213Q224 695 239 664T275 600L251 579Z" />
<glyph unicode="a" glyph-name="a" horiz-adv-x="538" d="M533 25Q517 10 495 0T440 -10Q399 -10 372 8T335 59Q302 23 263 7T182 -10Q113 -10 79 28T45 125Q45 184 88 220T240 257H331V338Q331 421 310 451T250 482Q225 482 204 470T175 424T177 327L67 343Q59
389 77 428T140 492T252 517Q329 517 371 492T429 426T446 338V107Q446 56 455 43T475 30Q493 30 515 51L533 25ZM226 43Q252 43 277 56T331 107V222H256Q207 222 185 199T163 127Q163 87 179 65T226 43Z" />
<glyph unicode="b" glyph-name="b" horiz-adv-x="577" d="M8 712V740H200V433Q227 475 260 496T338 517Q422 517 471 451T521 264V244Q521 128 464 59T306 -10Q229 -10 180 36Q162 29 146 19T112 -5H85V656Q85 690 82 696T63 705L8 712ZM312 473Q287 473 260 453T200
369V67Q238 29 293 29Q349 29 373 78T398 214V294Q398 387 375 430T312 473Z" />
<glyph unicode="c" glyph-name="c" horiz-adv-x="503" d="M271 482Q223 482 200 437T176 284V224Q176 118 203 72T291 25Q336 25 364 50T397 137L461 119Q443 49 396 20T284 -10Q169 -10 111 59T53 244V264Q53 379 109 448T271 517Q341 517 385 490T448 418T458
322L348 306Q359 390 339 436T271 482Z" />
<glyph unicode="d" glyph-name="d" horiz-adv-x="585" d="M569 28V0H383V83Q355 37 321 14T239 -10Q155 -10 106 56T56 243V263Q56 379 113 448T271 517Q331 517 377 487V656Q377 690 374 696T355 705L300 712V740H492V84Q492 50 495 44T514 35L569 28ZM179 213Q179
120 202 77T265 34Q290 34 317 54T377 138V440Q339 478 284 478Q229 478 204 429T179 293V213Z" />
<glyph unicode="e" glyph-name="e" horiz-adv-x="529" d="M474 119Q456 49 407 20T293 -10Q173 -10 113 59T53 244V264Q53 379 109 448T273 517Q333 517 379 494T452 426T479 319Q479 304 478 287T472 253H176V224Q176 118 206 72T303 25Q346 25 376 50T410 137L474
119ZM273 482Q224 482 200 437T176 288H357Q361 308 362 325T364 358Q364 422 339 452T273 482Z" />
<glyph unicode="f" glyph-name="f" horiz-adv-x="363" d="M312 28V0H23V28L78 35Q94 37 97 43T100 84V423Q100 457 97 463T78 472L23 479V507H100V561Q100 609 116 652T172 723T279 750Q340 750 379 729T436 673T447 597L337 581Q347 656 332 685T279 715Q259
715 245 704T223 665T215 581V507H365V472H215V84Q215 50 218 44T237 35L312 28Z" />
<glyph unicode="g" glyph-name="g" horiz-adv-x="532" d="M511 -52Q511 -134 450 -178T281 -223Q163 -223 105 -185T42 -89L149 -72Q145 -125 174 -156T281 -188Q353 -188 397 -161T442 -83Q442 -47 416 -29T328 -10H214Q161 -10 131 5T88 42T76 89Q76 118 92
146T147 203Q104 222 77 259T50 351Q50 407 76 443T146 498T244 517H261Q319 517 361 498L505 569L517 471H403Q427 450 440 421T454 351Q454 297 428 260T359 204T261 185H244Q214 185 185 191Q160 174 151 159T141 129Q141 113 155 105T203 97H333Q419 97 465
59T511 -52ZM261 220Q293 220 316 248T339 351Q339 426 316 454T261 482H244Q212 482 189 454T165 351Q165 276 188 248T244 220H261Z" />
<glyph unicode="h" glyph-name="h" horiz-adv-x="616" d="M605 28V0H336V28L391 35Q407 37 410 43T413 84V336Q413 405 393 436T332 468Q315 468 293 460T248 429T208 364V84Q208 50 211 44T230 35L285 28V0H16V28L71 35Q87 37 90 43T93 84V656Q93 690 90 696T71
705L16 712V740H208V429Q237 475 280 496T368 517Q442 517 485 470T528 337V84Q528 50 531 44T550 35L605 28Z" />
<glyph unicode="i" glyph-name="i" horiz-adv-x="308" d="M157 593Q126 593 107 612T88 663Q88 694 107 713T157 732Q187 732 207 713T227 663Q227 632 207 613T157 593ZM23 479V507H215V84Q215 50 218 44T237 35L292 28V0H23V28L78 35Q94 37 97 43T100 84V423Q100
457 97 463T78 472L23 479Z" />
<glyph unicode="j" glyph-name="j" horiz-adv-x="293" d="M150 593Q119 593 100 612T81 663Q81 694 100 713T150 732Q180 732 200 713T220 663Q220 632 200 613T150 593ZM16 479V507H208V-34Q208 -84 191 -127T136 -196T35 -223Q-20 -223 -59 -195T-107 -100L-45
-81Q-40 -145 -21 -166T23 -188Q56 -188 74 -159T93 -54V423Q93 457 90 463T71 472L16 479Z" />
<glyph unicode="k" glyph-name="k" horiz-adv-x="588" d="M16 712V740H208V255L384 423Q419 456 421 463T407 472L352 479V507H557V479L502 472Q493 471 487 468T470 456T435 423L339 331L481 84Q495 61 502 52T515 40T532 35L587 28V0H396L257 253L208 206V84Q208
50 211 44T230 35L285 28V0H16V28L71 35Q87 37 90 43T93 84V656Q93 690 90 696T71 705L16 712Z" />
<glyph unicode="l" glyph-name="l" horiz-adv-x="301" d="M16 712V740H208V84Q208 50 211 44T230 35L285 28V0H16V28L71 35Q87 37 90 43T93 84V656Q93 690 90 696T71 705L16 712Z" />
<glyph unicode="m" glyph-name="m" horiz-adv-x="923" d="M602 28V0H333V28L388 35Q404 37 407 43T410 84V336Q410 405 391 436T334 468Q318 468 296 460T253 429T215 364V84Q215 50 218 44T237 35L292 28V0H23V28L78 35Q94 37 97 43T100 84V423Q100 457 97 463T78
472L23 479V507H209V419Q237 470 281 493T370 517Q424 517 461 490T515 411Q542 467 588 492T680 517Q751 517 793 470T835 337V84Q835 50 838 44T857 35L912 28V0H643V28L698 35Q714 37 717 43T720 84V336Q720 405 701 436T644 468Q628 468 606 460T562 428T524
361Q525 356 525 350T525 337V84Q525 50 528 44T547 35L602 28Z" />
<glyph unicode="n" glyph-name="n" horiz-adv-x="623" d="M612 28V0H343V28L398 35Q414 37 417 43T420 84V336Q420 405 400 436T339 468Q322 468 300 460T255 429T215 364V84Q215 50 218 44T237 35L292 28V0H23V28L78 35Q94 37 97 43T100 84V423Q100 457 97 463T78
472L23 479V507H209V419Q238 470 283 493T375 517Q449 517 492 470T535 337V84Q535 50 538 44T557 35L612 28Z" />
<glyph unicode="o" glyph-name="o" horiz-adv-x="562" d="M510 264V244Q510 129 451 60T281 -10Q171 -10 112 59T52 244V264Q52 379 111 448T281 517Q391 517 450 448T510 264ZM387 284Q387 391 360 436T281 482Q230 482 203 437T175 284V224Q175 118 202 72T281
25Q333 25 360 71T387 224V284Z" />
<glyph unicode="p" glyph-name="p" horiz-adv-x="585" d="M16 479V507H202V424Q231 471 265 494T346 517Q430 517 479 451T529 264V244Q529 128 472 59T314 -10Q254 -10 208 20V-129Q208 -163 211 -169T230 -178L305 -185V-213H16V-185L71 -178Q87 -176 90 -170T93
-129V423Q93 457 90 463T71 472L16 479ZM320 473Q295 473 268 453T208 369V67Q246 29 301 29Q357 29 381 78T406 214V294Q406 387 383 430T320 473Z" />
<glyph unicode="q" glyph-name="q" horiz-adv-x="577" d="M569 -185V-213H280V-185L355 -178Q371 -176 374 -170T377 -129V74Q350 32 317 11T239 -10Q155 -10 106 56T56 243V263Q56 379 113 448T271 517Q348 517 397 471Q415 478 432 488T465 512H492V-129Q492
-163 495 -169T514 -178L569 -185ZM179 213Q179 120 202 77T265 34Q290 34 317 54T377 138V440Q339 478 284 478Q229 478 204 429T179 293V213Z" />
<glyph unicode="r" glyph-name="r" horiz-adv-x="462" d="M23 479V507H209V425Q270 517 354 517Q385 517 414 498T462 425L373 377Q359 418 341 432T301 447Q279 447 258 433T215 381V84Q215 50 218 44T237 35L312 28V0H23V28L78 35Q94 37 97 43T100 84V423Q100
457 97 463T78 472L23 479Z" />
<glyph unicode="s" glyph-name="s" horiz-adv-x="480" d="M251 189L182 205Q115 221 83 262T50 361Q50 403 68 438T127 495T231 517Q300 517 343 495T404 437T415 360L305 340Q319 408 298 445T226 482Q191 482 168 462T145 403Q145 368 165 342T224 306L293 290Q367
273 400 237T433 146Q433 79 384 35T236 -10Q202 -10 162 0T88 39T39 119L104 145Q111 79 149 52T236 25Q281 25 309 45T338 105Q338 132 320 154T251 189Z" />
<glyph unicode="t" glyph-name="t" horiz-adv-x="395" d="M379 104Q366 43 330 17T241 -10Q188 -10 154 13T104 76T88 159V423Q88 457 85 463T66 472L11 479V507H88V623L203 646V507H363V472H203V139Q203 75 219 51T260 26Q286 26 300 46T319 119L379 104Z" />
<glyph unicode="u" glyph-name="u" horiz-adv-x="606" d="M590 28V0H404V88Q376 37 332 14T243 -10Q172 -10 130 37T88 170V423Q88 457 85 463T66 472L11 479V507H203V171Q203 102 222 71T279 39Q295 39 316 47T360 78T398 143V423Q398 457 395 464T376 472L301
479V507H513V84Q513 50 516 44T535 35L590 28Z" />
<glyph unicode="v" glyph-name="v" horiz-adv-x="550" d="M463 423L321 0H230L88 423Q81 446 77 455T67 468T50 472L-5 479V507H265V479L210 472Q195 470 194 464T204 423L314 91L425 423Q436 458 436 464T419 472L364 479V507H555V479L500 472Q490 471 485 468T475
456T463 423Z" />
<glyph unicode="w" glyph-name="w" horiz-adv-x="798" d="M715 423L606 0H515L395 402L274 0H191L83 423Q77 446 74 455T65 468T50 472L-5 479V507H261V479L206 472Q190 470 188 464T195 423L273 122L388 507H476L595 105L676 423Q685 457 683 463T665 472L610
479V507H803V479L748 472Q738 471 733 468T725 456T715 423Z" />
<glyph unicode="x" glyph-name="x" horiz-adv-x="543" d="M205 28V0H5V28L60 35Q70 37 75 39T89 52T112 84L219 240L112 423Q99 446 92 455T79 468T63 472L8 479V507H285V479L230 472Q214 470 215 464T236 423L303 309L380 423Q403 457 403 463T388 472L333 479V507H533V479L478
472Q468 471 463 468T450 456T426 423L324 273L434 84Q448 61 454 52T467 40T483 35L538 28V0H261V28L316 35Q332 37 331 43T310 84L240 205L158 84Q135 50 135 44T150 35L205 28Z" />
<glyph unicode="y" glyph-name="y" horiz-adv-x="550" d="M303 -50Q280 -113 253 -151T185 -206T85 -223V-113Q146 -113 183 -105T241 -78T272 -30L282 0H230L88 423Q81 446 77 455T67 468T50 472L-5 479V507H265V479L210 472Q198 471 196 465T204 423L313 93L426
427Q437 459 436 464T419 472L364 479V507H555V479L500 472Q485 470 480 464T464 427L303 -50Z" />
<glyph unicode="z" glyph-name="z" horiz-adv-x="465" d="M397 152H425V0H38V25L289 472H159Q136 472 126 471T112 464T105 446L78 355H50V507H415V482L164 35H316Q340 35 350 36T363 43T370 61L397 152Z" />
<glyph unicode="{" glyph-name="braceleft" horiz-adv-x="392" d="M382 -109V-144H297Q236 -144 192 -123T129 -61T127 41L157 147Q173 203 159 242T115 281H32V316H115Q144 316 158 354T157 449L127 555Q110 616 128 657T191 719T297 740H382V705H297Q250 705
237 670T240 574L270 468Q290 399 263 356T180 298Q236 283 263 240T270 128L240 22Q223 -38 236 -73T297 -109H382Z" />
<glyph unicode="|" glyph-name="bar" horiz-adv-x="216" d="M88 740H128V-213H88V740Z" />
<glyph unicode="}" glyph-name="braceright" horiz-adv-x="392" d="M265 41Q282 -20 264 -61T201 -123T95 -144H10V-109H95Q142 -109 155 -74T152 22L122 128Q103 197 129 240T212 298Q156 313 130 356T122 468L152 574Q169 634 156 669T95 705H10V740H95Q157
740 201 719T263 657T265 555L235 449Q219 393 233 354T277 315H360V280H277Q248 280 234 242T235 147L265 41Z" />
<glyph unicode="~" glyph-name="asciitilde" horiz-adv-x="588" d="M387 257Q352 257 329 274T287 315T248 355T201 373Q174 373 157 353T119 275L87 290Q113 360 140 385T201 410Q236 410 259 393T301 352T339 312T387 294Q414 294 432 314T469 392L501 377Q476
307 449 282T387 257Z" />
<glyph unicode="&#xa0;" glyph-name="uni00A0" horiz-adv-x="224" />
<glyph unicode="&#xa1;" glyph-name="exclamdown" horiz-adv-x="255" d="M128 517Q160 517 179 498T198 446Q198 415 179 396T128 376Q97 376 77 395T57 446Q57 478 77 497T128 517ZM110 305H145Q145 237 149 186T159 94T171 13T181 -70T185 -173H70Q70 -115 74
-71T84 13T96 93T106 186T110 305Z" />
<glyph unicode="&#xa2;" glyph-name="cent" horiz-adv-x="503" d="M461 119Q443 49 396 20T287 -10V-125H251V-8Q152 2 103 69T53 244V264Q53 374 104 441T251 516V632H287V517Q351 514 392 486T450 414T458 322L348 306Q358 383 342 428T287 481V25H291Q336 25
364 50T397 137L461 119ZM176 224Q176 137 193 91T251 31V480Q214 472 195 426T176 284V224Z" />
<glyph unicode="&#xa3;" glyph-name="sterling" horiz-adv-x="531" d="M447 221H475V0H56V71Q100 98 122 123T151 172T159 216Q159 236 155 252T143 284H48V319H123Q109 343 94 367T68 422T58 493Q58 545 79 589T148 662T273 690Q353 690 402 661T470 584T480
483L360 467Q370 557 349 606T276 655Q188 655 188 503Q188 451 201 407T221 319H387V284H226Q227 279 227 274T227 264Q227 231 214 190T150 104H376Q411 104 418 108T430 130L447 221Z" />
<glyph unicode="&#xa4;" glyph-name="currency" horiz-adv-x="564" d="M528 69L503 43L403 146Q378 126 348 115T282 103Q248 103 217 114T161 146L61 43L36 69L135 172Q114 198 102 230T90 300Q90 338 102 370T135 428L36 531L61 557L161 454Q186 474 217 485T282
497Q317 497 347 486T403 454L503 557L528 531L429 428Q450 403 462 371T474 300Q474 263 462 231T429 172L528 69ZM282 138Q326 138 361 159T416 218T437 300Q437 346 417 382T361 440T282 462Q239 462 204 441T148 383T127 300Q127 255 147 218T203 160T282 138Z"
/>
<glyph unicode="&#xa5;" glyph-name="yen" horiz-adv-x="629" d="M453 28V0H179V28L234 35Q250 37 253 43T256 84V214H90V249H256V291L223 354H90V389H205L97 596Q85 619 79 628T68 641T52 645L-3 652V680H282V652L227 645Q212 643 212 637T228 596L357 338L491
596Q508 629 508 636T492 645L437 652V680H632V652L577 645Q567 644 562 641T551 629T533 596L426 389H542V354H408L376 293V249H542V214H376V84Q376 50 379 44T398 35L453 28Z" />
<glyph unicode="&#xa6;" glyph-name="brokenbar" horiz-adv-x="206" d="M83 740H123V357H83V740ZM83 170H123V-213H83V170Z" />
<glyph unicode="&#xa7;" glyph-name="section" horiz-adv-x="550" d="M468 -44Q468 -121 417 -172T259 -223Q207 -223 161 -207T84 -152T44 -49L111 -25Q116 -89 136 -124T189 -174T258 -188Q311 -188 343 -164T375 -92Q375 -52 352 -29T272 14L187 42Q123 63
88 111T52 214Q52 264 81 305T157 370Q120 395 101 434T81 520Q81 565 101 603T164 666T271 690Q342 690 385 665T445 601T454 515L339 494Q353 572 334 613T260 655Q220 655 197 633T174 566Q174 526 195 498T268 452L357 424Q501 379 501 257Q501 202 471 160T391
95Q429 73 448 40T468 -44ZM334 120Q336 119 339 119T344 116Q374 127 391 149T408 206Q408 244 384 271T295 318L206 346Q204 347 201 348T196 350Q172 338 159 317T145 264Q145 226 169 197T249 148L334 120Z" />
<glyph unicode="&#xa8;" glyph-name="dieresis" horiz-adv-x="500" d="M145 600Q117 600 100 617T83 663Q83 691 100 708T145 725Q172 725 190 708T208 663Q208 635 190 618T145 600ZM355 600Q327 600 310 617T293 663Q293 691 310 708T355 725Q382 725 400 708T418
663Q418 635 400 618T355 600Z" />
<glyph unicode="&#xa9;" glyph-name="copyright" horiz-adv-x="844" d="M422 -37Q343 -37 276 -8T158 72T79 192T50 340Q50 420 78 488T157 608T275 688T422 717Q500 717 568 689T686 609T765 489T794 340Q794 261 766 192T687 72T568 -8T422 -37ZM422 -2Q493
-2 554 24T660 96T731 205T757 340Q757 412 732 474T661 583T554 656T422 682Q351 682 290 656T184 584T113 475T87 340Q87 268 112 206T183 97T290 24T422 -2ZM424 539Q372 539 344 500T315 371V310Q315 220 343 181T433 141Q477 141 504 162T543 237L601 224Q584
160 535 134T428 108Q328 108 278 168T227 330V351Q227 452 277 512T424 572Q485 572 525 549T584 487T594 398L517 389Q528 462 503 500T424 539Z" />
<glyph unicode="&#xaa;" glyph-name="ordfeminine" horiz-adv-x="374" d="M309 339Q256 339 241 379Q218 356 193 346T141 335Q92 335 69 362T45 426Q45 467 73 490T168 513H237V568Q237 622 221 640T175 658Q157 658 143 651T123 625T120 567L61 574Q57 622 86
653T176 685Q224 685 250 669T287 626T298 568V416Q298 381 305 374T322 366Q328 366 335 368T351 378L363 359Q353 350 340 345T309 339ZM156 366Q172 366 192 374T237 409V486H173Q139 486 124 473T108 430Q108 366 156 366Z" />
<glyph unicode="&#xab;" glyph-name="guillemotleft" horiz-adv-x="651" d="M596 30L575 10L300 232V256L575 478L596 458L430 244L596 30ZM346 30L325 10L50 232V256L325 478L346 458L180 244L346 30Z" />
<glyph unicode="&#xac;" glyph-name="logicalnot" horiz-adv-x="588" d="M87 428V463H501V236H464V428H87Z" />
<glyph unicode="&#xad;" glyph-name="uni00AD" horiz-adv-x="0" />
<glyph unicode="&#xae;" glyph-name="registered" horiz-adv-x="536" d="M268 241Q202 241 149 273T65 359T34 479Q34 546 65 600T149 685T268 717Q334 717 387 686T471 600T502 479Q502 413 471 359T387 273T268 241ZM268 273Q325 273 370 300T442 374T469 479Q469
537 443 584T371 658T268 686Q212 686 166 659T94 584T67 479Q67 421 93 375T166 301T268 273ZM154 589V611H272Q314 611 337 593T360 545V529Q360 484 315 468L358 399Q366 386 368 384T376 381L394 379V356H318L259 461H238V399Q238 386 239 384T246 381L267
379V356H154V379L175 381Q180 382 181 384T183 399V569Q183 582 182 584T175 587L154 589ZM272 587H238V486H272Q304 486 304 529V545Q304 587 272 587Z" />
<glyph unicode="&#xaf;" glyph-name="overscore" horiz-adv-x="500" d="M394 674V619H107V674H394Z" />
<glyph unicode="&#xb0;" glyph-name="degree" horiz-adv-x="366" d="M183 366Q138 366 103 387T47 445T26 528Q26 575 46 611T102 669T183 690Q228 690 263 669T319 612T340 528Q340 482 320 445T264 387T183 366ZM183 401Q235 401 268 437T301 528Q301 584 268
619T183 655Q131 655 98 620T65 528Q65 473 98 437T183 401Z" />
<glyph unicode="&#xb1;" glyph-name="plusminus" horiz-adv-x="588" d="M501 317H312V122H276V317H87V352H276V547H312V352H501V317ZM87 0V35H501V0H87Z" />
<glyph unicode="&#xb2;" glyph-name="uni00B2" horiz-adv-x="299" d="M229 566H253V445H28V480Q28 528 50 552T100 595Q119 607 137 619T167 649T179 697Q179 763 141 763Q93 763 102 676L27 684Q20 725 48 757T141 790Q205 790 232 760T259 692Q259 661 245 642T209
610T161 589T114 569Q95 559 82 545T63 507H194Q211 507 215 509T221 520L229 566Z" />
<glyph unicode="&#xb3;" glyph-name="uni00B3" horiz-adv-x="293" d="M116 609H92V631H116Q148 631 161 651T174 703Q174 768 135 768Q111 768 102 745T97 679L22 687Q15 727 42 758T135 790Q198 790 226 764T254 703Q254 640 188 620Q257 600 257 530Q257 493
226 467T133 440Q93 440 62 456T22 519L58 529Q63 490 82 477T123 463Q152 463 164 479T177 530Q177 565 163 587T116 609Z" />
<glyph unicode="&#xb4;" glyph-name="acute" horiz-adv-x="500" d="M249 579L225 600Q245 632 261 663T287 740H413Q379 694 342 657T249 579Z" />
<glyph unicode="&#xb5;" glyph-name="uni00B5" horiz-adv-x="616" d="M306 479V507H518V107Q518 56 527 43T547 30Q565 30 587 51L605 25Q589 10 567 0T512 -10Q468 -10 440 11T405 69Q372 29 332 10T248 -10Q173 -10 132 40Q138 -15 160 -70T219 -180L93 -213V423Q93
457 90 463T71 472L16 479V507H208V171Q208 100 226 68T281 35Q309 35 341 54T403 126V423Q403 457 400 464T381 472L306 479Z" />
<glyph unicode="&#xb6;" glyph-name="paragraph" horiz-adv-x="598" d="M35 495Q35 579 90 629T254 680H555V652L500 645Q484 643 481 637T478 596V-59Q478 -93 481 -99T500 -108L555 -115V-143H261V-115L336 -108Q352 -106 355 -100T358 -59V645H295V286H254Q145
286 90 337T35 472V495Z" />
<glyph unicode="&#xb7;" glyph-name="middot" horiz-adv-x="500" d="M250 315Q219 315 200 334T181 385Q181 416 200 435T250 454Q280 454 300 435T320 385Q320 354 300 335T250 315Z" />
<glyph unicode="&#xb8;" glyph-name="cedilla" horiz-adv-x="500" d="M365 -140Q365 -179 332 -201T246 -223Q205 -223 174 -206T135 -145L190 -131Q194 -164 206 -177T238 -191Q261 -191 271 -177T282 -140Q282 -117 271 -102T230 -87Q226 -87 221 -87T210 -89L197
-63L223 0H263L240 -55Q297 -56 331 -78T365 -140Z" />
<glyph unicode="&#xb9;" glyph-name="uni00B9" horiz-adv-x="240" d="M35 741L104 785H167V497Q167 481 169 478T178 473L206 469V445H44V469L81 473Q89 474 90 477T92 497V745L50 718L35 741Z" />
<glyph unicode="&#xba;" glyph-name="ordmasculine" horiz-adv-x="392" d="M345 517V504Q345 427 306 381T196 335Q125 335 86 381T47 504V517Q47 594 86 639T196 685Q267 685 306 640T345 517ZM277 531Q277 601 257 629T196 658Q155 658 135 630T115 531V490Q115
420 135 391T196 362Q237 362 257 391T277 490V531Z" />
<glyph unicode="&#xbb;" glyph-name="guillemotright" horiz-adv-x="651" d="M55 458L76 478L351 256V232L76 10L55 30L221 244L55 458ZM305 458L326 478L601 256V232L326 10L305 30L471 244L305 458Z" />
<glyph unicode="&#xbc;" glyph-name="onequarter" horiz-adv-x="572" d="M35 636L104 680H167V392Q167 376 169 373T178 368L206 364V340H44V364L81 368Q89 369 90 372T92 392V640L50 613L35 636ZM459 680L488 663L113 0L84 17L459 680ZM456 48V88H315V111Q348
146 368 179T402 251T427 340H514Q492 272 446 220T344 111H456V182L531 191V111H569V88H531V48Q531 32 532 29T542 24L569 20V0H407V20L445 24Q453 25 454 28T456 48Z" />
<glyph unicode="&#xbd;" glyph-name="onehalf" horiz-adv-x="610" d="M35 636L104 680H167V392Q167 376 169 373T178 368L206 364V340H44V364L81 368Q89 369 90 372T92 392V640L50 613L35 636ZM459 680L488 663L113 0L84 17L459 680ZM540 121H564V0H339V35Q339
83 361 107T411 150Q430 162 448 174T478 204T490 252Q490 318 452 318Q404 318 413 231L338 239Q331 280 359 312T452 345Q516 345 543 315T570 247Q570 216 556 197T520 165T472 144T425 124Q406 114 393 100T374 62H505Q522 62 526 64T532 75L540 121Z" />
<glyph unicode="&#xbe;" glyph-name="threequarters" horiz-adv-x="605" d="M116 504H92V526H116Q148 526 161 546T174 598Q174 663 135 663Q111 663 102 640T97 574L22 582Q15 622 42 653T135 685Q198 685 226 659T254 598Q254 535 188 515Q257 495 257 425Q257
388 226 362T133 335Q93 335 62 351T22 414L58 424Q63 385 82 372T123 358Q152 358 164 374T177 425Q177 460 163 482T116 504ZM492 680L521 663L146 0L117 17L492 680ZM489 48V88H348V111Q381 146 401 179T435 251T460 340H547Q525 272 479 220T377 111H489V182L564
191V111H602V88H564V48Q564 32 565 29T575 24L602 20V0H440V20L478 24Q486 25 487 28T489 48Z" />
<glyph unicode="&#xbf;" glyph-name="questiondown" horiz-adv-x="492" d="M260 517Q292 517 311 498T330 446Q330 415 311 396T260 376Q229 376 209 395T189 446Q189 478 209 497T260 517ZM233 305H284V289Q284 245 272 219T243 173T208 134T178 82T166 -2Q166
-73 188 -110T254 -148Q308 -148 328 -99T339 40L454 24Q464 -29 446 -76T380 -153T253 -183Q178 -183 131 -159T63 -95T41 -12Q41 31 56 60T94 110T144 148T192 183T227 226T235 288L233 305Z" />
<glyph unicode="&#xc0;" glyph-name="Agrave" horiz-adv-x="639" d="M187 28V0H-6V28L49 35Q60 37 65 39T74 52T85 84L276 680H362L554 84Q561 62 565 52T574 40T590 35L645 28V0H369V28L424 35Q440 37 441 43T432 84L394 208H163L124 84Q114 50 115 44T132 35L187
28ZM175 243H383L280 575L175 243ZM321 752Q266 793 229 830T157 913H283Q294 868 309 837T345 773L321 752Z" />
<glyph unicode="&#xc1;" glyph-name="Aacute" horiz-adv-x="639" d="M187 28V0H-6V28L49 35Q60 37 65 39T74 52T85 84L276 680H362L554 84Q561 62 565 52T574 40T590 35L645 28V0H369V28L424 35Q440 37 441 43T432 84L394 208H163L124 84Q114 50 115 44T132 35L187
28ZM175 243H383L280 575L175 243ZM319 752L295 773Q315 805 331 836T357 913H483Q449 867 412 830T319 752Z" />
<glyph unicode="&#xc2;" glyph-name="Acircumflex" horiz-adv-x="639" d="M187 28V0H-6V28L49 35Q60 37 65 39T74 52T85 84L276 680H362L554 84Q561 62 565 52T574 40T590 35L645 28V0H369V28L424 35Q440 37 441 43T432 84L394 208H163L124 84Q114 50 115 44T132
35L187 28ZM175 243H383L280 575L175 243ZM457 774L443 752Q407 773 374 796T316 841Q265 795 197 752L183 774Q207 802 222 821T249 861T276 913H364Q380 882 391 862T418 822T457 774Z" />
<glyph unicode="&#xc3;" glyph-name="Atilde" horiz-adv-x="639" d="M187 28V0H-6V28L49 35Q60 37 65 39T74 52T85 84L276 680H362L554 84Q561 62 565 52T574 40T590 35L645 28V0H369V28L424 35Q440 37 441 43T432 84L394 208H163L124 84Q114 50 115 44T132 35L187
28ZM175 243H383L280 575L175 243ZM382 756Q360 756 342 768T307 797T277 826T248 839Q231 839 222 821T207 761H171Q179 841 200 879T260 918Q282 918 300 906T334 877T364 848T393 835Q410 835 419 854T433 913H469Q461 833 441 795T382 756Z" />
<glyph unicode="&#xc4;" glyph-name="Adieresis" horiz-adv-x="639" d="M188 28V0H-5V28L50 35Q61 37 66 39T75 52T86 84L277 680H363L555 84Q562 62 566 52T575 40T591 35L646 28V0H370V28L425 35Q441 37 442 43T433 84L395 208H164L125 84Q115 50 116 44T133
35L188 28ZM176 243H384L281 575L176 243ZM209 773Q181 773 164 790T147 836Q147 864 164 881T209 898Q236 898 254 881T272 836Q272 808 254 791T209 773ZM419 773Q391 773 374 790T357 836Q357 864 374 881T419 898Q446 898 464 881T482 836Q482 808 464 791T419
773Z" />
<glyph unicode="&#xc5;" glyph-name="Aring" horiz-adv-x="639" d="M187 28V0H-6V28L49 35Q60 37 65 39T74 52T85 84L270 660Q232 673 211 703T190 768V779Q190 808 204 834T246 876T313 893Q352 893 379 877T421 834T436 779V768Q436 737 418 708T367 664L554
84Q561 62 565 52T574 40T590 35L645 28V0H369V28L424 35Q440 37 441 43T432 84L394 208H163L124 84Q114 50 115 44T132 35L187 28ZM363 786Q363 866 313 866Q264 866 264 786V761Q264 680 313 680Q363 680 363 761V786ZM175 243H383L280 575L175 243Z" />
<glyph unicode="&#xc6;" glyph-name="AE" horiz-adv-x="908" d="M843 172V0H348V28L403 35Q419 37 422 43T425 84V208H206L139 84Q121 50 120 44T135 35L190 28V0H-6V28L49 35Q60 37 66 39T78 52T97 84L373 596Q391 630 391 636T375 645L320 652V680H833V508H805L773
619Q770 631 767 636T753 643T719 645H545V361H659Q683 361 693 362T706 369T713 387L735 468H763V219H735L713 300Q710 312 707 317T693 324T659 326H545V35H729Q753 35 763 36T776 43T783 61L815 172H843ZM224 243H425V617L224 243Z" />
<glyph unicode="&#xc7;" glyph-name="Ccedilla" horiz-adv-x="597" d="M462 -140Q462 -179 429 -201T343 -223Q302 -223 271 -206T232 -145L287 -131Q291 -164 303 -177T335 -191Q358 -191 368 -177T379 -140Q379 -117 368 -102T327 -87Q323 -87 318 -87T307 -89L294
-63L317 -8Q195 3 131 88T66 309V372Q66 468 95 539T184 650T332 690Q408 690 459 661T534 583T555 477L438 448Q448 548 418 601T327 655Q263 655 229 601T194 422V259Q194 135 233 80T352 25Q385 25 413 37T461 78T486 162L558 143Q544 87 513 53T442 5T356 -10L337
-55Q394 -56 428 -78T462 -140Z" />
<glyph unicode="&#xc8;" glyph-name="Egrave" horiz-adv-x="603" d="M510 172H538V0H43V28L98 35Q114 37 117 43T120 84V596Q120 630 117 636T98 645L43 652V680H528V508H500L468 619Q465 631 462 636T448 643T414 645H240V361H354Q378 361 388 362T401 369T408
387L430 468H458V219H430L408 300Q405 312 402 317T388 324T354 326H240V35H424Q448 35 458 36T471 43T478 61L510 172ZM333 752Q278 793 241 830T169 913H295Q306 868 321 837T357 773L333 752Z" />
<glyph unicode="&#xc9;" glyph-name="Eacute" horiz-adv-x="603" d="M510 172H538V0H43V28L98 35Q114 37 117 43T120 84V596Q120 630 117 636T98 645L43 652V680H528V508H500L468 619Q465 631 462 636T448 643T414 645H240V361H354Q378 361 388 362T401 369T408
387L430 468H458V219H430L408 300Q405 312 402 317T388 324T354 326H240V35H424Q448 35 458 36T471 43T478 61L510 172ZM331 752L307 773Q327 805 343 836T369 913H495Q461 867 424 830T331 752Z" />
<glyph unicode="&#xca;" glyph-name="Ecircumflex" horiz-adv-x="603" d="M510 172H538V0H43V28L98 35Q114 37 117 43T120 84V596Q120 630 117 636T98 645L43 652V680H528V508H500L468 619Q465 631 462 636T448 643T414 645H240V361H354Q378 361 388 362T401 369T408
387L430 468H458V219H430L408 300Q405 312 402 317T388 324T354 326H240V35H424Q448 35 458 36T471 43T478 61L510 172ZM469 774L455 752Q419 773 386 796T328 841Q277 795 209 752L195 774Q219 802 234 821T261 861T288 913H376Q392 882 403 862T430 822T469 774Z"
/>
<glyph unicode="&#xcb;" glyph-name="Edieresis" horiz-adv-x="603" d="M510 172H538V0H43V28L98 35Q114 37 117 43T120 84V596Q120 630 117 636T98 645L43 652V680H528V508H500L468 619Q465 631 462 636T448 643T414 645H240V361H354Q378 361 388 362T401 369T408
387L430 468H458V219H430L408 300Q405 312 402 317T388 324T354 326H240V35H424Q448 35 458 36T471 43T478 61L510 172ZM226 773Q198 773 181 790T164 836Q164 864 181 881T226 898Q253 898 271 881T289 836Q289 808 271 791T226 773ZM436 773Q408 773 391 790T374
836Q374 864 391 881T436 898Q463 898 481 881T499 836Q499 808 481 791T436 773Z" />
<glyph unicode="&#xcc;" glyph-name="Igrave" horiz-adv-x="360" d="M43 652V680H317V652L262 645Q246 643 243 637T240 596V84Q240 50 243 44T262 35L317 28V0H43V28L98 35Q114 37 117 43T120 84V596Q120 630 117 636T98 645L43 652ZM181 752Q126 793 89 830T17
913H143Q154 868 169 837T205 773L181 752Z" />
<glyph unicode="&#xcd;" glyph-name="Iacute" horiz-adv-x="360" d="M43 652V680H317V652L262 645Q246 643 243 637T240 596V84Q240 50 243 44T262 35L317 28V0H43V28L98 35Q114 37 117 43T120 84V596Q120 630 117 636T98 645L43 652ZM179 752L155 773Q175 805
191 836T217 913H343Q309 867 272 830T179 752Z" />
<glyph unicode="&#xce;" glyph-name="Icircumflex" horiz-adv-x="360" d="M43 652V680H317V652L262 645Q246 643 243 637T240 596V84Q240 50 243 44T262 35L317 28V0H43V28L98 35Q114 37 117 43T120 84V596Q120 630 117 636T98 645L43 652ZM317 774L303 752Q267
773 234 796T176 841Q125 795 57 752L43 774Q67 802 82 821T109 861T136 913H224Q240 882 251 862T278 822T317 774Z" />
<glyph unicode="&#xcf;" glyph-name="Idieresis" horiz-adv-x="360" d="M43 652V680H317V652L262 645Q246 643 243 637T240 596V84Q240 50 243 44T262 35L317 28V0H43V28L98 35Q114 37 117 43T120 84V596Q120 630 117 636T98 645L43 652ZM75 773Q47 773 30 790T13
836Q13 864 30 881T75 898Q102 898 120 881T138 836Q138 808 120 791T75 773ZM285 773Q257 773 240 790T223 836Q223 864 240 881T285 898Q312 898 330 881T348 836Q348 808 330 791T285 773Z" />
<glyph unicode="&#xd0;" glyph-name="Eth" horiz-adv-x="674" d="M48 652V680H343Q471 680 539 605T608 372V309Q608 151 540 76T343 0H48V28L103 35Q119 37 122 43T125 84V337H48V372H125V596Q125 630 122 636T103 645L48 652ZM385 337H245V35H338Q389 35 420
52T465 118T480 259V422Q480 514 466 562T420 627T338 645H245V372H385V337Z" />
<glyph unicode="&#xd1;" glyph-name="Ntilde" horiz-adv-x="687" d="M465 652V680H659V652L604 645Q588 643 585 637T582 596V0H527L160 593V84Q160 50 163 44T182 35L237 28V0H43V28L98 35Q114 37 117 43T120 84V596Q120 630 117 636T98 645L43 652V680H244L542
201V596Q542 630 539 636T520 645L465 652ZM422 756Q400 756 382 768T347 797T317 826T288 839Q271 839 262 821T247 761H211Q219 841 240 879T300 918Q322 918 340 906T374 877T404 848T433 835Q450 835 459 854T473 913H509Q501 833 481 795T422 756Z" />
<glyph unicode="&#xd2;" glyph-name="Ograve" horiz-adv-x="674" d="M608 372V309Q608 155 540 73T337 -10Q203 -10 135 72T66 309V372Q66 526 134 608T337 690Q471 690 539 608T608 372ZM480 422Q480 510 465 560T419 633T337 655Q288 655 256 633T209 561T194
422V259Q194 172 209 121T256 48T337 25Q387 25 418 47T465 121T480 259V422ZM343 752Q288 793 251 830T179 913H305Q316 868 331 837T367 773L343 752Z" />
<glyph unicode="&#xd3;" glyph-name="Oacute" horiz-adv-x="674" d="M608 372V309Q608 155 540 73T337 -10Q203 -10 135 72T66 309V372Q66 526 134 608T337 690Q471 690 539 608T608 372ZM480 422Q480 510 465 560T419 633T337 655Q288 655 256 633T209 561T194
422V259Q194 172 209 121T256 48T337 25Q387 25 418 47T465 121T480 259V422ZM341 752L317 773Q337 805 353 836T379 913H505Q471 867 434 830T341 752Z" />
<glyph unicode="&#xd4;" glyph-name="Ocircumflex" horiz-adv-x="674" d="M608 372V309Q608 155 540 73T337 -10Q203 -10 135 72T66 309V372Q66 526 134 608T337 690Q471 690 539 608T608 372ZM480 422Q480 510 465 560T419 633T337 655Q288 655 256 633T209 561T194
422V259Q194 172 209 121T256 48T337 25Q387 25 418 47T465 121T480 259V422ZM479 774L465 752Q429 773 396 796T338 841Q287 795 219 752L205 774Q229 802 244 821T271 861T298 913H386Q402 882 413 862T440 822T479 774Z" />
<glyph unicode="&#xd5;" glyph-name="Otilde" horiz-adv-x="674" d="M608 372V309Q608 155 540 73T337 -10Q203 -10 135 72T66 309V372Q66 526 134 608T337 690Q471 690 539 608T608 372ZM480 422Q480 510 465 560T419 633T337 655Q288 655 256 633T209 561T194
422V259Q194 172 209 121T256 48T337 25Q387 25 418 47T465 121T480 259V422ZM404 756Q382 756 364 768T329 797T299 826T270 839Q253 839 244 821T229 761H193Q201 841 222 879T282 918Q304 918 322 906T356 877T386 848T415 835Q432 835 441 854T455 913H491Q483
833 463 795T404 756Z" />
<glyph unicode="&#xd6;" glyph-name="Odieresis" horiz-adv-x="674" d="M608 372V309Q608 155 540 73T337 -10Q203 -10 135 72T66 309V372Q66 526 134 608T337 690Q471 690 539 608T608 372ZM480 422Q480 510 465 560T419 633T337 655Q288 655 256 633T209 561T194
422V259Q194 172 209 121T256 48T337 25Q387 25 418 47T465 121T480 259V422ZM237 773Q209 773 192 790T175 836Q175 864 192 881T237 898Q264 898 282 881T300 836Q300 808 282 791T237 773ZM447 773Q419 773 402 790T385 836Q385 864 402 881T447 898Q474 898
492 881T510 836Q510 808 492 791T447 773Z" />
<glyph unicode="&#xd7;" glyph-name="multiply" horiz-adv-x="588" d="M484 172L457 146L294 309L131 146L104 172L268 336L104 499L131 525L294 362L457 525L484 499L321 336L484 172Z" />
<glyph unicode="&#xd8;" glyph-name="Oslash" horiz-adv-x="674" d="M608 309Q608 155 540 73T337 -10Q222 -10 155 51L118 0H66L126 83Q66 164 66 309V372Q66 526 134 608T337 690Q452 690 519 629L556 680H608L548 597Q608 516 608 372V309ZM194 259Q194 238
195 219T198 183L466 555Q451 610 419 632T337 655Q288 655 256 633T209 561T194 422V259ZM480 422Q480 464 477 498L208 125Q223 71 255 48T337 25Q387 25 418 47T465 121T480 259V422Z" />
<glyph unicode="&#xd9;" glyph-name="Ugrave" horiz-adv-x="684" d="M461 652V680H655V652L600 645Q584 643 581 637T578 596V231Q578 111 528 51T373 -10Q252 -10 178 56T104 246V596Q104 630 101 636T82 645L27 652V680H301V652L246 645Q230 643 227 637T224
596V239Q224 127 265 77T382 27Q456 27 497 74T538 229V596Q538 630 535 636T516 645L461 652ZM383 752Q328 793 291 830T219 913H345Q356 868 371 837T407 773L383 752Z" />
<glyph unicode="&#xda;" glyph-name="Uacute" horiz-adv-x="684" d="M461 652V680H655V652L600 645Q584 643 581 637T578 596V231Q578 111 528 51T373 -10Q252 -10 178 56T104 246V596Q104 630 101 636T82 645L27 652V680H301V652L246 645Q230 643 227 637T224
596V239Q224 127 265 77T382 27Q456 27 497 74T538 229V596Q538 630 535 636T516 645L461 652ZM381 752L357 773Q377 805 393 836T419 913H545Q511 867 474 830T381 752Z" />
<glyph unicode="&#xdb;" glyph-name="Ucircumflex" horiz-adv-x="684" d="M461 652V680H655V652L600 645Q584 643 581 637T578 596V231Q578 111 528 51T373 -10Q252 -10 178 56T104 246V596Q104 630 101 636T82 645L27 652V680H301V652L246 645Q230 643 227 637T224
596V239Q224 127 265 77T382 27Q456 27 497 74T538 229V596Q538 630 535 636T516 645L461 652ZM519 774L505 752Q469 773 436 796T378 841Q327 795 259 752L245 774Q269 802 284 821T311 861T338 913H426Q442 882 453 862T480 822T519 774Z" />
<glyph unicode="&#xdc;" glyph-name="Udieresis" horiz-adv-x="684" d="M461 652V680H655V652L600 645Q584 643 581 637T578 596V231Q578 111 528 51T373 -10Q252 -10 178 56T104 246V596Q104 630 101 636T82 645L27 652V680H301V652L246 645Q230 643 227 637T224
596V239Q224 127 265 77T382 27Q456 27 497 74T538 229V596Q538 630 535 636T516 645L461 652ZM277 773Q249 773 232 790T215 836Q215 864 232 881T277 898Q304 898 322 881T340 836Q340 808 322 791T277 773ZM487 773Q459 773 442 790T425 836Q425 864 442 881T487
898Q514 898 532 881T550 836Q550 808 532 791T487 773Z" />
<glyph unicode="&#xdd;" glyph-name="Yacute" horiz-adv-x="615" d="M446 28V0H172V28L227 35Q243 37 246 43T249 84V291L90 596Q78 619 72 628T61 641T45 645L-10 652V680H275V652L220 645Q205 643 205 637T221 596L350 338L484 596Q501 629 501 636T485 645L430
652V680H625V652L570 645Q560 644 555 641T544 629T526 596L369 293V84Q369 50 372 44T391 35L446 28ZM337 752L313 773Q333 805 349 836T375 913H501Q467 867 430 830T337 752Z" />
<glyph unicode="&#xde;" glyph-name="Thorn" horiz-adv-x="598" d="M43 652V680H337V652L262 645Q246 644 243 637T240 596V541H344Q454 541 508 491T563 356V333Q563 249 509 198T344 147H240V84Q240 50 243 44T262 35L337 28V0H43V28L98 35Q114 37 117 43T120
84V596Q120 630 117 636T98 645L43 652ZM344 506H240V182H344Q388 182 411 217T435 313V376Q435 437 412 471T344 506Z" />
<glyph unicode="&#xdf;" glyph-name="germandbls" horiz-adv-x="631" d="M215 581V0H23V28L78 35Q94 37 97 43T100 84V423Q100 457 97 463T78 472L23 479V507H100V561Q100 609 120 652T186 723T314 750Q376 750 416 733T476 689T496 631Q496 602 481 579T447 533T413
487T398 432Q398 395 420 372T482 320L521 292Q607 230 607 137Q607 74 564 32T446 -10Q414 -10 381 0T320 39T278 119L343 145Q350 79 377 52T445 25Q476 25 496 43T516 99Q516 126 502 145T453 190L414 218Q387 238 365 257T331 300T318 360Q318 398 331 426T362
480T393 538T407 613Q407 672 381 693T314 715Q268 715 242 687T215 581Z" />
<glyph unicode="&#xe0;" glyph-name="agrave" horiz-adv-x="538" d="M533 25Q517 10 495 0T440 -10Q399 -10 372 8T335 59Q302 23 263 7T182 -10Q113 -10 79 28T45 125Q45 184 88 220T240 257H331V338Q331 421 310 451T250 482Q225 482 204 470T175 424T177 327L67
343Q59 389 77 428T140 492T252 517Q329 517 371 492T429 426T446 338V107Q446 56 455 43T475 30Q493 30 515 51L533 25ZM226 43Q252 43 277 56T331 107V222H256Q207 222 185 199T163 127Q163 87 179 65T226 43ZM254 579Q199 620 162 657T90 740H216Q227 695 242
664T278 600L254 579Z" />
<glyph unicode="&#xe1;" glyph-name="aacute" horiz-adv-x="538" d="M533 25Q517 10 495 0T440 -10Q399 -10 372 8T335 59Q302 23 263 7T182 -10Q113 -10 79 28T45 125Q45 184 88 220T240 257H331V338Q331 421 310 451T250 482Q225 482 204 470T175 424T177 327L67
343Q59 389 77 428T140 492T252 517Q329 517 371 492T429 426T446 338V107Q446 56 455 43T475 30Q493 30 515 51L533 25ZM226 43Q252 43 277 56T331 107V222H256Q207 222 185 199T163 127Q163 87 179 65T226 43ZM252 579L228 600Q248 632 264 663T290 740H416Q382
694 345 657T252 579Z" />
<glyph unicode="&#xe2;" glyph-name="acircumflex" horiz-adv-x="538" d="M533 25Q517 10 495 0T440 -10Q399 -10 372 8T335 59Q302 23 263 7T182 -10Q113 -10 79 28T45 125Q45 184 88 220T240 257H331V338Q331 421 310 451T250 482Q225 482 204 470T175 424T177
327L67 343Q59 389 77 428T140 492T252 517Q329 517 371 492T429 426T446 338V107Q446 56 455 43T475 30Q493 30 515 51L533 25ZM226 43Q252 43 277 56T331 107V222H256Q207 222 185 199T163 127Q163 87 179 65T226 43ZM390 601L376 579Q340 600 307 623T249 668Q198
622 130 579L116 601Q140 629 155 648T182 688T209 740H297Q313 709 324 689T351 649T390 601Z" />
<glyph unicode="&#xe3;" glyph-name="atilde" horiz-adv-x="538" d="M533 25Q517 10 495 0T440 -10Q399 -10 372 8T335 59Q302 23 263 7T182 -10Q113 -10 79 28T45 125Q45 184 88 220T240 257H331V338Q331 421 310 451T250 482Q225 482 204 470T175 424T177 327L67
343Q59 389 77 428T140 492T252 517Q329 517 371 492T429 426T446 338V107Q446 56 455 43T475 30Q493 30 515 51L533 25ZM226 43Q252 43 277 56T331 107V222H256Q207 222 185 199T163 127Q163 87 179 65T226 43ZM315 583Q293 583 275 595T240 624T210 653T181 666Q164
666 155 648T140 588H104Q112 668 133 706T193 745Q215 745 233 733T267 704T297 675T326 662Q343 662 352 681T366 740H402Q394 660 374 622T315 583Z" />
<glyph unicode="&#xe4;" glyph-name="adieresis" horiz-adv-x="538" d="M533 25Q517 10 495 0T440 -10Q399 -10 372 8T335 59Q302 23 263 7T182 -10Q113 -10 79 28T45 125Q45 184 88 220T240 257H331V338Q331 421 310 451T250 482Q225 482 204 470T175 424T177
327L67 343Q59 389 77 428T140 492T252 517Q329 517 371 492T429 426T446 338V107Q446 56 455 43T475 30Q493 30 515 51L533 25ZM226 43Q252 43 277 56T331 107V222H256Q207 222 185 199T163 127Q163 87 179 65T226 43ZM148 600Q120 600 103 617T86 663Q86 691
103 708T148 725Q175 725 193 708T211 663Q211 635 193 618T148 600ZM358 600Q330 600 313 617T296 663Q296 691 313 708T358 725Q385 725 403 708T421 663Q421 635 403 618T358 600Z" />
<glyph unicode="&#xe5;" glyph-name="aring" horiz-adv-x="538" d="M533 25Q517 10 495 0T440 -10Q399 -10 372 8T335 59Q302 23 263 7T182 -10Q113 -10 79 28T45 125Q45 184 88 220T240 257H331V338Q331 421 310 451T250 482Q225 482 204 470T175 424T177 327L67
343Q59 389 77 428T140 492T252 517Q329 517 371 492T429 426T446 338V107Q446 56 455 43T475 30Q493 30 515 51L533 25ZM226 43Q252 43 277 56T331 107V222H256Q207 222 185 199T163 127Q163 87 179 65T226 43ZM376 689V678Q376 650 362 624T320 580T253 563Q214
563 187 580T145 623T130 678V689Q130 718 144 744T186 786T253 803Q292 803 319 787T361 744T376 689ZM303 696Q303 776 253 776Q204 776 204 696V671Q204 590 253 590Q303 590 303 671V696Z" />
<glyph unicode="&#xe6;" glyph-name="ae" horiz-adv-x="807" d="M752 119Q734 49 685 20T571 -10Q496 -10 445 18T365 95Q329 40 281 15T182 -10Q113 -10 79 28T45 125Q45 184 88 220T240 257H331V338Q331 421 310 451T250 482Q225 482 204 470T175 424T177 327L67
343Q59 389 77 428T140 492T252 517Q312 517 347 498T401 446Q426 480 464 498T551 517Q611 517 657 494T730 426T757 319Q757 304 756 287T750 253H454V224Q454 118 484 72T581 25Q624 25 654 50T688 137L752 119ZM551 482Q502 482 478 437T454 288H635Q639 308
640 325T642 358Q642 422 617 452T551 482ZM226 43Q255 43 284 61T348 132Q341 152 337 174T332 222H256Q207 222 185 199T163 127Q163 87 179 65T226 43Z" />
<glyph unicode="&#xe7;" glyph-name="ccedilla" horiz-adv-x="503" d="M398 -140Q398 -179 365 -201T279 -223Q238 -223 207 -206T168 -145L223 -131Q227 -164 239 -177T271 -191Q294 -191 304 -177T315 -140Q315 -117 304 -102T263 -87Q259 -87 254 -87T243 -89L230
-63L252 -9Q152 1 103 69T53 244V264Q53 379 109 448T271 517Q341 517 385 490T448 418T458 322L348 306Q359 390 339 436T271 482Q223 482 200 437T176 284V224Q176 118 203 72T291 25Q336 25 364 50T397 137L461 119Q444 51 399 22T292 -10L273 -55Q330 -56 364
-78T398 -140Z" />
<glyph unicode="&#xe8;" glyph-name="egrave" horiz-adv-x="529" d="M474 119Q456 49 407 20T293 -10Q173 -10 113 59T53 244V264Q53 379 109 448T273 517Q333 517 379 494T452 426T479 319Q479 304 478 287T472 253H176V224Q176 118 206 72T303 25Q346 25 376
50T410 137L474 119ZM273 482Q224 482 200 437T176 288H357Q361 308 362 325T364 358Q364 422 339 452T273 482ZM274 579Q219 620 182 657T110 740H236Q247 695 262 664T298 600L274 579Z" />
<glyph unicode="&#xe9;" glyph-name="eacute" horiz-adv-x="529" d="M474 119Q456 49 407 20T293 -10Q173 -10 113 59T53 244V264Q53 379 109 448T273 517Q333 517 379 494T452 426T479 319Q479 304 478 287T472 253H176V224Q176 118 206 72T303 25Q346 25 376
50T410 137L474 119ZM273 482Q224 482 200 437T176 288H357Q361 308 362 325T364 358Q364 422 339 452T273 482ZM272 579L248 600Q268 632 284 663T310 740H436Q402 694 365 657T272 579Z" />
<glyph unicode="&#xea;" glyph-name="ecircumflex" horiz-adv-x="529" d="M474 119Q456 49 407 20T293 -10Q173 -10 113 59T53 244V264Q53 379 109 448T273 517Q333 517 379 494T452 426T479 319Q479 304 478 287T472 253H176V224Q176 118 206 72T303 25Q346 25
376 50T410 137L474 119ZM273 482Q224 482 200 437T176 288H357Q361 308 362 325T364 358Q364 422 339 452T273 482ZM410 601L396 579Q360 600 327 623T269 668Q218 622 150 579L136 601Q160 629 175 648T202 688T229 740H317Q333 709 344 689T371 649T410 601Z"
/>
<glyph unicode="&#xeb;" glyph-name="edieresis" horiz-adv-x="529" d="M474 119Q456 49 407 20T293 -10Q173 -10 113 59T53 244V264Q53 379 109 448T273 517Q333 517 379 494T452 426T479 319Q479 304 478 287T472 253H176V224Q176 118 206 72T303 25Q346 25
376 50T410 137L474 119ZM273 482Q224 482 200 437T176 288H357Q361 308 362 325T364 358Q364 422 339 452T273 482ZM167 600Q139 600 122 617T105 663Q105 691 122 708T167 725Q194 725 212 708T230 663Q230 635 212 618T167 600ZM377 600Q349 600 332 617T315
663Q315 691 332 708T377 725Q404 725 422 708T440 663Q440 635 422 618T377 600Z" />
<glyph unicode="&#xec;" glyph-name="igrave" horiz-adv-x="308" d="M23 479V507H215V84Q215 50 218 44T237 35L292 28V0H23V28L78 35Q94 37 97 43T100 84V423Q100 457 97 463T78 472L23 479ZM408 579Q353 620 316 657T244 740H370Q381 695 396 664T432 600L408 579Z" />
<glyph unicode="&#xed;" glyph-name="iacute" horiz-adv-x="308" d="M23 479V507H215V84Q215 50 218 44T237 35L292 28V0H23V28L78 35Q94 37 97 43T100 84V423Q100 457 97 463T78 472L23 479ZM406 579L382 600Q402 632 418 663T444 740H570Q536 694 499 657T406 579Z" />
<glyph unicode="&#xee;" glyph-name="icircumflex" horiz-adv-x="308" d="M23 479V507H215V84Q215 50 218 44T237 35L292 28V0H23V28L78 35Q94 37 97 43T100 84V423Q100 457 97 463T78 472L23 479ZM544 601L530 579Q494 600 461 623T403 668Q352 622 284 579L270
601Q294 629 309 648T336 688T363 740H451Q467 709 478 689T505 649T544 601Z" />
<glyph unicode="&#xef;" glyph-name="idieresis" horiz-adv-x="308" d="M23 479V507H215V84Q215 50 218 44T237 35L292 28V0H23V28L78 35Q94 37 97 43T100 84V423Q100 457 97 463T78 472L23 479ZM302 600Q274 600 257 617T240 663Q240 691 257 708T302 725Q329
725 347 708T365 663Q365 635 347 618T302 600ZM512 600Q484 600 467 617T450 663Q450 691 467 708T512 725Q539 725 557 708T575 663Q575 635 557 618T512 600Z" />
<glyph unicode="&#xf0;" glyph-name="eth" horiz-adv-x="561" d="M507 252Q507 126 447 58T277 -10Q168 -10 109 51T49 214V234Q49 302 76 352T153 429T266 457Q296 457 323 449T373 427Q363 477 343 523T287 609L178 529L156 559L261 636Q215 682 150 719L163
750Q202 732 236 711T301 666L416 750L438 720L331 641Q418 565 462 474T507 292V252ZM172 194Q172 103 199 64T277 25Q312 25 336 44T372 108T384 232V312Q384 346 381 379Q353 405 326 413T275 422Q226 422 199 384T172 254V194Z" />
<glyph unicode="&#xf1;" glyph-name="ntilde" horiz-adv-x="623" d="M612 28V0H343V28L398 35Q414 37 417 43T420 84V336Q420 405 400 436T339 468Q322 468 300 460T255 429T215 364V84Q215 50 218 44T237 35L292 28V0H23V28L78 35Q94 37 97 43T100 84V423Q100
457 97 463T78 472L23 479V507H209V419Q238 470 283 493T375 517Q449 517 492 470T535 337V84Q535 50 538 44T557 35L612 28ZM384 583Q362 583 344 595T309 624T279 653T250 666Q233 666 224 648T209 588H173Q181 668 202 706T262 745Q284 745 302 733T336 704T366
675T395 662Q412 662 421 681T435 740H471Q463 660 443 622T384 583Z" />
<glyph unicode="&#xf2;" glyph-name="ograve" horiz-adv-x="562" d="M510 264V244Q510 129 451 60T281 -10Q171 -10 112 59T52 244V264Q52 379 111 448T281 517Q391 517 450 448T510 264ZM387 284Q387 391 360 436T281 482Q230 482 203 437T175 284V224Q175 118
202 72T281 25Q333 25 360 71T387 224V284ZM282 579Q227 620 190 657T118 740H244Q255 695 270 664T306 600L282 579Z" />
<glyph unicode="&#xf3;" glyph-name="oacute" horiz-adv-x="562" d="M510 264V244Q510 129 451 60T281 -10Q171 -10 112 59T52 244V264Q52 379 111 448T281 517Q391 517 450 448T510 264ZM387 284Q387 391 360 436T281 482Q230 482 203 437T175 284V224Q175 118
202 72T281 25Q333 25 360 71T387 224V284ZM280 579L256 600Q276 632 292 663T318 740H444Q410 694 373 657T280 579Z" />
<glyph unicode="&#xf4;" glyph-name="ocircumflex" horiz-adv-x="562" d="M510 264V244Q510 129 451 60T281 -10Q171 -10 112 59T52 244V264Q52 379 111 448T281 517Q391 517 450 448T510 264ZM387 284Q387 391 360 436T281 482Q230 482 203 437T175 284V224Q175
118 202 72T281 25Q333 25 360 71T387 224V284ZM418 601L404 579Q368 600 335 623T277 668Q226 622 158 579L144 601Q168 629 183 648T210 688T237 740H325Q341 709 352 689T379 649T418 601Z" />
<glyph unicode="&#xf5;" glyph-name="otilde" horiz-adv-x="562" d="M510 264V244Q510 129 451 60T281 -10Q171 -10 112 59T52 244V264Q52 379 111 448T281 517Q391 517 450 448T510 264ZM387 284Q387 391 360 436T281 482Q230 482 203 437T175 284V224Q175 118
202 72T281 25Q333 25 360 71T387 224V284ZM343 583Q321 583 303 595T268 624T238 653T209 666Q192 666 183 648T168 588H132Q140 668 161 706T221 745Q243 745 261 733T295 704T325 675T354 662Q371 662 380 681T394 740H430Q422 660 402 622T343 583Z" />
<glyph unicode="&#xf6;" glyph-name="odieresis" horiz-adv-x="562" d="M510 264V244Q510 129 451 60T281 -10Q171 -10 112 59T52 244V264Q52 379 111 448T281 517Q391 517 450 448T510 264ZM387 284Q387 391 360 436T281 482Q230 482 203 437T175 284V224Q175
118 202 72T281 25Q333 25 360 71T387 224V284ZM176 600Q148 600 131 617T114 663Q114 691 131 708T176 725Q203 725 221 708T239 663Q239 635 221 618T176 600ZM386 600Q358 600 341 617T324 663Q324 691 341 708T386 725Q413 725 431 708T449 663Q449 635 431
618T386 600Z" />
<glyph unicode="&#xf7;" glyph-name="divide" horiz-adv-x="588" d="M294 457Q263 457 244 476T224 528Q224 560 243 579T294 598Q325 598 345 579T365 528Q365 496 345 477T294 457ZM87 317V352H501V317H87ZM294 71Q263 71 244 90T224 142Q224 174 243 193T294
212Q325 212 345 193T365 142Q365 110 345 91T294 71Z" />
<glyph unicode="&#xf8;" glyph-name="oslash" horiz-adv-x="562" d="M510 244Q510 129 451 60T281 -10Q236 -10 200 2T135 37L106 0H52L105 67Q52 132 52 244V264Q52 379 111 448T281 517Q326 517 362 505T427 470L456 507H510L457 440Q510 375 510 264V244ZM175
224Q175 188 178 159L373 403Q361 445 338 463T281 482Q230 482 203 437T175 284V224ZM387 284Q387 321 384 349L189 104Q202 63 225 44T281 25Q333 25 360 71T387 224V284Z" />
<glyph unicode="&#xf9;" glyph-name="ugrave" horiz-adv-x="606" d="M590 28V0H404V88Q376 37 332 14T243 -10Q172 -10 130 37T88 170V423Q88 457 85 463T66 472L11 479V507H203V171Q203 102 222 71T279 39Q295 39 316 47T360 78T398 143V423Q398 457 395 464T376
472L301 479V507H513V84Q513 50 516 44T535 35L590 28ZM300 579Q245 620 208 657T136 740H262Q273 695 288 664T324 600L300 579Z" />
<glyph unicode="&#xfa;" glyph-name="uacute" horiz-adv-x="606" d="M590 28V0H404V88Q376 37 332 14T243 -10Q172 -10 130 37T88 170V423Q88 457 85 463T66 472L11 479V507H203V171Q203 102 222 71T279 39Q295 39 316 47T360 78T398 143V423Q398 457 395 464T376
472L301 479V507H513V84Q513 50 516 44T535 35L590 28ZM298 579L274 600Q294 632 310 663T336 740H462Q428 694 391 657T298 579Z" />
<glyph unicode="&#xfb;" glyph-name="ucircumflex" horiz-adv-x="606" d="M590 28V0H404V88Q376 37 332 14T243 -10Q172 -10 130 37T88 170V423Q88 457 85 463T66 472L11 479V507H203V171Q203 102 222 71T279 39Q295 39 316 47T360 78T398 143V423Q398 457 395
464T376 472L301 479V507H513V84Q513 50 516 44T535 35L590 28ZM436 601L422 579Q386 600 353 623T295 668Q244 622 176 579L162 601Q186 629 201 648T228 688T255 740H343Q359 709 370 689T397 649T436 601Z" />
<glyph unicode="&#xfc;" glyph-name="udieresis" horiz-adv-x="606" d="M590 28V0H404V88Q376 37 332 14T243 -10Q172 -10 130 37T88 170V423Q88 457 85 463T66 472L11 479V507H203V171Q203 102 222 71T279 39Q295 39 316 47T360 78T398 143V423Q398 457 395 464T376
472L301 479V507H513V84Q513 50 516 44T535 35L590 28ZM194 600Q166 600 149 617T132 663Q132 691 149 708T194 725Q221 725 239 708T257 663Q257 635 239 618T194 600ZM404 600Q376 600 359 617T342 663Q342 691 359 708T404 725Q431 725 449 708T467 663Q467
635 449 618T404 600Z" />
<glyph unicode="&#xfd;" glyph-name="yacute" horiz-adv-x="550" d="M303 -50Q280 -113 253 -151T185 -206T85 -223V-113Q146 -113 183 -105T241 -78T272 -30L282 0H230L88 423Q81 446 77 455T67 468T50 472L-5 479V507H265V479L210 472Q198 471 196 465T204 423L313
93L426 427Q437 459 436 464T419 472L364 479V507H555V479L500 472Q485 470 480 464T464 427L303 -50ZM308 579L284 600Q304 632 320 663T346 740H472Q438 694 401 657T308 579Z" />
<glyph unicode="&#xfe;" glyph-name="thorn" horiz-adv-x="582" d="M13 712V740H205V433Q232 475 265 496T343 517Q427 517 476 451T526 264V244Q526 128 469 59T311 -10Q251 -10 205 20V-129Q205 -163 208 -169T227 -178L302 -185V-213H13V-185L68 -178Q84 -176
87 -170T90 -129V656Q90 690 87 696T68 705L13 712ZM317 473Q292 473 265 453T205 369V67Q243 29 298 29Q354 29 378 78T403 214V294Q403 387 380 430T317 473Z" />
<glyph unicode="&#xff;" glyph-name="ydieresis" horiz-adv-x="550" d="M303 -50Q280 -113 253 -151T185 -206T85 -223V-113Q146 -113 183 -105T241 -78T272 -30L282 0H230L88 423Q81 446 77 455T67 468T50 472L-5 479V507H265V479L210 472Q198 471 196 465T204
423L313 93L426 427Q437 459 436 464T419 472L364 479V507H555V479L500 472Q485 470 480 464T464 427L303 -50ZM204 600Q176 600 159 617T142 663Q142 691 159 708T204 725Q231 725 249 708T267 663Q267 635 249 618T204 600ZM414 600Q386 600 369 617T352 663Q352
691 369 708T414 725Q441 725 459 708T477 663Q477 635 459 618T414 600Z" />
<glyph unicode="&#x2013;" glyph-name="endash" horiz-adv-x="584" d="M60 317V352H524V317H60Z" />
<glyph unicode="&#x2014;" glyph-name="emdash" horiz-adv-x="784" d="M60 317V352H724V317H60Z" />
<glyph unicode="&#x2018;" glyph-name="quoteleft" horiz-adv-x="255" d="M193 472Q193 443 175 425T128 407Q100 407 81 427T62 486Q62 524 87 578T164 690L187 670Q153 630 140 598T125 538H128Q157 538 175 520T193 472Z" />
<glyph unicode="&#x2019;" glyph-name="quoteright" horiz-adv-x="255" d="M193 611Q193 573 168 520T91 407L68 427Q102 468 115 500T130 559H127Q98 559 80 577T62 625Q62 654 80 672T127 690Q156 690 174 670T193 611Z" />
<glyph unicode="&#x201a;" glyph-name="quotesinglbase" horiz-adv-x="255" d="M194 42Q194 4 169 -49T92 -162L69 -142Q103 -101 116 -69T131 -10H128Q99 -10 81 8T63 56Q63 85 81 103T128 121Q157 121 175 101T194 42Z" />
<glyph unicode="&#x201c;" glyph-name="quotedblleft" horiz-adv-x="448" d="M386 472Q386 443 368 425T321 407Q293 407 274 427T255 486Q255 524 280 578T357 690L380 670Q346 630 333 598T318 538H321Q350 538 368 520T386 472ZM193 472Q193 443 175 425T128
407Q100 407 81 427T62 486Q62 524 87 578T164 690L187 670Q153 630 140 598T125 538H128Q157 538 175 520T193 472Z" />
<glyph unicode="&#x201d;" glyph-name="quotedblright" horiz-adv-x="448" d="M193 611Q193 573 168 520T91 407L68 427Q102 468 115 500T130 559H127Q98 559 80 577T62 625Q62 654 80 672T127 690Q156 690 174 670T193 611ZM386 611Q386 573 361 520T284 407L261
427Q295 468 308 500T323 559H320Q291 559 273 577T255 625Q255 654 273 672T320 690Q349 690 367 670T386 611Z" />
<glyph unicode="&#x201e;" glyph-name="quotedblbase" horiz-adv-x="448" d="M194 42Q194 4 169 -49T92 -162L69 -142Q103 -101 116 -69T131 -10H128Q99 -10 81 8T63 56Q63 85 81 103T128 121Q157 121 175 101T194 42ZM387 42Q387 4 362 -49T285 -162L262 -142Q296
-101 309 -69T324 -10H321Q292 -10 274 8T256 56Q256 85 274 103T321 121Q350 121 368 101T387 42Z" />
<glyph unicode="&#x2022;" glyph-name="bullet" horiz-adv-x="264" d="M132 240Q92 240 66 266T39 334Q39 374 65 400T132 426Q173 426 199 400T225 334Q225 293 199 267T132 240Z" />
<glyph unicode="&#x2039;" glyph-name="guilsinglleft" horiz-adv-x="401" d="M346 30L325 10L50 232V256L325 478L346 458L180 244L346 30Z" />
<glyph unicode="&#x203a;" glyph-name="guilsinglright" horiz-adv-x="401" d="M55 459L76 479L351 257V233L76 11L55 31L221 245L55 459Z" />
</font>
</defs>
</svg>
