<?xml version="1.0" standalone="no"?>
<!DOCTYPE svg PUBLIC "-//W3C//DTD SVG 1.1//EN" "http://www.w3.org/Graphics/SVG/1.1/DTD/svg11.dtd">
<svg xmlns="http://www.w3.org/2000/svg">
<defs >
<font id="InriaSerif" horiz-adv-x="571" ><font-face
    font-family="Inria Serif"
    units-per-em="1000"
    panose-1="0 0 0 0 0 0 0 0 0 0"
    ascent="976"
    descent="-223"
    alphabetic="0" />
<glyph unicode=" " glyph-name="space" horiz-adv-x="227" />
<glyph unicode="!" glyph-name="exclam" horiz-adv-x="258" d="M133 184H102Q115 255 121 307T131 401T138 484T147 571T164 680H246Q235 618 225 572T203 484T181 401T158 307T133 184ZM89 -10Q65 -10 51 3T36 40Q36 66 53 84T98 102Q123 102 137 89T151 52Q151
26 135 8T89 -10Z" />
<glyph unicode="&quot;" glyph-name="quotedbl" horiz-adv-x="426" d="M176 438H149Q155 468 156 490T158 528Q158 562 153 581T147 623Q147 655 163 672T202 690Q222 690 234 678T246 645Q246 626 239 611T221 577T198 525T176 438ZM344 438H317Q323 468 324
490T326 528Q326 562 321 581T315 623Q315 655 331 672T370 690Q390 690 402 678T414 645Q414 626 407 611T389 577T366 525T344 438Z" />
<glyph unicode="#" glyph-name="numbersign" horiz-adv-x="645" d="M544 211H426L320 -10L288 2L389 211H164L58 -10L26 2L127 211H18L24 243H142L235 436H127L133 468H250L357 690L389 677L288 468H512L619 690L651 677L550 468H659L653 436H535L442 243H550L544
211ZM180 243H404L497 436H273L180 243Z" />
<glyph unicode="$" glyph-name="dollar" horiz-adv-x="548" d="M486 197Q486 144 460 97T379 20T242 -10L222 -125H186L207 -9Q161 -4 122 14T58 71T32 172L95 192Q92 133 107 97T149 44T212 23L262 306L225 320Q165 344 133 387T100 494Q100 547 124 591T199
663T325 690H330L350 805H386L365 688Q432 680 469 648T518 571T514 483L427 465Q451 544 435 593T359 654L312 383L355 365Q418 340 452 300T486 197ZM178 524Q178 479 200 449T278 396L324 658H321Q256 658 217 625T178 524ZM299 291L296 292L248 22Q326 24 366
61T407 161Q407 207 383 237T299 291Z" />
<glyph unicode="%" glyph-name="percent" horiz-adv-x="719" d="M366 527L363 511Q353 446 312 411T212 375Q143 375 111 420T89 531L91 547Q102 612 143 648T242 685Q289 685 319 664T361 607T366 527ZM607 680L632 662L143 0L118 17L607 680ZM304 544Q313 599
297 629T244 659Q214 659 191 635T158 557L151 516Q141 461 157 431T211 400Q241 400 264 424T297 502L304 544ZM663 147L660 131Q650 66 609 31T509 -5Q440 -5 408 40T386 151L389 167Q400 232 440 268T539 305Q586 305 616 284T658 227T663 147ZM601 164Q611
219 594 249T541 279Q511 279 488 255T455 177L448 136Q438 81 455 51T508 20Q539 20 562 44T594 122L601 164Z" />
<glyph unicode="&amp;" glyph-name="ampersand" horiz-adv-x="619" d="M495 184Q495 124 463 81T377 14T252 -10Q152 -10 95 30T38 149Q38 228 97 277T250 351Q190 392 159 434T128 528Q128 576 154 612T226 669T328 690Q398 690 442 662T501 590T500 497L414
478Q439 565 412 611T327 658Q283 658 250 627T216 533Q216 495 232 449T288 361L418 388Q476 402 520 421T603 471L622 387Q582 376 545 369T473 357L403 346Q495 278 495 184ZM126 151Q126 84 161 53T257 22Q327 22 373 66T419 193Q419 232 406 270T362 340L302
331Q214 318 170 272T126 151Z" />
<glyph unicode="&apos;" glyph-name="quotesingle" horiz-adv-x="258" d="M176 438H149Q155 468 156 490T158 528Q158 562 153 581T147 623Q147 655 163 672T202 690Q222 690 234 678T246 645Q246 626 239 611T221 577T198 525T176 438Z" />
<glyph unicode="(" glyph-name="parenleft" horiz-adv-x="336" d="M80 286L86 326Q106 457 180 559T381 750L402 722Q302 643 248 542T172 318L165 280Q153 206 155 132T180 -10T247 -131L222 -153Q161 -91 126 -17T80 135T80 286Z" />
<glyph unicode=")" glyph-name="parenright" horiz-adv-x="336" d="M274 310L268 270Q249 140 174 38T-27 -153L-47 -125Q52 -46 106 54T182 279L189 316Q202 390 199 465T175 607T107 728L132 750Q193 688 228 614T274 462T274 310Z" />
<glyph unicode="*" glyph-name="asterisk" horiz-adv-x="444" d="M381 329L316 297Q303 322 298 340T290 376T280 415T260 465Q236 443 224 426T202 393T182 362T150 327L99 378Q119 398 135 408T167 428T201 449T243 484Q214 499 193 506T155 517T120 526T76
545L111 610Q135 597 150 585T178 561T208 536T254 507Q260 539 260 560T259 599T257 636T262 683L333 670Q329 643 322 625T308 591T293 555T280 501Q312 506 332 512T369 526T404 539T451 549L461 477Q433 473 414 474T377 477T337 480T283 476Q297 447 310 430T334
399T357 370T381 329Z" />
<glyph unicode="+" glyph-name="plus" horiz-adv-x="588" d="M513 317H323L289 123H254L288 317H99L105 350H294L328 545H363L329 350H519L513 317Z" />
<glyph unicode="," glyph-name="comma" horiz-adv-x="258" d="M148 41Q148 -8 105 -69T-4 -193L-23 -174Q27 -124 52 -83T85 -10Q64 -9 52 3T39 38Q39 64 55 81T97 98Q120 98 134 84T148 41Z" />
<glyph unicode="-" glyph-name="hyphen" horiz-adv-x="404" d="M82 317L88 352H352L346 317H82Z" />
<glyph unicode="." glyph-name="period" horiz-adv-x="258" d="M36 40Q36 66 53 84T98 102Q123 102 137 89T151 52Q151 26 135 8T89 -10Q65 -10 51 3T36 40Z" />
<glyph unicode="/" glyph-name="slash" horiz-adv-x="379" d="M412 740L447 723L-48 -143L-83 -126L412 740Z" />
<glyph unicode="0" glyph-name="zero" horiz-adv-x="614" d="M559 366L548 301Q522 150 454 70T277 -10Q200 -10 152 30T87 144T87 315L98 380Q124 529 192 609T369 690Q446 690 494 650T559 536T559 366ZM473 419Q494 542 466 600T369 658Q303 658 263 604T201
426L173 261Q152 139 180 81T276 22Q343 22 383 76T445 254L473 419Z" />
<glyph unicode="1" glyph-name="one" horiz-adv-x="353" d="M91 597L238 680H309L204 81Q198 47 200 41T217 32L271 26L266 0H5L10 26L86 32Q102 33 106 39T117 81L213 630L105 569L91 597Z" />
<glyph unicode="2" glyph-name="two" horiz-adv-x="539" d="M455 206L419 0H17L27 53Q40 125 73 172T150 252T242 313Q287 340 327 369T393 440T419 546Q419 606 396 632T323 658Q257 658 223 609T182 467L98 483Q98 539 123 586T199 661T323 690Q390 690 431
668T493 609T513 526Q513 469 490 431T429 367T344 319T252 274Q190 243 140 197T69 75H323Q347 75 357 76T372 84T382 101L429 206H455Z" />
<glyph unicode="3" glyph-name="three" horiz-adv-x="527" d="M458 195Q458 144 432 97T352 20T215 -10Q135 -10 85 26T23 147L80 165Q80 110 98 79T144 35T205 22Q279 22 320 74T362 205Q362 267 330 300T224 334H197L204 366H231Q296 366 335 392T393 461T411
551Q411 607 388 632T318 658Q251 658 217 609T175 467L91 483Q91 537 117 584T194 660T320 690Q418 690 462 646T507 536Q507 466 462 417T326 349Q390 334 424 296T458 195Z" />
<glyph unicode="4" glyph-name="four" horiz-adv-x="495" d="M272 81L289 176H0L5 208Q86 281 143 350T244 498T326 680H432Q371 540 274 428T51 208H294L322 365L411 379L381 208H458L452 176H376L359 81Q353 47 355 41T372 32L426 26L421 0H160L165 26L241 32Q258
33 262 39T272 81Z" />
<glyph unicode="5" glyph-name="five" horiz-adv-x="511" d="M92 348L169 680H416Q441 680 451 681T465 687T474 706L495 762H521L494 603H185L137 394Q168 412 201 420T269 429Q357 429 407 381T458 243Q458 199 444 154T398 72T318 13T201 -10Q132 -10 86 26T30
147L87 165Q87 110 102 79T142 35T197 22Q249 22 286 54T343 141T364 263Q364 328 340 361T260 395Q226 395 189 383T110 339L92 348Z" />
<glyph unicode="6" glyph-name="six" horiz-adv-x="575" d="M505 176Q497 119 464 77T382 13T273 -10Q193 -10 147 30T86 144T87 316L98 379Q125 543 196 616T373 690Q441 690 484 663T543 591T547 496L459 481Q482 566 460 612T370 658Q335 658 302 639T244 573T203
437L185 333Q220 367 260 383T343 400Q399 400 439 374T498 302T508 193L505 176ZM171 256Q150 133 176 78T270 22Q323 22 361 57T413 178L415 191Q427 269 406 316T324 363Q289 363 250 344T175 277L171 256Z" />
<glyph unicode="7" glyph-name="seven" horiz-adv-x="456" d="M503 611Q448 553 405 494T327 366T264 208T209 0H103Q130 94 161 173T233 322T328 461T456 603H193Q170 603 160 602T145 595T135 577L93 480H66L102 680H515L503 611Z" />
<glyph unicode="8" glyph-name="eight" horiz-adv-x="544" d="M476 185Q476 135 451 90T374 18T248 -10Q180 -10 133 12T62 69T38 147Q38 203 81 254T215 338Q168 367 140 406T112 501Q112 554 137 596T210 664T326 690Q415 690 467 648T519 539Q519 490 482 442T355
365Q476 298 476 185ZM288 403L327 381Q370 397 394 423T427 479T437 539Q437 598 405 628T322 658Q289 658 259 645T211 605T192 534Q192 485 217 457T288 403ZM120 149Q120 90 154 56T251 22Q318 22 357 58T397 156Q397 197 376 229T299 291L243 321Q183 299
152 254T120 149Z" />
<glyph unicode="9" glyph-name="nine" horiz-adv-x="575" d="M509 300Q491 189 450 121T351 22T222 -10Q153 -10 104 26T47 146L109 164Q108 109 122 78T163 35T220 22Q256 22 292 40T359 107T404 243L418 325Q384 294 345 278T264 262Q208 262 167 289T108 365T99
479L102 497Q111 556 144 599T226 666T334 690Q415 690 461 649T521 535T519 363L509 300ZM191 478Q178 397 200 348T283 299Q317 299 355 317T427 379L435 424Q457 546 431 602T337 658Q285 658 247 621T194 495L191 478Z" />
<glyph unicode=":" glyph-name="colon" horiz-adv-x="258" d="M160 392Q135 392 121 405T107 442Q107 468 123 486T168 505Q193 505 207 492T221 454Q221 429 205 411T160 392ZM89 -10Q65 -10 51 3T36 40Q36 66 53 84T98 102Q123 102 137 89T151 52Q151 26 135 8T89 -10Z" />
<glyph unicode=";" glyph-name="semicolon" horiz-adv-x="258" d="M160 392Q135 392 121 405T107 442Q107 468 123 486T168 505Q193 505 207 492T221 454Q221 429 205 411T160 392ZM148 41Q148 -8 105 -69T-4 -193L-23 -174Q27 -124 52 -83T85 -10Q64 -9 52 3T39
38Q39 64 55 81T97 98Q120 98 134 84T148 41Z" />
<glyph unicode="&lt;" glyph-name="less" horiz-adv-x="588" d="M489 187L473 157L99 318L104 346L534 507L543 476L152 330L489 187Z" />
<glyph unicode="=" glyph-name="equal" horiz-adv-x="588" d="M116 417L122 450H536L530 417H116ZM81 217L87 250H501L495 217H81Z" />
<glyph unicode="&gt;" glyph-name="greater" horiz-adv-x="588" d="M513 318L82 157L74 189L464 334L128 477L144 507L518 346L513 318Z" />
<glyph unicode="?" glyph-name="question" horiz-adv-x="479" d="M242 184H196L200 206Q207 249 224 278T262 328T306 367T348 408T380 462T392 540Q392 603 366 630T298 658Q237 658 204 609T164 467L85 483Q86 538 108 585T178 661T302 690Q393 690 438 646T484
536Q484 492 468 461T425 407T368 365T311 324T266 275T244 207L242 184ZM192 -10Q167 -10 153 3T139 40Q139 66 156 84T201 102Q225 102 239 89T254 52Q254 26 237 8T192 -10Z" />
<glyph unicode="@" glyph-name="at" horiz-adv-x="965" d="M741 -167Q686 -195 618 -209T487 -223Q390 -223 312 -191T178 -100T92 39T62 214Q62 315 94 401T184 552T323 653T500 690Q588 690 662 659T791 571T876 440T906 278Q906 199 879 136T804 35T695 -2Q647
-2 614 22T572 93Q538 40 501 17T422 -7Q369 -7 334 26T285 116T284 246L288 268Q300 333 331 379T406 449T499 474Q543 474 573 456T625 406Q653 434 674 464H709L653 153Q644 102 649 76T668 39T700 29Q746 29 785 61T848 149T872 278Q872 358 845 427T767 548T649
629T500 658Q411 658 337 624T209 530T126 388T96 214Q96 96 144 5T280 -139T487 -191Q543 -191 604 -176T721 -119L741 -167ZM363 216Q347 122 368 74T430 25Q451 25 473 35T521 75T575 161L611 366Q573 442 504 442Q449 442 418 398T373 276L363 216Z" />
<glyph unicode="A" glyph-name="A" horiz-adv-x="628" d="M152 26L147 0H-46L-41 26L14 32Q25 33 31 35T42 48T59 81L358 680H421L510 81Q515 47 519 41T537 32L591 26L587 0H347L352 26L408 32Q425 34 427 40T425 81L407 209H163L99 81Q82 47 82 41T98 32L152
26ZM179 241H402L352 589L179 241Z" />
<glyph unicode="B" glyph-name="B" horiz-adv-x="605" d="M119 653L124 680H392Q457 680 497 658T554 598T563 514L559 486Q550 434 515 399T421 349Q486 335 516 292T536 188L531 161Q520 88 463 44T307 0H4L9 26L65 32Q82 34 86 40T96 81L187 599Q193 634 191
640T174 648L119 653ZM391 648H282L232 362H340Q444 362 465 478L472 519Q484 582 463 615T391 648ZM360 330H226L174 32H307Q415 32 438 156L445 197Q457 261 435 295T360 330Z" />
<glyph unicode="C" glyph-name="C" horiz-adv-x="586" d="M297 -10Q214 -10 162 30T90 144T86 315L97 382Q120 525 196 607T393 690Q467 690 513 660T575 581T574 480L484 459Q511 555 487 606T392 658Q321 658 271 605T201 432L173 265Q152 138 184 80T300 22Q348
22 391 51T456 156L518 135Q482 56 424 23T297 -10Z" />
<glyph unicode="D" glyph-name="D" horiz-adv-x="659" d="M119 653L124 680H386Q474 680 528 639T602 526T606 366L594 301Q578 210 538 143T436 38T292 0H4L9 26L65 32Q82 34 86 40T96 81L187 599Q193 634 191 640T174 648L119 653ZM387 648H282L174 32H291Q371
32 421 88T491 253L520 418Q539 528 507 588T387 648Z" />
<glyph unicode="E" glyph-name="E" horiz-adv-x="580" d="M512 163L483 0H4L9 26L65 32Q76 33 81 35T89 47T96 81L187 599Q193 634 191 640T174 648L119 653L124 680H591L562 517H536L526 622Q525 634 523 639T511 646T477 648H283L232 359H366Q390 359 400 360T415
367T425 385L457 460H482L441 226H416L410 301Q409 319 402 323T360 327H226L174 32H380Q404 32 414 33T429 40T439 58L486 163H512Z" />
<glyph unicode="F" glyph-name="F" horiz-adv-x="543" d="M270 26L265 0H4L9 26L65 32Q76 33 80 35T88 47T95 81L187 599Q193 634 191 640T173 648L119 653L124 680H581L553 517H526L516 622Q514 639 508 643T466 648H282L229 350H354Q378 350 388 351T402 358T412
376L445 451H471L430 217H404L398 292Q397 310 390 314T348 318H224L182 81Q176 46 178 40T196 32L270 26Z" />
<glyph unicode="G" glyph-name="G" horiz-adv-x="649" d="M484 12Q471 39 450 56Q387 -10 290 -10Q210 -10 159 30T90 144T86 315L97 382Q120 525 199 607T401 690Q478 690 525 660T589 582T590 480L500 459Q527 556 502 607T399 658Q326 658 274 605T201 432L173
265Q152 138 183 80T294 22Q335 22 375 38T442 98L465 227Q472 262 470 268T452 276L378 281L382 308H637L633 281L577 276Q561 274 557 268T546 227L508 12H484Z" />
<glyph unicode="H" glyph-name="H" horiz-adv-x="726" d="M250 26L245 0H4L9 26L65 32Q76 33 80 35T88 47T95 81L187 599Q193 634 191 640T173 648L119 653L124 680H365L360 653L304 648Q294 647 289 644T281 632T274 599L231 359H533L576 599Q582 634 580 640T562
648L508 653L513 680H754L749 653L693 648Q683 647 678 644T670 632T663 599L571 81Q565 46 567 40T585 32L639 26L634 0H393L398 26L454 32Q465 33 469 35T477 47T484 81L528 327H226L182 81Q176 46 178 40T196 32L250 26Z" />
<glyph unicode="I" glyph-name="I" horiz-adv-x="337" d="M119 653L124 680H365L360 653L304 648Q294 647 289 644T281 632T274 599L182 81Q176 46 178 40T196 32L250 26L245 0H4L9 26L65 32Q76 33 80 35T88 47T95 81L187 599Q193 634 191 640T173 648L119 653Z" />
<glyph unicode="J" glyph-name="J" horiz-adv-x="461" d="M255 653L260 680H501L496 653L441 648Q425 646 421 640T410 599L339 194Q329 138 304 92T235 18T127 -10Q90 -10 58 3T8 48T-7 134L58 153Q51 99 59 71T86 33T123 22Q151 22 175 36T220 87T251 190L323
599Q329 633 327 639T310 648L255 653Z" />
<glyph unicode="K" glyph-name="K" horiz-adv-x="644" d="M250 26L245 0H4L9 26L65 32Q82 34 86 40T96 81L187 599Q193 634 191 640T174 648L120 654L124 680H365L361 654L305 648Q289 647 285 641T274 599L225 320L515 605Q544 634 545 640T532 648L482 654L486
680H682L678 654L625 648Q615 647 609 645T593 634T564 605L373 417L506 81Q516 57 521 48T532 36T548 32L595 26L590 0H440L307 352L215 261L183 81Q177 47 179 41T196 32L250 26Z" />
<glyph unicode="L" glyph-name="L" horiz-adv-x="515" d="M488 165L459 0H4L9 26L65 32Q76 33 80 35T88 47T95 81L187 599Q193 634 191 640T173 648L119 653L124 680H365L360 653L304 648Q294 647 289 644T281 632T274 599L174 32H355Q379 32 389 33T404 40T414
58L462 165H488Z" />
<glyph unicode="M" glyph-name="M" horiz-adv-x="860" d="M303 680L412 157L704 680H888L883 653L827 648Q811 646 807 640T796 599L705 81Q699 47 701 41T718 32L772 26L768 0H527L531 26L587 32Q603 34 607 40T618 81L714 625L409 80H341L227 628L133 81Q127
47 129 41T146 32L200 26L195 0H4L9 26L65 32Q79 34 84 40T96 81L187 599Q193 633 191 639T174 648L119 653L124 680H303Z" />
<glyph unicode="N" glyph-name="N" horiz-adv-x="691" d="M119 653L124 680H291L519 146L600 599Q606 633 604 639T587 648L532 653L537 680H728L723 653L668 648Q652 646 648 640T637 599L531 0H491L227 613L133 81Q127 47 129 41T146 32L200 26L195 0H4L9 26L65
32Q82 34 86 40T96 81L187 599Q193 633 191 639T174 648L119 653Z" />
<glyph unicode="O" glyph-name="O" horiz-adv-x="666" d="M614 366L602 301Q586 207 546 137T444 29T301 -10Q214 -10 161 32T88 149T85 315L96 380Q113 473 153 543T254 651T397 690Q484 690 537 647T610 531T614 366ZM528 418Q548 532 516 595T397 658Q319 658
270 600T200 428L171 263Q151 148 183 85T301 22Q380 22 430 81T499 253L528 418Z" />
<glyph unicode="P" glyph-name="P" horiz-adv-x="574" d="M119 653L124 680H403Q468 680 510 655T570 588T578 491L573 462Q559 380 503 334T344 288H219L183 81Q177 46 178 40T196 32L270 26L265 0H4L9 26L65 32Q82 34 86 40T96 81L187 599Q193 634 191 640T174
648L119 653ZM402 648H282L225 320H344Q457 320 479 450L489 507Q512 648 402 648Z" />
<glyph unicode="Q" glyph-name="Q" horiz-adv-x="668" d="M503 -98L500 -187Q428 -187 372 -146T296 -10Q211 -8 159 35T88 151T86 315L97 380Q114 473 153 543T254 651T397 690Q484 690 538 647T611 531T615 366L603 301Q580 168 511 85T331 -9Q345 -61 384 -79T503
-98ZM529 418Q549 532 517 595T398 658Q320 658 270 600T200 428L172 263Q152 148 184 85T302 22Q381 22 431 81T500 253L529 418Z" />
<glyph unicode="R" glyph-name="R" horiz-adv-x="625" d="M119 653L124 680H395Q462 680 504 657T565 593T574 502L569 472Q558 408 518 369T412 315L498 81Q507 57 511 48T521 36T536 32L580 26L576 0H430L325 308H223L183 81Q177 47 179 41T196 32L250 26L245
0H4L9 26L65 32Q82 34 86 40T96 81L187 599Q193 633 191 639T174 648L119 653ZM397 648H282L228 340H342Q393 340 430 373T477 468L483 506Q495 575 471 611T397 648Z" />
<glyph unicode="S" glyph-name="S" horiz-adv-x="548" d="M239 -10Q186 -10 139 6T63 62T32 172L95 192Q92 125 111 88T164 37T240 22Q322 22 364 59T407 161Q407 207 383 237T299 291L225 320Q165 344 133 387T100 494Q100 547 124 591T199 663T325 690Q387 690
428 672T493 623T521 556T514 483L427 465Q455 556 429 607T321 658Q256 658 217 625T178 524Q178 479 200 449T281 395L355 365Q418 340 452 300T486 197Q486 144 460 97T378 20T239 -10Z" />
<glyph unicode="T" glyph-name="T" horiz-adv-x="559" d="M60 517L89 680H621L593 517H566L556 622Q555 640 549 644T507 648H393L293 81Q287 46 289 40T306 32L360 26L356 0H115L119 26L175 32Q186 33 191 35T199 47T206 81L306 648H192Q169 648 159 647T144
640T134 622L86 517H60Z" />
<glyph unicode="U" glyph-name="U" horiz-adv-x="677" d="M524 653L529 680H720L715 653L660 648Q645 646 640 640T629 599L564 230Q545 118 484 54T315 -10Q197 -10 143 59T110 246L172 599Q178 633 176 639T159 648L104 653L109 680H350L345 653L290 648Q275
646 270 640T259 599L194 230Q175 124 206 73T320 22Q406 22 457 75T527 230L592 599Q598 633 596 639T579 648L524 653Z" />
<glyph unicode="V" glyph-name="V" horiz-adv-x="620" d="M600 605L300 0H232L145 605Q141 635 138 640T119 648L68 653L73 680H306L301 653L249 648Q233 646 231 640T232 605L306 89L561 605Q576 634 576 640T559 648L508 653L513 680H698L693 653L641 648Q631
647 626 645T615 634T600 605Z" />
<glyph unicode="W" glyph-name="W" horiz-adv-x="921" d="M586 0L517 573L248 0H183L143 605Q142 634 139 640T120 648L69 653L74 680H304L299 653L247 648Q231 646 229 641T227 605L259 105L527 680H589L659 109L865 605Q877 635 876 641T860 648L809 653L814
680H1000L995 653L943 648Q933 647 928 645T918 634T904 605L651 0H586Z" />
<glyph unicode="X" glyph-name="X" horiz-adv-x="598" d="M152 26L148 0H-42L-38 26L14 32Q24 33 29 35T43 46T67 75L273 335L167 605Q156 635 151 640T132 648L81 653L86 680H325L320 653L268 648Q252 646 251 640T260 605L341 397L504 605Q527 634 528 640T515
648L464 653L469 680H659L654 653L602 648Q592 647 587 645T573 634T549 605L355 359L466 75Q477 45 482 40T501 32L552 26L547 0H309L314 26L366 32Q383 34 384 39T374 75L287 297L112 75Q89 46 88 40T102 32L152 26Z" />
<glyph unicode="Y" glyph-name="Y" horiz-adv-x="588" d="M376 26L371 0H130L135 26L191 32Q202 33 207 35T216 49L258 292L153 605Q143 635 138 640T118 648L67 653L72 680H311L306 653L254 648Q238 646 237 640T245 605L333 332L520 605Q540 634 540 640T526
648L475 653L480 680H668L663 653L611 648Q600 647 594 645T582 634T561 605L345 291L308 79L309 81Q303 46 305 40T322 32L376 26Z" />
<glyph unicode="Z" glyph-name="Z" horiz-adv-x="531" d="M476 163L448 0H-4L0 22L447 648H232Q209 648 198 647T183 640T173 622L125 517H99L128 680H558L553 658L106 32H344Q368 32 378 33T393 40T403 58L450 163H476Z" />
<glyph unicode="[" glyph-name="bracketleft" horiz-adv-x="356" d="M272 -111L266 -143H33L189 740H422L416 708H266L121 -111H272Z" />
<glyph unicode="\" glyph-name="backslash" horiz-adv-x="379" d="M135 740L330 -128L293 -141L99 727L135 740Z" />
<glyph unicode="]" glyph-name="bracketright" horiz-adv-x="356" d="M339 740L184 -143H-48L-43 -111H107L252 708H101L106 740H339Z" />
<glyph unicode="^" glyph-name="asciicircum" horiz-adv-x="588" d="M474 278L442 266L362 629L154 266L124 278L356 680H384L474 278Z" />
<glyph unicode="_" glyph-name="underscore" horiz-adv-x="409" d="M-50 -143L-44 -109H327L321 -143H-50Z" />
<glyph unicode="`" glyph-name="grave" horiz-adv-x="500" d="M309 579Q271 618 244 656T195 740H286Q291 693 302 662T332 596L309 579Z" />
<glyph unicode="a" glyph-name="a" horiz-adv-x="581" d="M444 -5Q407 -5 386 17T362 86Q328 33 289 12T209 -10Q150 -10 113 26T63 124T64 260L68 282Q81 352 114 402T196 478T298 505Q340 505 371 489T423 442Q437 453 450 467T476 495H511L450 150Q437 76 440
52T459 28Q474 28 491 45T523 105L558 83Q536 37 507 16T444 -5ZM149 234Q132 134 153 79T222 24Q241 24 265 34T315 74T370 160L411 396Q393 435 367 453T304 471Q243 471 208 423T158 291L149 234Z" />
<glyph unicode="b" glyph-name="b" horiz-adv-x="568" d="M500 213Q488 143 454 93T371 17T268 -10Q226 -10 195 5T143 49Q124 39 109 26T77 -5H53L169 659Q175 693 173 699T156 708L103 713L107 740H266L208 412Q242 463 280 484T358 505Q418 505 455 469T505
371T504 235L500 213ZM344 470Q325 470 301 459T249 416T192 324L153 98Q171 59 198 42T262 24Q324 24 359 71T409 203L419 260Q436 361 414 415T344 470Z" />
<glyph unicode="c" glyph-name="c" horiz-adv-x="485" d="M307 473Q257 473 215 430T157 289L147 229Q130 125 154 74T237 22Q260 22 286 31T336 62T374 124L420 98Q385 37 335 14T231 -10Q166 -10 123 23T64 115T61 254L65 276Q78 344 112 395T197 476T311 505Q370
505 408 480T459 413T455 320L374 304Q400 384 382 428T307 473Z" />
<glyph unicode="d" glyph-name="d" horiz-adv-x="585" d="M448 -5Q411 -5 389 19T366 92Q331 35 291 13T210 -10Q151 -10 114 26T63 124T64 260L68 282Q81 352 115 402T197 478T299 505Q340 505 371 490T424 446L461 659Q467 694 465 700T448 708L394 713L398
740H558L454 150Q441 76 444 52T463 28Q478 28 495 45T526 105L562 83Q540 37 511 16T448 -5ZM149 234Q132 134 153 79T223 24Q243 24 267 35T318 78T375 168L415 395Q396 435 369 453T305 471Q244 471 208 423T158 291L149 234Z" />
<glyph unicode="e" glyph-name="e" horiz-adv-x="502" d="M435 98Q400 37 347 14T242 -10Q173 -10 128 23T65 115T61 254L65 276Q77 344 111 395T198 476T317 505Q368 505 403 488T456 444T474 385Q474 335 439 299T341 243T196 216L144 212Q131 117 157 70T245
22Q269 22 297 31T350 62T388 123L435 98ZM156 289L149 244L195 247Q277 252 321 274T382 327T399 389Q399 428 377 450T314 473Q261 473 217 430T156 289Z" />
<glyph unicode="f" glyph-name="f" horiz-adv-x="331" d="M383 463H223L104 -213H22L133 414Q139 448 137 454T120 463L65 468L70 495H147L160 567Q169 616 190 657T249 724T350 750Q408 750 441 729T485 672T481 595L399 579Q443 718 350 718Q324 718 304 707T269
666T244 581L229 495H388L383 463Z" />
<glyph unicode="g" glyph-name="g" horiz-adv-x="564" d="M428 9Q417 -52 388 -105T306 -190T175 -223Q97 -223 59 -181T26 -72L83 -60Q76 -132 101 -162T175 -193Q237 -193 281 -151T345 -1L359 75Q325 28 287 9T210 -10Q151 -10 114 26T63 124T64 260L68 282Q81
352 115 402T197 478T299 505Q342 505 374 489T427 442Q440 453 453 466T479 495H514L428 9ZM149 234Q132 134 153 79T223 24Q243 24 267 34T318 74T374 160L415 394Q397 435 370 453T305 471Q244 471 208 423T158 291L149 234Z" />
<glyph unicode="h" glyph-name="h" horiz-adv-x="611" d="M588 83Q566 37 537 16T472 -5Q427 -5 405 26T396 127L435 323Q451 399 434 433T378 467Q354 467 325 454T262 409T195 316L139 0H57L173 659Q179 693 177 699T160 708L105 713L110 740H269L208 393Q252
453 300 479T396 505Q469 505 502 456T518 324L477 124Q467 73 468 51T488 28Q504 28 522 45T553 105L588 83Z" />
<glyph unicode="i" glyph-name="i" horiz-adv-x="300" d="M212 608Q163 608 163 656Q163 681 179 698T223 716Q246 716 259 704T273 669Q273 644 257 626T212 608ZM66 468L71 495H230L170 150Q157 76 160 52T179 28Q194 28 211 45T242 105L278 83Q256 37 227 16T164
-5Q118 -5 96 31T86 142L133 414Q139 448 137 454T120 463L66 468Z" />
<glyph unicode="j" glyph-name="j" horiz-adv-x="284" d="M212 608Q189 608 176 622T165 659Q167 684 184 700T227 716Q251 716 264 703T275 666Q273 642 256 625T212 608ZM68 468L72 495H231L135 -52Q127 -97 107 -136T51 -199T-41 -223Q-93 -223 -124 -194T-152
-107L-95 -91Q-99 -146 -84 -168T-44 -191Q-8 -191 15 -164T52 -60L135 414Q141 448 139 454T122 463L68 468Z" />
<glyph unicode="k" glyph-name="k" horiz-adv-x="521" d="M357 0L245 260L164 188L131 0H50L166 659Q172 693 170 699T153 708L99 713L103 740H262L174 241L294 353Q342 397 375 425T439 473T507 505L523 420Q457 407 404 381T307 316L415 75Q428 45 434 40T455
32L506 26L501 0H357Z" />
<glyph unicode="l" glyph-name="l" horiz-adv-x="291" d="M99 713L103 740H262L159 150Q146 76 149 52T169 28Q183 28 201 45T232 105L267 83Q245 37 216 16T154 -5Q107 -5 85 31T76 142L166 659Q172 693 170 699T153 708L99 713Z" />
<glyph unicode="m" glyph-name="m" horiz-adv-x="920" d="M894 83Q872 37 843 16T778 -5Q732 -5 710 27T701 127L741 323Q756 399 740 433T688 467Q653 467 608 437T512 319L456 0H374L431 323Q445 399 429 433T378 467Q343 467 297 436T201 316L145 0H63L135
414Q141 448 139 454T122 463L68 468L73 495H229L212 390Q256 451 302 478T396 505Q452 505 483 473T518 384Q562 449 609 477T706 505Q777 505 808 456T823 324L782 124Q772 73 773 51T793 28Q810 28 827 45T858 105L894 83Z" />
<glyph unicode="n" glyph-name="n" horiz-adv-x="616" d="M594 83Q572 37 543 16T478 -5Q432 -5 410 27T401 127L441 323Q456 399 439 433T383 467Q359 467 330 454T268 409T200 316L145 0H63L135 414Q141 448 139 454T122 463L68 468L73 495H229L211 389Q255
451 303 478T401 505Q475 505 507 456T523 324L482 124Q472 73 473 51T493 28Q510 28 527 45T558 105L594 83Z" />
<glyph unicode="o" glyph-name="o" horiz-adv-x="554" d="M492 242L488 220Q469 111 405 51T241 -10Q171 -10 127 25T65 120T61 252L65 275Q85 384 148 444T310 505Q381 505 426 470T488 374T492 242ZM406 268Q424 370 397 422T308 474Q253 474 214 431T157 288L147
227Q129 125 156 73T244 20Q300 20 339 64T395 207L406 268Z" />
<glyph unicode="p" glyph-name="p" horiz-adv-x="577" d="M277 -10Q236 -10 205 5T153 48L107 -213H25L135 414Q141 448 139 454T122 463L68 469L73 495H229L213 406Q248 461 287 483T367 505Q427 505 464 469T514 371T513 235L509 213Q497 143 463 93T380 17T277
-10ZM353 470Q334 470 310 459T258 416T201 323L162 98Q180 59 207 42T271 24Q333 24 368 71T418 203L428 260Q445 361 423 415T353 470Z" />
<glyph unicode="q" glyph-name="q" horiz-adv-x="565" d="M516 500L389 -213H307L360 83Q326 31 288 11T210 -10Q151 -10 114 26T63 124T64 260L68 282Q81 352 115 402T197 478T299 505Q341 505 372 489T425 444Q458 463 492 500H516ZM149 234Q132 134 153 79T223
24Q243 24 267 35T318 78T375 169L415 394Q397 435 370 453T305 471Q244 471 208 423T158 291L149 234Z" />
<glyph unicode="r" glyph-name="r" horiz-adv-x="428" d="M332 450Q315 450 295 439T251 399T201 316L145 0H63L136 414Q142 448 140 454T123 463L68 468L73 495H230L212 391Q251 453 292 479T372 505Q404 505 429 487T464 428L394 381Q386 419 371 434T332 450Z" />
<glyph unicode="s" glyph-name="s" horiz-adv-x="458" d="M193 -10Q149 -10 111 2T50 41T23 114L81 134Q80 69 112 45T192 21Q248 21 283 45T319 115Q319 145 300 167T232 205L174 224Q126 239 100 272T73 351Q73 388 91 423T150 481T256 505Q321 505 359 482T410
423T409 346L327 330Q352 399 331 436T251 473Q203 473 174 449T145 382Q145 347 164 327T219 295L277 276Q329 260 359 226T390 141Q390 103 370 68T306 12T193 -10Z" />
<glyph unicode="t" glyph-name="t" horiz-adv-x="363" d="M334 102Q307 38 272 14T196 -10Q120 -10 94 39T81 165L124 415Q130 448 128 454T110 463L56 468L61 495H138L161 626L246 643L220 495H383L377 463H214L158 145Q145 74 158 48T199 22Q226 22 246 43T285
121L334 102Z" />
<glyph unicode="u" glyph-name="u" horiz-adv-x="605" d="M468 -5Q428 -5 406 22T386 105Q343 44 296 17T200 -10Q130 -10 100 38T83 170L126 414Q132 448 130 454T113 463L58 468L63 495H223L166 171Q153 95 168 61T218 27Q242 27 270 40T330 86T396 178L452
495H534L474 150Q461 76 464 52T483 28Q498 28 515 45T546 105L582 83Q560 37 531 16T468 -5Z" />
<glyph unicode="v" glyph-name="v" horiz-adv-x="538" d="M53 468L58 495H217L170 222Q151 117 166 72T228 27Q272 27 316 64T389 180T419 378Q419 401 418 425T414 475L506 505Q497 352 466 252T390 95T299 14T209 -10Q131 -10 100 51T87 221L121 414Q127 448
125 454T107 463L53 468Z" />
<glyph unicode="w" glyph-name="w" horiz-adv-x="804" d="M769 505Q760 352 731 252T660 95T574 14T487 -10Q435 -10 405 19T367 102Q328 40 283 15T197 -10Q120 -10 93 47T84 202L122 414Q128 448 126 454T108 463L53 468L58 495H218L166 203Q150 110 159 69T212
27Q253 27 294 62T366 171Q367 193 372 221L420 495H502L455 222Q437 117 448 72T505 27Q547 27 587 64T655 178T682 372Q682 396 681 421T677 475L769 505Z" />
<glyph unicode="x" glyph-name="x" horiz-adv-x="502" d="M208 179Q176 136 151 104T104 44T57 -10L-12 38Q52 82 102 124T195 209L224 238L152 420Q141 450 135 455T113 463L62 468L67 495H206L283 298L296 316Q328 359 353 391T400 450T448 505L517 456Q453
412 403 371T309 285L294 270L371 75Q382 45 388 40T410 32L460 26L456 0H317L233 214L208 179Z" />
<glyph unicode="y" glyph-name="y" horiz-adv-x="585" d="M448 9Q438 -52 409 -105T327 -190T195 -223Q117 -223 79 -181T47 -72L104 -60Q96 -132 122 -162T195 -193Q257 -193 301 -151T365 -1L383 101Q340 42 294 16T200 -10Q130 -10 100 38T83 170L126 414Q132
448 130 454T113 463L58 468L63 495H223L166 171Q153 95 168 61T218 27Q254 27 299 58T396 178L452 495H534L448 9Z" />
<glyph unicode="z" glyph-name="z" horiz-adv-x="457" d="M413 140Q403 75 374 33T292 -10Q257 -10 227 5T169 36T114 52Q95 52 75 41T29 0L4 23L354 429H189Q154 429 146 426T130 407L95 329H69L98 495H440L435 470L109 92Q125 101 137 104T163 108Q191 108 214
95T262 68T313 54Q345 54 360 78T386 147L413 140Z" />
<glyph unicode="{" glyph-name="braceleft" horiz-adv-x="401" d="M317 -112L312 -144H235Q180 -144 142 -122T92 -59T104 41L147 147Q170 206 162 244T114 282H37L42 314H119Q159 314 180 352T200 449L195 555Q190 658 238 699T373 740H467L461 708H376Q323 708
300 673T279 574L285 468Q290 392 261 351T177 295Q221 279 236 237T225 128L182 22Q157 -41 167 -76T232 -112H317Z" />
<glyph unicode="|" glyph-name="bar" horiz-adv-x="237" d="M186 740H223L55 -213H18L186 740Z" />
<glyph unicode="}" glyph-name="braceright" horiz-adv-x="401" d="M223 41Q228 -62 180 -103T45 -144H-48L-43 -112H41Q95 -112 117 -77T138 22L132 128Q128 204 156 246T240 301Q196 317 181 359T192 468L235 574Q261 637 250 672T186 708H101L106 740H182Q238
740 276 718T326 655T314 555L271 449Q248 391 256 352T304 313H381L376 281H299Q259 281 237 244T218 147L223 41Z" />
<glyph unicode="~" glyph-name="asciitilde" horiz-adv-x="588" d="M394 257Q365 257 346 269T313 298T286 332T258 362T221 374Q196 374 175 355T125 280L95 294Q127 362 158 385T222 408Q251 408 270 397T304 368T330 333T358 304T396 292Q421 292 442 311T492
386L522 371Q490 304 459 281T394 257Z" />
<glyph unicode="&#xa0;" glyph-name="uni00A0" horiz-adv-x="227" />
<glyph unicode="&#xa1;" glyph-name="exclamdown" horiz-adv-x="258" d="M168 505Q193 505 207 492T221 454Q221 429 205 411T160 392Q135 392 121 405T107 442Q107 468 123 486T168 505ZM125 311H155Q143 240 137 188T126 94T119 11T110 -76T93 -185H11Q22 -123
33 -77T55 10T77 93T100 188T125 311Z" />
<glyph unicode="&#xa2;" glyph-name="cent" horiz-adv-x="485" d="M420 98Q386 40 339 16T242 -10L222 -125H186L206 -9Q121 1 81 72T61 254L65 276Q77 341 109 391T189 472T297 505L317 620H353L333 504Q384 499 417 474T460 408T455 320L374 304Q397 377 384
420T327 471L248 22Q282 25 318 47T374 124L420 98ZM147 229Q132 137 149 86T212 25L291 472Q245 466 208 422T157 289L147 229Z" />
<glyph unicode="&#xa3;" glyph-name="sterling" horiz-adv-x="525" d="M449 184L417 0H18L28 55Q87 101 116 137T155 203T165 255Q165 263 165 270T163 284H60L66 316H155Q142 354 126 393T109 484Q109 519 120 555T158 621T227 671T335 690Q413 690 456 660T512
582T505 483L415 467Q441 557 423 607T337 658Q274 658 240 606T205 470Q205 430 212 392T223 316H396L390 284H225V279Q225 231 200 182T104 73H332Q367 73 375 77T391 99L423 184H449Z" />
<glyph unicode="&#xa4;" glyph-name="currency" horiz-adv-x="580" d="M505 67L481 43L404 139Q352 103 284 103Q207 103 157 148L36 43L14 67L135 174Q104 219 104 282Q104 329 121 370T169 440L95 533L120 557L196 462Q221 479 251 488T315 497Q354 497 386
485T443 451L565 557L586 532L464 425Q495 382 495 318Q495 272 478 231T431 161L505 67ZM315 463Q264 463 225 440T165 376T143 283Q143 214 180 175T284 136Q335 136 374 159T435 224T457 317Q457 385 420 424T315 463Z" />
<glyph unicode="&#xa5;" glyph-name="yen" horiz-adv-x="608" d="M386 26L381 0H140L145 26L201 32Q212 33 217 35T226 49L255 214H73L78 246H260L268 292L248 354H97L103 386H237L163 605Q153 635 148 640T128 648L77 653L82 680H321L316 653L264 648Q248 646
247 640T255 605L343 332L530 605Q550 634 550 640T536 648L485 653L490 680H678L673 653L621 648Q610 647 604 645T592 634T571 605L421 386H554L549 354H399L355 291L347 246H530L524 214H342L318 79L319 81Q313 46 315 40T332 32L386 26Z" />
<glyph unicode="&#xa6;" glyph-name="brokenbar" horiz-adv-x="224" d="M180 740H217L149 357H112L180 740ZM79 170H116L49 -213H12L79 170Z" />
<glyph unicode="&#xa7;" glyph-name="section" horiz-adv-x="539" d="M412 -35Q412 -83 388 -126T315 -196T190 -223Q139 -223 96 -205T26 -148T-1 -46L61 -26Q57 -85 73 -121T121 -174T192 -191Q260 -191 296 -159T333 -71Q333 -32 313 -7T241 39L172 67Q110
91 76 130T42 223Q42 281 81 323T187 383Q120 427 120 514Q120 562 142 602T209 666T325 690Q396 690 438 662T495 590T496 502L409 484Q432 566 409 612T321 658Q265 658 232 630T198 544Q198 506 217 480T288 434L360 408Q423 385 456 345T490 252Q490 198 453
154T347 88Q412 44 412 -35ZM227 141L306 109Q360 120 386 147T412 215Q412 257 388 284T304 333L230 361Q177 355 149 329T120 257Q120 217 144 191T227 141Z" />
<glyph unicode="&#xa8;" glyph-name="dieresis" horiz-adv-x="500" d="M216 611Q195 611 183 623T170 656Q170 679 186 696T227 713Q249 713 261 701T273 669Q273 646 258 629T216 611ZM418 611Q398 611 385 623T372 656Q372 679 388 696T429 713Q451 713 463
701T476 669Q476 646 461 629T418 611Z" />
<glyph unicode="&#xa9;" glyph-name="copyright" horiz-adv-x="852" d="M442 -37Q363 -37 296 -8T178 72T99 192T70 340Q70 420 98 488T177 608T295 688T442 717Q520 717 588 689T706 609T785 489T814 340Q814 261 786 192T707 72T588 -8T442 -37ZM442 -5Q514
-5 575 21T683 94T754 204T780 340Q780 413 755 475T683 585T576 658T442 685Q370 685 309 659T201 585T130 476T104 340Q104 267 129 204T201 94T308 21T442 -5ZM446 542Q390 542 359 503T328 371V310Q328 218 358 178T455 138Q501 138 529 161T570 243L620 230Q602
162 555 135T450 108Q351 108 302 168T252 330V351Q252 452 302 512T446 572Q505 572 545 549T603 487T613 398L548 389Q559 463 532 502T446 542Z" />
<glyph unicode="&#xaa;" glyph-name="ordfeminine" horiz-adv-x="410" d="M356 338Q303 338 297 395Q275 361 249 348T197 335Q157 335 132 359T98 425T98 517L101 533Q114 604 158 644T257 685Q286 685 307 674T343 642Q351 650 359 659T375 678H401L359 443Q351
394 353 378T366 362Q376 362 387 374T407 412L433 397Q404 338 356 338ZM159 501Q148 434 162 397T205 360Q224 360 249 376T301 441L331 615Q308 659 260 659Q221 659 198 627T165 539L159 501Z" />
<glyph unicode="&#xab;" glyph-name="guillemotleft" horiz-adv-x="645" d="M297 25L279 10L50 232L54 256L361 478L376 456L150 238L297 25ZM547 25L529 10L300 232L304 256L611 478L626 456L400 238L547 25Z" />
<glyph unicode="&#xac;" glyph-name="logicalnot" horiz-adv-x="588" d="M118 428L124 461H538L499 237H463L497 428H118Z" />
<glyph unicode="&#xad;" glyph-name="uni00AD" horiz-adv-x="0" />
<glyph unicode="&#xae;" glyph-name="registered" horiz-adv-x="556" d="M318 241Q252 241 199 273T115 359T84 479Q84 546 115 600T199 685T318 717Q384 717 437 686T521 600T552 479Q552 413 521 359T437 273T318 241ZM318 271Q375 271 421 298T493 373T520
479Q520 538 494 585T421 659T318 687Q262 687 216 660T144 585T117 479Q117 420 143 373T216 299T318 271ZM211 588V609H322Q362 609 383 591T405 543V527Q405 482 361 465L404 396Q412 383 414 380T422 377L440 376V354H371L312 459H287V396Q287 383 288 380T295
377L316 376V354H211V376L232 377Q238 377 239 380T241 396V568Q241 581 240 583T232 586L211 588ZM322 586H287V483H322Q357 483 357 527V543Q357 586 322 586Z" />
<glyph unicode="&#xaf;" glyph-name="overscore" horiz-adv-x="500" d="M467 666L459 619H172L180 666H467Z" />
<glyph unicode="&#xb0;" glyph-name="degree" horiz-adv-x="387" d="M228 366Q164 366 124 405T83 510Q83 560 106 601T168 666T259 690Q324 690 364 651T404 546Q404 496 381 455T319 390T228 366ZM259 656Q198 656 160 615T121 511Q121 459 149 429T228 399Q289
399 327 440T365 545Q365 597 337 626T259 656Z" />
<glyph unicode="&#xb1;" glyph-name="plusminus" horiz-adv-x="588" d="M513 317H323L289 123H254L288 317H99L105 350H294L328 545H363L329 350H519L513 317ZM43 0L49 33H463L457 0H43Z" />
<glyph unicode="&#xb2;" glyph-name="uni00B2" horiz-adv-x="290" d="M298 544L281 445H64L69 472Q76 509 88 531T121 568T177 601Q228 627 247 653T266 717Q266 767 229 767Q198 767 183 744T163 677L106 685Q106 726 136 758T227 790Q283 790 306 766T329 708Q329
676 311 654T260 613T181 572Q147 556 129 538T102 489H232Q249 489 253 491T261 502L278 544H298Z" />
<glyph unicode="&#xb3;" glyph-name="uni00B3" horiz-adv-x="291" d="M305 546Q305 521 291 497T248 456T172 440Q133 440 105 456T72 513L107 523Q106 487 125 474T168 461Q203 461 222 486T242 551Q242 577 228 593T179 609H161L165 630H183Q228 630 247 658T267
721Q267 769 226 769Q195 769 180 746T160 679L104 687Q103 728 132 759T224 790Q279 790 304 767T329 709Q329 677 308 653T244 619Q305 602 305 546Z" />
<glyph unicode="&#xb4;" glyph-name="acute" horiz-adv-x="500" d="M307 579L288 601Q317 633 337 663T377 740H478Q440 694 400 656T307 579Z" />
<glyph unicode="&#xb5;" glyph-name="uni00B5" horiz-adv-x="610" d="M115 -187L19 -213L130 414Q136 449 134 455T116 463L62 468L67 495H226L170 171Q157 95 172 61T222 27Q246 27 274 40T334 86T400 178L456 495H538L477 150Q464 76 467 52T487 28Q501 28 519
45T550 105L585 83Q563 37 534 16T471 -5Q431 -5 409 22T389 105Q346 44 300 17T204 -10Q138 -10 103 40Q97 -12 97 -50T101 -121T115 -187Z" />
<glyph unicode="&#xb6;" glyph-name="paragraph" horiz-adv-x="572" d="M84 506Q98 588 154 634T313 680H601L597 653L541 648Q530 647 525 644T517 632T510 599L393 -62Q387 -96 389 -102T407 -111L461 -116L456 -143H195L200 -116L276 -111Q292 -109 296 -103T306
-62L431 648H364L300 288H254Q189 288 147 312T87 380T78 476L84 506Z" />
<glyph unicode="&#xb7;" glyph-name="middot" horiz-adv-x="500" d="M268 330Q246 330 233 343T219 378Q219 403 235 420T279 438Q302 438 315 426T329 391Q329 366 313 348T268 330Z" />
<glyph unicode="&#xb8;" glyph-name="cedilla" horiz-adv-x="500" d="M291 -133Q291 -173 257 -198T172 -223Q132 -223 102 -205T71 -145L122 -131Q120 -166 131 -180T167 -195Q194 -195 210 -176T226 -131Q226 -109 216 -98T177 -86Q172 -86 165 -87T153 -89L148
-63L185 0H220L186 -58Q236 -58 263 -79T291 -133Z" />
<glyph unicode="&#xb9;" glyph-name="uni00B9" horiz-adv-x="216" d="M115 744L189 785H239L187 492Q184 475 185 472T194 468L222 465L218 445H72L76 465L114 468Q122 469 124 472T129 492L175 748L127 721L115 744Z" />
<glyph unicode="&#xba;" glyph-name="ordmasculine" horiz-adv-x="395" d="M390 507L387 492Q375 417 332 376T222 335Q174 335 143 359T101 423T97 513L100 527Q112 602 155 643T264 685Q314 685 344 661T386 596T390 507ZM328 524Q339 589 322 625T263 661Q229
661 203 632T166 537L159 496Q148 431 165 395T223 359Q259 359 284 388T321 482L328 524Z" />
<glyph unicode="&#xbb;" glyph-name="guillemotright" horiz-adv-x="645" d="M589 232L283 10L267 31L493 250L346 463L365 478L593 256L589 232ZM339 232L33 10L17 31L243 250L96 463L115 478L343 256L339 232Z" />
<glyph unicode="&#xbc;" glyph-name="onequarter" horiz-adv-x="573" d="M97 639L171 680H221L169 387Q166 370 167 367T176 363L204 360L200 340H54L58 360L96 363Q104 364 106 367T111 387L157 643L109 616L97 639ZM527 680L552 662L63 0L38 17L527 680ZM434
46L441 85H293L296 106Q336 142 365 176T416 249T456 340H523Q497 270 444 215T328 106H445L458 183L517 189L502 106H541L537 85H499L492 46Q489 29 490 26T499 21L525 18L522 0H382L386 18L419 21Q427 22 429 25T434 46Z" />
<glyph unicode="&#xbd;" glyph-name="onehalf" horiz-adv-x="605" d="M97 639L171 680H221L169 387Q166 370 167 367T176 363L204 360L200 340H54L58 360L96 363Q104 364 106 367T111 387L157 643L109 616L97 639ZM527 680L552 662L63 0L38 17L527 680ZM535 99L518
0H301L306 27Q313 64 325 86T358 123T414 156Q465 182 484 208T503 272Q503 322 466 322Q435 322 420 299T400 232L343 240Q343 281 373 313T464 345Q520 345 543 321T566 263Q566 231 548 209T497 168T418 127Q384 111 366 93T339 44H469Q486 44 490 46T498 57L515
99H535Z" />
<glyph unicode="&#xbe;" glyph-name="threequarters" horiz-adv-x="628" d="M287 441Q287 416 273 392T230 351T154 335Q115 335 87 351T54 408L89 418Q88 382 107 369T150 356Q185 356 204 381T224 446Q224 472 210 488T161 504H143L147 525H165Q210 525 229
553T249 616Q249 664 208 664Q177 664 162 641T142 574L86 582Q85 623 114 654T206 685Q261 685 286 662T311 604Q311 572 290 548T226 514Q287 497 287 441ZM582 680L607 662L118 0L93 17L582 680ZM489 46L496 85H348L351 106Q391 142 420 176T471 249T511 340H578Q552
270 499 215T383 106H500L513 183L572 189L557 106H596L592 85H554L547 46Q544 29 545 26T554 21L580 18L577 0H437L441 18L474 21Q482 22 484 25T489 46Z" />
<glyph unicode="&#xbf;" glyph-name="questiondown" horiz-adv-x="479" d="M288 505Q313 505 327 492T341 454Q341 429 325 411T280 392Q255 392 241 405T227 442Q227 468 243 486T288 505ZM238 311H284L280 289Q271 237 250 206T201 151T148 104T106 46T89 -45Q89
-108 115 -135T182 -163Q243 -163 276 -114T317 28L396 12Q396 -42 373 -89T303 -166T179 -195Q88 -195 43 -151T-3 -41Q-3 3 13 33T56 87T113 129T170 170T215 220T236 288L238 311Z" />
<glyph unicode="&#xc0;" glyph-name="Agrave" horiz-adv-x="628" d="M152 26L147 0H-46L-41 26L14 32Q25 33 31 35T42 48T59 81L358 680H421L510 81Q515 47 519 41T537 32L591 26L587 0H347L352 26L408 32Q425 34 427 40T425 81L407 209H163L99 81Q82 47 82 41T98
32L152 26ZM179 241H402L352 589L179 241ZM405 764Q367 803 340 841T291 925H382Q387 878 398 847T428 781L405 764Z" />
<glyph unicode="&#xc1;" glyph-name="Aacute" horiz-adv-x="628" d="M152 26L147 0H-46L-41 26L14 32Q25 33 31 35T42 48T59 81L358 680H421L510 81Q515 47 519 41T537 32L591 26L587 0H347L352 26L408 32Q425 34 427 40T425 81L407 209H163L99 81Q82 47 82 41T98
32L152 26ZM179 241H402L352 589L179 241ZM403 764L384 786Q413 818 433 848T473 925H574Q536 879 496 841T403 764Z" />
<glyph unicode="&#xc2;" glyph-name="Acircumflex" horiz-adv-x="628" d="M152 26L147 0H-46L-41 26L14 32Q25 33 31 35T42 48T59 81L358 680H421L510 81Q515 47 519 41T537 32L591 26L587 0H347L352 26L408 32Q425 34 427 40T425 81L407 209H163L99 81Q82 47
82 41T98 32L152 26ZM179 241H402L352 589L179 241ZM538 783L520 764Q491 790 467 814T423 863Q395 839 363 815T294 764L277 785Q306 812 324 831T360 871T399 925H465Q476 893 485 871T506 830T538 783Z" />
<glyph unicode="&#xc3;" glyph-name="Atilde" horiz-adv-x="628" d="M152 26L147 0H-46L-41 26L14 32Q25 33 31 35T42 48T59 81L358 680H421L510 81Q515 47 519 41T537 32L591 26L587 0H347L352 26L408 32Q425 34 427 40T425 81L407 209H163L99 81Q82 47 82 41T98
32L152 26ZM179 241H402L352 589L179 241ZM482 774Q457 774 439 787T407 818T378 849T347 863Q330 863 315 845T290 785H259Q273 859 299 891T358 924Q384 924 401 911T433 880T460 849T491 835Q508 835 522 854T547 913H579Q565 838 540 806T482 774Z" />
<glyph unicode="&#xc4;" glyph-name="Adieresis" horiz-adv-x="628" d="M152 26L147 0H-46L-41 26L14 32Q25 33 31 35T42 48T59 81L358 680H421L510 81Q515 47 519 41T537 32L591 26L587 0H347L352 26L408 32Q425 34 427 40T425 81L407 209H163L99 81Q82 47 82
41T98 32L152 26ZM179 241H402L352 589L179 241ZM307 796Q286 796 274 808T261 841Q261 864 277 881T318 898Q340 898 352 886T364 854Q364 831 349 814T307 796ZM509 796Q489 796 476 808T463 841Q463 864 479 881T520 898Q542 898 554 886T567 854Q567 831 552
814T509 796Z" />
<glyph unicode="&#xc5;" glyph-name="Aring" horiz-adv-x="628" d="M152 26L147 0H-46L-41 26L14 32Q25 33 31 35T42 48T59 81L348 661Q311 673 294 705T283 771L285 782Q293 824 326 853T413 882Q454 882 480 865T516 822T522 766L520 755Q514 721 489 694T424
658L510 81Q515 47 519 41T537 32L591 26L587 0H347L352 26L408 32Q425 34 427 40T425 81L407 209H163L99 81Q82 47 82 41T98 32L152 26ZM389 680Q447 680 459 755L464 780Q470 817 457 837T415 857Q359 857 345 781L341 756Q334 720 347 700T389 680ZM179 241H402L352
589L179 241Z" />
<glyph unicode="&#xc6;" glyph-name="AE" horiz-adv-x="888" d="M395 653L400 680H899L870 517H845L834 622Q833 639 827 643T785 648H591L540 359H674Q698 359 708 360T723 367T733 385L765 460H790L749 226H724L717 301Q716 319 710 323T668 327H534L482 32H686Q710
32 720 33T735 40T745 58L792 163H818L789 0H312L316 26L373 32Q389 34 393 40T403 81L426 209H204L113 81Q89 47 87 41T101 32L155 26L151 0H-46L-41 26L14 32Q25 33 31 35T45 48T70 81L437 599Q462 633 463 639T449 648L395 653ZM227 241H431L499 626L227 241Z"
/>
<glyph unicode="&#xc7;" glyph-name="Ccedilla" horiz-adv-x="586" d="M375 -133Q375 -173 341 -198T256 -223Q216 -223 186 -205T155 -145L206 -131Q204 -166 215 -180T251 -195Q278 -195 294 -176T310 -131Q310 -109 300 -98T261 -86Q256 -86 249 -87T237 -89L232
-63L264 -8Q157 4 111 91T86 315L97 382Q120 525 196 607T393 690Q467 690 513 660T575 581T574 480L484 459Q511 555 487 606T392 658Q321 658 271 605T201 432L173 265Q152 138 184 80T300 22Q348 22 391 51T456 156L518 135Q482 56 424 23T298 -10L270 -58Q320
-58 347 -79T375 -133Z" />
<glyph unicode="&#xc8;" glyph-name="Egrave" horiz-adv-x="580" d="M512 163L483 0H4L9 26L65 32Q76 33 81 35T89 47T96 81L187 599Q193 634 191 640T174 648L119 653L124 680H591L562 517H536L526 622Q525 634 523 639T511 646T477 648H283L232 359H366Q390
359 400 360T415 367T425 385L457 460H482L441 226H416L410 301Q409 319 402 323T360 327H226L174 32H380Q404 32 414 33T429 40T439 58L486 163H512ZM395 764Q357 803 330 841T281 925H372Q377 878 388 847T418 781L395 764Z" />
<glyph unicode="&#xc9;" glyph-name="Eacute" horiz-adv-x="580" d="M512 163L483 0H4L9 26L65 32Q76 33 81 35T89 47T96 81L187 599Q193 634 191 640T174 648L119 653L124 680H591L562 517H536L526 622Q525 634 523 639T511 646T477 648H283L232 359H366Q390
359 400 360T415 367T425 385L457 460H482L441 226H416L410 301Q409 319 402 323T360 327H226L174 32H380Q404 32 414 33T429 40T439 58L486 163H512ZM393 764L374 786Q403 818 423 848T463 925H564Q526 879 486 841T393 764Z" />
<glyph unicode="&#xca;" glyph-name="Ecircumflex" horiz-adv-x="580" d="M512 163L483 0H4L9 26L65 32Q76 33 81 35T89 47T96 81L187 599Q193 634 191 640T174 648L119 653L124 680H591L562 517H536L526 622Q525 634 523 639T511 646T477 648H283L232 359H366Q390
359 400 360T415 367T425 385L457 460H482L441 226H416L410 301Q409 319 402 323T360 327H226L174 32H380Q404 32 414 33T429 40T439 58L486 163H512ZM529 783L511 764Q482 790 458 814T414 863Q386 839 354 815T285 764L268 785Q297 812 315 831T351 871T390 925H456Q467
893 476 871T497 830T529 783Z" />
<glyph unicode="&#xcb;" glyph-name="Edieresis" horiz-adv-x="580" d="M512 163L483 0H4L9 26L65 32Q76 33 81 35T89 47T96 81L187 599Q193 634 191 640T174 648L119 653L124 680H591L562 517H536L526 622Q525 634 523 639T511 646T477 648H283L232 359H366Q390
359 400 360T415 367T425 385L457 460H482L441 226H416L410 301Q409 319 402 323T360 327H226L174 32H380Q404 32 414 33T429 40T439 58L486 163H512ZM302 796Q281 796 269 808T256 841Q256 864 272 881T313 898Q335 898 347 886T359 854Q359 831 344 814T302 796ZM504
796Q484 796 471 808T458 841Q458 864 474 881T515 898Q537 898 549 886T562 854Q562 831 547 814T504 796Z" />
<glyph unicode="&#xcc;" glyph-name="Igrave" horiz-adv-x="337" d="M119 653L124 680H365L360 653L304 648Q294 647 289 644T281 632T274 599L182 81Q176 46 178 40T196 32L250 26L245 0H4L9 26L65 32Q76 33 80 35T88 47T95 81L187 599Q193 634 191 640T173 648L119
653ZM260 764Q222 803 195 841T146 925H237Q242 878 253 847T283 781L260 764Z" />
<glyph unicode="&#xcd;" glyph-name="Iacute" horiz-adv-x="337" d="M119 653L124 680H365L360 653L304 648Q294 647 289 644T281 632T274 599L182 81Q176 46 178 40T196 32L250 26L245 0H4L9 26L65 32Q76 33 80 35T88 47T95 81L187 599Q193 634 191 640T173 648L119
653ZM258 764L239 786Q268 818 288 848T328 925H429Q391 879 351 841T258 764Z" />
<glyph unicode="&#xce;" glyph-name="Icircumflex" horiz-adv-x="337" d="M119 653L124 680H365L360 653L304 648Q294 647 289 644T281 632T274 599L182 81Q176 46 178 40T196 32L250 26L245 0H4L9 26L65 32Q76 33 80 35T88 47T95 81L187 599Q193 634 191 640T173
648L119 653ZM393 783L375 764Q346 790 322 814T278 863Q250 839 218 815T149 764L132 785Q161 812 179 831T215 871T254 925H320Q331 893 340 871T361 830T393 783Z" />
<glyph unicode="&#xcf;" glyph-name="Idieresis" horiz-adv-x="337" d="M119 653L124 680H365L360 653L304 648Q294 647 289 644T281 632T274 599L182 81Q176 46 178 40T196 32L250 26L245 0H4L9 26L65 32Q76 33 80 35T88 47T95 81L187 599Q193 634 191 640T173
648L119 653ZM167 796Q146 796 134 808T121 841Q121 864 137 881T178 898Q200 898 212 886T224 854Q224 831 209 814T167 796ZM369 796Q349 796 336 808T323 841Q323 864 339 881T380 898Q402 898 414 886T427 854Q427 831 412 814T369 796Z" />
<glyph unicode="&#xd0;" glyph-name="Eth" horiz-adv-x="663" d="M123 653L128 680H390Q478 680 532 639T605 526T609 366L598 301Q582 210 542 143T440 38T296 0H8L12 26L68 32Q85 34 89 40T99 81L145 338H68L73 370H150L191 599Q197 634 195 640T178 648L123
653ZM385 338H232L178 32H295Q374 32 425 88T495 253L523 418Q542 528 510 588T390 648H286L237 370H390L385 338Z" />
<glyph unicode="&#xd1;" glyph-name="Ntilde" horiz-adv-x="691" d="M119 653L124 680H291L519 146L600 599Q606 633 604 639T587 648L532 653L537 680H728L723 653L668 648Q652 646 648 640T637 599L531 0H491L227 613L133 81Q127 47 129 41T146 32L200 26L195
0H4L9 26L65 32Q82 34 86 40T96 81L187 599Q193 633 191 639T174 648L119 653ZM522 774Q497 774 479 787T447 818T418 849T387 863Q370 863 355 845T330 785H299Q313 859 339 891T398 924Q424 924 441 911T473 880T500 849T531 835Q548 835 562 854T587 913H619Q605
838 580 806T522 774Z" />
<glyph unicode="&#xd2;" glyph-name="Ograve" horiz-adv-x="666" d="M614 366L602 301Q586 207 546 137T444 29T301 -10Q214 -10 161 32T88 149T85 315L96 380Q113 473 153 543T254 651T397 690Q484 690 537 647T610 531T614 366ZM528 418Q548 532 516 595T397
658Q319 658 270 600T200 428L171 263Q151 148 183 85T301 22Q380 22 430 81T499 253L528 418ZM423 764Q385 803 358 841T309 925H400Q405 878 416 847T446 781L423 764Z" />
<glyph unicode="&#xd3;" glyph-name="Oacute" horiz-adv-x="666" d="M614 366L602 301Q586 207 546 137T444 29T301 -10Q214 -10 161 32T88 149T85 315L96 380Q113 473 153 543T254 651T397 690Q484 690 537 647T610 531T614 366ZM528 418Q548 532 516 595T397
658Q319 658 270 600T200 428L171 263Q151 148 183 85T301 22Q380 22 430 81T499 253L528 418ZM421 764L402 786Q431 818 451 848T491 925H592Q554 879 514 841T421 764Z" />
<glyph unicode="&#xd4;" glyph-name="Ocircumflex" horiz-adv-x="666" d="M614 366L602 301Q586 207 546 137T444 29T301 -10Q214 -10 161 32T88 149T85 315L96 380Q113 473 153 543T254 651T397 690Q484 690 537 647T610 531T614 366ZM528 418Q548 532 516 595T397
658Q319 658 270 600T200 428L171 263Q151 148 183 85T301 22Q380 22 430 81T499 253L528 418ZM556 783L538 764Q509 790 485 814T441 863Q413 839 381 815T312 764L295 785Q324 812 342 831T378 871T417 925H483Q494 893 503 871T524 830T556 783Z" />
<glyph unicode="&#xd5;" glyph-name="Otilde" horiz-adv-x="666" d="M614 366L602 301Q586 207 546 137T444 29T301 -10Q214 -10 161 32T88 149T85 315L96 380Q113 473 153 543T254 651T397 690Q484 690 537 647T610 531T614 366ZM528 418Q548 532 516 595T397
658Q319 658 270 600T200 428L171 263Q151 148 183 85T301 22Q380 22 430 81T499 253L528 418ZM500 774Q475 774 457 787T425 818T396 849T365 863Q348 863 333 845T308 785H277Q291 859 317 891T376 924Q402 924 419 911T451 880T478 849T509 835Q526 835 540
854T565 913H597Q583 838 558 806T500 774Z" />
<glyph unicode="&#xd6;" glyph-name="Odieresis" horiz-adv-x="666" d="M614 366L602 301Q586 207 546 137T444 29T301 -10Q214 -10 161 32T88 149T85 315L96 380Q113 473 153 543T254 651T397 690Q484 690 537 647T610 531T614 366ZM528 418Q548 532 516 595T397
658Q319 658 270 600T200 428L171 263Q151 148 183 85T301 22Q380 22 430 81T499 253L528 418ZM330 796Q309 796 297 808T284 841Q284 864 300 881T341 898Q363 898 375 886T387 854Q387 831 372 814T330 796ZM532 796Q512 796 499 808T486 841Q486 864 502 881T543
898Q565 898 577 886T590 854Q590 831 575 814T532 796Z" />
<glyph unicode="&#xd7;" glyph-name="multiply" horiz-adv-x="588" d="M465 170L439 146L304 309L113 146L90 172L282 336L149 497L176 522L310 359L503 523L525 497L332 332L465 170Z" />
<glyph unicode="&#xd8;" glyph-name="Oslash" horiz-adv-x="666" d="M602 301Q586 207 546 137T444 29T301 -10Q244 -10 202 9T131 62L77 0H30L110 92Q86 136 80 192T85 315L96 380Q113 473 153 543T254 651T397 690Q454 690 496 671T567 618L621 680H668L588
588Q637 499 614 366L602 301ZM171 263Q166 232 165 205T164 155L525 570Q497 658 397 658Q319 658 270 600T200 428L171 263ZM528 418Q539 480 534 526L173 110Q201 22 301 22Q380 22 430 81T499 253L528 418Z" />
<glyph unicode="&#xd9;" glyph-name="Ugrave" horiz-adv-x="677" d="M524 653L529 680H720L715 653L660 648Q645 646 640 640T629 599L564 230Q545 118 484 54T315 -10Q197 -10 143 59T110 246L172 599Q178 633 176 639T159 648L104 653L109 680H350L345 653L290
648Q275 646 270 640T259 599L194 230Q175 124 206 73T320 22Q406 22 457 75T527 230L592 599Q598 633 596 639T579 648L524 653ZM449 764Q411 803 384 841T335 925H426Q431 878 442 847T472 781L449 764Z" />
<glyph unicode="&#xda;" glyph-name="Uacute" horiz-adv-x="677" d="M524 653L529 680H720L715 653L660 648Q645 646 640 640T629 599L564 230Q545 118 484 54T315 -10Q197 -10 143 59T110 246L172 599Q178 633 176 639T159 648L104 653L109 680H350L345 653L290
648Q275 646 270 640T259 599L194 230Q175 124 206 73T320 22Q406 22 457 75T527 230L592 599Q598 633 596 639T579 648L524 653ZM447 764L428 786Q457 818 477 848T517 925H618Q580 879 540 841T447 764Z" />
<glyph unicode="&#xdb;" glyph-name="Ucircumflex" horiz-adv-x="677" d="M524 653L529 680H720L715 653L660 648Q645 646 640 640T629 599L564 230Q545 118 484 54T315 -10Q197 -10 143 59T110 246L172 599Q178 633 176 639T159 648L104 653L109 680H350L345
653L290 648Q275 646 270 640T259 599L194 230Q175 124 206 73T320 22Q406 22 457 75T527 230L592 599Q598 633 596 639T579 648L524 653ZM583 783L565 764Q536 790 512 814T468 863Q440 839 408 815T339 764L322 785Q351 812 369 831T405 871T444 925H510Q521
893 530 871T551 830T583 783Z" />
<glyph unicode="&#xdc;" glyph-name="Udieresis" horiz-adv-x="677" d="M524 653L529 680H720L715 653L660 648Q645 646 640 640T629 599L564 230Q545 118 484 54T315 -10Q197 -10 143 59T110 246L172 599Q178 633 176 639T159 648L104 653L109 680H350L345 653L290
648Q275 646 270 640T259 599L194 230Q175 124 206 73T320 22Q406 22 457 75T527 230L592 599Q598 633 596 639T579 648L524 653ZM356 796Q335 796 323 808T310 841Q310 864 326 881T367 898Q389 898 401 886T413 854Q413 831 398 814T356 796ZM558 796Q538 796
525 808T512 841Q512 864 528 881T569 898Q591 898 603 886T616 854Q616 831 601 814T558 796Z" />
<glyph unicode="&#xdd;" glyph-name="Yacute" horiz-adv-x="588" d="M376 26L371 0H130L135 26L191 32Q202 33 207 35T216 49L258 292L153 605Q143 635 138 640T118 648L67 653L72 680H311L306 653L254 648Q238 646 237 640T245 605L333 332L520 605Q540 634 540
640T526 648L475 653L480 680H668L663 653L611 648Q600 647 594 645T582 634T561 605L345 291L308 79L309 81Q303 46 305 40T322 32L376 26ZM393 764L374 786Q403 818 423 848T463 925H564Q526 879 486 841T393 764Z" />
<glyph unicode="&#xde;" glyph-name="Thorn" horiz-adv-x="574" d="M270 26L265 0H4L9 26L65 32Q76 33 80 35T88 47T95 81L187 599Q193 634 191 640T173 648L119 653L124 680H385L380 653L304 648Q288 647 284 641T274 599L263 538H378Q443 538 485 513T545 446T554
349L549 320Q534 238 478 192T320 146H194L182 81Q176 46 178 40T196 32L270 26ZM378 506H257L199 178H320Q374 178 408 210T454 308L464 365Q488 506 378 506Z" />
<glyph unicode="&#xdf;" glyph-name="germandbls" horiz-adv-x="602" d="M244 581L104 -213H22L133 414Q139 449 137 455T120 463L65 468L70 495H147L160 567Q169 617 191 658T257 725T371 750Q455 750 494 714T533 630Q533 599 520 576T486 533T446 493T413 450T399
395Q399 367 414 346T459 301L495 270Q525 246 541 216T557 142Q557 78 511 34T384 -10Q326 -10 285 19T236 114L294 134Q296 70 321 46T384 21Q428 21 457 44T487 113Q487 140 476 161T437 206L401 236Q371 261 351 287T331 353Q331 385 344 411T376 462T416 512T449
568T462 636Q462 718 374 718Q325 718 292 690T244 581Z" />
<glyph unicode="&#xe0;" glyph-name="agrave" horiz-adv-x="581" d="M444 -5Q407 -5 386 17T362 86Q328 33 289 12T209 -10Q150 -10 113 26T63 124T64 260L68 282Q81 352 114 402T196 478T298 505Q340 505 371 489T423 442Q437 453 450 467T476 495H511L450 150Q437
76 440 52T459 28Q474 28 491 45T523 105L558 83Q536 37 507 16T444 -5ZM149 234Q132 134 153 79T222 24Q241 24 265 34T315 74T370 160L411 396Q393 435 367 453T304 471Q243 471 208 423T158 291L149 234ZM323 579Q285 618 258 656T209 740H300Q305 693 316 662T346
596L323 579Z" />
<glyph unicode="&#xe1;" glyph-name="aacute" horiz-adv-x="581" d="M444 -5Q407 -5 386 17T362 86Q328 33 289 12T209 -10Q150 -10 113 26T63 124T64 260L68 282Q81 352 114 402T196 478T298 505Q340 505 371 489T423 442Q437 453 450 467T476 495H511L450 150Q437
76 440 52T459 28Q474 28 491 45T523 105L558 83Q536 37 507 16T444 -5ZM149 234Q132 134 153 79T222 24Q241 24 265 34T315 74T370 160L411 396Q393 435 367 453T304 471Q243 471 208 423T158 291L149 234ZM321 579L302 601Q331 633 351 663T391 740H492Q454 694
414 656T321 579Z" />
<glyph unicode="&#xe2;" glyph-name="acircumflex" horiz-adv-x="581" d="M444 -5Q407 -5 386 17T362 86Q328 33 289 12T209 -10Q150 -10 113 26T63 124T64 260L68 282Q81 352 114 402T196 478T298 505Q340 505 371 489T423 442Q437 453 450 467T476 495H511L450
150Q437 76 440 52T459 28Q474 28 491 45T523 105L558 83Q536 37 507 16T444 -5ZM149 234Q132 134 153 79T222 24Q241 24 265 34T315 74T370 160L411 396Q393 435 367 453T304 471Q243 471 208 423T158 291L149 234ZM456 598L438 579Q409 605 385 629T341 678Q313
654 281 630T212 579L195 600Q224 627 242 646T278 686T317 740H383Q394 708 403 686T424 645T456 598Z" />
<glyph unicode="&#xe3;" glyph-name="atilde" horiz-adv-x="581" d="M444 -5Q407 -5 386 17T362 86Q328 33 289 12T209 -10Q150 -10 113 26T63 124T64 260L68 282Q81 352 114 402T196 478T298 505Q340 505 371 489T423 442Q437 453 450 467T476 495H511L450 150Q437
76 440 52T459 28Q474 28 491 45T523 105L558 83Q536 37 507 16T444 -5ZM149 234Q132 134 153 79T222 24Q241 24 265 34T315 74T370 160L411 396Q393 435 367 453T304 471Q243 471 208 423T158 291L149 234ZM400 589Q375 589 357 602T325 633T296 664T265 678Q248
678 233 660T208 600H177Q191 674 217 706T276 739Q302 739 319 726T351 695T378 664T409 650Q426 650 440 669T465 728H497Q483 653 458 621T400 589Z" />
<glyph unicode="&#xe4;" glyph-name="adieresis" horiz-adv-x="581" d="M444 -5Q407 -5 386 17T362 86Q328 33 289 12T209 -10Q150 -10 113 26T63 124T64 260L68 282Q81 352 114 402T196 478T298 505Q340 505 371 489T423 442Q437 453 450 467T476 495H511L450
150Q437 76 440 52T459 28Q474 28 491 45T523 105L558 83Q536 37 507 16T444 -5ZM149 234Q132 134 153 79T222 24Q241 24 265 34T315 74T370 160L411 396Q393 435 367 453T304 471Q243 471 208 423T158 291L149 234ZM230 611Q209 611 197 623T184 656Q184 679 200
696T241 713Q263 713 275 701T287 669Q287 646 272 629T230 611ZM432 611Q412 611 399 623T386 656Q386 679 402 696T443 713Q465 713 477 701T490 669Q490 646 475 629T432 611Z" />
<glyph unicode="&#xe5;" glyph-name="aring" horiz-adv-x="581" d="M444 -5Q407 -5 386 17T362 86Q328 33 289 12T209 -10Q150 -10 113 26T63 124T64 260L68 282Q81 352 114 402T196 478T298 505Q340 505 371 489T423 442Q437 453 450 467T476 495H511L450 150Q437
76 440 52T459 28Q474 28 491 45T523 105L558 83Q536 37 507 16T444 -5ZM149 234Q132 134 153 79T222 24Q241 24 265 34T315 74T370 160L411 396Q393 435 367 453T304 471Q243 471 208 423T158 291L149 234ZM350 789Q391 789 417 772T453 729T459 673L457 662Q450
621 416 591T328 561Q288 561 263 578T226 622T220 678L222 689Q230 731 263 760T350 789ZM326 587Q384 587 396 662L401 687Q407 724 394 744T352 764Q296 764 282 688L278 663Q271 627 284 607T326 587Z" />
<glyph unicode="&#xe6;" glyph-name="ae" horiz-adv-x="799" d="M733 98Q698 37 645 14T540 -10Q472 -10 427 22T364 112Q324 43 270 17T166 -10Q104 -10 72 20T39 103Q39 142 57 175T120 230T241 251H358L372 332Q382 386 374 416T345 460T295 473Q267 473 241
461T198 418T178 326L99 338Q102 385 126 422T194 482T295 505Q355 505 388 481T435 422Q468 462 514 483T615 505Q666 505 701 488T754 444T772 385Q772 336 738 299T641 240T494 219H442Q428 120 454 71T543 22Q567 22 595 31T648 62T686 123L733 98ZM454 289L448
251H493Q557 251 597 263T659 297T689 342T697 389Q697 428 674 450T612 473Q559 473 515 430T454 289ZM190 32Q211 32 238 41T295 77T355 156Q353 171 353 187T354 219H246Q179 219 152 188T124 106Q124 32 190 32Z" />
<glyph unicode="&#xe7;" glyph-name="ccedilla" horiz-adv-x="485" d="M322 -133Q322 -173 288 -198T203 -223Q163 -223 133 -205T102 -145L153 -131Q151 -166 162 -180T198 -195Q225 -195 241 -176T257 -131Q257 -109 247 -98T208 -86Q203 -86 196 -87T184 -89L179
-63L211 -9Q153 -4 115 30T62 121T61 254L65 276Q78 344 112 395T197 476T311 505Q370 505 408 480T459 413T455 320L374 304Q400 384 382 428T307 473Q257 473 215 430T157 289L147 229Q130 125 154 74T237 22Q260 22 286 31T336 62T374 124L420 98Q387 41 341
17T245 -10L217 -58Q267 -58 294 -79T322 -133Z" />
<glyph unicode="&#xe8;" glyph-name="egrave" horiz-adv-x="502" d="M435 98Q400 37 347 14T242 -10Q173 -10 128 23T65 115T61 254L65 276Q77 344 111 395T198 476T317 505Q368 505 403 488T456 444T474 385Q474 335 439 299T341 243T196 216L144 212Q131 117
157 70T245 22Q269 22 297 31T350 62T388 123L435 98ZM156 289L149 244L195 247Q277 252 321 274T382 327T399 389Q399 428 377 450T314 473Q261 473 217 430T156 289ZM325 579Q287 618 260 656T211 740H302Q307 693 318 662T348 596L325 579Z" />
<glyph unicode="&#xe9;" glyph-name="eacute" horiz-adv-x="502" d="M435 98Q400 37 347 14T242 -10Q173 -10 128 23T65 115T61 254L65 276Q77 344 111 395T198 476T317 505Q368 505 403 488T456 444T474 385Q474 335 439 299T341 243T196 216L144 212Q131 117
157 70T245 22Q269 22 297 31T350 62T388 123L435 98ZM156 289L149 244L195 247Q277 252 321 274T382 327T399 389Q399 428 377 450T314 473Q261 473 217 430T156 289ZM323 579L304 601Q333 633 353 663T393 740H494Q456 694 416 656T323 579Z" />
<glyph unicode="&#xea;" glyph-name="ecircumflex" horiz-adv-x="502" d="M435 98Q400 37 347 14T242 -10Q173 -10 128 23T65 115T61 254L65 276Q77 344 111 395T198 476T317 505Q368 505 403 488T456 444T474 385Q474 335 439 299T341 243T196 216L144 212Q131
117 157 70T245 22Q269 22 297 31T350 62T388 123L435 98ZM156 289L149 244L195 247Q277 252 321 274T382 327T399 389Q399 428 377 450T314 473Q261 473 217 430T156 289ZM459 598L441 579Q412 605 388 629T344 678Q316 654 284 630T215 579L198 600Q227 627 245
646T281 686T320 740H386Q397 708 406 686T427 645T459 598Z" />
<glyph unicode="&#xeb;" glyph-name="edieresis" horiz-adv-x="502" d="M435 98Q400 37 347 14T242 -10Q173 -10 128 23T65 115T61 254L65 276Q77 344 111 395T198 476T317 505Q368 505 403 488T456 444T474 385Q474 335 439 299T341 243T196 216L144 212Q131
117 157 70T245 22Q269 22 297 31T350 62T388 123L435 98ZM156 289L149 244L195 247Q277 252 321 274T382 327T399 389Q399 428 377 450T314 473Q261 473 217 430T156 289ZM232 611Q211 611 199 623T186 656Q186 679 202 696T243 713Q265 713 277 701T289 669Q289
646 274 629T232 611ZM434 611Q414 611 401 623T388 656Q388 679 404 696T445 713Q467 713 479 701T492 669Q492 646 477 629T434 611Z" />
<glyph unicode="&#xec;" glyph-name="igrave" horiz-adv-x="300" d="M66 468L71 495H230L170 150Q157 76 160 52T179 28Q194 28 211 45T242 105L278 83Q256 37 227 16T164 -5Q118 -5 96 31T86 142L134 414Q140 448 138 454T120 463L66 468ZM441 579Q403 618 376
656T327 740H418Q423 693 434 662T464 596L441 579Z" />
<glyph unicode="&#xed;" glyph-name="iacute" horiz-adv-x="300" d="M66 468L71 495H230L170 150Q157 76 160 52T179 28Q194 28 211 45T242 105L278 83Q256 37 227 16T164 -5Q118 -5 96 31T86 142L134 414Q140 448 138 454T120 463L66 468ZM439 579L420 601Q449
633 469 663T509 740H610Q572 694 532 656T439 579Z" />
<glyph unicode="&#xee;" glyph-name="icircumflex" horiz-adv-x="300" d="M66 468L71 495H230L170 150Q157 76 160 52T179 28Q194 28 211 45T242 105L278 83Q256 37 227 16T164 -5Q118 -5 96 31T86 142L134 414Q140 448 138 454T120 463L66 468ZM574 598L556 579Q527
605 503 629T459 678Q431 654 399 630T330 579L313 600Q342 627 360 646T396 686T435 740H501Q512 708 521 686T542 645T574 598Z" />
<glyph unicode="&#xef;" glyph-name="idieresis" horiz-adv-x="300" d="M66 468L71 495H230L170 150Q157 76 160 52T179 28Q194 28 211 45T242 105L278 83Q256 37 227 16T164 -5Q118 -5 96 31T86 142L134 414Q140 448 138 454T120 463L66 468ZM348 611Q327 611
315 623T302 656Q302 679 318 696T359 713Q381 713 393 701T405 669Q405 646 390 629T348 611ZM550 611Q530 611 517 623T504 656Q504 679 520 696T561 713Q583 713 595 701T608 669Q608 646 593 629T550 611Z" />
<glyph unicode="&#xf0;" glyph-name="eth" horiz-adv-x="559" d="M495 256Q472 128 409 59T240 -10Q170 -10 126 20T64 103T57 223L60 243Q75 344 135 397T281 451Q325 451 361 435T422 387Q424 458 409 515T363 615L233 531L217 559L343 641Q322 666 297 686T243
724L257 750Q327 715 378 664L511 750L527 722L401 640Q464 568 490 477T499 284L495 256ZM142 197Q128 111 153 67T239 22Q303 22 342 72T402 239L413 307Q415 315 416 323T418 338Q393 386 359 402T295 419Q243 419 204 379T151 251L142 197Z" />
<glyph unicode="&#xf1;" glyph-name="ntilde" horiz-adv-x="617" d="M594 83Q572 37 543 16T478 -5Q432 -5 410 27T401 127L441 323Q456 399 439 433T383 467Q359 467 330 454T268 409T200 316L145 0H63L135 414Q141 448 139 454T122 463L68 468L73 495H229L211
389Q255 451 303 478T401 505Q475 505 507 456T523 324L482 124Q472 73 473 51T493 28Q510 28 527 45T558 105L594 83ZM451 589Q426 589 408 602T376 633T347 664T316 678Q299 678 284 660T259 600H228Q242 674 268 706T327 739Q353 739 370 726T402 695T429 664T460
650Q477 650 491 669T516 728H548Q534 653 509 621T451 589Z" />
<glyph unicode="&#xf2;" glyph-name="ograve" horiz-adv-x="554" d="M492 242L488 220Q469 111 405 51T241 -10Q171 -10 127 25T65 120T61 252L65 275Q85 384 148 444T310 505Q381 505 426 470T488 374T492 242ZM406 268Q424 370 397 422T308 474Q253 474 214
431T157 288L147 227Q129 125 156 73T244 20Q300 20 339 64T395 207L406 268ZM332 579Q294 618 267 656T218 740H309Q314 693 325 662T355 596L332 579Z" />
<glyph unicode="&#xf3;" glyph-name="oacute" horiz-adv-x="554" d="M492 242L488 220Q469 111 405 51T241 -10Q171 -10 127 25T65 120T61 252L65 275Q85 384 148 444T310 505Q381 505 426 470T488 374T492 242ZM406 268Q424 370 397 422T308 474Q253 474 214
431T157 288L147 227Q129 125 156 73T244 20Q300 20 339 64T395 207L406 268ZM330 579L311 601Q340 633 360 663T400 740H501Q463 694 423 656T330 579Z" />
<glyph unicode="&#xf4;" glyph-name="ocircumflex" horiz-adv-x="554" d="M492 242L488 220Q469 111 405 51T241 -10Q171 -10 127 25T65 120T61 252L65 275Q85 384 148 444T310 505Q381 505 426 470T488 374T492 242ZM406 268Q424 370 397 422T308 474Q253 474
214 431T157 288L147 227Q129 125 156 73T244 20Q300 20 339 64T395 207L406 268ZM465 598L447 579Q418 605 394 629T350 678Q322 654 290 630T221 579L204 600Q233 627 251 646T287 686T326 740H392Q403 708 412 686T433 645T465 598Z" />
<glyph unicode="&#xf5;" glyph-name="otilde" horiz-adv-x="554" d="M492 242L488 220Q469 111 405 51T241 -10Q171 -10 127 25T65 120T61 252L65 275Q85 384 148 444T310 505Q381 505 426 470T488 374T492 242ZM406 268Q424 370 397 422T308 474Q253 474 214
431T157 288L147 227Q129 125 156 73T244 20Q300 20 339 64T395 207L406 268ZM409 589Q384 589 366 602T334 633T305 664T274 678Q257 678 242 660T217 600H186Q200 674 226 706T285 739Q311 739 328 726T360 695T387 664T418 650Q435 650 449 669T474 728H506Q492
653 467 621T409 589Z" />
<glyph unicode="&#xf6;" glyph-name="odieresis" horiz-adv-x="554" d="M492 242L488 220Q469 111 405 51T241 -10Q171 -10 127 25T65 120T61 252L65 275Q85 384 148 444T310 505Q381 505 426 470T488 374T492 242ZM406 268Q424 370 397 422T308 474Q253 474 214
431T157 288L147 227Q129 125 156 73T244 20Q300 20 339 64T395 207L406 268ZM239 611Q218 611 206 623T193 656Q193 679 209 696T250 713Q272 713 284 701T296 669Q296 646 281 629T239 611ZM441 611Q421 611 408 623T395 656Q395 679 411 696T452 713Q474 713
486 701T499 669Q499 646 484 629T441 611Z" />
<glyph unicode="&#xf7;" glyph-name="divide" horiz-adv-x="588" d="M287 529Q287 555 304 573T349 591Q373 591 387 578T402 541Q402 515 386 497T340 478Q316 478 302 491T287 529ZM99 317L105 350H519L513 317H99ZM217 127Q217 153 233 171T278 189Q303 189
317 176T331 139Q331 113 315 95T270 76Q245 76 231 89T217 127Z" />
<glyph unicode="&#xf8;" glyph-name="oslash" horiz-adv-x="556" d="M489 220Q470 111 406 51T243 -10Q199 -10 165 4T107 44L65 0H17L86 72Q43 144 62 252L66 275Q86 384 149 444T311 505Q355 505 389 491T448 451L490 495H537L468 423Q513 350 493 242L489 220ZM148
227Q139 172 142 131L405 406Q382 474 309 474Q254 474 215 431T158 288L148 227ZM407 268Q412 296 413 320T413 365L150 90Q173 20 246 20Q302 20 341 64T397 207L407 268Z" />
<glyph unicode="&#xf9;" glyph-name="ugrave" horiz-adv-x="605" d="M468 -5Q428 -5 406 22T386 105Q343 44 296 17T200 -10Q130 -10 100 38T83 170L126 414Q132 448 130 454T113 463L58 468L63 495H223L166 171Q153 95 168 61T218 27Q242 27 270 40T330 86T396
178L452 495H534L474 150Q461 76 464 52T483 28Q498 28 515 45T546 105L582 83Q560 37 531 16T468 -5ZM346 579Q308 618 281 656T232 740H323Q328 693 339 662T369 596L346 579Z" />
<glyph unicode="&#xfa;" glyph-name="uacute" horiz-adv-x="605" d="M468 -5Q428 -5 406 22T386 105Q343 44 296 17T200 -10Q130 -10 100 38T83 170L126 414Q132 448 130 454T113 463L58 468L63 495H223L166 171Q153 95 168 61T218 27Q242 27 270 40T330 86T396
178L452 495H534L474 150Q461 76 464 52T483 28Q498 28 515 45T546 105L582 83Q560 37 531 16T468 -5ZM344 579L325 601Q354 633 374 663T414 740H515Q477 694 437 656T344 579Z" />
<glyph unicode="&#xfb;" glyph-name="ucircumflex" horiz-adv-x="605" d="M468 -5Q428 -5 406 22T386 105Q343 44 296 17T200 -10Q130 -10 100 38T83 170L126 414Q132 448 130 454T113 463L58 468L63 495H223L166 171Q153 95 168 61T218 27Q242 27 270 40T330
86T396 178L452 495H534L474 150Q461 76 464 52T483 28Q498 28 515 45T546 105L582 83Q560 37 531 16T468 -5ZM479 598L461 579Q432 605 408 629T364 678Q336 654 304 630T235 579L218 600Q247 627 265 646T301 686T340 740H406Q417 708 426 686T447 645T479 598Z"
/>
<glyph unicode="&#xfc;" glyph-name="udieresis" horiz-adv-x="605" d="M468 -5Q428 -5 406 22T386 105Q343 44 296 17T200 -10Q130 -10 100 38T83 170L126 414Q132 448 130 454T113 463L58 468L63 495H223L166 171Q153 95 168 61T218 27Q242 27 270 40T330 86T396
178L452 495H534L474 150Q461 76 464 52T483 28Q498 28 515 45T546 105L582 83Q560 37 531 16T468 -5ZM253 611Q232 611 220 623T207 656Q207 679 223 696T264 713Q286 713 298 701T310 669Q310 646 295 629T253 611ZM455 611Q435 611 422 623T409 656Q409 679
425 696T466 713Q488 713 500 701T513 669Q513 646 498 629T455 611Z" />
<glyph unicode="&#xfd;" glyph-name="yacute" horiz-adv-x="585" d="M448 9Q438 -52 409 -105T327 -190T195 -223Q117 -223 79 -181T47 -72L104 -60Q96 -132 122 -162T195 -193Q257 -193 301 -151T365 -1L383 101Q340 42 294 16T200 -10Q130 -10 100 38T83 170L126
414Q132 448 130 454T113 463L58 468L63 495H223L166 171Q153 95 168 61T218 27Q254 27 299 58T396 178L452 495H534L448 9ZM346 579L327 601Q356 633 376 663T416 740H517Q479 694 439 656T346 579Z" />
<glyph unicode="&#xfe;" glyph-name="thorn" horiz-adv-x="572" d="M272 -10Q231 -10 200 5T147 48L101 -213H19L173 659Q179 694 177 700T160 708L106 714L110 740H269L211 411Q246 463 284 484T362 505Q421 505 458 469T508 371T508 235L504 213Q491 143 457
93T374 17T272 -10ZM348 470Q328 470 304 459T252 415T195 322L156 99Q174 59 201 42T266 24Q327 24 363 71T413 203L422 260Q439 361 418 415T348 470Z" />
<glyph unicode="&#xff;" glyph-name="ydieresis" horiz-adv-x="585" d="M448 9Q438 -52 409 -105T327 -190T195 -223Q117 -223 79 -181T47 -72L104 -60Q96 -132 122 -162T195 -193Q257 -193 301 -151T365 -1L383 101Q340 42 294 16T200 -10Q130 -10 100 38T83
170L126 414Q132 448 130 454T113 463L58 468L63 495H223L166 171Q153 95 168 61T218 27Q254 27 299 58T396 178L452 495H534L448 9ZM255 611Q234 611 222 623T209 656Q209 679 225 696T266 713Q288 713 300 701T312 669Q312 646 297 629T255 611ZM457 611Q437
611 424 623T411 656Q411 679 427 696T468 713Q490 713 502 701T515 669Q515 646 500 629T457 611Z" />
<glyph unicode="&#x2013;" glyph-name="endash" horiz-adv-x="604" d="M82 317L88 352H552L546 317H82Z" />
<glyph unicode="&#x2014;" glyph-name="emdash" horiz-adv-x="804" d="M82 317L88 352H752L746 317H82Z" />
<glyph unicode="&#x2018;" glyph-name="quoteleft" horiz-adv-x="258" d="M221 490Q221 465 207 448T166 431Q144 431 131 445T117 486Q117 529 151 582T244 690L263 670Q223 630 204 597T177 536Q197 535 209 523T221 490Z" />
<glyph unicode="&#x2019;" glyph-name="quoteright" horiz-adv-x="258" d="M251 635Q251 592 217 540T124 431L105 451Q145 492 164 524T191 585Q171 586 159 598T147 631Q147 656 162 673T202 690Q224 690 237 676T251 635Z" />
<glyph unicode="&#x201a;" glyph-name="quotesinglbase" horiz-adv-x="258" d="M146 39Q146 -3 112 -55T18 -163L0 -144Q40 -103 59 -70T85 -10Q65 -9 53 3T41 36Q41 61 56 77T97 94Q119 94 132 80T146 39Z" />
<glyph unicode="&#x201c;" glyph-name="quotedblleft" horiz-adv-x="425" d="M389 490Q389 465 374 448T333 431Q311 431 298 445T284 486Q284 529 318 582T412 690L430 670Q390 630 371 597T345 536Q365 535 377 523T389 490ZM221 490Q221 465 207 448T166 431Q144
431 131 445T117 486Q117 529 151 582T244 690L263 670Q223 630 204 597T177 536Q197 535 209 523T221 490Z" />
<glyph unicode="&#x201d;" glyph-name="quotedblright" horiz-adv-x="425" d="M251 635Q251 592 217 540T124 431L105 451Q145 492 164 524T191 585Q171 586 159 598T147 631Q147 656 162 673T202 690Q224 690 237 676T251 635ZM419 635Q419 592 385 540T291 431L272
451Q313 492 332 524T358 585Q338 586 326 598T314 631Q314 656 329 673T369 690Q391 690 405 676T419 635Z" />
<glyph unicode="&#x201e;" glyph-name="quotedblbase" horiz-adv-x="425" d="M146 39Q146 -3 112 -55T18 -163L0 -144Q40 -103 59 -70T85 -10Q65 -9 53 3T41 36Q41 61 56 77T97 94Q119 94 132 80T146 39ZM313 39Q313 -3 279 -55T185 -163L167 -144Q207 -103 226
-70T252 -10Q232 -9 220 3T208 36Q208 61 223 77T264 94Q286 94 299 80T313 39Z" />
<glyph unicode="&#x2022;" glyph-name="bullet" horiz-adv-x="263" d="M140 256Q107 256 88 274T68 325Q68 360 91 385T152 410Q186 410 205 392T225 341Q225 306 202 281T140 256Z" />
<glyph unicode="&#x2039;" glyph-name="guilsinglleft" horiz-adv-x="395" d="M297 25L278 10L50 232L54 256L361 478L376 456L150 238L297 25Z" />
<glyph unicode="&#x203a;" glyph-name="guilsinglright" horiz-adv-x="395" d="M339 233L33 11L17 32L243 250L96 463L115 479L343 257L339 233Z" />
</font>
</defs>
</svg>
