<?xml version="1.0" standalone="no"?>
<!DOCTYPE svg PUBLIC "-//W3C//DTD SVG 1.1//EN" "http://www.w3.org/Graphics/SVG/1.1/DTD/svg11.dtd">
<svg xmlns="http://www.w3.org/2000/svg">
<defs >
<font id="LibreFranklin" horiz-adv-x="568" ><font-face
    font-family="Libre Franklin Thin Thin"
    units-per-em="1000"
    panose-1="0 0 0 0 0 0 0 0 0 0"
    ascent="966"
    descent="-246"
    alphabetic="0" />
<glyph unicode=" " horiz-adv-x="220" />
<glyph unicode="!" horiz-adv-x="232" d="M147 11Q147 0 134 0H95Q85 0 85 10V70Q85 79 92 79H140Q147 79 147 71V11ZM132 156Q132 152 130 150T122 148H108Q104 148 102 149T100 155L90 735Q90 739 91 740T95 742H137Q143 742 143 736L132 156Z" />
<glyph unicode="&quot;" horiz-adv-x="371" d="M271 559Q270 555 268 553T261 550H243Q239 550 238 551T235 557L216 736Q216 739 218 740T222 742H285Q291 742 291 736L271 559ZM135 559Q134 555 132 553T125 550H107Q103 550 102 551T99 557L80 736Q80 739 82
740T86 742H149Q155 742 155 736L135 559Z" />
<glyph unicode="#" horiz-adv-x="603" d="M169 7Q168 3 166 1T161 0L137 4Q133 5 132 6T131 10L243 736Q244 739 246 741T250 742L274 738Q282 737 281 727L169 7ZM372 7Q371 3 369 1T364 0L340 4Q336 5 335 6T334 10L446 736Q447 739 449 741T453 742L477 738Q485
737 484 727L372 7ZM525 258Q525 250 515 250H53Q49 250 47 251T45 257V281Q45 288 50 288H518Q525 288 525 282V258ZM558 468Q558 460 548 460H86Q82 460 80 461T78 467V491Q78 498 83 498H551Q558 498 558 492V468Z" />
<glyph unicode="$" horiz-adv-x="574" d="M534 165Q534 115 508 76T437 13T331 -10Q327 -10 325 -11T323 -16V-85Q323 -93 316 -93H292Q285 -93 285 -88V-16Q285 -12 284 -11T280 -10Q191 -10 136 21T42 113Q36 123 44 128L60 138Q64 140 69 140T76 137Q114 86
159 60T278 33Q285 33 285 40V331Q285 340 279 346T262 358Q190 391 147 418T86 479T67 559Q67 614 94 655T168 722T277 752Q280 752 282 754T284 759V815Q284 818 285 820T290 822H314Q319 822 320 820T322 812V758Q322 751 329 751Q391 746 436 722T520 656Q528
648 520 642L497 625Q493 622 491 623T484 630Q460 660 420 680T331 707Q326 708 324 706T322 699V397Q322 387 333 382L360 370Q417 346 456 317T514 250T534 165V165ZM284 701Q284 710 274 708Q204 702 160 661T116 558Q116 530 129 506T174 458T264 408Q272
404 278 406T284 419V701ZM323 39Q323 33 330 33Q401 33 443 72T485 169Q485 223 451 258T340 327Q333 330 328 329T323 319V39V39Z" />
<glyph unicode="%" horiz-adv-x="898" d="M229 753Q277 753 313 729T370 658T391 541Q391 471 371 423T314 351T229 327Q181 327 144 351T86 423T65 541Q65 611 86 658T144 729T229 753V753ZM228 357Q287 357 321 409T356 540Q356 620 322 671T228 723Q189 723
161 699T116 634T100 540Q100 488 116 447T160 381T228 357V357ZM671 416Q719 416 755 392T812 321T833 204Q833 134 813 86T756 14T671 -10Q623 -10 586 14T528 86T507 204Q507 274 528 321T586 392T671 416V416ZM670 20Q708 20 736 44T781 110T798 203Q798 255
782 296T737 361T670 386Q633 386 604 362T559 296T542 203Q542 152 558 111T604 45T670 20V20ZM228 4Q223 -4 213 -4H197Q190 -4 189 0T192 9L681 745Q683 749 686 749T693 750H713Q717 750 718 749T717 742L228 4Z" />
<glyph unicode="&amp;" horiz-adv-x="740" d="M314 753Q360 753 397 736T457 687T480 608Q480 570 462 534T401 465T288 400Q281 397 281 394T285 384L473 160Q478 155 479 155T488 161Q509 181 533 210T580 272T620 334T643 382Q646 391 656 387L673 380Q676
379 678 376T679 370Q670 339 644 296T583 208T513 129Q509 125 510 122T515 114Q535 94 567 77T637 50T708 39Q720 39 720 29V14Q720 6 717 3T704 0Q670 0 627 13T544 46T479 87Q475 90 472 90T465 86Q419 43 364 19T248 -5Q153 -5 97 48T40 187Q40 246 73 296T185
395Q195 401 195 405T186 420Q152 456 135 492T118 568Q118 621 143 662T213 728T314 753V753ZM314 714Q267 714 234 694T183 640T165 567Q165 537 176 511T214 454L237 429Q239 426 244 426T254 427Q352 474 393 516T434 610Q434 663 399 688T314 714V714ZM245
361Q239 369 233 370T217 366Q156 337 121 289T85 183Q85 138 107 105T166 52T252 33Q303 33 351 54T436 109Q443 115 443 120T439 132L245 361V361Z" />
<glyph unicode="&apos;" horiz-adv-x="235" d="M135 559Q134 555 132 553T125 550H107Q103 550 102 551T99 557L80 736Q80 739 82 740T86 742H149Q155 742 155 736L135 559Z" />
<glyph unicode="(" horiz-adv-x="268" d="M242 742Q247 742 248 740T247 735Q198 637 164 520T129 284Q129 171 156 63T236 -158Q238 -160 237 -162T231 -165H221Q216 -165 212 -160Q171 -89 142 -20T96 125T80 285Q80 410 120 526T223 736Q228 742 235 742H242V742Z" />
<glyph unicode=")" horiz-adv-x="268" d="M26 742V742H33Q41 742 45 736Q107 642 147 526T188 285Q188 200 172 125T127 -19T56 -160Q52 -165 47 -165H37Q33 -165 32 -163T32 -158Q85 -45 112 63T139 284Q139 403 105 520T21 735Q20 737 21 739T26 742Z" />
<glyph unicode="*" horiz-adv-x="327" d="M171 572Q170 573 170 573T168 572L93 455Q92 454 90 454T85 455L63 470Q59 473 63 478L144 584Q145 586 145 587T141 589L32 621Q29 622 30 628L38 650Q40 655 45 652L149 614Q151 613 152 614T154 618L147 737Q147 739
148 740T154 742H184Q187 742 188 741T189 737L184 618Q184 612 188 614L295 659Q300 661 301 657L308 636Q309 629 306 628L198 590Q196 589 196 588T196 584L274 485Q276 482 276 480T272 475L251 460Q248 458 246 458T242 460L171 572Z" />
<glyph unicode="+" horiz-adv-x="541" d="M471 362Q471 354 461 354L78 353Q74 353 72 354T70 360V384Q70 391 75 391L464 392Q471 392 471 386V362ZM260 172Q252 172 252 182L251 565Q251 570 252 571T258 573H282Q289 573 289 568L290 179Q290 172 284 172H260Z" />
<glyph unicode="," horiz-adv-x="187" d="M50 -134Q47 -134 46 -132T47 -124L90 -10Q94 0 82 0H73Q65 0 65 7V73Q65 79 71 79H121Q127 79 127 73V16Q127 10 125 4L68 -128Q67 -131 65 -132T57 -134H50V-134Z" />
<glyph unicode="-" horiz-adv-x="381" d="M311 254Q311 246 301 246L78 245Q74 245 72 246T70 252V278Q70 285 75 285L304 286Q311 286 311 280V254Z" />
<glyph unicode="." horiz-adv-x="182" d="M122 11Q122 0 109 0H70Q60 0 60 10V70Q60 79 67 79H115Q122 79 122 71V11Z" />
<glyph unicode="/" horiz-adv-x="328" d="M22 -60Q15 -60 17 -55L268 736Q270 742 276 742H305Q313 742 310 732L62 -52Q61 -56 58 -58T51 -60H22V-60Z" />
<glyph unicode="0" horiz-adv-x="675" d="M338 752Q392 752 439 729T521 658T576 538T596 369Q596 240 562 156T469 31T337 -10Q264 -10 206 31T113 155T79 367Q79 465 99 537T154 657T237 728T338 752V752ZM339 32Q401 32 448 67T521 176T548 369Q548 489 521
564T447 674T338 710Q277 710 230 675T155 564T127 369Q127 251 154 177T230 67T339 32V32Z" />
<glyph unicode="1" horiz-adv-x="438" d="M384 42Q391 42 391 36V6Q391 5 390 3T384 0H62Q56 0 56 6V36Q56 42 62 42H203Q209 42 209 46V678Q209 686 203 684L63 628Q55 625 55 635V659Q55 664 56 665T61 668L198 736Q205 740 209 741T220 742H247Q255 742 255
733V48Q255 42 260 42H384V42Z" />
<glyph unicode="2" horiz-adv-x="571" d="M302 304Q340 343 368 376T414 439T442 499T451 560Q451 611 425 644T360 693T280 710Q250 710 216 701T149 670T94 615Q92 612 88 611T78 614L63 627Q57 632 57 635T61 643Q102 700 165 726T287 752Q339 752 387 732T466
669T497 554Q497 508 480 468T425 381T325 270L113 54Q108 49 110 46T119 42H496Q505 42 505 34V8Q505 4 504 2T497 0H69Q62 0 60 2T57 12V32Q57 40 58 45T62 55T71 65L302 304Z" />
<glyph unicode="3" horiz-adv-x="624" d="M84 645Q78 651 84 657Q118 691 151 712T221 742T298 752Q369 752 420 728T500 662T529 568Q529 510 494 466T397 400Q386 396 386 394T397 389Q438 379 473 354T530 289T552 199Q552 143 522 95T433 19T284 -10Q238 -10
198 -1T123 30T52 85Q49 88 49 89T53 95L74 115Q79 120 81 119T85 115Q115 84 147 66T214 40T289 32Q393 32 449 78T506 196Q506 254 474 292T391 350T286 370H196Q187 370 187 377V403Q187 410 196 410H269Q329 410 377 430T454 487T483 568Q483 608 460 640T396
691T300 710Q245 710 198 689T112 631Q108 627 105 627T96 631L84 645V645Z" />
<glyph unicode="4" horiz-adv-x="623" d="M401 737Q403 739 406 740T415 742H446Q455 742 455 733V264Q455 256 462 256H564Q574 256 574 249V224Q574 214 564 214H463Q455 214 455 205V9Q455 0 445 0H417Q409 0 409 9V208Q409 214 401 214H63Q52 214 52 224V255Q52
260 54 265T61 277L401 737V737ZM396 256Q405 256 405 263V650Q405 661 402 662T391 654L106 269Q96 256 113 256H396Z" />
<glyph unicode="5" horiz-adv-x="641" d="M533 742Q539 742 541 740T542 733L539 707Q538 702 538 701T531 700H175Q166 700 166 692L145 417Q144 411 147 408T155 407Q191 428 232 446T335 464Q396 464 450 442T539 372T574 243Q574 163 538 107T440 20T300 -10Q236
-10 175 12T64 84Q60 88 60 90T65 96L84 116Q88 120 94 114Q124 88 152 69T214 40T292 30Q367 30 419 57T500 132T528 242Q528 307 501 347T430 405T336 424Q272 424 223 400T137 353Q130 349 129 350T123 354L101 368Q93 373 94 373T96 384L123 734Q123 740 124
741T136 742H533Z" />
<glyph unicode="6" horiz-adv-x="646" d="M368 752Q398 752 422 747T466 732T503 709T536 678Q538 676 539 673T536 667L512 650Q509 648 506 649T499 654Q476 680 445 695T369 710Q283 710 229 669T150 556T125 397Q125 381 127 376T140 377Q182 398 231 417T347
436Q424 436 476 408T555 330T582 220Q582 151 550 99T463 19T343 -10Q261 -10 202 33T111 160T79 363Q79 484 113 571T211 705T368 752V752ZM351 394Q321 394 284 387T211 369T151 341Q137 331 132 322T127 292Q127 254 140 210T179 125T247 58T346 32Q401 32
443 57T511 124T536 219Q536 266 515 306T452 370T351 394V394Z" />
<glyph unicode="7" horiz-adv-x="587" d="M529 742Q533 742 534 740T536 736V712Q536 705 535 701T528 688Q486 626 446 552T370 401T306 250T258 116T230 14Q228 0 219 0H190Q178 0 181 13Q194 69 219 146T281 313T368 499T477 688Q481 693 480 696T471 700H52Q47
700 47 707L50 735Q51 742 60 742H529Z" />
<glyph unicode="8" horiz-adv-x="659" d="M331 752Q400 752 450 727T529 657T557 549Q557 500 533 461T453 379Q439 369 452 365Q496 352 526 327T573 266T590 188Q590 129 558 84T467 15T329 -10Q249 -10 192 13T104 80T73 185Q73 240 100 284T187 368Q201 377
201 381T187 393Q157 408 136 430T104 482T93 546Q93 605 124 651T209 725T331 752V752ZM331 710Q277 710 234 689T165 630T139 546Q139 436 263 410L380 385Q395 382 416 395T460 432T496 488T511 554Q511 625 462 667T331 710V710ZM330 32Q428 32 486 75T544
191Q544 247 515 280T423 327L271 361Q256 364 231 353T181 317T137 260T119 186Q119 113 174 73T330 32V32Z" />
<glyph unicode="9" horiz-adv-x="641" d="M279 -10Q248 -10 222 -5T175 10T135 34T101 64Q99 66 98 69T101 75L125 92Q128 94 131 93T138 88Q161 62 195 47T279 32Q363 32 415 73T491 186T516 345Q516 362 514 366T501 365Q461 344 413 325T298 306Q223 306 171
334T92 412T65 522Q65 592 97 643T183 723T304 752Q384 752 442 709T531 582T562 379Q562 258 529 171T432 37T279 -10V-10ZM293 348Q326 348 362 355T433 377T492 408Q506 418 511 427T516 457Q516 494 504 537T465 620T398 685T301 710Q247 710 204 685T136 618T111
524Q111 477 133 437T195 372T293 348V348Z" />
<glyph unicode=":" horiz-adv-x="182" d="M122 432Q122 421 109 421H70Q60 421 60 431V491Q60 500 67 500H115Q122 500 122 492V432ZM122 14Q122 3 109 3H70Q60 3 60 13V73Q60 82 67 82H115Q122 82 122 74V14Z" />
<glyph unicode=";" horiz-adv-x="210" d="M50 -134Q47 -134 46 -132T47 -124L90 -10Q94 0 82 0H73Q65 0 65 7V73Q65 79 71 79H121Q127 79 127 73V16Q127 10 125 4L68 -128Q67 -131 65 -132T57 -134H50V-134ZM70 421Q60 421 60 431V491Q60 500 67 500H115Q122 500
122 492V432Q122 421 109 421H70V421Z" />
<glyph unicode="&lt;" horiz-adv-x="523" d="M452 195Q452 187 448 184T436 184L68 330Q64 332 62 334T60 340V375Q60 380 62 382T68 385L436 533Q445 537 449 535T453 524V498Q453 491 440 485L121 358L439 230Q446 227 449 224T452 216V195Z" />
<glyph unicode="=" horiz-adv-x="541" d="M471 462Q471 454 461 454L78 453Q74 453 72 454T70 460V484Q70 491 75 491L464 492Q471 492 471 486V462ZM471 242Q471 234 461 234L78 233Q74 233 72 234T70 240V264Q70 271 75 271L464 272Q471 272 471 266V242Z" />
<glyph unicode="&gt;" horiz-adv-x="523" d="M71 216Q71 221 74 224T84 230L402 358L83 485Q70 491 70 498V524Q70 532 74 534T87 533L455 385Q459 384 461 382T463 375V340Q463 336 461 334T455 330L87 184Q80 181 76 184T71 195V216V216Z" />
<glyph unicode="?" horiz-adv-x="514" d="M275 11Q275 0 262 0H223Q218 0 216 2T213 10V70Q213 79 220 79H268Q275 79 275 71V11ZM44 621Q41 623 41 625T41 629Q73 685 133 718T265 752Q330 752 377 730T450 667T476 570Q476 517 455 477T402 401T340 331T287
255T265 158Q265 155 263 153T258 150H231Q223 150 223 159Q223 218 244 262T295 342T357 412T409 483T430 570Q430 635 385 672T265 710Q227 710 189 697T123 660T82 610Q81 608 80 607T74 607L44 621Z" />
<glyph unicode="@" horiz-adv-x="834" d="M650 -46Q604 -78 550 -95T437 -113Q347 -113 276 -84T155 -4T79 116T53 261Q53 342 81 414T163 542T288 629T449 661Q512 661 574 643T686 585T767 485T797 340Q797 264 772 206T703 114T606 81Q570 81 549 93T521 138Q520
146 518 146T510 140Q488 109 454 88T367 67Q332 67 302 88T252 150T233 243Q233 308 257 360T324 444T421 475Q462 475 493 456T541 403Q542 402 544 402T547 406L557 444Q558 449 564 449H593Q601 449 599 443L561 214Q553 164 564 144T607 124Q646 124 677 150T728
223T747 334Q747 410 721 464T650 552T553 602T448 618Q369 618 305 590T196 512T126 397T102 258Q102 194 123 135T188 30T296 -42T449 -69Q492 -69 522 -61T577 -39T626 -9Q638 -1 645 -10L657 -26Q662 -33 659 -38T650 -46V-46ZM283 244Q283 181 307 146T372
111Q408 111 439 132T493 188T522 266Q531 323 518 359T478 413T423 431Q380 431 349 406T300 338T283 244V244Z" />
<glyph unicode="A" horiz-adv-x="700" d="M60 0Q56 0 54 2T53 9L318 731Q320 737 323 739T334 742H367Q382 742 385 732L647 10Q649 6 647 3T639 0H615Q605 0 602 8L521 231Q520 235 518 236T511 238H189Q182 238 179 231L96 7Q95 3 93 2T85 0H60V0ZM494 278Q504
278 501 288L358 678Q354 688 351 688T343 677L198 286Q195 278 203 278H494Z" />
<glyph unicode="B" horiz-adv-x="684" d="M122 0Q118 0 116 2T114 8V732Q114 738 116 740T123 742H328Q453 742 522 693T591 551Q591 488 559 445T460 382Q456 381 456 378T460 373Q528 360 568 316T609 197Q609 98 536 49T331 0H122V0ZM326 40Q445 40 503 74T561
191Q561 251 532 287T453 339T340 355H171Q160 355 160 346V50Q160 40 167 40H326ZM340 395Q375 395 410 401T476 424T524 470T543 546Q543 627 484 664T324 702H169Q160 702 160 694V405Q160 395 167 395H340Z" />
<glyph unicode="C" horiz-adv-x="695" d="M375 752Q421 752 464 736T543 693T602 630T629 556Q630 552 629 551T624 549L588 545Q585 544 584 546T581 552Q564 623 509 666T377 710Q255 710 191 623T126 368Q126 207 190 120T385 32Q463 32 514 69T595 186Q597
189 601 188L635 178Q637 177 637 176T637 171Q627 138 609 110T567 60T514 22T451 -2T381 -10Q285 -10 217 34T114 163T78 368Q78 489 113 575T215 706T375 752V752Z" />
<glyph unicode="D" horiz-adv-x="703" d="M124 742Q125 742 141 742T179 742T217 741T239 741Q379 740 464 700T587 581T626 379Q626 247 583 163T451 40T225 0H123Q114 0 114 10V732Q114 737 116 739T124 742V742ZM170 701Q160 701 160 687V49Q160 40 171 40H221Q350
40 428 72T542 178T578 371Q578 502 540 573T423 673T223 701H170V701Z" />
<glyph unicode="E" horiz-adv-x="612" d="M114 732Q114 742 123 742H538Q545 742 545 735V709Q545 702 537 702H169Q160 702 160 693V402Q160 395 169 395H458Q465 395 465 388V362Q465 358 464 357T457 355H169Q160 355 160 346V49Q160 40 169 40H552Q560 40
560 33V7Q560 3 559 2T553 0H123Q114 0 114 10V732V732Z" />
<glyph unicode="F" horiz-adv-x="583" d="M114 732Q114 742 123 742H528Q535 742 535 735V709Q535 702 527 702H169Q160 702 160 693V389Q160 382 169 382H468Q475 382 475 375V349Q475 342 467 342H169Q160 342 160 333V7Q160 0 153 0H123Q118 0 116 2T114 10V732V732Z" />
<glyph unicode="G" horiz-adv-x="730" d="M373 -10Q281 -10 215 34T113 163T78 368Q78 491 114 577T217 707T374 752Q436 752 491 726T584 655T628 559Q628 556 628 554T623 551L588 545Q586 544 584 545T581 551Q573 596 544 632T471 689T374 710Q294 710 239
670T155 555T126 374Q126 264 154 188T237 72T374 32Q433 32 476 53T548 108T590 181T604 255V334Q604 342 593 342H404Q400 342 399 343T397 348V371Q397 377 402 377H638Q641 377 642 376T644 371V11Q644 4 642 2T634 0H617Q611 0 608 1T604 9V115Q604 120 602
120T596 115Q577 80 546 52T472 7T373 -10V-10Z" />
<glyph unicode="H" horiz-adv-x="725" d="M166 366Q160 366 160 360V9Q160 0 150 0H123Q118 0 116 2T114 10V732Q114 742 123 742H151Q160 742 160 732V415Q160 406 169 406H557Q565 406 565 414V733Q565 742 573 742H602Q611 742 611 732V10Q611 5 609 3T602
0H575Q565 0 565 9V359Q565 366 558 366H166Z" />
<glyph unicode="I" horiz-adv-x="274" d="M151 742Q160 742 160 732V12Q160 5 158 3T148 0H125Q118 0 116 2T114 10V732Q114 742 123 742H151Z" />
<glyph unicode="J" horiz-adv-x="399" d="M289 144Q289 73 260 32T158 -10Q117 -10 87 0T51 15Q49 17 48 19T47 24L56 55Q57 62 64 59Q80 52 99 43T156 34Q205 34 224 59T243 154V733Q243 742 251 742H281Q289 742 289 732V144V144Z" />
<glyph unicode="K" horiz-adv-x="674" d="M623 7Q625 4 624 2T620 0H581Q573 0 570 5L312 409Q307 416 300 409L168 263Q160 255 160 246V9Q160 0 150 0H124Q119 0 117 2T114 9V734Q114 742 122 742H152Q160 742 160 734V323Q160 319 161 319T167 322L550 738Q552
740 554 741T561 742H599Q604 742 604 740T602 734L343 451Q341 449 343 445L623 7V7Z" />
<glyph unicode="L" horiz-adv-x="587" d="M114 732Q114 742 123 742H151Q160 742 160 732V49Q160 40 169 40H532Q540 40 540 33V7Q540 3 539 2T533 0H123Q118 0 116 2T114 10V732V732Z" />
<glyph unicode="M" horiz-adv-x="879" d="M123 0Q114 0 114 10V732Q114 742 123 742H149Q155 742 158 741T162 734L429 64Q433 54 437 54T445 65L716 735Q719 742 727 742H756Q765 742 765 732V10Q765 0 756 0H729Q724 0 722 2T719 9V627Q719 631 718 630T716
627L467 11Q463 0 451 0H424Q409 0 405 10L161 622Q160 624 159 624T158 622V9Q158 5 156 3T148 0H123V0Z" />
<glyph unicode="N" horiz-adv-x="755" d="M632 742Q641 742 641 732V10Q641 5 639 3T632 0H617Q611 0 607 0T598 6L170 637Q165 645 162 644T158 637V9Q158 0 148 0H123Q114 0 114 10V732Q114 742 123 742H141Q147 742 150 741T156 735L583 105Q588 98 592 100T597
107V733Q597 742 605 742H632Z" />
<glyph unicode="O" horiz-adv-x="758" d="M379 -10Q285 -10 218 33T114 160T78 367Q78 492 114 578T218 708T380 752Q474 752 541 708T644 579T680 369Q680 246 644 162T541 34T379 -10V-10ZM381 32Q505 32 568 115T632 369Q632 541 568 625T380 710Q256 710 191
625T126 369Q126 200 191 116T381 32V32Z" />
<glyph unicode="P" horiz-adv-x="674" d="M611 535Q611 461 578 415T486 348T351 327H168Q160 327 160 318V9Q160 0 152 0H122Q118 0 116 2T114 8V732Q114 742 123 742H345Q423 742 483 722T577 656T611 535V535ZM563 538Q563 600 537 636T461 687T344 702H169Q160
702 160 694V377Q160 367 167 367H351Q447 367 505 406T563 538V538Z" />
<glyph unicode="Q" horiz-adv-x="758" d="M78 369Q78 495 114 580T217 708T379 752Q473 752 540 709T644 580T680 369Q680 234 640 152T527 25Q521 21 521 16Q521 3 541 -18T593 -57T663 -80Q668 -81 669 -83T670 -87V-109Q670 -117 666 -119T650 -122Q617 -122
571 -98T475 -5Q470 2 460 -1Q441 -5 420 -7T379 -10Q287 -10 220 32T115 158T78 369V369ZM126 367Q126 198 191 115T379 32Q502 32 567 115T632 369Q632 536 568 623T379 710Q254 710 190 623T126 367V367Z" />
<glyph unicode="R" horiz-adv-x="679" d="M599 14Q601 9 599 5T591 0H563Q556 0 551 9L409 345Q405 355 388 355H172Q165 355 163 352T160 344V11Q160 0 150 0H124Q118 0 116 2T114 9V732Q114 742 123 742H381Q489 742 549 696T609 558Q609 497 586 458T527 397T457
366Q451 365 453 359L599 14V14ZM346 395Q453 395 507 431T561 551Q561 628 516 665T380 702H171Q160 702 160 694V404Q160 395 167 395H346V395Z" />
<glyph unicode="S" horiz-adv-x="618" d="M500 627Q470 662 424 686T315 710Q233 710 183 671T132 557Q132 538 140 513T174 464T254 419L392 369Q481 337 517 291T553 182Q553 121 524 78T440 13T309 -10Q254 -10 209 3T127 44T61 113Q57 118 58 123T67 133L78
141Q86 146 90 146T98 141Q126 105 154 81T218 44T309 32Q398 32 452 66T507 180Q507 210 497 234T458 279T375 322L224 380Q170 401 140 429T98 491T86 556Q86 619 115 662T197 729T318 752Q365 752 403 741T474 708T535 656Q538 653 539 650T535 642L513 622Q509
619 507 620T500 627V627Z" />
<glyph unicode="T" horiz-adv-x="623" d="M47 735Q47 739 48 740T54 742H569Q573 742 574 741T576 735V709Q576 702 568 702H355Q345 702 345 693V10Q345 0 336 0H309Q299 0 299 10V693Q299 702 289 702H55Q47 702 47 709V735Z" />
<glyph unicode="U" horiz-adv-x="702" d="M598 230Q598 150 571 97T489 17T351 -10Q267 -10 213 17T131 101T104 245V731Q104 742 112 742H140Q150 742 150 732V226Q150 129 200 81T353 32Q422 32 467 54T535 119T558 229V733Q558 742 566 742H590Q598 742 598
733V230V230Z" />
<glyph unicode="V" horiz-adv-x="690" d="M630 742Q635 742 637 740T637 733L375 11Q371 0 359 0H327Q311 0 308 10L53 732Q52 737 54 739T61 742H84Q94 742 97 734L334 64Q342 43 350 65L594 735Q597 742 605 742H630V742Z" />
<glyph unicode="W" horiz-adv-x="1021" d="M960 742Q965 742 966 740T967 733L760 11Q757 0 744 0H712Q697 0 694 10L513 658Q512 661 511 661T509 658L324 11Q321 0 308 0H276Q261 0 258 10L56 732Q55 737 57 739T64 742H89Q95 742 97 741T101 734L286 71Q289
61 292 61T298 72L487 735Q488 737 490 739T500 742H525Q531 742 533 741T537 734L722 71Q725 61 728 61T734 72L923 735Q924 739 927 740T935 742H960V742Z" />
<glyph unicode="X" horiz-adv-x="662" d="M607 10Q612 4 610 2T603 0H567Q563 0 560 4L340 327Q335 335 331 335T319 324L102 4Q101 2 99 1T94 0H58Q54 0 53 2T55 10L297 370Q301 375 301 380T296 391L64 734Q63 736 63 739T67 742H106Q111 742 112 741T115 738L322
430Q327 424 330 424T339 431L546 738Q548 740 549 741T554 742H595Q598 742 598 740T597 736L363 390Q360 386 360 383T362 374L607 10V10Z" />
<glyph unicode="Y" horiz-adv-x="638" d="M582 742Q587 742 589 739T588 731L349 326Q346 322 346 318T345 306V13Q345 0 330 0H311Q304 0 302 3T299 11V295Q299 303 298 306T294 315L50 730Q47 735 49 738T58 742H81Q88 742 91 740T97 733L307 376Q314 364 319
364T331 374L540 733Q544 739 546 740T556 742H582V742Z" />
<glyph unicode="Z" horiz-adv-x="600" d="M63 0Q59 0 57 1T55 7V22Q55 27 56 30T62 39L482 695Q486 702 478 702H72Q68 702 67 703T65 709V736Q65 742 71 742H538Q544 742 544 736V719Q544 715 543 713T539 707L115 48Q113 44 113 42T117 40H538Q544 40 544 35V7Q544
4 543 2T537 0H63V0Z" />
<glyph unicode="[" horiz-adv-x="268" d="M106 736Q106 742 114 742H246Q253 742 253 737V711Q253 705 246 705H157Q150 705 150 697L149 -122Q149 -126 150 -127T155 -128H244Q252 -128 252 -136V-157Q252 -165 244 -165H116Q107 -165 107 -157L106 736V736Z" />
<glyph unicode="\" horiz-adv-x="328" d="M276 -60Q272 -60 270 -58T265 -52L17 732Q14 742 22 742H51Q58 742 59 736L310 -55Q312 -60 305 -60H276V-60Z" />
<glyph unicode="]" horiz-adv-x="268" d="M162 736V736L161 -157Q161 -165 152 -165H24Q16 -165 16 -157V-136Q16 -128 24 -128H113Q117 -128 118 -127T119 -122L118 697Q118 705 111 705H22Q15 705 15 711V737Q15 742 22 742H154Q162 742 162 736Z" />
<glyph unicode="^" horiz-adv-x="476" d="M242 462Q240 467 237 467T232 462L107 146Q106 142 104 141T97 139H66Q56 139 61 149L203 504Q212 527 224 535T248 537T271 504L415 146Q418 137 409 137H379Q375 137 372 139T366 145L242 462Z" />
<glyph unicode="_" horiz-adv-x="501" d="M431 -93Q431 -101 421 -101L78 -102Q74 -102 72 -101T70 -95V-69Q70 -62 75 -62L424 -61Q431 -61 431 -67V-93Z" />
<glyph unicode="`" horiz-adv-x="272" d="M21 748Q23 753 29 751L258 660Q264 658 261 650L256 635Q255 631 253 630T245 630L18 704Q8 708 11 716L21 748V748Z" />
<glyph unicode="a" horiz-adv-x="538" d="M408 72Q367 31 321 11T218 -10Q139 -10 94 29T48 135Q48 186 75 222T158 279T295 308L400 317Q408 318 412 321T417 332V363Q417 427 377 464T268 502Q216 502 175 479T100 410Q97 406 95 405T90 406L66 421Q64 423 64
425T66 431Q98 478 148 509T270 540Q327 540 369 520T434 460T457 367V10Q457 4 455 2T447 0H429Q425 0 423 2T420 9L418 70Q416 82 408 72V72ZM417 266Q417 282 403 280L314 273Q255 269 213 258T143 230T103 190T90 138Q90 86 126 57T224 28Q261 28 296 41T360
77Q388 100 402 124T417 171V266V266Z" />
<glyph unicode="b" horiz-adv-x="592" d="M102 0Q96 0 94 3T91 13V732Q91 742 100 742H123Q131 742 131 731V478Q131 468 134 468T144 473Q149 478 169 494T226 525T316 540Q393 540 440 503T510 404T533 267Q533 139 473 65T305 -10Q254 -10 220 5T166 40T140
67Q136 72 133 72T130 64L128 13Q128 0 113 0H102ZM131 177Q131 137 156 103T220 49T301 28Q353 28 396 53T464 132T490 267Q490 374 444 438T309 502Q254 502 208 477T131 415V177Z" />
<glyph unicode="c" horiz-adv-x="537" d="M296 540Q341 540 376 527T440 490T492 433Q497 426 492 423L468 407Q463 404 457 411Q430 445 405 464T354 493T301 502Q240 502 194 473T123 390T98 265Q98 194 123 141T193 58T300 28Q351 28 392 52T466 128Q469 133
471 133T476 132L499 117Q504 114 501 107Q483 78 461 56T412 20T357 -2T296 -10Q225 -10 171 24T86 120T56 263Q56 344 86 406T171 504T296 540V540Z" />
<glyph unicode="d" horiz-adv-x="592" d="M473 0Q468 0 466 3T463 11V62Q463 70 460 71T451 66Q443 58 423 40T370 6T288 -10Q224 -10 172 19T88 108T57 255Q57 340 87 404T172 504T300 540Q355 540 389 522T447 486Q456 479 458 481T461 493V732Q461 742 470
742H493Q501 742 501 733V12Q501 5 499 3T489 0H473V0ZM461 426Q424 462 386 482T301 502Q243 502 197 473T125 390T99 259Q99 180 126 129T197 53T293 28Q341 28 379 51T439 107T461 170V426V426Z" />
<glyph unicode="e" horiz-adv-x="577" d="M98 240Q98 184 125 136T197 58T299 28Q359 28 403 52T474 121Q477 126 479 126T485 125L508 110Q514 106 509 100Q486 64 455 40T385 3T299 -10Q227 -10 173 24T87 119T56 261Q56 349 87 411T174 506T299 540Q370 540
421 509T500 418T528 274Q528 268 527 261T515 254H104Q101 254 100 250T98 240V240ZM469 290Q480 290 483 293T486 304Q486 359 463 404T398 475T298 502Q232 502 188 470T121 389T99 290H469Z" />
<glyph unicode="f" horiz-adv-x="364" d="M333 530Q335 530 336 529T338 524V501Q338 495 332 495H199Q192 495 192 488V11Q192 0 183 0H160Q152 0 152 10V488Q152 495 146 495H32Q26 495 26 501V524Q26 527 27 528T32 530H145Q152 530 152 537V618Q152 680 178
711T265 742H337Q343 742 343 735V714Q343 710 341 709T335 707H255Q218 707 205 686T192 627V537Q192 530 199 530H333V530Z" />
<glyph unicode="g" horiz-adv-x="582" d="M533 530Q544 530 548 527T552 517V504Q552 497 549 493T535 488Q516 487 504 484T480 474Q456 461 460 451Q465 438 473 420T481 369Q481 325 460 289T395 231T279 209Q222 209 190 202T144 184T131 160Q131 142 156
134T240 123L360 116Q440 112 477 76T514 -19Q514 -94 451 -134T275 -175Q160 -175 98 -136T35 -27Q35 9 57 40T127 98Q138 104 127 109Q107 118 98 130T89 159Q89 170 95 182T116 204T156 223Q162 225 161 228T155 235Q114 258 95 290T76 369Q76 449 131 493T286
538Q336 538 370 527T429 493Q434 489 438 489T447 492Q457 500 470 508T499 523T533 530V530ZM280 247Q361 247 401 278T441 371Q441 433 401 466T280 500Q202 500 159 467T116 371Q116 310 158 279T280 247V247ZM183 86Q167 87 142 74T97 35T77 -23Q77 -59 101
-84T172 -123T284 -137Q376 -137 424 -109T472 -19Q472 22 447 46T359 75L183 86Z" />
<glyph unicode="h" horiz-adv-x="576" d="M100 0Q91 0 91 9V733Q91 742 99 742H120Q128 742 128 734V460Q128 455 130 454T136 457Q174 484 204 502T264 530T330 540Q410 540 451 499T492 393V10Q492 0 483 0H461Q457 0 455 2T452 9V377Q452 436 423 469T329 502Q294
502 264 492T203 461T131 410V9Q131 0 122 0H100V0Z" />
<glyph unicode="i" horiz-adv-x="222" d="M131 12Q131 5 129 3T119 0H102Q95 0 93 2T91 10V520Q91 530 100 530H122Q131 530 131 520V12ZM136 660Q136 644 124 644H97Q90 644 88 648T86 658V729Q86 742 98 742H124Q136 742 136 729V660Z" />
<glyph unicode="j" horiz-adv-x="222" d="M131 -51Q131 -112 109 -141T18 -170Q-26 -170 -36 -169T-47 -161V-140Q-47 -137 -46 -136T-41 -134L17 -133Q57 -132 74 -113T91 -46V520Q91 530 101 530H123Q131 530 131 520V-51V-51ZM136 660Q136 644 124 644H97Q86
644 86 658V729Q86 742 98 742H124Q136 742 136 729V660Z" />
<glyph unicode="k" horiz-adv-x="538" d="M504 12Q508 6 507 3T499 0H468Q464 0 461 1T456 7L274 299Q273 301 272 302T266 299L138 169Q134 165 133 161T131 152V12Q131 5 129 3T119 0H102Q95 0 93 2T91 10V732Q91 742 100 742H122Q131 742 131 732V234Q131 225
133 224T141 229L425 520Q434 530 442 530H474Q482 530 482 526T476 515L307 342Q305 340 305 338T306 331L504 12V12Z" />
<glyph unicode="l" horiz-adv-x="222" d="M131 12Q131 5 129 3T119 0H102Q91 0 91 10V732Q91 742 100 742H122Q131 742 131 732V12Z" />
<glyph unicode="m" horiz-adv-x="897" d="M100 0Q91 0 91 9V521Q91 530 99 530H120Q128 530 128 522V460Q128 455 130 454T136 457Q172 484 200 502T257 530T320 540Q383 540 417 512T462 454Q464 450 468 451T477 457Q513 484 541 502T598 530T661 540Q736 540
774 499T813 393V10Q813 0 804 0H782Q778 0 776 2T773 9V377Q773 436 747 469T660 502Q624 502 592 489T535 458T489 423Q480 416 476 410T472 393V10Q472 0 463 0H441Q437 0 435 2T432 9V377Q432 436 406 469T319 502Q269 502 229 479T131 410V9Q131 0 122 0H100V0Z"
/>
<glyph unicode="n" horiz-adv-x="576" d="M100 0Q91 0 91 9V521Q91 530 99 530H120Q128 530 128 522V460Q128 455 130 454T136 457Q174 484 204 502T264 530T330 540Q410 540 451 499T492 393V10Q492 0 483 0H461Q457 0 455 2T452 9V377Q452 436 423 469T329 502Q294
502 264 492T203 461T131 410V9Q131 0 122 0H100V0Z" />
<glyph unicode="o" horiz-adv-x="598" d="M299 -10Q226 -10 171 24T86 120T56 262Q56 344 86 406T172 504T300 540Q373 540 427 505T511 408T542 264Q542 183 512 122T427 25T299 -10V-10ZM301 28Q363 28 407 57T476 140T500 264Q500 335 476 388T406 472T300
502Q239 502 194 472T123 389T98 264Q98 194 123 141T193 58T301 28V28Z" />
<glyph unicode="p" horiz-adv-x="590" d="M119 530Q129 530 129 519V468Q129 460 132 459T141 464Q149 473 167 491T219 524T304 540Q368 540 419 511T501 423T532 275Q532 190 503 126T420 26T292 -10Q241 -10 204 6T145 40Q137 47 134 45T131 33V-155Q131 -165
122 -165H99Q91 -165 91 -156V518Q91 525 93 527T103 530H119V530ZM131 104Q168 69 206 49T291 28Q349 28 393 57T464 140T490 271Q490 351 463 402T393 477T299 502Q249 502 211 480T152 426T131 364V104V104Z" />
<glyph unicode="q" horiz-adv-x="593" d="M491 530Q497 530 499 528T502 517V-155Q502 -165 493 -165H470Q462 -165 462 -154V34Q462 45 460 47T448 41Q422 21 382 6T291 -10Q219 -10 167 25T86 122T58 268Q58 350 85 411T164 506T289 540Q345 540 378 526T428
496T454 473Q463 464 464 476L468 517Q469 525 471 527T483 530H491ZM462 353Q462 391 440 425T380 480T293 502Q241 502 197 477T127 399T100 269Q100 194 125 140T195 57T296 28Q343 28 387 48T462 105V353Z" />
<glyph unicode="r" horiz-adv-x="356" d="M100 0Q96 0 94 2T91 9V521Q91 530 99 530H120Q128 530 128 522V454Q128 449 130 448T136 451Q166 484 192 503T243 531T295 540Q330 540 330 530V504Q330 499 325 499Q321 499 315 499T295 500Q271 500 243 489T189 458T148
414T131 365V9Q131 0 122 0H100V0Z" />
<glyph unicode="s" horiz-adv-x="501" d="M404 426Q381 461 341 481T245 502Q181 502 139 474T97 398Q97 373 116 350T194 307L329 263Q388 244 416 212T445 137Q445 94 419 61T346 9T243 -10Q170 -10 113 21T30 101Q29 104 29 106T32 111L54 125Q56 127 59 127T63
124Q81 94 107 73T167 40T243 28Q288 28 324 41T382 77T403 132Q403 166 376 190T285 233L182 265Q107 288 81 320T55 390Q55 436 80 469T148 521T246 540Q308 540 358 516T437 448Q439 445 439 444T436 440L413 425Q411 424 409 424T404 426V426Z" />
<glyph unicode="t" horiz-adv-x="358" d="M179 495Q172 495 172 488V124Q172 69 188 52T234 35H313Q317 35 319 34T321 28V11Q321 6 315 4Q309 3 293 2T260 1T237 0Q177 0 155 27T132 119V488Q132 495 125 495H32Q26 495 26 501V524Q26 530 32 530H126Q132 530
132 537L141 700Q141 710 149 710H163Q172 710 172 699V537Q172 530 179 530H318Q324 530 324 524V501Q324 495 318 495H179Z" />
<glyph unicode="u" horiz-adv-x="571" d="M246 28Q297 28 344 56T440 133V521Q440 530 449 530H471Q480 530 480 521V9Q480 0 472 0H451Q443 0 443 8V72Q443 77 442 78T435 75Q372 25 329 8T247 -10Q200 -10 163 8T105 60T83 137V520Q83 530 92 530H114Q123 530
123 521V159Q123 101 155 65T246 28V28Z" />
<glyph unicode="v" horiz-adv-x="530" d="M490 530Q495 530 497 528T497 521L291 11Q287 0 273 0H259Q243 0 239 10L33 520Q32 525 34 527T41 530H63Q68 530 71 529T75 522L258 68Q265 49 274 69L457 523Q459 527 461 528T468 530H490V530Z" />
<glyph unicode="w" horiz-adv-x="783" d="M738 530Q743 530 745 528T746 521L599 11Q598 5 594 3T582 0H555Q540 0 537 10L397 446Q394 454 392 454T387 446L257 11Q256 5 252 3T241 0H211Q196 0 193 10L37 520Q36 525 38 527T45 530H68Q73 530 76 529T80 522L219
67Q222 57 226 57T233 68L371 524Q373 528 375 529T381 530H404Q409 530 412 529T416 522L562 67Q565 57 568 57T575 68L708 523Q710 527 713 528T721 530H738V530Z" />
<glyph unicode="x" horiz-adv-x="515" d="M478 12Q483 5 482 3T476 0H442Q433 0 430 5L265 229Q261 234 258 234T251 229L78 5Q75 0 66 0H41Q35 0 33 3T36 14L230 259Q234 264 234 268T230 276L48 521Q46 524 47 527T53 530H84Q89 530 91 529T95 525L257 310Q264
300 271 310L429 525Q431 528 433 529T441 530H468Q473 530 473 528T472 522L290 281Q286 277 286 273T290 264L478 12V12Z" />
<glyph unicode="y" horiz-adv-x="508" d="M108 -165Q79 -165 62 -164T44 -155V-140Q44 -133 49 -131T73 -129H133Q157 -129 176 -111T209 -66T226 -11T222 37L33 518Q31 523 32 526T41 530H62Q67 530 70 529T74 522L248 78Q252 69 257 69T266 82L436 523Q438 527
440 528T446 530H468Q473 530 475 527T475 521L246 -77Q236 -102 222 -119T191 -146T153 -160T108 -165V-165Z" />
<glyph unicode="z" horiz-adv-x="458" d="M42 0Q38 0 37 1T36 7V30Q36 35 38 39T44 50L365 487Q371 495 362 495H65Q61 495 60 496T58 502V523Q58 530 64 530H408Q413 530 413 524V499Q413 493 412 488T406 478L85 42Q79 35 87 35H414Q420 35 420 29V8Q420 4 419
2T412 0H42V0Z" />
<glyph unicode="{" horiz-adv-x="267" d="M116 652Q116 678 127 698T163 730T224 742H245Q252 742 252 737V711Q252 705 245 705H224Q201 705 187 700T167 683T160 652V419Q160 379 148 352T114 310T66 292Q60 291 60 289T66 285Q92 283 113 270T147 230T160 162V-73Q160
-101 174 -114T225 -128H244Q252 -128 252 -136V-157Q252 -165 244 -165H225Q186 -165 162 -153T127 -119T116 -73V162Q116 186 104 211T66 252T4 269Q0 269 0 275V302Q0 308 4 308Q60 309 88 341T116 419V652V652Z" />
<glyph unicode="|" horiz-adv-x="267" d="M122 -165Q115 -165 115 -160L114 840Q114 843 115 845T120 847H145Q153 847 153 837V-157Q153 -165 146 -165H122Z" />
<glyph unicode="}" horiz-adv-x="267" d="M151 652V652V419Q151 374 179 342T263 308Q267 308 267 302V275Q267 269 263 269Q226 269 201 253T164 211T151 162V-73Q151 -98 140 -119T106 -152T42 -165H23Q15 -165 15 -157V-136Q15 -128 23 -128H42Q80 -128 93
-115T107 -73V162Q107 204 120 230T154 269T201 285Q208 286 208 288T201 292Q175 295 154 309T120 351T107 419V652Q107 671 101 682T80 699T43 705H22Q15 705 15 711V737Q15 742 22 742H43Q80 742 104 731T139 699T151 652Z" />
<glyph unicode="~" horiz-adv-x="542" d="M473 372Q463 361 437 348T367 335Q337 335 314 341T271 357T230 372T182 379Q145 379 121 367T82 341Q78 337 77 337T73 343L66 362Q63 369 67 371Q87 388 112 402T178 416Q205 416 228 409T273 394T318 378T368 371Q406
371 425 382T457 406Q464 413 468 404L476 383Q478 380 477 378T473 372V372Z" />
<glyph unicode="&#xa0;" horiz-adv-x="220" />
<glyph unicode="&#xa1;" horiz-adv-x="232" d="M147 459Q147 451 140 451H92Q85 451 85 460V520Q85 530 95 530H134Q147 530 147 519V459V459ZM143 -159Q143 -161 142 -163T137 -165H95Q93 -165 92 -164T90 -158L100 375Q100 379 102 380T108 382H122Q127 382
129 381T132 374L143 -159V-159Z" />
<glyph unicode="&#xa2;" horiz-adv-x="558" d="M305 13Q305 0 292 0H276Q264 0 264 12V112Q264 121 273 121H297Q305 121 305 113V13V13ZM305 634Q305 621 292 621H276Q264 621 264 633V733Q264 742 273 742H297Q305 742 305 734V634V634ZM296 651Q341 651 376
638T440 601T492 544Q497 537 492 534L468 518Q463 515 457 522Q430 556 405 575T354 604T301 613Q240 613 194 584T123 501T98 376Q98 305 123 252T193 169T300 139Q351 139 392 163T466 239Q469 244 471 244T476 243L499 228Q504 225 501 218Q483 189 461 167T412
131T357 109T296 101Q225 101 171 135T86 231T56 374Q56 455 86 517T171 615T296 651V651Z" />
<glyph unicode="&#xa3;" horiz-adv-x="597" d="M20 0Q12 0 12 8V32Q12 39 19 39H54Q94 38 123 80T152 214Q152 241 149 276T139 353Q138 358 134 358H41Q36 358 36 364V390Q36 396 41 396H125Q133 396 131 402L113 473Q97 537 106 588T143 676T212 732T302 752Q344
752 380 739T443 704T479 659Q481 655 479 654T473 651L450 640Q442 637 439 643Q422 674 390 691T304 709Q260 709 224 693T167 644T145 567Q145 524 154 477T173 403Q175 397 179 397H350Q356 397 356 392V365Q356 359 350 359H189Q181 359 182 352Q188 324 191
295T195 232Q195 176 185 138T162 78T141 47Q138 43 138 42T143 40H354Q408 40 444 57T499 117Q503 124 509 122L531 113Q538 109 536 105Q514 52 467 26T354 0H20V0Z" />
<glyph unicode="&#xa4;" horiz-adv-x="513" d="M255 204Q200 204 157 235Q150 240 145 234L105 193Q96 185 86 193L75 205Q67 214 75 222L115 262Q121 269 115 278Q102 298 95 322T87 373Q87 401 95 426T118 471Q122 478 117 483L77 523Q69 533 77 542L88 553Q97
562 105 553L146 512Q151 507 158 511Q178 525 203 533T255 541Q309 541 351 510Q359 506 364 511L410 557Q417 564 423 557L440 540Q445 534 440 528L393 481Q388 476 392 470Q406 450 414 425T423 373Q423 346 415 322T393 278Q388 270 394 264L440 219Q446 212
440 206L423 189Q417 183 412 189L367 234Q359 241 354 237Q333 221 308 213T255 204V204ZM257 248Q293 248 321 265T365 311T382 373Q382 406 366 434T321 480T257 498Q222 498 194 481T149 435T132 373Q132 340 148 312T193 266T257 248V248Z" />
<glyph unicode="&#xa5;" horiz-adv-x="578" d="M550 742Q555 742 557 739T556 731L319 334Q316 330 316 326T315 314V13Q315 0 300 0H281Q274 0 272 3T269 11V299Q269 307 268 310T264 319L22 730Q19 735 21 738T30 742H57Q64 742 67 740T73 733L282 375Q287 366
290 366T299 374L512 733Q516 739 518 740T528 742H550V742ZM475 307Q475 299 465 299L117 298Q113 298 111 299T109 305V329Q109 336 114 336L468 337Q475 337 475 331V307ZM475 167Q475 159 465 159L117 158Q113 158 111 159T109 165V189Q109 196 114 196L468
197Q475 197 475 191V167Z" />
<glyph unicode="&#xa6;" horiz-adv-x="267" d="M122 443Q115 443 115 448L114 840Q114 843 115 845T120 847H145Q153 847 153 837V451Q153 443 146 443H122ZM122 -165Q115 -165 115 -160L114 232Q114 235 115 237T120 239H145Q153 239 153 229V-157Q153 -165 146
-165H122Z" />
<glyph unicode="&#xa7;" horiz-adv-x="477" d="M332 195Q379 169 405 138T432 64Q432 27 409 -3T345 -50T250 -68Q189 -68 133 -38T47 44Q46 46 46 48T47 52L71 67Q74 69 76 69T80 65Q106 24 151 -2T253 -28Q311 -28 349 -4T388 64Q388 95 364 123T270 178L172
216Q111 240 85 275T58 353Q58 400 90 434T169 485Q123 508 99 530T67 576T58 623Q58 660 80 689T143 735T236 752Q295 752 341 725T413 660Q415 658 415 656T412 652L392 639Q388 637 385 637T380 639Q355 671 320 691T241 712Q175 712 139 688T102 625Q102 599
121 573T203 520L293 483Q369 452 400 412T432 324Q432 271 401 242T332 195V195ZM272 222Q302 220 328 232T370 268T387 318Q387 356 369 384T290 437L225 463Q193 460 165 444T119 405T102 356Q102 324 121 301T201 252L272 222V222Z" />
<glyph unicode="&#xa8;" horiz-adv-x="181" d="M60 656Q60 649 58 647T48 644H21Q14 644 12 646T10 654V732Q10 742 19 742H51Q60 742 60 732V656ZM171 656Q171 649 169 647T159 644H132Q125 644 123 646T121 654V732Q121 742 130 742H162Q171 742 171 732V656Z" />
<glyph unicode="&#xa9;" horiz-adv-x="830" d="M415 -10Q336 -10 267 19T146 101T64 222T34 371Q34 450 63 519T145 640T267 722T415 752Q494 752 563 723T684 641T766 519T796 371Q796 292 767 223T685 101T563 20T415 -10V-10ZM415 34Q481 34 541 57T649 125T724
232T751 371Q751 447 724 509T650 616T542 685T415 709Q347 709 287 685T179 616T106 509T79 371Q79 294 105 232T179 126T286 58T415 34V34ZM417 590Q452 590 480 578T531 546T573 499Q575 496 574 495T573 492L545 475Q541 473 537 479Q513 515 484 533T421 551Q356
551 315 502T273 375Q273 296 314 247T420 198Q461 198 494 220T546 277Q549 283 556 278L576 266Q580 263 578 258Q564 235 547 217T509 186T465 166T417 159Q361 159 319 186T253 261T229 373Q229 437 253 485T319 562T417 590V590Z" />
<glyph unicode="&#xaa;" horiz-adv-x="406" d="M191 749Q250 749 282 718T315 634V472Q315 457 316 447T324 419Q326 415 324 413T319 411H294Q290 411 288 412T285 417L279 455Q278 461 271 456Q245 430 219 418T159 405Q107 405 78 429T48 496Q48 544 88 571T207
605L268 611Q279 613 279 620V638Q279 715 187 715Q156 715 134 705T91 665Q88 661 83 663L59 673Q58 674 58 676T59 680Q76 712 110 730T191 749V749ZM87 497Q87 470 109 454T168 437Q214 437 249 469Q263 482 271 495T279 521V570Q279 580 269 579L219 575Q151
570 119 550T87 497V497Z" />
<glyph unicode="&#xab;" horiz-adv-x="421" d="M370 83Q374 78 363 78H351Q345 78 343 82L205 250Q199 257 204 263L344 441Q346 444 347 444T351 445H365Q368 445 370 443T370 437L256 263Q252 256 256 251L370 83ZM203 83Q207 78 196 78H184Q178 78 176 82L38
250Q32 257 37 263L177 441Q179 444 180 444T184 445H198Q201 445 203 443T203 437L89 263Q85 256 89 251L203 83Z" />
<glyph unicode="&#xac;" horiz-adv-x="541" d="M471 362Q471 354 461 354L78 353Q74 353 72 354T70 360V384Q70 391 75 391L464 392Q471 392 471 386V362ZM471 222Q471 214 464 214H441Q434 214 434 219L433 378Q433 385 439 385H463Q471 385 471 375V222Z" />
<glyph unicode="&#xad;" horiz-adv-x="381" d="M311 254Q311 246 301 246L78 245Q74 245 72 246T70 252V278Q70 285 75 285L304 286Q311 286 311 280V254Z" />
<glyph unicode="&#xae;" horiz-adv-x="545" d="M273 275Q207 275 153 307T66 393T34 513Q34 579 66 633T152 719T273 752Q339 752 393 720T479 633T511 513Q511 447 479 393T393 307T273 275V275ZM273 310Q332 310 377 335T449 405T475 513Q475 575 449 620T378
691T273 717Q213 717 168 692T96 621T70 513Q70 451 96 406T167 335T273 310V310ZM354 398Q355 396 354 395T351 393H327Q325 393 323 396L282 504Q281 506 281 506T275 507H219Q215 507 215 503V397Q215 393 212 393H189Q186 393 186 396V626Q186 630 188 630H288Q323
630 342 616T362 572Q362 542 346 529T313 510Q310 510 312 508L354 398V398ZM281 535Q301 535 316 542T331 568Q331 582 321 592T278 602H219Q217 602 216 603T215 599V538Q215 535 218 535H281V535Z" />
<glyph unicode="&#xaf;" horiz-adv-x="272" d="M262 692Q262 684 252 684H17Q13 684 12 686T10 692V715Q10 722 15 722H257Q262 722 262 716V692Z" />
<glyph unicode="&#xb0;" horiz-adv-x="464" d="M382 708Q382 664 363 630T309 577T232 558Q189 558 155 577T102 630T82 708Q82 752 101 786T155 839T232 858Q275 858 309 839T362 786T382 708V708ZM339 707Q339 757 310 788T230 819Q181 819 151 788T122 707Q123
657 152 626T231 594Q281 594 310 625T339 707V707Z" />
<glyph unicode="&#xb1;" horiz-adv-x="541" d="M471 92Q471 84 461 84L78 83Q74 83 72 84T70 90V114Q70 121 75 121L464 122Q471 122 471 116V92ZM471 432Q471 424 461 424L78 423Q74 423 72 424T70 430V454Q70 461 75 461L464 462Q471 462 471 456V432ZM260 242Q252
242 252 252L251 635Q251 640 252 641T258 643H282Q289 643 289 638V249Q289 242 283 242H260Z" />
<glyph unicode="&#xb2;" horiz-adv-x="452" d="M208 575Q240 608 261 634T292 685T302 736Q302 768 286 789T245 820T194 831Q166 831 133 817T77 771Q73 764 67 770L58 778Q54 782 54 783T56 788Q82 824 122 840T199 857Q232 857 262 845T311 805T331 732Q331
704 320 679T285 624T222 554L89 418Q86 415 87 413T93 410H330Q336 410 336 405V389Q336 384 331 384H61Q57 384 56 386T54 392V404Q54 412 56 416T63 425L208 575Z" />
<glyph unicode="&#xb3;" horiz-adv-x="467" d="M81 790Q77 793 81 797Q113 829 145 843T215 857Q282 857 321 824T361 741Q361 704 339 677T278 636Q271 633 271 632T278 629Q316 619 345 588T375 509Q375 456 333 417T207 378Q163 378 129 391T61 437Q59 439
59 440T61 444L75 456Q79 461 81 456Q110 427 141 416T210 404Q275 404 310 433T346 507Q346 544 326 568T274 604T208 617H151Q146 617 146 621V637Q146 642 151 642H197Q253 642 292 670T332 741Q332 779 300 805T217 831Q183 831 153 818T98 781Q96 778 94 778T88
781L81 790V790Z" />
<glyph unicode="&#xb4;" horiz-adv-x="272" d="M265 720Q268 712 258 708L31 634Q27 633 25 634T20 639L15 654Q12 662 18 664L247 755Q253 757 255 752L265 720Z" />
<glyph unicode="&#xb5;" horiz-adv-x="571" d="M247 28Q296 28 343 56T440 133V521Q440 530 449 530H471Q480 530 480 521V9Q480 0 472 0H451Q443 0 443 8V73Q443 78 442 79T435 76Q375 29 335 10T249 -10Q212 -10 181 0T123 37V-153Q123 -160 121 -162T111 -165H94Q83
-165 83 -155V520Q83 530 92 530H114Q123 530 123 521V137Q123 108 140 83T185 43T247 28V28Z" />
<glyph unicode="&#xb6;" horiz-adv-x="534" d="M394 710Q390 710 390 705V-80Q390 -81 390 -83T386 -85H361Q356 -85 356 -80V706Q356 710 351 710H316Q312 710 312 705V-80Q312 -85 307 -85H282Q277 -85 277 -80V301Q277 304 274 304Q203 304 154 334T81 413T56
514Q56 570 81 622T158 708T288 742H446Q450 742 450 738V713Q450 710 446 710H394Z" />
<glyph unicode="&#xb7;" horiz-adv-x="172" d="M127 345Q127 334 114 334H55Q45 334 45 344V404Q45 413 52 413H120Q127 413 127 405V345Z" />
<glyph unicode="&#xb8;" horiz-adv-x="196" d="M186 -129Q186 -154 173 -170T137 -195T86 -204Q64 -204 47 -199T13 -183Q9 -181 10 -177L19 -157Q21 -153 26 -156Q36 -164 48 -169T82 -174Q114 -174 128 -163T142 -131Q142 -107 123 -96T65 -83Q61 -83 61 -82T61
-79L97 5H131L107 -55Q106 -58 110 -58Q140 -61 156 -72T179 -98T186 -129V-129Z" />
<glyph unicode="&#xb9;" horiz-adv-x="367" d="M248 406Q252 406 252 403V384Q252 380 248 380H45Q41 380 41 384V403Q41 406 45 406H134Q137 406 137 409V806Q137 811 134 810L46 775Q41 774 41 779V795Q41 797 41 798T44 800L131 843Q135 845 137 846T144 847H161Q166
847 166 841V410Q166 406 170 406H248V406Z" />
<glyph unicode="&#xba;" horiz-adv-x="419" d="M209 751Q257 751 291 729T344 668T363 577Q363 528 346 490T294 429T209 407Q160 407 126 429T74 489T56 577Q56 629 74 668T127 729T209 751V751ZM209 716Q154 716 126 678T97 580Q97 516 125 478T209 440Q265
440 293 478T322 580Q322 640 294 678T209 716V716Z" />
<glyph unicode="&#xbb;" horiz-adv-x="420" d="M164 251Q169 257 164 263L50 437Q48 441 50 443T55 445H69Q71 445 72 445T76 441L216 263Q221 257 215 250L77 82Q75 78 69 78H57Q48 78 50 83L164 251V251ZM331 251Q336 257 331 263L217 437Q215 441 217 443T222
445H236Q238 445 239 445T243 441L383 263Q389 257 382 250L244 82Q242 78 236 78H224Q215 78 217 83L331 251V251Z" />
<glyph unicode="&#xbc;" horiz-adv-x="860" d="M254 302Q258 302 258 299V280Q258 276 254 276H51Q47 276 47 280V299Q47 302 51 302H140Q143 302 143 305V702Q143 707 140 706L52 671Q47 670 47 675V691Q47 693 47 694T50 696L137 739Q141 741 143 742T150 743H167Q172
743 172 737V306Q172 302 176 302H254V302ZM216 4Q211 -4 201 -4H185Q178 -4 177 0T180 9L669 745Q671 749 674 749T681 750H701Q705 750 706 749T705 742L216 4ZM700 464Q701 465 703 466T709 467H729Q734 467 734 461V166Q734 161 739 161H803Q809 161 809 157V141Q809
135 803 135H739Q734 135 734 129V6Q734 0 728 0H710Q705 0 705 6V131Q705 135 700 135H488Q481 135 481 141V160Q481 163 482 166T486 174L700 464V464ZM697 161Q703 161 703 165V409Q703 416 701 416T694 411L515 169Q509 161 519 161H697Z" />
<glyph unicode="&#xbd;" horiz-adv-x="923" d="M244 302Q248 302 248 299V280Q248 276 244 276H41Q37 276 37 280V299Q37 302 41 302H130Q133 302 133 305V702Q133 707 130 706L42 671Q37 670 37 675V691Q37 693 37 694T40 696L127 739Q131 741 133 742T140 743H157Q162
743 162 737V306Q162 302 166 302H244V302ZM206 4Q201 -4 191 -4H175Q168 -4 167 0T170 9L659 745Q661 749 664 749T671 750H691Q695 750 696 749T695 742L206 4ZM723 191Q755 224 776 250T807 301T817 352Q817 384 801 405T760 436T709 447Q681 447 648 433T592
387Q588 380 582 386L573 394Q569 398 569 399T571 404Q597 440 637 456T714 473Q747 473 777 461T826 421T846 348Q846 320 835 295T800 240T737 170L604 34Q601 31 602 29T608 26H845Q851 26 851 21V5Q851 0 846 0H576Q572 0 571 2T569 8V20Q569 28 571 32T578
41L723 191Z" />
<glyph unicode="&#xbe;" horiz-adv-x="882" d="M67 685Q63 688 67 692Q99 724 131 738T201 752Q268 752 307 719T347 636Q347 599 325 572T264 531Q257 528 257 527T264 524Q302 514 331 483T361 404Q361 351 319 312T193 273Q149 273 115 286T47 332Q45 334 45
335T47 339L61 351Q65 356 67 351Q96 322 127 311T196 299Q261 299 296 328T332 402Q332 439 312 463T260 499T194 512H137Q132 512 132 516V532Q132 537 137 537H183Q239 537 278 565T318 636Q318 674 286 700T203 726Q169 726 139 713T84 676Q82 673 80 673T74
676L67 685V685ZM276 4Q271 -4 261 -4H245Q238 -4 237 0T240 9L729 745Q731 749 734 749T741 750H761Q765 750 766 749T765 742L276 4ZM742 464Q743 465 745 466T751 467H771Q776 467 776 461V166Q776 161 781 161H845Q851 161 851 157V141Q851 135 845 135H781Q776
135 776 129V6Q776 0 770 0H752Q747 0 747 6V131Q747 135 742 135H530Q523 135 523 141V160Q523 163 524 166T528 174L742 464V464ZM739 161Q745 161 745 165V409Q745 416 743 416T736 411L557 169Q551 161 561 161H739Z" />
<glyph unicode="&#xbf;" horiz-adv-x="506" d="M231 519Q231 530 244 530H283Q288 530 290 528T293 520V460Q293 451 286 451H238Q231 451 231 459V519ZM462 -44Q465 -45 466 -47T465 -52Q434 -108 373 -141T241 -175Q177 -175 130 -153T56 -89T30 7Q30 49 45
79T84 133T135 180T186 229T226 289T241 372Q241 375 243 377T248 380H275Q283 380 283 371Q283 320 268 283T230 219T180 169T130 124T91 73T76 7Q76 -57 121 -95T241 -133Q280 -133 317 -119T384 -83T424 -33Q426 -31 427 -30T432 -30L462 -44Z" />
<glyph unicode="&#xc0;" horiz-adv-x="700" d="M60 0Q56 0 54 2T53 9L318 731Q320 737 323 739T334 742H367Q382 742 385 732L647 10Q649 6 647 3T639 0H615Q605 0 602 8L521 231Q520 235 518 236T511 238H189Q182 238 179 231L96 7Q95 3 93 2T85 0H60V0ZM494
278Q504 278 501 288L358 678Q354 688 351 688T343 677L198 286Q195 278 203 278H494ZM242 960Q244 965 250 963L479 872Q485 870 482 862L477 847Q476 843 474 842T466 842L239 916Q229 920 232 928L242 960V960Z" />
<glyph unicode="&#xc1;" horiz-adv-x="700" d="M60 0Q56 0 54 2T53 9L318 731Q320 737 323 739T334 742H367Q382 742 385 732L647 10Q649 6 647 3T639 0H615Q605 0 602 8L521 231Q520 235 518 236T511 238H189Q182 238 179 231L96 7Q95 3 93 2T85 0H60V0ZM494
278Q504 278 501 288L358 678Q354 688 351 688T343 677L198 286Q195 278 203 278H494ZM479 932Q482 924 472 920L245 846Q241 845 239 846T234 851L229 866Q226 874 232 876L461 967Q467 969 469 964L479 932Z" />
<glyph unicode="&#xc2;" horiz-adv-x="700" d="M60 0Q56 0 54 2T53 9L318 731Q320 737 323 739T334 742H367Q382 742 385 732L647 10Q649 6 647 3T639 0H615Q605 0 602 8L521 231Q520 235 518 236T511 238H189Q182 238 179 231L96 7Q95 3 93 2T85 0H60V0ZM494
278Q504 278 501 288L358 678Q354 688 351 688T343 677L198 286Q195 278 203 278H494ZM359 910Q352 916 350 916T340 910L278 862Q273 858 271 857T263 856H226Q221 856 221 859T224 866L323 945Q328 949 332 951T343 954H361Q367 954 370 951T377 946L475 866Q487
856 474 856H433Q429 856 426 857T418 862L359 910Z" />
<glyph unicode="&#xc3;" horiz-adv-x="700" d="M60 0Q56 0 54 2T53 9L318 731Q320 737 323 739T334 742H367Q382 742 385 732L647 10Q649 6 647 3T639 0H615Q605 0 602 8L521 231Q520 235 518 236T511 238H189Q182 238 179 231L96 7Q95 3 93 2T85 0H60V0ZM494
278Q504 278 501 288L358 678Q354 688 351 688T343 677L198 286Q195 278 203 278H494ZM475 904Q465 898 450 892T408 885Q382 885 364 891T331 903T294 909Q272 909 260 902T238 889Q234 887 232 887T227 893L220 909Q219 913 219 914T222 917Q237 928 252 935T290
943Q312 943 331 937T368 925T409 918Q426 918 436 922T459 934Q464 937 467 937T472 931L480 913Q482 909 475 904V904Z" />
<glyph unicode="&#xc4;" horiz-adv-x="700" d="M60 0Q56 0 54 2T53 9L318 731Q320 737 323 739T334 742H367Q382 742 385 732L647 10Q649 6 647 3T639 0H615Q605 0 602 8L521 231Q520 235 518 236T511 238H189Q182 238 179 231L96 7Q95 3 93 2T85 0H60V0ZM494
278Q504 278 501 288L358 678Q354 688 351 688T343 677L198 286Q195 278 203 278H494ZM319 868Q319 861 317 859T307 856H280Q273 856 271 858T269 866V944Q269 954 278 954H310Q319 954 319 944V868ZM430 868Q430 861 428 859T418 856H391Q384 856 382 858T380
866V944Q380 954 389 954H421Q430 954 430 944V868Z" />
<glyph unicode="&#xc5;" horiz-adv-x="700" d="M60 0Q56 0 54 2T53 9L318 731Q320 737 323 739T334 742H367Q382 742 385 732L647 10Q649 6 647 3T639 0H615Q605 0 602 8L521 231Q520 235 518 236T511 238H189Q182 238 179 231L96 7Q95 3 93 2T85 0H60V0ZM494
278Q504 278 501 288L358 678Q354 688 351 688T343 677L198 286Q195 278 203 278H494ZM450 866Q450 823 421 795T350 766Q308 766 279 795T250 868Q250 895 263 916T300 951T350 964Q378 964 400 951T436 916T450 866V866ZM407 865Q407 891 391 907T349 924Q326
924 308 908T290 865Q290 842 308 824T349 806Q374 806 390 824T407 865V865Z" />
<glyph unicode="&#xc6;" horiz-adv-x="963" d="M903 40Q911 40 911 33V7Q911 3 910 2T904 0H504Q495 0 495 10V233Q495 238 490 238H236Q228 238 224 231L95 7Q93 3 91 2T83 0H58Q54 0 53 2T53 9L466 731Q469 737 473 739T484 742H889Q896 742 896 735V709Q896
702 888 702H550Q541 702 541 693V402Q541 395 550 395H819Q826 395 826 388V362Q826 358 825 357T818 355H550Q541 355 541 346V49Q541 40 550 40H903V40ZM487 278Q495 278 495 287V678Q494 688 490 688T480 677L252 286Q247 278 255 278H487V278Z" />
<glyph unicode="&#xc7;" horiz-adv-x="695" d="M375 752Q421 752 464 736T543 693T602 630T629 556Q630 552 629 551T624 549L588 545Q585 544 584 546T581 552Q564 623 509 666T377 710Q255 710 191 623T126 368Q126 207 190 120T385 32Q463 32 514 69T595 186Q597
189 601 188L635 178Q637 177 637 176T637 171Q627 138 609 110T567 60T514 22T451 -2T381 -10Q285 -10 217 34T114 163T78 368Q78 489 113 575T215 706T375 752V752ZM454 -129Q454 -154 441 -170T405 -195T354 -204Q332 -204 315 -199T281 -183Q277 -181 278 -177L287
-157Q289 -153 294 -156Q304 -164 316 -169T350 -174Q382 -174 396 -163T410 -131Q410 -107 391 -96T333 -83Q329 -83 329 -82T329 -79L365 5H399L375 -55Q374 -58 378 -58Q408 -61 424 -72T447 -98T454 -129V-129Z" />
<glyph unicode="&#xc8;" horiz-adv-x="612" d="M114 732Q114 742 123 742H538Q545 742 545 735V709Q545 702 537 702H169Q160 702 160 693V402Q160 395 169 395H458Q465 395 465 388V362Q465 358 464 357T457 355H169Q160 355 160 346V49Q160 40 169 40H552Q560
40 560 33V7Q560 3 559 2T553 0H123Q114 0 114 10V732V732ZM237 960Q239 965 245 963L474 872Q480 870 477 862L472 847Q471 843 469 842T461 842L234 916Q224 920 227 928L237 960V960Z" />
<glyph unicode="&#xc9;" horiz-adv-x="612" d="M114 732Q114 742 123 742H538Q545 742 545 735V709Q545 702 537 702H169Q160 702 160 693V402Q160 395 169 395H458Q465 395 465 388V362Q465 358 464 357T457 355H169Q160 355 160 346V49Q160 40 169 40H552Q560
40 560 33V7Q560 3 559 2T553 0H123Q114 0 114 10V732V732ZM474 932Q477 924 467 920L240 846Q236 845 234 846T229 851L224 866Q221 874 227 876L456 967Q462 969 464 964L474 932Z" />
<glyph unicode="&#xca;" horiz-adv-x="612" d="M114 732Q114 742 123 742H538Q545 742 545 735V709Q545 702 537 702H169Q160 702 160 693V402Q160 395 169 395H458Q465 395 465 388V362Q465 358 464 357T457 355H169Q160 355 160 346V49Q160 40 169 40H552Q560
40 560 33V7Q560 3 559 2T553 0H123Q114 0 114 10V732V732ZM354 910Q347 916 345 916T335 910L273 862Q268 858 266 857T258 856H221Q216 856 216 859T219 866L318 945Q323 949 327 951T338 954H356Q362 954 365 951T372 946L470 866Q482 856 469 856H428Q424 856
421 857T413 862L354 910Z" />
<glyph unicode="&#xcb;" horiz-adv-x="612" d="M114 732Q114 742 123 742H538Q545 742 545 735V709Q545 702 537 702H169Q160 702 160 693V402Q160 395 169 395H458Q465 395 465 388V362Q465 358 464 357T457 355H169Q160 355 160 346V49Q160 40 169 40H552Q560
40 560 33V7Q560 3 559 2T553 0H123Q114 0 114 10V732V732ZM314 868Q314 861 312 859T302 856H275Q268 856 266 858T264 866V944Q264 954 273 954H305Q314 954 314 944V868ZM425 868Q425 861 423 859T413 856H386Q379 856 377 858T375 866V944Q375 954 384 954H416Q425
954 425 944V868Z" />
<glyph unicode="&#xcc;" horiz-adv-x="274" d="M151 742Q160 742 160 732V12Q160 5 158 3T148 0H125Q118 0 116 2T114 10V732Q114 742 123 742H151ZM32 960Q34 965 40 963L269 872Q275 870 272 862L267 847Q266 843 264 842T256 842L29 916Q19 920 22 928L32 960V960Z" />
<glyph unicode="&#xcd;" horiz-adv-x="274" d="M151 742Q160 742 160 732V12Q160 5 158 3T148 0H125Q118 0 116 2T114 10V732Q114 742 123 742H151ZM269 932Q272 924 262 920L35 846Q31 845 29 846T24 851L19 866Q16 874 22 876L251 967Q257 969 259 964L269 932Z" />
<glyph unicode="&#xce;" horiz-adv-x="274" d="M151 742Q160 742 160 732V12Q160 5 158 3T148 0H125Q118 0 116 2T114 10V732Q114 742 123 742H151ZM149 910Q142 916 140 916T130 910L68 862Q63 858 61 857T53 856H16Q11 856 11 859T14 866L113 945Q118 949 122
951T133 954H151Q157 954 160 951T167 946L265 866Q277 856 264 856H223Q219 856 216 857T208 862L149 910Z" />
<glyph unicode="&#xcf;" horiz-adv-x="274" d="M151 742Q160 742 160 732V12Q160 5 158 3T148 0H125Q118 0 116 2T114 10V732Q114 742 123 742H151ZM109 868Q109 861 107 859T97 856H70Q63 856 61 858T59 866V944Q59 954 68 954H100Q109 954 109 944V868ZM220
868Q220 861 218 859T208 856H181Q174 856 172 858T170 866V944Q170 954 179 954H211Q220 954 220 944V868Z" />
<glyph unicode="&#xd0;" horiz-adv-x="703" d="M342 364Q342 353 329 353H45Q39 353 37 355T35 363V386Q35 395 42 395H335Q342 395 342 387V364ZM124 742Q125 742 141 742T179 742T217 741T239 741Q379 740 464 700T587 581T626 379Q626 247 583 163T451 40T225
0H123Q114 0 114 10V732Q114 737 116 739T124 742V742ZM170 701Q160 701 160 687V49Q160 40 171 40H221Q350 40 428 72T542 178T578 371Q578 502 540 573T423 673T223 701H170V701Z" />
<glyph unicode="&#xd1;" horiz-adv-x="755" d="M632 742Q641 742 641 732V10Q641 5 639 3T632 0H617Q611 0 607 0T598 6L170 637Q165 645 162 644T158 637V9Q158 0 148 0H123Q114 0 114 10V732Q114 742 123 742H141Q147 742 150 741T156 735L583 105Q588 98 592
100T597 107V733Q597 742 605 742H632ZM519 904Q509 898 494 892T452 885Q426 885 408 891T375 903T338 909Q316 909 304 902T282 889Q278 887 276 887T271 893L264 909Q263 913 263 914T266 917Q281 928 296 935T334 943Q356 943 375 937T412 925T453 918Q470
918 480 922T503 934Q508 937 511 937T516 931L524 913Q526 909 519 904V904Z" />
<glyph unicode="&#xd2;" horiz-adv-x="758" d="M379 -10Q285 -10 218 33T114 160T78 367Q78 492 114 578T218 708T380 752Q474 752 541 708T644 579T680 369Q680 246 644 162T541 34T379 -10V-10ZM381 32Q505 32 568 115T632 369Q632 541 568 625T380 710Q256
710 191 625T126 369Q126 200 191 116T381 32V32ZM273 960Q275 965 281 963L510 872Q516 870 513 862L508 847Q507 843 505 842T497 842L270 916Q260 920 263 928L273 960V960Z" />
<glyph unicode="&#xd3;" horiz-adv-x="758" d="M379 -10Q285 -10 218 33T114 160T78 367Q78 492 114 578T218 708T380 752Q474 752 541 708T644 579T680 369Q680 246 644 162T541 34T379 -10V-10ZM381 32Q505 32 568 115T632 369Q632 541 568 625T380 710Q256
710 191 625T126 369Q126 200 191 116T381 32V32ZM510 932Q513 924 503 920L276 846Q272 845 270 846T265 851L260 866Q257 874 263 876L492 967Q498 969 500 964L510 932Z" />
<glyph unicode="&#xd4;" horiz-adv-x="758" d="M379 -10Q285 -10 218 33T114 160T78 367Q78 492 114 578T218 708T380 752Q474 752 541 708T644 579T680 369Q680 246 644 162T541 34T379 -10V-10ZM381 32Q505 32 568 115T632 369Q632 541 568 625T380 710Q256
710 191 625T126 369Q126 200 191 116T381 32V32ZM390 910Q383 916 381 916T371 910L309 862Q304 858 302 857T294 856H257Q252 856 252 859T255 866L354 945Q359 949 363 951T374 954H392Q398 954 401 951T408 946L506 866Q518 856 505 856H464Q460 856 457 857T449
862L390 910Z" />
<glyph unicode="&#xd5;" horiz-adv-x="758" d="M379 -10Q285 -10 218 33T114 160T78 367Q78 492 114 578T218 708T380 752Q474 752 541 708T644 579T680 369Q680 246 644 162T541 34T379 -10V-10ZM381 32Q505 32 568 115T632 369Q632 541 568 625T380 710Q256
710 191 625T126 369Q126 200 191 116T381 32V32ZM506 904Q496 898 481 892T439 885Q413 885 395 891T362 903T325 909Q303 909 291 902T269 889Q265 887 263 887T258 893L251 909Q250 913 250 914T253 917Q268 928 283 935T321 943Q343 943 362 937T399 925T440
918Q457 918 467 922T490 934Q495 937 498 937T503 931L511 913Q513 909 506 904V904Z" />
<glyph unicode="&#xd6;" horiz-adv-x="758" d="M379 -10Q285 -10 218 33T114 160T78 367Q78 492 114 578T218 708T380 752Q474 752 541 708T644 579T680 369Q680 246 644 162T541 34T379 -10V-10ZM381 32Q505 32 568 115T632 369Q632 541 568 625T380 710Q256
710 191 625T126 369Q126 200 191 116T381 32V32ZM350 868Q350 861 348 859T338 856H311Q304 856 302 858T300 866V944Q300 954 309 954H341Q350 954 350 944V868ZM461 868Q461 861 459 859T449 856H422Q415 856 413 858T411 866V944Q411 954 420 954H452Q461 954
461 944V868Z" />
<glyph unicode="&#xd7;" horiz-adv-x="517" d="M428 188Q422 182 415 189L73 530Q70 533 70 535T73 541L90 558Q95 563 98 559L444 214Q446 212 446 210T445 205L428 188ZM74 203Q68 209 75 216L416 558Q419 561 421 561T427 558L444 541Q449 537 445 533L100
187Q95 182 91 186L74 203Z" />
<glyph unicode="&#xd8;" horiz-adv-x="708" d="M684 727Q689 722 685 716L600 617Q627 571 641 509T655 369Q655 246 619 162T516 34T354 -10Q285 -10 230 13T137 81L64 -3Q60 -9 56 -9T45 -5L28 11Q19 20 24 26L108 123Q81 169 67 230T53 367Q53 492 89 578T193
708T355 752Q423 752 477 729T571 659L646 746Q653 754 659 749L684 727V727ZM104 369Q104 305 113 253T141 161L541 625Q478 709 355 709Q231 709 168 625T104 369V369ZM604 369Q604 434 595 487T567 580L167 117Q232 33 356 33Q480 33 542 116T604 369V369Z"
/>
<glyph unicode="&#xd9;" horiz-adv-x="702" d="M598 230Q598 150 571 97T489 17T351 -10Q267 -10 213 17T131 101T104 245V731Q104 742 112 742H140Q150 742 150 732V226Q150 129 200 81T353 32Q422 32 467 54T535 119T558 229V733Q558 742 566 742H590Q598 742
598 733V230V230ZM247 960Q249 965 255 963L484 872Q490 870 487 862L482 847Q481 843 479 842T471 842L244 916Q234 920 237 928L247 960V960Z" />
<glyph unicode="&#xda;" horiz-adv-x="702" d="M598 230Q598 150 571 97T489 17T351 -10Q267 -10 213 17T131 101T104 245V731Q104 742 112 742H140Q150 742 150 732V226Q150 129 200 81T353 32Q422 32 467 54T535 119T558 229V733Q558 742 566 742H590Q598 742
598 733V230V230ZM484 932Q487 924 477 920L250 846Q246 845 244 846T239 851L234 866Q231 874 237 876L466 967Q472 969 474 964L484 932Z" />
<glyph unicode="&#xdb;" horiz-adv-x="702" d="M598 230Q598 150 571 97T489 17T351 -10Q267 -10 213 17T131 101T104 245V731Q104 742 112 742H140Q150 742 150 732V226Q150 129 200 81T353 32Q422 32 467 54T535 119T558 229V733Q558 742 566 742H590Q598 742
598 733V230V230ZM364 910Q357 916 355 916T345 910L283 862Q278 858 276 857T268 856H231Q226 856 226 859T229 866L328 945Q333 949 337 951T348 954H366Q372 954 375 951T382 946L480 866Q492 856 479 856H438Q434 856 431 857T423 862L364 910Z" />
<glyph unicode="&#xdc;" horiz-adv-x="702" d="M598 230Q598 150 571 97T489 17T351 -10Q267 -10 213 17T131 101T104 245V731Q104 742 112 742H140Q150 742 150 732V226Q150 129 200 81T353 32Q422 32 467 54T535 119T558 229V733Q558 742 566 742H590Q598 742
598 733V230V230ZM324 868Q324 861 322 859T312 856H285Q278 856 276 858T274 866V944Q274 954 283 954H315Q324 954 324 944V868ZM435 868Q435 861 433 859T423 856H396Q389 856 387 858T385 866V944Q385 954 394 954H426Q435 954 435 944V868Z" />
<glyph unicode="&#xdd;" horiz-adv-x="638" d="M582 742Q587 742 589 739T588 731L349 326Q346 322 346 318T345 306V13Q345 0 330 0H311Q304 0 302 3T299 11V295Q299 303 298 306T294 315L50 730Q47 735 49 738T58 742H81Q88 742 91 740T97 733L307 376Q314 364
319 364T331 374L540 733Q544 739 546 740T556 742H582V742ZM443 932Q446 924 436 920L209 846Q205 845 203 846T198 851L193 866Q190 874 196 876L425 967Q431 969 433 964L443 932Z" />
<glyph unicode="&#xde;" horiz-adv-x="674" d="M611 390Q611 315 577 269T485 203T351 182H168Q160 182 160 173V9Q160 0 152 0H122Q118 0 116 2T114 8V732Q114 742 123 742H151Q160 742 160 732V584Q160 579 166 579H345Q423 579 483 560T577 498T611 390V390ZM563
390Q563 473 504 506T344 539H169Q160 539 160 531V232Q160 222 167 222H351Q447 222 505 260T563 390V390Z" />
<glyph unicode="&#xdf;" horiz-adv-x="582" d="M310 742Q369 742 402 722T448 671T462 609Q462 569 445 545T402 507T349 477Q303 452 285 438T267 398Q267 373 284 362T346 337Q370 330 400 319T459 288T507 238T526 158Q526 103 500 66T432 9T339 -10Q306 -10
268 -2T204 22Q197 26 200 32L216 56Q219 60 226 56Q249 43 273 36T331 28Q402 28 443 61T484 155Q484 201 462 228T406 270T333 297Q309 305 284 314T242 343T225 397Q225 435 249 459T327 510Q349 521 370 533T405 563T420 612Q420 655 389 679T302 704Q234 704
190 663T146 535V10Q147 0 138 0H114Q106 0 106 8V485Q106 495 98 495H36Q30 495 30 501V524Q30 526 31 528T36 530H99Q104 530 104 532T105 538Q105 586 120 624T162 688T227 728T310 742V742Z" />
<glyph unicode="&#xe0;" horiz-adv-x="538" d="M408 72Q367 31 321 11T218 -10Q139 -10 94 29T48 135Q48 186 75 222T158 279T295 308L400 317Q408 318 412 321T417 332V363Q417 427 377 464T268 502Q216 502 175 479T100 410Q97 406 95 405T90 406L66 421Q64
423 64 425T66 431Q98 478 148 509T270 540Q327 540 369 520T434 460T457 367V10Q457 4 455 2T447 0H429Q425 0 423 2T420 9L418 70Q416 82 408 72V72ZM417 266Q417 282 403 280L314 273Q255 269 213 258T143 230T103 190T90 138Q90 86 126 57T224 28Q261 28 296
41T360 77Q388 100 402 124T417 171V266V266ZM158 748Q160 753 166 751L395 660Q401 658 398 650L393 635Q392 631 390 630T382 630L155 704Q145 708 148 716L158 748V748Z" />
<glyph unicode="&#xe1;" horiz-adv-x="538" d="M408 72Q367 31 321 11T218 -10Q139 -10 94 29T48 135Q48 186 75 222T158 279T295 308L400 317Q408 318 412 321T417 332V363Q417 427 377 464T268 502Q216 502 175 479T100 410Q97 406 95 405T90 406L66 421Q64
423 64 425T66 431Q98 478 148 509T270 540Q327 540 369 520T434 460T457 367V10Q457 4 455 2T447 0H429Q425 0 423 2T420 9L418 70Q416 82 408 72V72ZM417 266Q417 282 403 280L314 273Q255 269 213 258T143 230T103 190T90 138Q90 86 126 57T224 28Q261 28 296
41T360 77Q388 100 402 124T417 171V266V266ZM395 720Q398 712 388 708L161 634Q157 633 155 634T150 639L145 654Q142 662 148 664L377 755Q383 757 385 752L395 720Z" />
<glyph unicode="&#xe2;" horiz-adv-x="538" d="M408 72Q367 31 321 11T218 -10Q139 -10 94 29T48 135Q48 186 75 222T158 279T295 308L400 317Q408 318 412 321T417 332V363Q417 427 377 464T268 502Q216 502 175 479T100 410Q97 406 95 405T90 406L66 421Q64
423 64 425T66 431Q98 478 148 509T270 540Q327 540 369 520T434 460T457 367V10Q457 4 455 2T447 0H429Q425 0 423 2T420 9L418 70Q416 82 408 72V72ZM417 266Q417 282 403 280L314 273Q255 269 213 258T143 230T103 190T90 138Q90 86 126 57T224 28Q261 28 296
41T360 77Q388 100 402 124T417 171V266V266ZM275 698Q268 704 266 704T256 698L194 650Q189 646 187 645T179 644H142Q137 644 137 647T140 654L239 733Q244 737 248 739T259 742H277Q283 742 286 739T293 734L391 654Q403 644 390 644H349Q345 644 342 645T334
650L275 698Z" />
<glyph unicode="&#xe3;" horiz-adv-x="538" d="M408 72Q367 31 321 11T218 -10Q139 -10 94 29T48 135Q48 186 75 222T158 279T295 308L400 317Q408 318 412 321T417 332V363Q417 427 377 464T268 502Q216 502 175 479T100 410Q97 406 95 405T90 406L66 421Q64
423 64 425T66 431Q98 478 148 509T270 540Q327 540 369 520T434 460T457 367V10Q457 4 455 2T447 0H429Q425 0 423 2T420 9L418 70Q416 82 408 72V72ZM417 266Q417 282 403 280L314 273Q255 269 213 258T143 230T103 190T90 138Q90 86 126 57T224 28Q261 28 296
41T360 77Q388 100 402 124T417 171V266V266ZM391 692Q381 686 366 680T324 673Q298 673 280 679T247 691T210 697Q188 697 176 690T154 677Q150 675 148 675T143 681L136 697Q135 701 135 702T138 705Q153 716 168 723T206 731Q228 731 247 725T284 713T325 706Q342
706 352 710T375 722Q380 725 383 725T388 719L396 701Q398 697 391 692V692Z" />
<glyph unicode="&#xe4;" horiz-adv-x="538" d="M408 72Q367 31 321 11T218 -10Q139 -10 94 29T48 135Q48 186 75 222T158 279T295 308L400 317Q408 318 412 321T417 332V363Q417 427 377 464T268 502Q216 502 175 479T100 410Q97 406 95 405T90 406L66 421Q64
423 64 425T66 431Q98 478 148 509T270 540Q327 540 369 520T434 460T457 367V10Q457 4 455 2T447 0H429Q425 0 423 2T420 9L418 70Q416 82 408 72V72ZM417 266Q417 282 403 280L314 273Q255 269 213 258T143 230T103 190T90 138Q90 86 126 57T224 28Q261 28 296
41T360 77Q388 100 402 124T417 171V266V266ZM235 656Q235 649 233 647T223 644H196Q189 644 187 646T185 654V732Q185 742 194 742H226Q235 742 235 732V656ZM346 656Q346 649 344 647T334 644H307Q300 644 298 646T296 654V732Q296 742 305 742H337Q346 742 346
732V656Z" />
<glyph unicode="&#xe5;" horiz-adv-x="538" d="M408 72Q367 31 321 11T218 -10Q139 -10 94 29T48 135Q48 186 75 222T158 279T295 308L400 317Q408 318 412 321T417 332V363Q417 427 377 464T268 502Q216 502 175 479T100 410Q97 406 95 405T90 406L66 421Q64
423 64 425T66 431Q98 478 148 509T270 540Q327 540 369 520T434 460T457 367V10Q457 4 455 2T447 0H429Q425 0 423 2T420 9L418 70Q416 82 408 72V72ZM417 266Q417 282 403 280L314 273Q255 269 213 258T143 230T103 190T90 138Q90 86 126 57T224 28Q261 28 296
41T360 77Q388 100 402 124T417 171V266V266ZM366 701Q366 658 337 630T266 601Q224 601 195 630T166 703Q166 730 179 751T216 786T266 799Q294 799 316 786T352 751T366 701V701ZM323 700Q323 726 307 742T265 759Q242 759 224 743T206 700Q206 677 224 659T265
641Q290 641 306 659T323 700V700Z" />
<glyph unicode="&#xe6;" horiz-adv-x="930" d="M471 253Q458 253 455 249T451 228Q451 193 466 158T509 93T572 46T651 28Q703 28 736 43T791 79T827 121Q831 126 832 126T838 125L860 110Q865 107 861 100Q844 69 813 44T740 5T649 -10Q588 -10 548 10T484 59T444
108Q442 112 439 108Q421 85 394 58T323 10T214 -10Q136 -10 92 29T48 136Q48 210 106 254T287 308L399 317Q408 318 412 321T417 332V363Q417 427 378 464T263 502Q215 502 175 479T99 410Q95 406 93 405T88 406L66 421Q64 423 64 425T66 431Q88 466 119 490T190
527T271 540Q345 540 388 511T446 421Q476 480 529 510T652 540Q721 540 772 509T852 419T881 274Q881 264 878 259T863 254L471 253V253ZM649 502Q594 502 550 476T480 402T453 291L821 290Q833 290 835 293T838 306Q838 360 814 404T747 475T649 502V502ZM417
265Q417 273 415 276T402 279L307 272Q232 266 185 249T114 205T91 138Q91 88 126 57T224 29Q278 32 321 52T391 105T417 177V265V265Z" />
<glyph unicode="&#xe7;" horiz-adv-x="537" d="M296 540Q341 540 376 527T440 490T492 433Q497 426 492 423L468 407Q463 404 457 411Q430 445 405 464T354 493T301 502Q240 502 194 473T123 390T98 265Q98 194 123 141T193 58T300 28Q351 28 392 52T466 128Q469
133 471 133T476 132L499 117Q504 114 501 107Q483 78 461 56T412 20T357 -2T296 -10Q225 -10 171 24T86 120T56 263Q56 344 86 406T171 504T296 540V540ZM370 -129Q370 -154 357 -170T321 -195T270 -204Q248 -204 231 -199T197 -183Q193 -181 194 -177L203 -157Q205
-153 210 -156Q220 -164 232 -169T266 -174Q298 -174 312 -163T326 -131Q326 -107 307 -96T249 -83Q245 -83 245 -82T245 -79L281 5H315L291 -55Q290 -58 294 -58Q324 -61 340 -72T363 -98T370 -129V-129Z" />
<glyph unicode="&#xe8;" horiz-adv-x="577" d="M98 240Q98 184 125 136T197 58T299 28Q359 28 403 52T474 121Q477 126 479 126T485 125L508 110Q514 106 509 100Q486 64 455 40T385 3T299 -10Q227 -10 173 24T87 119T56 261Q56 349 87 411T174 506T299 540Q370
540 421 509T500 418T528 274Q528 268 527 261T515 254H104Q101 254 100 250T98 240V240ZM469 290Q480 290 483 293T486 304Q486 359 463 404T398 475T298 502Q232 502 188 470T121 389T99 290H469ZM189 748Q191 753 197 751L426 660Q432 658 429 650L424 635Q423
631 421 630T413 630L186 704Q176 708 179 716L189 748V748Z" />
<glyph unicode="&#xe9;" horiz-adv-x="577" d="M98 240Q98 184 125 136T197 58T299 28Q359 28 403 52T474 121Q477 126 479 126T485 125L508 110Q514 106 509 100Q486 64 455 40T385 3T299 -10Q227 -10 173 24T87 119T56 261Q56 349 87 411T174 506T299 540Q370
540 421 509T500 418T528 274Q528 268 527 261T515 254H104Q101 254 100 250T98 240V240ZM469 290Q480 290 483 293T486 304Q486 359 463 404T398 475T298 502Q232 502 188 470T121 389T99 290H469ZM426 720Q429 712 419 708L192 634Q188 633 186 634T181 639L176
654Q173 662 179 664L408 755Q414 757 416 752L426 720Z" />
<glyph unicode="&#xea;" horiz-adv-x="577" d="M98 240Q98 184 125 136T197 58T299 28Q359 28 403 52T474 121Q477 126 479 126T485 125L508 110Q514 106 509 100Q486 64 455 40T385 3T299 -10Q227 -10 173 24T87 119T56 261Q56 349 87 411T174 506T299 540Q370
540 421 509T500 418T528 274Q528 268 527 261T515 254H104Q101 254 100 250T98 240V240ZM469 290Q480 290 483 293T486 304Q486 359 463 404T398 475T298 502Q232 502 188 470T121 389T99 290H469ZM306 698Q299 704 297 704T287 698L225 650Q220 646 218 645T210
644H173Q168 644 168 647T171 654L270 733Q275 737 279 739T290 742H308Q314 742 317 739T324 734L422 654Q434 644 421 644H380Q376 644 373 645T365 650L306 698Z" />
<glyph unicode="&#xeb;" horiz-adv-x="577" d="M98 240Q98 184 125 136T197 58T299 28Q359 28 403 52T474 121Q477 126 479 126T485 125L508 110Q514 106 509 100Q486 64 455 40T385 3T299 -10Q227 -10 173 24T87 119T56 261Q56 349 87 411T174 506T299 540Q370
540 421 509T500 418T528 274Q528 268 527 261T515 254H104Q101 254 100 250T98 240V240ZM469 290Q480 290 483 293T486 304Q486 359 463 404T398 475T298 502Q232 502 188 470T121 389T99 290H469ZM266 656Q266 649 264 647T254 644H227Q220 644 218 646T216 654V732Q216
742 225 742H257Q266 742 266 732V656ZM377 656Q377 649 375 647T365 644H338Q331 644 329 646T327 654V732Q327 742 336 742H368Q377 742 377 732V656Z" />
<glyph unicode="&#xec;" horiz-adv-x="222" d="M131 12Q131 5 129 3T119 0H102Q95 0 93 2T91 10V520Q91 530 100 530H122Q131 530 131 520V12ZM3 748Q5 753 11 751L240 660Q246 658 243 650L238 635Q237 631 235 630T227 630L0 704Q-10 708 -7 716L3 748V748Z" />
<glyph unicode="&#xed;" horiz-adv-x="222" d="M131 12Q131 5 129 3T119 0H102Q95 0 93 2T91 10V520Q91 530 100 530H122Q131 530 131 520V12ZM240 720Q243 712 233 708L6 634Q2 633 0 634T-5 639L-10 654Q-13 662 -7 664L222 755Q228 757 230 752L240 720Z" />
<glyph unicode="&#xee;" horiz-adv-x="222" d="M131 12Q131 5 129 3T119 0H102Q95 0 93 2T91 10V520Q91 530 100 530H122Q131 530 131 520V12ZM120 698Q113 704 111 704T101 698L39 650Q34 646 32 645T24 644H-13Q-18 644 -18 647T-15 654L84 733Q89 737 93 739T104
742H122Q128 742 131 739T138 734L236 654Q248 644 235 644H194Q190 644 187 645T179 650L120 698Z" />
<glyph unicode="&#xef;" horiz-adv-x="222" d="M131 12Q131 5 129 3T119 0H102Q95 0 93 2T91 10V520Q91 530 100 530H122Q131 530 131 520V12ZM80 656Q80 649 78 647T68 644H41Q34 644 32 646T30 654V732Q30 742 39 742H71Q80 742 80 732V656ZM191 656Q191 649
189 647T179 644H152Q145 644 143 646T141 654V732Q141 742 150 742H182Q191 742 191 732V656Z" />
<glyph unicode="&#xf0;" horiz-adv-x="598" d="M542 255Q542 178 513 118T429 24T297 -10Q225 -10 171 23T87 116T56 252Q56 330 86 390T169 485T290 520Q343 520 387 502T463 451Q440 505 399 555T293 648L125 553Q118 549 112 558L103 572Q100 577 101 579T104
583L259 670Q234 684 206 697T146 724Q142 726 142 729T145 735L163 747Q168 750 171 751T181 749Q214 736 242 722T297 692L401 750Q407 754 410 749L422 727Q425 722 421 719L331 669Q448 590 495 485T542 255V255ZM301 28Q359 28 403 58T474 139T500 254Q500
318 474 369T402 451T300 482Q243 482 197 451T125 369T98 254Q98 191 124 140T197 59T301 28V28Z" />
<glyph unicode="&#xf1;" horiz-adv-x="576" d="M100 0Q91 0 91 9V521Q91 530 99 530H120Q128 530 128 522V460Q128 455 130 454T136 457Q174 484 204 502T264 530T330 540Q410 540 451 499T492 393V10Q492 0 483 0H461Q457 0 455 2T452 9V377Q452 436 423 469T329
502Q294 502 264 492T203 461T131 410V9Q131 0 122 0H100V0ZM428 692Q418 686 403 680T361 673Q335 673 317 679T284 691T247 697Q225 697 213 690T191 677Q187 675 185 675T180 681L173 697Q172 701 172 702T175 705Q190 716 205 723T243 731Q265 731 284 725T321
713T362 706Q379 706 389 710T412 722Q417 725 420 725T425 719L433 701Q435 697 428 692V692Z" />
<glyph unicode="&#xf2;" horiz-adv-x="598" d="M299 -10Q226 -10 171 24T86 120T56 262Q56 344 86 406T172 504T300 540Q373 540 427 505T511 408T542 264Q542 183 512 122T427 25T299 -10V-10ZM301 28Q363 28 407 57T476 140T500 264Q500 335 476 388T406 472T300
502Q239 502 194 472T123 389T98 264Q98 194 123 141T193 58T301 28V28ZM193 748Q195 753 201 751L430 660Q436 658 433 650L428 635Q427 631 425 630T417 630L190 704Q180 708 183 716L193 748V748Z" />
<glyph unicode="&#xf3;" horiz-adv-x="598" d="M299 -10Q226 -10 171 24T86 120T56 262Q56 344 86 406T172 504T300 540Q373 540 427 505T511 408T542 264Q542 183 512 122T427 25T299 -10V-10ZM301 28Q363 28 407 57T476 140T500 264Q500 335 476 388T406 472T300
502Q239 502 194 472T123 389T98 264Q98 194 123 141T193 58T301 28V28ZM430 720Q433 712 423 708L196 634Q192 633 190 634T185 639L180 654Q177 662 183 664L412 755Q418 757 420 752L430 720Z" />
<glyph unicode="&#xf4;" horiz-adv-x="598" d="M299 -10Q226 -10 171 24T86 120T56 262Q56 344 86 406T172 504T300 540Q373 540 427 505T511 408T542 264Q542 183 512 122T427 25T299 -10V-10ZM301 28Q363 28 407 57T476 140T500 264Q500 335 476 388T406 472T300
502Q239 502 194 472T123 389T98 264Q98 194 123 141T193 58T301 28V28ZM310 698Q303 704 301 704T291 698L229 650Q224 646 222 645T214 644H177Q172 644 172 647T175 654L274 733Q279 737 283 739T294 742H312Q318 742 321 739T328 734L426 654Q438 644 425 644H384Q380
644 377 645T369 650L310 698Z" />
<glyph unicode="&#xf5;" horiz-adv-x="598" d="M299 -10Q226 -10 171 24T86 120T56 262Q56 344 86 406T172 504T300 540Q373 540 427 505T511 408T542 264Q542 183 512 122T427 25T299 -10V-10ZM301 28Q363 28 407 57T476 140T500 264Q500 335 476 388T406 472T300
502Q239 502 194 472T123 389T98 264Q98 194 123 141T193 58T301 28V28ZM426 692Q416 686 401 680T359 673Q333 673 315 679T282 691T245 697Q223 697 211 690T189 677Q185 675 183 675T178 681L171 697Q170 701 170 702T173 705Q188 716 203 723T241 731Q263 731
282 725T319 713T360 706Q377 706 387 710T410 722Q415 725 418 725T423 719L431 701Q433 697 426 692V692Z" />
<glyph unicode="&#xf6;" horiz-adv-x="598" d="M299 -10Q226 -10 171 24T86 120T56 262Q56 344 86 406T172 504T300 540Q373 540 427 505T511 408T542 264Q542 183 512 122T427 25T299 -10V-10ZM301 28Q363 28 407 57T476 140T500 264Q500 335 476 388T406 472T300
502Q239 502 194 472T123 389T98 264Q98 194 123 141T193 58T301 28V28ZM270 656Q270 649 268 647T258 644H231Q224 644 222 646T220 654V732Q220 742 229 742H261Q270 742 270 732V656ZM381 656Q381 649 379 647T369 644H342Q335 644 333 646T331 654V732Q331
742 340 742H372Q381 742 381 732V656Z" />
<glyph unicode="&#xf7;" horiz-adv-x="541" d="M312 185Q312 174 299 174H240Q230 174 230 184V244Q230 253 237 253H305Q312 253 312 245V185ZM471 362Q471 354 461 354L78 353Q74 353 72 354T70 360V384Q70 391 75 391L464 392Q471 392 471 386V362ZM312 503Q312
492 299 492H240Q230 492 230 502V562Q230 571 237 571H305Q312 571 312 563V503Z" />
<glyph unicode="&#xf8;" horiz-adv-x="575" d="M51 4Q47 0 43 0T35 4L24 16Q15 25 25 35L522 524Q531 533 539 524L552 511Q558 503 552 497L51 4ZM297 -10Q224 -10 169 24T84 120T54 262Q54 344 84 406T170 504T298 540Q371 540 425 505T509 408T540 264Q540
183 510 122T425 25T297 -10V-10ZM299 28Q361 28 405 57T474 140T498 264Q498 335 474 388T404 472T298 502Q237 502 192 472T121 389T96 264Q96 194 121 141T191 58T299 28V28Z" />
<glyph unicode="&#xf9;" horiz-adv-x="571" d="M246 28Q297 28 344 56T440 133V521Q440 530 449 530H471Q480 530 480 521V9Q480 0 472 0H451Q443 0 443 8V72Q443 77 442 78T435 75Q372 25 329 8T247 -10Q200 -10 163 8T105 60T83 137V520Q83 530 92 530H114Q123
530 123 521V159Q123 101 155 65T246 28V28ZM160 748Q162 753 168 751L397 660Q403 658 400 650L395 635Q394 631 392 630T384 630L157 704Q147 708 150 716L160 748V748Z" />
<glyph unicode="&#xfa;" horiz-adv-x="571" d="M246 28Q297 28 344 56T440 133V521Q440 530 449 530H471Q480 530 480 521V9Q480 0 472 0H451Q443 0 443 8V72Q443 77 442 78T435 75Q372 25 329 8T247 -10Q200 -10 163 8T105 60T83 137V520Q83 530 92 530H114Q123
530 123 521V159Q123 101 155 65T246 28V28ZM397 720Q400 712 390 708L163 634Q159 633 157 634T152 639L147 654Q144 662 150 664L379 755Q385 757 387 752L397 720Z" />
<glyph unicode="&#xfb;" horiz-adv-x="571" d="M246 28Q297 28 344 56T440 133V521Q440 530 449 530H471Q480 530 480 521V9Q480 0 472 0H451Q443 0 443 8V72Q443 77 442 78T435 75Q372 25 329 8T247 -10Q200 -10 163 8T105 60T83 137V520Q83 530 92 530H114Q123
530 123 521V159Q123 101 155 65T246 28V28ZM277 698Q270 704 268 704T258 698L196 650Q191 646 189 645T181 644H144Q139 644 139 647T142 654L241 733Q246 737 250 739T261 742H279Q285 742 288 739T295 734L393 654Q405 644 392 644H351Q347 644 344 645T336
650L277 698Z" />
<glyph unicode="&#xfc;" horiz-adv-x="571" d="M246 28Q297 28 344 56T440 133V521Q440 530 449 530H471Q480 530 480 521V9Q480 0 472 0H451Q443 0 443 8V72Q443 77 442 78T435 75Q372 25 329 8T247 -10Q200 -10 163 8T105 60T83 137V520Q83 530 92 530H114Q123
530 123 521V159Q123 101 155 65T246 28V28ZM237 656Q237 649 235 647T225 644H198Q191 644 189 646T187 654V732Q187 742 196 742H228Q237 742 237 732V656ZM348 656Q348 649 346 647T336 644H309Q302 644 300 646T298 654V732Q298 742 307 742H339Q348 742 348
732V656Z" />
<glyph unicode="&#xfd;" horiz-adv-x="508" d="M108 -165Q79 -165 62 -164T44 -155V-140Q44 -133 49 -131T73 -129H133Q157 -129 176 -111T209 -66T226 -11T222 37L33 518Q31 523 32 526T41 530H62Q67 530 70 529T74 522L248 78Q252 69 257 69T266 82L436 523Q438
527 440 528T446 530H468Q473 530 475 527T475 521L246 -77Q236 -102 222 -119T191 -146T153 -160T108 -165V-165ZM384 720Q387 712 377 708L150 634Q146 633 144 634T139 639L134 654Q131 662 137 664L366 755Q372 757 374 752L384 720Z" />
<glyph unicode="&#xfe;" horiz-adv-x="588" d="M119 742Q129 742 129 731V468Q129 460 132 459T141 464Q149 473 167 491T219 524T304 540Q368 540 419 511T501 423T532 275Q532 190 503 126T420 26T292 -10Q241 -10 204 6T145 40Q137 47 134 45T131 33V-155Q131
-165 122 -165H99Q91 -165 91 -156V730Q91 737 93 739T103 742H119V742ZM131 104Q168 69 206 49T291 28Q349 28 393 57T464 140T490 271Q490 351 463 402T393 477T299 502Q249 502 211 480T152 426T131 364V104V104Z" />
<glyph unicode="&#xff;" horiz-adv-x="508" d="M108 -165Q79 -165 62 -164T44 -155V-140Q44 -133 49 -131T73 -129H133Q157 -129 176 -111T209 -66T226 -11T222 37L33 518Q31 523 32 526T41 530H62Q67 530 70 529T74 522L248 78Q252 69 257 69T266 82L436 523Q438
527 440 528T446 530H468Q473 530 475 527T475 521L246 -77Q236 -102 222 -119T191 -146T153 -160T108 -165V-165ZM224 656Q224 649 222 647T212 644H185Q178 644 176 646T174 654V732Q174 742 183 742H215Q224 742 224 732V656ZM335 656Q335 649 333 647T323 644H296Q289
644 287 646T285 654V732Q285 742 294 742H326Q335 742 335 732V656Z" />
<glyph unicode="&#x2013;" horiz-adv-x="541" d="M471 248Q471 240 461 240L78 239Q74 239 72 240T70 246V272Q70 279 75 279L464 280Q471 280 471 274V248Z" />
<glyph unicode="&#x2014;" horiz-adv-x="862" d="M792 248Q792 240 782 240L78 239Q74 239 72 240T70 246V272Q70 279 75 279L785 280Q792 280 792 274V248Z" />
<glyph unicode="&#x2018;" horiz-adv-x="210" d="M156 742Q159 742 160 740T161 735L116 642Q113 635 114 632T120 628H137Q142 628 143 626T145 621V552Q145 546 139 546H66Q60 546 60 552V614Q60 616 62 620L128 737Q130 740 132 741T139 742H156V742Z" />
<glyph unicode="&#x2019;" horiz-adv-x="210" d="M54 546Q51 546 50 548T49 553L94 646Q97 653 96 656T90 660H73Q69 660 67 662T65 667V736Q65 742 71 742H144Q150 742 150 736V674Q150 672 148 668L82 551Q81 548 79 547T71 546H54V546Z" />
<glyph unicode="&#x201a;" horiz-adv-x="210" d="M54 -114Q51 -114 50 -112T49 -107L94 -14Q97 -7 96 -4T90 0H73Q69 0 67 2T65 7V76Q65 82 71 82H144Q150 82 150 76V14Q150 12 148 8L82 -109Q81 -112 79 -113T71 -114H54V-114Z" />
<glyph unicode="&#x201c;" horiz-adv-x="356" d="M212 546Q206 546 206 552V614Q206 616 208 620L274 737Q276 740 278 741T285 742H302Q305 742 306 740T307 735L262 642Q259 635 260 632T266 628H283Q288 628 289 626T291 621V552Q291 546 285 546H212V546ZM66
546Q60 546 60 552V614Q60 616 62 620L128 737Q130 740 132 741T139 742H156Q159 742 160 740T161 735L116 642Q113 635 114 632T120 628H137Q142 628 143 626T145 621V552Q145 546 139 546H66V546Z" />
<glyph unicode="&#x201d;" horiz-adv-x="356" d="M200 546Q197 546 196 548T195 553L240 646Q243 653 242 656T236 660H219Q215 660 213 662T211 667V736Q211 742 217 742H290Q296 742 296 736V674Q296 672 294 668L228 551Q227 548 225 547T217 546H200V546ZM54
546Q51 546 50 548T49 553L94 646Q97 653 96 656T90 660H73Q69 660 67 662T65 667V736Q65 742 71 742H144Q150 742 150 736V674Q150 672 148 668L82 551Q81 548 79 547T71 546H54V546Z" />
<glyph unicode="&#x201e;" horiz-adv-x="356" d="M200 -114Q197 -114 196 -112T195 -107L240 -14Q243 -7 242 -4T236 0H219Q215 0 213 2T211 7V76Q211 82 217 82H290Q296 82 296 76V14Q296 12 294 8L228 -109Q227 -112 225 -113T217 -114H200V-114ZM54 -114Q51
-114 50 -112T49 -107L94 -14Q97 -7 96 -4T90 0H73Q69 0 67 2T65 7V76Q65 82 71 82H144Q150 82 150 76V14Q150 12 148 8L82 -109Q81 -112 79 -113T71 -114H54V-114Z" />
<glyph unicode="&#x2022;" horiz-adv-x="294" d="M147 305Q127 305 111 314T85 340T75 377Q75 397 84 413T110 439T147 449Q167 449 183 440T209 414T219 377Q219 357 210 341T184 315T147 305V305Z" />
<glyph unicode="&#x2039;" horiz-adv-x="253" d="M203 83Q207 78 196 78H184Q178 78 176 82L38 250Q32 257 37 263L177 441Q179 444 180 444T184 445H198Q201 445 203 443T203 437L89 263Q85 256 89 251L203 83Z" />
<glyph unicode="&#x203a;" horiz-adv-x="254" d="M165 251Q170 257 165 263L51 437Q49 441 51 443T56 445H70Q72 445 73 445T77 441L217 263Q222 258 216 250L78 82Q76 78 70 78H58Q49 78 51 83L165 251V251Z" />
</font>
</defs>
</svg>
