<?xml version="1.0" standalone="no"?>
<!DOCTYPE svg PUBLIC "-//W3C//DTD SVG 1.1//EN" "http://www.w3.org/Graphics/SVG/1.1/DTD/svg11.dtd">
<svg xmlns="http://www.w3.org/2000/svg">
<defs >
<font id="LibreFranklin" horiz-adv-x="567" ><font-face
    font-family="Libre Franklin Thin Black"
    units-per-em="1000"
    panose-1="0 0 0 0 0 0 0 0 0 0"
    ascent="966"
    descent="-246"
    alphabetic="0" />
<glyph unicode=" " horiz-adv-x="200" />
<glyph unicode="!" horiz-adv-x="277" d="M207 23Q205 7 199 4T175 0H25Q10 0 4 9T-2 31L19 181Q21 192 24 194T36 197H209Q218 197 224 189T228 171L207 23ZM205 288Q201 273 196 270T173 266H104Q89 266 84 275T79 297L90 725Q90 736 93 739T106 742H295Q303
742 309 734T314 715L205 288Z" />
<glyph unicode="&quot;" horiz-adv-x="509" d="M425 434Q421 418 416 415T392 411H350Q335 411 329 420T324 442V726Q324 737 328 739T340 742H485Q494 742 500 734T504 716L425 434ZM425 434Q421 418 416 415T392 411H350Q335 411 329 420T324 442V726Q324 737
328 739T340 742H485Q494 742 500 734T504 716L425 434Z" />
<glyph unicode="#" horiz-adv-x="603" d="M156 25Q152 7 148 3T125 1L88 6Q73 8 64 14T58 35L255 723Q259 734 262 738T274 741L334 735Q342 734 348 727T353 710L156 25ZM380 25Q376 7 372 3T349 1L312 6Q297 8 288 14T282 35L479 723Q483 734 486 738T498 741L558
735Q566 734 572 727T577 710L380 25ZM562 244Q560 229 554 226T530 222H29Q14 222 8 231T3 253L10 301Q12 312 17 315T32 318H555Q563 318 566 310T569 292L562 244ZM625 454Q623 439 616 436T592 432H91Q76 432 70 441T66 463L73 511Q75 522 80 525T95 528H618Q626
528 629 520T631 502L625 454Z" />
<glyph unicode="$" horiz-adv-x="687" d="M649 223Q641 163 607 116T519 38T394 -2Q377 -3 371 -9T362 -28L359 -50Q357 -65 351 -69T328 -73H261Q246 -73 240 -64T235 -41L239 -14Q241 -3 240 -2T231 -1Q161 4 111 26T20 85Q4 93 -2 102T1 121L91 208Q102 219
110 214T123 198Q146 179 175 162T236 136Q249 135 256 141T265 155L283 278Q284 286 284 288T280 293Q194 304 147 338T83 422T75 526Q82 576 111 617T191 689T315 736Q325 737 337 744T351 761L355 792Q357 800 359 801T367 802H452Q463 802 470 795T475 774L470
740Q469 736 471 735T477 731Q527 720 566 703T633 662Q644 660 648 652T644 634L565 547Q557 539 550 542T535 558Q522 566 505 576T470 597Q461 598 454 591T446 579L430 464Q429 459 430 459T438 457L503 441Q551 429 586 398T639 322T649 223V223ZM327 592Q329
600 328 600T321 596Q281 589 261 570T237 528Q235 514 239 504T255 487T283 476Q297 475 305 483T315 505L327 592ZM384 138Q383 133 386 136T393 141Q432 146 456 166T483 211Q486 233 473 248T422 271Q403 271 400 252L384 138V138Z" />
<glyph unicode="%" horiz-adv-x="963" d="M290 753Q347 753 389 721T451 638T463 530Q456 479 425 434T348 362T247 334Q189 334 146 365T83 446T70 552Q78 604 110 650T189 724T290 753V753ZM243 432Q266 432 281 446T306 486T321 551Q329 604 324 630T291 656Q269
656 254 641T228 598T212 529Q205 480 210 456T243 432V432ZM748 409Q805 409 847 377T909 294T922 186Q915 135 884 90T806 18T705 -10Q647 -10 605 21T542 102T529 208Q537 260 568 306T647 380T748 409V409ZM702 88Q725 88 740 102T765 142T780 207Q785 243
785 266T776 300T750 312Q728 312 713 297T687 254T671 185Q666 152 666 131T675 99T702 88V88ZM250 3Q245 -4 239 -4T222 -4L170 -3Q154 -3 151 11T154 36L724 742Q732 752 737 751T751 750H817Q825 750 832 743T831 725L250 3Z" />
<glyph unicode="&amp;" horiz-adv-x="878" d="M461 753Q536 753 590 731T672 669T692 578Q688 550 666 518T611 455T539 405Q514 402 522 389L586 316Q592 309 598 314T612 333Q622 342 631 351T647 370T662 393T676 421Q682 426 687 425T703 420L799 388Q810
385 815 373T816 346Q803 326 789 307T756 265T712 208Q702 202 699 199T700 188Q714 182 728 178T759 172T794 167Q809 167 816 159T821 140L805 23Q803 10 799 5T786 0Q732 0 689 8T612 31T550 71Q538 75 532 71T517 56Q459 24 400 10T268 -5Q141 -5 79 50T31
206Q39 262 85 309T228 409Q242 413 246 419T245 438Q220 466 208 504T200 581Q208 632 244 670T336 731T461 753V753ZM470 638Q450 638 434 629T408 607T396 578Q395 574 398 564T406 545L438 501Q442 497 449 502T459 512Q482 520 500 540T523 589Q526 612 512
625T470 638V638ZM340 300Q333 309 326 304T314 292Q288 281 269 259T246 210Q242 183 262 162T317 140Q340 140 366 150T408 175Q416 177 422 182T423 196L340 300V300Z" />
<glyph unicode="&apos;" horiz-adv-x="253" d="M206 434Q202 418 197 415T173 411H131Q116 411 110 420T105 442V726Q105 737 109 739T121 742H266Q275 742 281 734T285 716L206 434Z" />
<glyph unicode="(" horiz-adv-x="332" d="M139 -165Q123 -165 120 -142Q88 -74 66 -7T35 134T39 296Q56 417 108 528T234 737Q247 742 263 742H368Q377 742 380 734T381 717Q339 654 304 583T245 433T208 273Q193 164 205 61T253 -158Q262 -165 248 -165H139V-165Z" />
<glyph unicode=")" horiz-adv-x="332" d="M-29 -165Q-38 -165 -41 -157T-42 -140Q0 -77 35 -6T95 144T131 304Q146 414 134 516T86 735Q77 742 91 742H200Q216 742 219 719Q251 651 273 584T303 443T299 281Q282 160 231 49T105 -160Q93 -165 76 -165H-29V-165Z" />
<glyph unicode="*" horiz-adv-x="521" d="M292 426Q290 430 286 425T279 416L186 289Q182 283 175 286T161 295L99 343Q92 349 89 355T92 369L203 477Q206 481 208 484T204 488L77 525Q70 527 66 535T66 554L104 628Q108 636 111 636T122 631L241 573Q247 570
253 576T260 588L269 732Q269 737 270 739T280 742H370Q378 742 383 734T387 720L352 575Q350 569 350 571T358 575L495 633Q504 637 511 631T519 613L533 540Q535 531 533 527T522 520L387 484Q381 483 377 478T375 468L451 363Q456 357 456 350T445 334L379 293Q368
286 359 291T348 302L292 426Z" />
<glyph unicode="+" horiz-adv-x="600" d="M570 325Q569 310 562 307T538 303H75Q60 303 54 312T50 334L63 427Q65 438 68 441T80 444H565Q573 444 579 436T584 418L570 325ZM242 113Q227 113 220 124T215 152L280 615Q282 630 286 632T304 635H397Q408 635 415
627T420 610L352 125Q351 117 348 115T335 113H242Z" />
<glyph unicode="," horiz-adv-x="279" d="M-12 -165Q-26 -165 -16 -145L51 -37Q63 -17 59 -9T43 0H18Q3 0 -1 4T-3 21L19 170Q21 181 27 189T41 198H216Q234 198 231 179L210 38Q209 31 206 25T200 16L64 -137Q49 -154 39 -159T17 -165H-12V-165Z" />
<glyph unicode="-" horiz-adv-x="380" d="M332 215Q330 200 324 197T300 193H61Q46 193 40 202T35 224L48 316Q50 327 53 330T66 333H327Q335 333 341 325T345 307L332 215Z" />
<glyph unicode="." horiz-adv-x="279" d="M208 23Q206 7 200 4T176 0H26Q11 0 5 9T-1 31L21 185Q23 196 26 198T38 201H211Q220 201 225 193T229 175L208 23Z" />
<glyph unicode="/" horiz-adv-x="380" d="M-16 0Q-27 0 -33 7T-35 24L314 729Q319 737 324 739T339 742H422Q437 742 442 732T440 704L102 21Q95 6 88 3T67 0H-16V0Z" />
<glyph unicode="0" horiz-adv-x="722" d="M423 753Q510 753 574 712T673 598T709 430Q709 413 708 395T704 358Q689 250 637 168T506 39T332 -8Q243 -8 178 32T78 144T42 310Q42 327 43 344T47 380Q59 461 92 529T176 647T290 725T423 753V753ZM337 148Q376 148
403 171T448 245T477 379Q482 414 484 442T487 492Q487 550 470 574T416 599Q378 599 351 574T305 496T274 357Q270 325 268 299T265 251Q265 195 282 172T337 148V148Z" />
<glyph unicode="1" horiz-adv-x="537" d="M475 164Q495 164 492 146L474 16Q473 7 469 4T451 0H19Q6 0 3 4T1 19L19 151Q20 159 24 161T39 164H132Q145 164 146 179L193 513Q194 518 192 520T182 520L93 500Q66 494 69 520L83 615Q85 628 88 632T101 641L293 730Q310
738 320 740T345 742H436Q452 742 449 721L372 173Q371 164 380 164H475V164Z" />
<glyph unicode="2" horiz-adv-x="673" d="M262 332Q339 389 379 423T435 481T450 527Q450 547 443 561T421 582T380 590Q339 590 301 560T230 476Q225 466 214 472L72 551Q67 554 67 561T79 585Q135 665 218 708T398 752Q484 752 544 726T637 651T669 540Q669
488 651 449T598 377T511 311L335 198Q327 193 327 189T333 185H604Q628 185 625 166L605 16Q604 7 600 4T582 0H23Q-9 0 -4 31L10 130Q11 136 14 141T31 159T74 193L262 332Z" />
<glyph unicode="3" horiz-adv-x="685" d="M104 628Q93 639 109 654Q139 681 185 703T285 739T395 752Q529 752 602 702T675 569Q675 529 655 493T603 431T533 394Q526 392 526 389T531 383Q588 367 619 326T651 233Q651 147 605 93T480 15T302 -10Q232 -10 174
9T75 61T12 135Q3 153 10 158L126 233Q134 238 139 237T147 232Q188 186 223 166T310 146Q343 146 370 157T414 190T430 237Q430 256 419 270T387 293T337 302L243 304Q230 304 231 317L248 449Q249 458 267 458L334 460Q367 461 394 473T437 506T453 552Q453 573
434 586T383 600Q353 600 328 592T277 569T218 528Q206 519 197 528L104 628V628Z" />
<glyph unicode="4" horiz-adv-x="716" d="M410 721Q424 735 432 738T461 742H629Q649 742 646 722L589 317Q588 310 596 310H675Q686 310 690 307T693 293L676 175Q675 165 671 162T654 159H579Q566 159 564 144L548 23Q546 8 540 4T516 0H345Q315 0 318 23L336
151Q337 159 327 159H36Q13 159 16 178L32 291Q34 302 42 315T69 350L410 721V721ZM348 310Q362 310 363 323L390 511Q393 529 377 510L212 321Q206 314 206 312T213 310H348Z" />
<glyph unicode="5" horiz-adv-x="690" d="M647 742Q662 742 665 736T666 715L641 579Q639 569 634 566T615 562H311Q301 562 297 559T289 545L271 471Q270 467 271 466T279 465Q323 476 350 480T408 484Q483 484 540 459T628 386T660 271Q660 181 615 118T493
23T318 -10Q243 -10 183 9T79 60T13 131Q5 145 6 151T17 163L136 239Q143 244 150 239T166 223Q192 192 220 169T300 146Q342 146 373 161T420 203T437 258Q437 276 428 291T398 316T345 326Q328 326 312 323T279 312T239 294Q232 290 225 291T210 297L92 365Q83
370 83 382T85 409L159 718Q163 735 170 738T203 742H647Z" />
<glyph unicode="6" horiz-adv-x="701" d="M433 750Q480 750 524 736T604 697T661 640T682 573Q682 564 672 561L527 519Q517 517 502 544Q489 567 475 581T428 596Q391 596 360 577T309 523T281 442Q280 438 280 436T280 432Q280 430 282 429T292 432Q320 446
355 453T429 461Q502 461 556 436T641 365T671 261Q671 200 643 151T568 66T460 11T334 -8Q241 -8 176 29T75 134T40 292Q40 309 41 326T45 363Q62 485 116 571T253 704T433 750V750ZM372 317Q354 317 334 312T298 300T274 288Q261 280 258 264T254 225Q254 203
259 187T274 159T298 142T330 136Q362 136 389 153T432 198T448 254Q448 287 425 302T372 317V317Z" />
<glyph unicode="7" horiz-adv-x="632" d="M642 742Q661 742 665 731T668 708L655 641Q651 621 641 602T617 568Q576 518 539 461T469 344T410 227T367 117T341 22Q338 9 334 5T317 0H106Q93 0 87 11T85 40Q109 93 136 145T198 255T282 384T401 548Q406 555 405
558T392 562H93Q77 562 73 569T72 588L106 726Q108 736 114 739T134 742H642Z" />
<glyph unicode="8" horiz-adv-x="693" d="M398 752Q479 752 541 726T638 656T673 555Q673 524 663 501T634 461T595 430T551 405Q544 401 544 399T550 391Q562 382 580 371T617 343T647 299T660 231Q660 171 632 126T553 51T438 6T301 -10Q217 -10 153 10T52 71T16
170Q16 208 32 240T79 300T159 349Q167 352 167 356T160 366Q143 379 125 395T95 436T83 500Q83 566 121 623T230 716T398 752V752ZM402 607Q369 607 346 596T310 567T297 529Q297 516 304 504T334 484L395 462Q413 456 429 462T458 483T478 514T485 548Q485 575
463 591T402 607V607ZM309 135Q352 135 379 145T420 174T434 215Q434 232 424 244T381 269L313 294Q296 300 278 293T244 271T219 236T209 196Q209 166 234 151T309 135V135Z" />
<glyph unicode="9" horiz-adv-x="701" d="M298 -8Q240 -8 195 9T118 52T68 108T47 163Q46 176 59 181L201 222Q220 227 229 203Q239 177 255 162T303 146Q340 146 371 164T422 217T450 300Q450 309 447 310T432 306Q400 293 371 287T302 281Q229 281 175 306T90
377T60 481Q60 542 88 591T163 676T271 731T397 750Q490 750 556 713T656 608T691 450Q691 358 664 275T585 129T461 29T298 -8V-8ZM358 425Q377 425 393 429T424 440T453 455Q469 463 473 479T477 517Q477 539 472 555T457 583T433 600T401 606Q369 606 342 589T299
544T283 488Q283 455 305 440T358 425V425Z" />
<glyph unicode=":" horiz-adv-x="279" d="M254 351Q252 336 246 332T222 328H72Q57 328 51 337T45 360L66 509Q68 520 72 522T84 525H257Q266 525 271 517T275 499L254 351ZM208 26Q207 11 201 7T176 3H26Q11 3 5 12T0 35L21 184Q23 195 26 197T38 200H211Q220
200 225 192T229 174L208 26Z" />
<glyph unicode=";" horiz-adv-x="279" d="M-1 -169Q-11 -169 -17 -159T-20 -139L48 -27Q56 -12 58 -6T48 0H26Q11 0 5 9T-1 31L20 182Q22 193 26 195T38 198H211Q220 198 225 190T229 172L208 26Q207 16 204 12L68 -151Q58 -162 45 -165T21 -169H-1V-169ZM71 321Q56
321 50 330T44 352L66 506Q68 517 71 519T83 522H256Q265 522 270 514T274 496L253 344Q251 328 245 325T221 321H71V321Z" />
<glyph unicode="&lt;" horiz-adv-x="599" d="M522 108Q519 89 510 87T486 91L66 261Q55 266 47 276T40 299L55 410Q57 425 64 431T84 442L552 613Q568 619 579 607T588 580L575 484Q573 468 563 459T528 441L258 348L493 254Q516 245 527 234T535 204L522 108Z" />
<glyph unicode="=" horiz-adv-x="600" d="M584 421Q582 406 576 403T552 399H89Q74 399 68 408T63 430L76 523Q78 534 81 537T94 540H579Q587 540 593 532T597 514L584 421ZM550 180Q548 165 542 162T518 158H55Q40 158 34 167T29 189L42 282Q44 293 47 296T60
299H545Q553 299 559 291T563 273L550 180Z" />
<glyph unicode="&gt;" horiz-adv-x="599" d="M48 216Q50 234 60 241T95 258L365 348L129 445Q83 464 87 496L101 592Q106 622 136 609L556 438Q568 434 576 424T583 398L567 287Q566 274 559 268T539 257L72 87Q56 81 44 91T35 120L48 216V216Z" />
<glyph unicode="?" horiz-adv-x="545" d="M323 23Q321 7 315 4T291 0H140Q125 0 119 9T114 31L135 181Q137 192 140 194T152 197H325Q333 197 339 189T344 171L323 23ZM52 562Q42 564 40 575T41 599Q85 675 156 713T324 752Q404 752 460 727T544 659T565 569Q559
526 536 497T481 445T418 401T363 351T333 282Q331 269 311 269H206Q194 269 187 280T181 309Q188 357 208 392T255 452T306 498T350 537T371 580Q374 600 359 611T320 622Q297 622 275 612T234 582T201 535Q195 529 191 530T176 534L52 562Z" />
<glyph unicode="@" horiz-adv-x="834" d="M630 -54Q594 -75 529 -94T383 -113Q289 -113 219 -83T103 0T41 124T34 273Q45 352 83 422T181 546T322 630T498 661Q569 661 633 642T745 581T815 477T826 327Q816 254 784 199T705 112T599 81Q566 81 546 90T515 112T500
133Q496 135 492 129T485 113Q459 93 425 80T352 67Q304 67 270 90T220 156T212 255Q220 312 251 362T331 444T444 475Q489 475 509 460T542 425Q547 425 552 431T559 442L561 447Q562 451 563 450T569 449H656Q661 449 664 445T667 435L603 230Q594 201 598 193T612
185Q632 185 654 202T694 254T719 343Q728 407 714 449T668 515T593 550T499 560Q415 560 352 536T246 469T178 371T144 254Q134 184 147 133T195 47T280 -4T397 -21Q443 -21 474 -14T530 7T578 35Q589 38 594 33T600 23L634 -30Q637 -36 636 -41T630 -54V-54ZM342
247Q339 221 348 200T388 178Q416 178 440 195T481 239T501 294Q504 312 500 328T485 354T454 364Q430 364 406 349T365 307T342 247V247Z" />
<glyph unicode="A" horiz-adv-x="799" d="M-4 0Q-15 0 -15 10T-5 42L334 724Q340 736 349 739T372 742H569Q582 742 587 732T594 710L739 29Q741 19 738 10T724 0H528Q514 0 509 22L486 135Q485 144 473 144H263Q251 144 244 131L184 10Q181 4 177 2T162 0H-4V0ZM446
314Q463 314 458 334L422 501Q421 511 416 511T406 502L323 330Q319 320 321 317T332 314H446Z" />
<glyph unicode="B" horiz-adv-x="739" d="M32 0Q22 0 20 6T19 28L116 722Q119 742 140 742H438Q581 742 656 697T732 565Q732 491 688 449T577 383Q570 381 570 378T574 372Q642 349 672 313T702 223Q702 154 673 110T595 42T485 9T361 0H32V0ZM366 150Q385 150
403 157T437 177T462 208T471 247Q471 263 463 274T439 291T400 298H301Q291 298 287 294T281 278L265 166Q264 156 266 153T276 150H366ZM413 452Q436 452 457 463T492 495T506 541Q506 566 486 579T434 592H347Q334 592 329 587T321 571L308 468Q307 458 309
455T318 452H413Z" />
<glyph unicode="C" horiz-adv-x="737" d="M445 752Q532 752 595 721T695 635T734 511Q735 487 716 486L547 476Q531 475 529 506Q526 546 510 572T446 598Q404 598 375 576T326 518T295 439T280 354T275 276Q275 208 298 181T366 154Q419 154 463 181T538 270Q546
287 569 281L704 249Q716 246 703 210Q698 196 682 170T638 112T569 54T474 8T352 -10Q255 -10 186 32T80 147T43 317Q43 387 59 451T109 570T190 666T303 729T445 752V752Z" />
<glyph unicode="D" horiz-adv-x="771" d="M48 0Q33 0 26 10T20 36L116 723Q118 735 122 738T141 742H391Q512 742 593 702T717 590T759 429Q759 301 703 204T547 54T311 0H48V0ZM338 157Q402 157 443 196T503 299T523 442Q523 489 508 521T466 569T401 585H342Q324
585 321 565L268 176Q267 167 270 162T281 157H338Z" />
<glyph unicode="E" horiz-adv-x="671" d="M117 725Q119 736 122 739T134 742H678Q697 742 692 715L675 599Q674 587 669 583T650 578H340Q331 578 327 575T321 560L308 468Q307 458 309 456T319 453H508Q519 453 521 449T522 436L504 305Q503 292 488 292H295Q283
292 280 276L266 177Q265 164 273 164H606Q617 164 619 160T620 145L603 16Q602 7 598 4T581 0H43Q15 0 19 31L117 725V725Z" />
<glyph unicode="F" horiz-adv-x="650" d="M117 725Q119 736 122 739T134 742H675Q689 742 686 723L668 599Q667 587 663 583T644 578H335Q328 578 325 574T320 556L306 459Q305 450 307 448T317 445H512Q520 445 522 443T524 432L505 300Q504 291 500 289T485
286H295Q288 286 285 283T279 265L245 23Q243 8 239 4T219 0H38Q22 0 19 5T19 31L117 725V725Z" />
<glyph unicode="G" horiz-adv-x="761" d="M349 -10Q253 -10 184 30T78 141T41 308Q41 401 71 481T156 623T286 718T453 752Q545 752 609 718T707 632T744 522Q744 498 735 497L558 472Q553 471 550 477T543 503Q538 528 528 549T497 584T443 597Q395 597 363 567T312
488T284 383T275 274Q275 198 301 172T371 146Q394 146 412 151T446 166T473 190T496 220L501 228Q510 242 491 242H395Q384 242 385 258L397 364Q398 377 409 377L715 375Q730 375 734 371T736 354L688 14Q686 0 670 0H635Q618 0 610 17L580 76Q576 83 570 82T556
73Q539 56 512 37T446 4T349 -10V-10Z" />
<glyph unicode="H" horiz-adv-x="762" d="M299 297Q292 297 288 293T281 276L245 23Q243 7 237 4T213 0H38Q22 0 20 4T18 22L117 725Q119 736 122 739T134 742H333Q341 742 343 739T343 725L310 486Q309 476 311 473T322 469H498Q506 469 510 477T515 495L548
727Q550 737 554 739T566 742H763Q771 742 773 737T773 713L675 19Q674 6 670 3T650 0H475Q458 0 453 6T450 28L486 288Q487 297 471 297H299Z" />
<glyph unicode="I" horiz-adv-x="331" d="M328 742Q345 742 342 715L245 23Q243 7 237 4T213 0H39Q23 0 21 9T19 31L117 725Q119 736 122 739T134 742H328Z" />
<glyph unicode="J" horiz-adv-x="467" d="M412 206Q401 124 368 77T281 10T151 -10Q117 -10 86 -7T23 5Q4 10 -2 15T-7 31L21 162Q23 173 27 177T40 180Q55 178 68 177T94 175Q134 175 160 199T194 274L258 725Q260 736 263 739T276 742H471Q488 742 483 715L412
206V206Z" />
<glyph unicode="K" horiz-adv-x="772" d="M709 26Q719 0 692 0H497Q474 0 469 25L385 303Q382 311 377 305T363 288L279 198Q275 194 272 188T266 174L245 23Q244 10 237 5T213 0H37Q24 0 21 9T19 31L117 725Q119 736 122 739T134 742H324Q333 742 338 734T342
715L307 462Q305 450 309 455T319 468L541 726Q551 737 558 739T584 742H756Q773 742 776 736T768 718L566 507Q559 499 556 493T554 475L709 26V26Z" />
<glyph unicode="L" horiz-adv-x="643" d="M116 722Q119 742 134 742H330Q347 742 342 715L267 181Q264 164 278 164H582Q600 164 597 139L580 16Q579 6 574 3T557 0H43Q16 0 19 31L116 722V722Z" />
<glyph unicode="M" horiz-adv-x="977" d="M35 0Q23 0 20 6T20 34L117 725Q119 737 122 739T136 742H416Q429 742 435 736T443 719L503 403Q504 397 507 397T513 403L654 718Q663 742 681 742H977Q993 742 990 726L891 23Q889 7 883 4T860 0H691Q676 0 669 6T665
31L727 470Q729 478 726 478T717 468L508 13Q504 5 499 3T485 0H380Q371 0 366 4T357 23L276 465Q274 476 269 476T262 467L198 16Q197 6 193 3T178 0H35V0Z" />
<glyph unicode="N" horiz-adv-x="761" d="M762 742Q776 742 774 726L673 12Q672 0 653 0H516Q509 0 504 5T492 20L267 393Q264 398 260 397T254 385L202 19Q201 7 197 4T178 0H34Q23 0 20 7T18 26L117 725Q119 736 122 739T137 742H300Q312 742 318 736T331 719L526
387Q531 378 537 379T545 392L592 727Q594 737 597 739T612 742H762Z" />
<glyph unicode="O" horiz-adv-x="780" d="M360 -10Q260 -10 189 28T80 138T42 306Q42 323 43 342T47 380Q63 494 118 577T259 706T451 752Q549 752 620 713T729 601T767 431Q767 414 766 396T762 358Q746 246 692 163T552 35T360 -10V-10ZM366 146Q434 146 472
199T527 377Q531 406 533 430T535 476Q535 541 514 569T446 598Q378 598 339 541T282 355Q278 327 276 304T274 260Q274 198 296 172T366 146V146Z" />
<glyph unicode="P" horiz-adv-x="731" d="M295 266Q285 266 282 262T277 249L245 23Q243 7 237 4T213 0H36Q13 0 19 31L117 725Q119 736 122 739T134 742H465Q541 742 602 718T701 646T738 527Q738 446 698 388T588 298T432 266H295ZM507 526Q507 553 488 567T437
582H344Q331 582 327 577T320 560L304 442Q303 431 305 429T315 426H413Q440 426 461 441T494 479T507 526V526Z" />
<glyph unicode="Q" horiz-adv-x="782" d="M47 380Q63 494 118 577T259 706T451 752Q550 752 621 713T730 601T768 431Q768 414 767 396T763 358Q751 272 716 202T621 79Q610 70 614 63Q620 54 633 47T663 35T699 27Q708 26 712 23T714 11L698 -103Q696 -119 690
-123T659 -128Q616 -128 578 -115T507 -75T450 -7Q444 3 429 -1Q410 -6 394 -8T360 -10Q260 -10 189 28T80 138T42 306Q42 323 43 342T47 380V380ZM282 356Q278 328 276 304T274 260Q274 198 296 172T366 146Q435 146 473 200T528 378Q532 407 534 431T536 476Q536
541 515 569T446 598Q378 598 339 541T282 356V356Z" />
<glyph unicode="R" horiz-adv-x="739" d="M667 27Q676 0 650 0H456Q446 0 440 5T430 26L372 284Q371 290 368 292T357 295H297Q284 295 282 283L245 23Q243 7 235 4T209 0H41Q26 0 22 9T19 31L117 725Q119 736 122 739T134 742H468Q602 742 675 692T748 551Q748
502 729 458T675 380T595 327Q582 322 580 318T579 307L667 27V27ZM417 444Q446 444 467 457T501 492T513 537Q513 566 492 580T440 594H338Q326 594 323 574L306 459Q305 449 308 447T317 444H417V444Z" />
<glyph unicode="S" horiz-adv-x="701" d="M539 552Q521 568 488 583T402 598Q369 598 345 591T307 570T293 536Q293 521 302 511T326 494T353 483L513 431Q592 406 631 365T671 259Q671 172 624 112T498 21T321 -10Q204 -10 126 28T12 131Q7 142 7 148T15 159L121
224Q135 232 145 228T164 214Q187 189 208 172T259 146T341 137Q369 137 393 143T433 163T449 204Q449 224 433 237T388 258L241 303Q165 326 123 375T81 490Q81 550 107 598T180 680T285 733T410 752Q476 752 529 736T622 695T684 639Q691 629 692 622T685 610L570
536Q563 532 556 538T539 552V552Z" />
<glyph unicode="T" horiz-adv-x="704" d="M93 725Q95 735 99 738T116 742H724Q737 742 739 738T740 725L722 594Q721 586 717 584T702 581H525Q515 581 512 578T507 565L430 19Q429 8 424 4T411 0H223Q210 0 206 6T204 26L281 569Q282 581 271 581H92Q72 581 75
597L93 725Z" />
<glyph unicode="U" horiz-adv-x="728" d="M687 287Q671 172 623 107T501 16T333 -10Q177 -10 111 53T45 234Q45 254 47 275T52 319L109 725Q111 736 114 739T126 742H316Q325 742 330 734T334 715L274 283Q273 271 272 261T270 240Q270 189 293 169T357 149Q390
149 420 163T472 210T502 298L562 725Q564 736 567 739T579 742H729Q738 742 743 734T747 715L687 287V287Z" />
<glyph unicode="V" horiz-adv-x="751" d="M780 742Q806 742 794 717L461 20Q455 7 447 4T424 0H262Q247 0 239 4T229 20L91 718Q85 742 108 742H305Q320 742 324 716L396 284Q399 267 406 283L596 726Q600 736 606 739T621 742H780V742Z" />
<glyph unicode="W" horiz-adv-x="1109" d="M1133 742Q1153 742 1154 733T1145 697L846 20Q839 7 832 4T810 0H672Q657 0 649 4T639 21L582 380Q581 389 578 389T570 380L413 20Q407 7 400 4T377 0H232Q204 0 200 24L90 707Q87 724 93 733T118 742H285Q301 742
307 735T315 716L369 349Q371 339 374 339T381 348L541 726Q545 736 551 739T573 742H717Q733 742 737 735T742 716L799 341Q800 335 804 335T811 343L968 726Q972 736 977 739T999 742H1133V742Z" />
<glyph unicode="X" horiz-adv-x="756" d="M686 46Q701 17 697 9T672 0H492Q477 0 468 3T454 19L368 213Q363 224 358 224T345 211L204 15Q197 4 187 2T161 0H12Q-9 0 -12 13T6 56L247 361Q257 372 259 379T258 397L97 717Q92 728 95 735T113 742H302Q319 742 326
738T338 721L408 559Q415 542 427 559L546 726Q554 737 561 739T585 742H749Q767 742 766 729T756 704L524 414Q513 401 512 394T515 378L686 46V46Z" />
<glyph unicode="Y" horiz-adv-x="774" d="M803 742Q816 742 818 734T816 718L525 336Q517 326 513 314T504 269L469 23Q467 7 461 4T437 0H261Q248 0 245 5T242 24L280 294Q282 310 281 318T275 337L94 719Q88 731 90 736T109 742H310Q324 742 330 735T341 716L434
494Q438 484 445 494L605 726Q613 737 618 739T638 742H803V742Z" />
<glyph unicode="Z" horiz-adv-x="714" d="M19 0Q4 0 -2 5T-7 26L-1 76Q1 90 5 100T23 126L395 566Q402 574 403 575T394 577H129Q104 577 107 607L124 727Q126 737 129 739T140 742H733Q750 742 747 720L739 665Q738 654 735 647T721 625L335 175Q326 166 337
166H646Q657 166 660 163T661 149L642 16Q641 7 637 4T620 0H19V0Z" />
<glyph unicode="[" horiz-adv-x="336" d="M19 -165Q6 -165 -2 -155T-10 -133L111 726Q113 737 117 739T135 742H369Q377 742 382 736T385 723L374 643Q373 636 371 636T362 635H286Q273 635 264 626T252 602L162 -43Q160 -56 162 -57T177 -58H254Q263 -58 268
-65T273 -80L262 -153Q261 -163 259 -164T247 -165H19V-165Z" />
<glyph unicode="\" horiz-adv-x="380" d="M246 0Q218 0 213 31L67 714Q63 731 65 736T83 742H166Q175 742 182 735T191 719L342 14Q344 5 342 3T329 0H246V0Z" />
<glyph unicode="]" horiz-adv-x="336" d="M-26 -165Q-34 -165 -38 -159T-42 -146L-31 -66Q-30 -59 -28 -59T-19 -58H57Q70 -58 79 -49T91 -25L181 620Q183 634 181 634T166 635H89Q80 635 75 642T70 657L81 730Q83 740 84 741T96 742H324Q338 742 346 732T353
710L232 -149Q231 -160 227 -162T208 -165H-26V-165Z" />
<glyph unicode="^" horiz-adv-x="475" d="M258 324Q255 335 247 330T234 314L128 124Q124 117 119 118T104 120H21Q12 120 8 129T7 149L214 509Q228 532 250 538T294 534T321 500L428 136Q431 125 429 123T416 120H337Q328 120 319 123T310 134L258 324Z" />
<glyph unicode="_" horiz-adv-x="562" d="M465 -138Q464 -153 457 -156T433 -160H10Q-5 -160 -11 -151T-15 -129L-2 -37Q0 -26 3 -23T15 -20H460Q468 -20 474 -28T478 -46L465 -138Z" />
<glyph unicode="`" horiz-adv-x="320" d="M104 739Q108 748 114 750T128 749L350 648Q359 644 361 639T360 625L339 578Q335 570 329 569T311 571L86 627Q70 631 67 637T67 654L104 739V739Z" />
<glyph unicode="a" horiz-adv-x="573" d="M296 40Q271 13 231 2T147 -10Q77 -10 38 28T-1 123Q-1 182 30 222T112 286T220 321T330 332H337Q356 332 359 352L362 369Q363 373 363 376T363 383Q363 403 352 412T318 421Q294 421 269 413T227 372Q224 366 219 364T201
364L74 390Q66 392 62 400T66 432Q98 491 165 515T328 540Q413 540 462 522T533 472T554 398Q554 391 554 384T552 369L503 21Q501 6 498 3T481 0H344Q331 0 328 9T323 32L322 44Q320 66 296 40V40ZM342 230Q344 239 343 241T333 242L319 241Q304 240 283 235T242
220T209 194T196 155Q196 139 207 128T240 116Q263 116 280 122T307 136Q317 144 325 155T335 177L342 230Z" />
<glyph unicode="b" horiz-adv-x="616" d="M35 0Q19 0 13 9T8 31L106 725Q108 736 111 739T123 742H294Q303 742 304 734T304 715L274 500Q273 492 276 491T289 496Q313 514 334 523T377 536T418 540Q476 540 515 514T576 441T597 326Q597 268 583 209T537 100T455
20T335 -10Q306 -10 280 0T231 28T191 74Q188 79 182 79T171 65L155 21Q151 8 145 4T129 0H35ZM229 179Q226 154 231 138T250 115T282 107Q318 107 341 132T376 196T393 273T398 341Q398 385 385 401T345 418Q319 418 298 406T258 374L229 179Z" />
<glyph unicode="c" horiz-adv-x="556" d="M329 540Q403 540 450 512T522 443T547 359Q547 350 544 347T527 343L395 336Q387 335 384 342T379 362Q378 373 376 385T364 405T332 414Q298 414 276 392T241 336T223 266T217 202Q217 153 235 134T285 114Q329 114
353 134T401 194Q404 199 419 197L511 179Q519 178 522 170T520 146Q514 129 496 103T447 51T371 8T267 -10Q193 -10 137 20T50 104T19 229Q19 292 41 348T105 448T203 515T329 540V540Z" />
<glyph unicode="d" horiz-adv-x="616" d="M370 0Q360 0 352 4T346 21L349 40Q351 48 347 49T334 44Q313 27 291 15T245 -4T192 -10Q113 -10 66 44T19 202Q19 270 37 330T88 438T166 513T265 540Q302 540 329 526T381 480Q388 471 396 472T409 502L441 724Q443
735 449 738T464 742H626Q642 742 638 713L540 22Q539 9 533 5T510 0H370ZM394 382Q381 401 368 408T334 416Q298 416 276 392T241 332T223 257T218 191Q218 161 224 143T244 118T275 110Q297 110 316 120T348 146T363 182L394 382Z" />
<glyph unicode="e" horiz-adv-x="590" d="M272 -10Q197 -10 140 20T51 103T18 226Q18 288 42 344T108 444T207 514T330 540Q402 540 456 511T541 428T572 298Q572 285 571 271T568 243Q567 234 562 232T544 229H235Q223 229 220 214T217 187Q217 153 241 138T302
122Q331 122 358 134T416 176Q422 182 428 182T444 177L529 140Q555 129 537 108Q493 60 453 35T370 0T272 -10V-10ZM365 327Q375 327 382 335T390 362Q390 382 378 402T333 423Q313 423 293 412T258 380T239 327H365Z" />
<glyph unicode="f" horiz-adv-x="418" d="M417 530Q430 530 433 526T435 512L421 413Q418 395 400 395H331Q323 395 320 377L269 16Q268 5 265 3T252 0H89Q81 0 75 8T70 26L121 387Q123 395 114 395H53Q43 395 41 402T40 420L53 514Q55 523 58 526T75 530H123Q131
530 137 537T145 554L152 607Q161 672 206 707T325 742H438Q452 742 460 736T467 718L456 626Q455 612 437 612H397Q380 612 362 599T340 565L337 543Q336 530 351 530H417V530Z" />
<glyph unicode="g" horiz-adv-x="653" d="M224 -174Q99 -174 25 -145T-50 -61Q-50 -23 -18 -2T55 31Q67 35 68 40T59 50Q34 59 21 75T7 121Q7 150 25 171T71 207T124 230Q137 235 139 239T131 248Q94 261 72 290T50 361Q50 409 72 442T133 497T217 528T312 538Q389
538 432 522T496 486Q504 479 514 487T533 506Q549 525 571 537T615 555T649 562Q660 562 667 559T672 541L660 451Q658 434 653 430T639 426Q626 427 609 427T586 428Q550 428 561 403Q563 399 563 392T564 377Q564 330 538 298T471 247T382 218T293 209Q286 209
270 208T234 204T202 193T188 174Q188 167 197 165T225 161L376 152Q479 146 526 108T573 7Q573 -38 551 -70T493 -122T411 -153T317 -169T224 -174V-174ZM236 -86Q278 -86 308 -81T358 -68T386 -49T396 -26Q396 -12 383 -6T338 2L194 9Q182 9 163 4T129 -11T114
-40Q114 -61 141 -73T236 -86V-86ZM297 300Q322 300 342 311T374 343T386 390Q386 414 368 429T313 445Q289 445 269 432T237 398T225 352Q225 331 245 316T297 300V300Z" />
<glyph unicode="h" horiz-adv-x="605" d="M35 0Q21 0 15 9T9 31L107 725Q109 736 114 739T129 742H289Q306 742 303 720L270 485Q267 469 278 477Q311 502 339 515T393 534T443 540Q511 540 548 504T586 403Q586 395 586 387T583 369L534 24Q532 9 527 5T505 0H358Q330
0 335 31L381 357Q382 360 382 362T382 367Q382 384 372 391T343 399Q326 399 310 393T281 374T255 344L208 23Q206 7 200 4T176 0H35Z" />
<glyph unicode="i" horiz-adv-x="282" d="M207 23Q205 7 199 4T175 0H34Q19 0 13 9T8 31L76 513Q78 524 81 527T94 530H263Q271 530 273 522T275 504L207 23ZM288 597Q286 582 279 578T255 574H104Q93 574 90 583T89 606L106 719Q109 742 126 742H294Q302 742
304 734T304 715L288 597Z" />
<glyph unicode="j" horiz-adv-x="283" d="M208 23Q194 -76 139 -123T-21 -170Q-66 -170 -80 -163T-93 -139L-79 -37Q-78 -29 -74 -23T-60 -15L-24 -8Q-14 -5 -4 6T11 42L77 513Q79 524 82 527T95 530H257Q266 530 271 522T276 504L208 23V23ZM288 597Q286 582
279 578T255 574H104Q93 574 90 583T89 606L106 719Q109 742 126 742H294Q302 742 304 734T304 715L288 597Z" />
<glyph unicode="k" horiz-adv-x="631" d="M579 23Q582 15 580 8T563 0H392Q379 0 373 9T362 31L314 199Q308 218 292 203L238 154Q234 150 229 143T222 124L208 23Q206 7 200 4T177 0H36Q20 0 14 9T9 31L107 725Q109 736 112 739T124 742H294Q303 742 305 734T305
715L253 340Q252 336 254 338T262 348L436 517Q445 525 453 527T468 530H605Q622 530 628 519T623 497L473 368Q466 360 462 353T461 332L579 23V23Z" />
<glyph unicode="l" horiz-adv-x="284" d="M208 23Q206 7 200 4T176 0H34Q19 0 13 9T7 31L110 725Q112 736 115 739T127 742H294Q309 742 306 720L208 23Z" />
<glyph unicode="m" horiz-adv-x="928" d="M34 0Q20 0 14 9T8 31L76 513Q78 524 81 527T93 530H263Q272 530 273 525T272 510L267 475Q265 461 276 470Q302 491 329 507T385 532T442 541Q492 541 525 517T571 448Q573 443 577 444T592 456Q615 479 645 498T708
528T769 540Q832 540 870 503T908 399Q908 392 908 384T906 367L858 24Q856 9 850 5T828 0H682Q654 0 659 31L704 348Q705 353 705 358T706 366Q706 383 696 391T667 399Q653 399 639 394T612 379T590 356Q585 349 581 342T575 327L532 24Q530 9 525 5T503 0H357Q345
0 339 8T334 31L380 357Q383 380 373 389T342 399Q325 399 310 393T280 374T254 344L207 23Q205 7 199 4T175 0H34V0Z" />
<glyph unicode="n" horiz-adv-x="604" d="M25 0Q12 0 10 9T8 31L76 513Q78 524 81 527T93 530H264Q270 530 273 528T274 515L267 470Q266 457 279 469Q314 500 356 520T442 540Q507 540 546 502T585 401Q585 394 585 387T583 372L534 24Q532 9 526 5T503 0H350Q337
0 335 8T335 31L380 351Q381 356 381 360T382 366Q382 383 372 391T342 399Q325 399 309 393T280 374T254 344L207 23Q205 7 198 4T173 0H25V0Z" />
<glyph unicode="o" horiz-adv-x="600" d="M268 -10Q192 -10 136 20T50 104T19 228Q19 298 44 355T112 454T212 517T331 540Q408 540 464 509T550 424T580 298Q580 210 539 140T428 30T268 -10V-10ZM271 118Q302 118 327 142T368 215T384 339Q384 380 371 398T329
416Q299 416 274 392T233 319T217 193Q217 153 230 136T271 118V118Z" />
<glyph unicode="p" horiz-adv-x="617" d="M-5 -165Q-13 -165 -15 -157T-15 -137L75 510Q77 523 81 526T101 530H249Q263 530 269 527T273 511L270 490Q269 484 276 485T290 492Q313 508 333 518T376 534T428 540Q502 540 549 488T597 329Q597 274 585 215T546
104T472 22T359 -10Q322 -10 290 5T232 51Q222 63 216 54T208 30L183 -151Q182 -161 179 -163T167 -165H-5V-165ZM281 111Q318 111 341 136T376 200T394 277T399 345Q399 375 392 391T373 413T341 419Q320 419 301 410T269 387T254 357L222 146Q233 128 246 120T281
111V111Z" />
<glyph unicode="q" horiz-adv-x="616" d="M329 -165Q314 -165 318 -139L341 25Q343 33 341 35T329 31Q298 13 266 2T202 -10Q116 -10 68 46T19 206Q19 260 33 318T78 427T158 509T276 541Q315 541 344 530T395 498T430 452Q433 446 438 448T450 465L474 511Q479
523 484 526T499 530H591Q603 530 607 524T608 498L517 -149Q516 -160 508 -162T492 -165H329V-165ZM272 110Q298 110 318 120T355 147L387 350Q391 375 386 391T369 417T337 426Q301 426 278 401T242 337T224 260T218 191Q218 145 232 128T272 110V110Z" />
<glyph unicode="r" horiz-adv-x="454" d="M34 0Q19 0 13 9T8 31L76 513Q78 524 81 527T93 530H252Q260 530 265 524T268 504L262 468Q261 456 265 455T276 461Q296 483 323 501T378 529T427 540Q447 540 459 537T469 523L449 377Q447 362 444 359T433 356Q407
360 384 361T349 363Q331 363 313 357T280 339T256 315T244 289L207 23Q205 7 199 4T175 0H34V0Z" />
<glyph unicode="s" horiz-adv-x="541" d="M250 -10Q143 -10 83 25T0 107Q-9 126 9 135L91 174Q104 180 113 179T130 165Q143 146 166 129T243 111Q252 111 267 112T296 116T321 128T332 152Q332 162 323 168T287 181L188 204Q121 220 84 252T47 342Q47 408 83
452T178 518T306 540Q391 540 442 508T519 435Q523 429 523 422T513 409L429 372Q419 368 413 370T394 387Q382 401 360 412T303 424Q284 424 267 421T238 410T227 389Q227 378 233 373T259 362L362 340Q442 323 476 282T510 187Q510 136 488 99T428 37T345 2T250
-10V-10Z" />
<glyph unicode="t" horiz-adv-x="462" d="M242 0Q173 0 130 32T86 120Q86 125 86 129T87 139L122 381Q123 389 117 392T102 395H52Q36 395 40 423L53 517Q55 527 59 528T73 530H132Q138 530 143 535T150 548L188 696Q192 710 210 710H357Q365 710 368 705T370
682L349 544Q348 539 352 535T361 531H449Q459 531 466 528T471 514L457 411Q456 401 451 398T433 395H340Q324 395 321 376L294 184Q293 181 293 178T293 172Q293 153 307 145T353 137H396Q404 137 410 128T414 111L402 31Q399 6 377 5Q356 3 333 2T286 1T242
0V0Z" />
<glyph unicode="u" horiz-adv-x="601" d="M154 -10Q94 -10 57 27T20 130Q20 138 20 147T22 163L70 506Q72 521 78 525T100 530H246Q259 530 265 521T269 498L223 176Q222 172 222 169T222 163Q222 145 232 138T258 130Q284 130 306 144T345 175L394 507Q396 522
402 526T426 530H569Q583 530 590 521T595 498L523 16Q522 6 519 3T506 0H348Q340 0 335 3T330 16L337 60Q338 66 334 66T321 59Q284 23 243 7T154 -10V-10Z" />
<glyph unicode="v" horiz-adv-x="591" d="M590 530Q602 530 607 519T608 496L346 20Q339 7 332 4T309 0H215Q200 0 192 8T181 30L52 506Q47 530 69 530H238Q247 530 254 522T263 505L319 274Q323 260 335 285L452 515Q462 530 478 530H590V530Z" />
<glyph unicode="w" horiz-adv-x="832" d="M831 530Q843 530 848 519T849 496L611 13Q607 3 604 2T589 0H485Q460 0 458 27L422 237Q420 248 415 243T406 227L305 13Q301 3 297 2T282 0H175Q151 0 149 27L52 506Q47 530 69 530H224Q233 530 240 522T249 505L289
291Q290 282 295 287T304 302L400 515Q407 530 425 530H534Q542 530 549 522T558 505L592 291Q593 282 598 287T607 302L705 515Q715 530 731 530H831V530Z" />
<glyph unicode="x" horiz-adv-x="622" d="M560 38Q574 14 572 7T548 0H386Q371 0 361 7T346 25L284 136Q276 150 271 147T253 130L160 15Q152 5 138 3T108 0H-7Q-28 0 -27 14T-1 56L179 252Q189 263 191 270T189 289L63 500Q56 511 59 520T80 530H239Q256 530
265 523T278 505L330 407Q334 400 338 404T348 417L423 515Q431 526 439 528T464 530H590Q609 530 608 519T597 496L433 310Q423 299 421 292T424 274L560 38V38Z" />
<glyph unicode="y" horiz-adv-x="589" d="M34 -165Q6 -165 -4 -160T-12 -140L2 -38Q3 -32 12 -27T38 -22H109Q126 -22 139 -18T161 -7T173 8T174 26L45 496Q36 530 62 530H245Q263 530 266 515L318 275Q321 262 327 263T340 277L454 505Q461 519 468 524T485 530H597Q619
530 605 506L343 36Q308 -26 277 -65T211 -126T134 -156T34 -165V-165Z" />
<glyph unicode="z" horiz-adv-x="544" d="M6 0Q-9 0 -13 4T-15 24L-9 64Q-7 80 -1 89T21 117L274 387Q280 395 278 401T259 408H79Q67 408 65 414T63 433L75 512Q77 521 84 525T100 530H540Q557 530 554 512L547 465Q546 454 540 445T522 423L264 148Q257 139
261 132T276 124H481Q501 124 498 104L487 21Q486 12 481 6T463 0H6V0Z" />
<glyph unicode="{" horiz-adv-x="406" d="M243 -165Q212 -165 181 -156T124 -130T85 -86T76 -23L103 174Q107 198 100 214T73 239T18 248Q10 248 5 255T1 274L9 327Q11 338 12 339T15 341Q74 341 103 363T139 431L165 612Q172 659 203 687T277 729T359 742H439Q447
742 452 736T455 723L444 643Q443 636 441 636T432 635H395Q363 635 348 626T327 603T319 576L292 386Q286 352 266 334T220 307T173 295Q164 295 159 293T156 289Q181 288 207 279T251 246T263 181L236 -11Q232 -39 242 -48T290 -58H324Q333 -58 338 -65T343 -80L332
-153Q331 -163 329 -164T317 -165H243V-165Z" />
<glyph unicode="|" horiz-adv-x="245" d="M24 -165Q9 -165 2 -154T-3 -126L131 827Q133 842 137 844T155 847H248Q259 847 266 839T271 822L134 -153Q133 -161 130 -163T117 -165H24Z" />
<glyph unicode="}" horiz-adv-x="406" d="M-26 -165Q-34 -165 -38 -159T-42 -146L-31 -66Q-30 -59 -28 -59T-19 -58H18Q50 -58 65 -49T87 -26T94 1L121 191Q128 225 148 243T193 270T240 282Q249 282 254 284T257 288Q232 289 206 298T163 331T150 396L177 588Q181
617 171 626T123 635H89Q80 635 75 642T70 657L81 730Q83 740 84 741T96 742H170Q201 742 232 733T289 707T328 663T337 600L310 403Q307 379 313 363T339 338T394 329Q402 329 407 322T411 303L403 250Q402 239 401 238T397 236Q338 236 309 214T274 146L248 -35Q242
-81 211 -110T137 -152T54 -165H-26V-165Z" />
<glyph unicode="~" horiz-adv-x="636" d="M597 363Q560 317 516 297T433 276Q400 276 376 287T331 312T290 337T246 348Q208 348 177 323T119 266Q113 265 107 270T99 281L66 349Q63 356 64 363T72 381Q121 419 162 443T250 468Q285 468 309 458T352 433T389 408T430
397Q464 397 494 419T545 472Q554 478 561 472T573 454L599 400Q606 385 597 363V363Z" />
<glyph unicode="&#xa0;" horiz-adv-x="200" />
<glyph unicode="&#xa1;" horiz-adv-x="277" d="M256 347Q255 337 252 335T240 333H67Q59 333 53 341T47 361L69 511Q71 524 75 527T94 530H244Q262 530 270 521T276 495L256 347V347ZM194 -150Q194 -160 191 -162T179 -165H-10Q-19 -165 -26 -156T-30 -136L73
245Q78 258 81 261T99 264H168Q185 264 193 255T199 230L194 -150V-150Z" />
<glyph unicode="&#xa2;" horiz-adv-x="558" d="M335 23Q333 8 328 4T305 0H238Q223 0 217 9T211 32L231 173Q233 188 239 192T261 196H328Q343 196 350 187T355 164L335 23V23ZM412 569Q410 554 404 550T381 546H314Q299 546 293 555T288 578L308 719Q310 734
316 738T338 742H405Q420 742 427 733T432 710L412 569V569ZM307 651Q381 651 428 623T500 554T525 470Q525 461 522 458T505 454L373 447Q365 446 362 453T357 473Q356 484 354 496T342 516T310 525Q276 525 254 503T219 447T201 377T195 313Q195 264 213 245T263
225Q307 225 331 245T379 305Q382 310 397 308L489 290Q497 289 500 281T498 257Q492 240 474 214T425 162T349 119T245 101Q171 101 115 131T28 215T-3 340Q-3 403 19 459T83 559T181 626T307 651V651Z" />
<glyph unicode="&#xa3;" horiz-adv-x="664" d="M-3 0Q-12 0 -17 8T-22 26L-4 154Q-2 162 -1 162T9 163H26Q64 163 91 183T125 248Q126 256 127 276T132 343Q131 345 129 344T122 343H40Q34 343 30 349T26 363L37 440Q38 446 39 446T46 446H105Q112 446 118 452T125
466L130 552Q134 603 158 641T220 703T305 740T401 752Q452 752 502 735T590 681T644 585Q648 581 647 579T638 575L495 535Q488 533 481 539T473 555Q466 572 457 585T427 598Q410 598 396 589T373 564T360 525Q359 515 358 496T357 447Q357 446 367 446H479Q485
446 489 440T493 429L482 349Q481 343 480 343T474 343H379Q370 343 365 337T357 321Q353 296 348 275T335 232Q329 222 322 212T306 192T287 171Q277 167 276 166T282 164H362Q402 164 428 182T470 240Q475 244 479 243T493 239L613 215Q624 213 630 204T632 180Q598
92 528 46T363 0H-3V0Z" />
<glyph unicode="&#xa4;" horiz-adv-x="600" d="M291 126Q255 126 225 136T172 165Q163 165 157 161T149 153L84 97Q80 93 76 97T66 107L15 165Q11 170 10 175T11 184L77 241Q86 250 86 266Q75 290 70 317T70 383Q74 413 84 442T114 502Q125 508 121 514L72 570Q69
574 67 580T68 590L136 649Q141 654 145 651T154 642L204 585Q207 581 211 586T219 595Q250 606 281 613T340 620Q377 620 408 610T463 580Q470 582 474 586T479 592L541 645Q544 647 546 643T549 636L607 568Q609 565 611 562T612 556L549 503Q543 497 542 487Q556
462 561 431T561 362Q557 333 545 301T511 237Q509 239 508 238T506 236L552 182Q555 179 557 176T558 169L482 103Q479 100 477 103T472 111L425 165Q423 167 420 162T414 153Q383 141 352 134T291 126V126ZM290 250Q327 250 359 269T413 318T440 384Q444 414
433 439T397 480T340 496Q303 496 271 477T217 428T191 362Q187 332 198 307T233 266T290 250V250Z" />
<glyph unicode="&#xa5;" horiz-adv-x="690" d="M759 742Q772 742 777 733T776 714L488 336Q480 326 476 314T467 269L432 23Q430 7 424 4T400 0H232Q217 0 211 9T206 31L243 294Q245 310 244 318T238 337L57 719Q51 731 53 736T72 742H273Q288 742 294 735T304
716L397 494Q400 485 404 489T414 503L568 726Q576 739 582 740T602 742H759V742ZM619 287Q617 272 611 269T587 265H119Q104 265 98 274T93 296L101 349Q103 360 106 363T118 366H608Q616 366 622 358T627 340L619 287ZM595 117Q593 102 587 99T563 95H95Q80 95
74 104T69 126L77 179Q79 190 82 193T94 196H584Q592 196 598 188T603 170L595 117Z" />
<glyph unicode="&#xa6;" horiz-adv-x="245" d="M106 423Q91 423 84 434T80 462L131 827Q133 842 137 844T155 847H248Q259 847 266 839T271 822L217 435Q216 427 212 425T199 423H106ZM24 -165Q9 -165 2 -154T-3 -126L48 239Q50 254 54 256T72 259H165Q176 259
183 251T189 234L134 -153Q133 -161 130 -163T117 -165H24Z" />
<glyph unicode="&#xa7;" horiz-adv-x="517" d="M410 221Q451 197 467 165T476 86Q469 35 438 -3T352 -63T219 -85Q121 -85 64 -52T-7 21Q-16 33 -16 37T-12 44L87 87Q97 92 102 85T111 68Q128 55 149 43T214 30Q249 30 273 43T301 81Q303 92 293 102T248 125L182
151Q96 185 58 226T30 336Q36 380 60 412T129 466Q108 482 95 500T77 542T76 591Q83 637 113 673T193 731T310 752Q395 752 449 720T518 646Q526 634 526 630T522 623L423 580Q413 576 408 582T399 599Q382 612 363 624T315 637Q289 637 271 624T250 590Q249 583
255 577T285 562L351 536Q437 502 475 461T503 351Q497 309 474 278T410 221V221ZM288 283Q305 282 316 289T335 309T344 336Q345 343 343 350T329 368T286 390L250 402Q231 401 218 392T198 371T188 344Q186 330 196 322T247 297L288 283V283Z" />
<glyph unicode="&#xa8;" horiz-adv-x="431" d="M230 617Q229 604 224 602T203 599H83Q70 599 65 607T61 627L75 728Q77 738 79 740T89 742H228Q236 742 241 734T245 718L230 617ZM470 617Q469 604 464 602T443 599H323Q310 599 305 607T301 627L315 728Q317 738
319 740T329 742H468Q476 742 481 734T485 718L470 617Z" />
<glyph unicode="&#xa9;" horiz-adv-x="830" d="M384 -10Q303 -10 237 20T125 104T59 229T50 382Q61 459 99 526T195 644T325 723T475 752Q555 752 621 722T734 637T800 512T809 360Q798 282 760 215T663 98T533 19T384 -10V-10ZM383 91Q446 91 499 111T595 170T664
262T700 382Q709 444 698 493T657 578T582 633T477 652Q413 652 359 631T264 571T195 479T159 360Q150 298 161 248T201 163T276 110T383 91V91ZM455 584Q512 584 549 562T604 507T624 442Q627 437 626 436T615 433L509 427Q503 426 499 433T496 450Q495 461 491
474T461 487Q441 487 424 474T394 434T375 362Q366 301 379 279T422 257Q457 257 476 277T513 327Q515 326 517 324T526 320L596 306Q610 304 604 279Q600 266 586 246T549 207T491 174T411 161Q348 161 303 189T235 268T222 382Q231 443 264 488T347 559T455 584V584Z"
/>
<glyph unicode="&#xaa;" horiz-adv-x="384" d="M249 752Q310 752 343 738T387 700T394 643L370 469Q368 456 368 446T368 421Q372 414 364 414T341 414H268Q258 414 255 421T251 435V440Q250 445 247 440T236 427Q210 417 193 413T153 408Q98 408 72 438T52 515Q59
562 106 589T244 621L257 622Q264 622 269 628T276 639L277 647Q279 664 274 670T252 677Q236 677 219 668T192 638Q188 636 187 638T177 642L97 659Q94 661 92 670T91 688Q114 720 147 736T249 752V752ZM171 501Q170 491 176 487T198 482Q212 482 224 488T241
502Q247 503 252 508T259 520L264 555Q265 561 265 561T256 560L242 559Q230 558 215 551T187 531T171 501V501Z" />
<glyph unicode="&#xab;" horiz-adv-x="513" d="M433 68Q435 61 434 61T421 60H348Q343 60 338 65T333 75L263 240Q259 251 259 262T264 283L382 458Q387 465 389 464T398 463H473Q480 463 485 457T488 442L405 265Q402 258 400 252T398 239L433 68ZM225 68Q227
61 226 61T213 60H140Q135 60 130 65T125 75L55 240Q51 251 51 262T56 283L174 458Q179 465 181 464T190 463H265Q272 463 277 457T280 442L197 265Q194 258 192 252T190 239L225 68Z" />
<glyph unicode="&#xac;" horiz-adv-x="600" d="M570 325Q569 310 562 307T538 303H75Q60 303 54 312T50 334L63 427Q65 438 68 441T80 444H565Q573 444 579 436T584 418L570 325ZM547 161Q546 147 541 144T519 141H413Q400 141 394 149T389 170L418 379Q420 390
423 391T433 393H560Q568 393 573 386T577 369L547 161Z" />
<glyph unicode="&#xad;" horiz-adv-x="380" d="M551 215Q549 200 543 197T519 193H280Q265 193 259 202T254 224L267 316Q269 327 272 330T285 333H546Q554 333 560 325T564 307L551 215Z" />
<glyph unicode="&#xae;" horiz-adv-x="545" d="M282 275Q214 275 163 308T86 399T70 524Q79 588 117 639T212 721T333 752Q401 752 452 718T528 628T544 502Q535 439 497 388T402 306T282 275V275ZM276 346Q327 346 367 368T435 430T469 524Q476 572 463 607T418
661T339 681Q288 681 247 659T179 596T145 502Q135 429 170 388T276 346V346ZM400 399Q401 395 401 395T398 394H336Q333 394 330 398T327 406L310 492Q309 494 308 493T302 492H284Q282 492 279 488T274 482L263 397Q262 393 262 393T255 394H202Q198 394 195
399T192 408L223 629Q224 633 223 632T225 630H334Q380 630 405 609T425 553Q423 535 411 521T383 498Q379 500 377 497T373 492L400 399V399ZM319 539Q332 539 342 549T353 572Q354 579 349 581T332 583H300Q296 583 292 579T287 571L283 540Q282 536 282 537T284
539H319V539Z" />
<glyph unicode="&#xaf;" horiz-adv-x="431" d="M473 637Q472 624 467 622T446 619H86Q73 619 68 627T64 647L75 728Q77 738 79 740T89 742H468Q476 742 481 734T485 718L473 637Z" />
<glyph unicode="&#xb0;" horiz-adv-x="464" d="M470 664Q463 613 435 575T365 515T272 493Q218 493 178 518T120 586T109 686Q116 737 144 775T214 835T307 857Q361 857 400 832T459 764T470 664V664ZM361 685Q365 714 351 731T306 748Q271 748 246 724T215 663Q211
634 225 617T270 599Q305 599 330 623T361 685V685Z" />
<glyph unicode="&#xb1;" horiz-adv-x="600" d="M530 37Q528 22 522 19T498 15H35Q20 15 14 24T9 46L22 139Q24 150 27 153T40 156H525Q533 156 539 148T543 130L530 37ZM584 420Q582 405 576 402T552 398H89Q74 398 68 407T63 429L76 522Q78 533 81 536T94 539H579Q587
539 593 531T597 513L584 420ZM255 208Q240 208 233 219T228 247L294 710Q296 725 300 727T317 730H410Q421 730 428 722T434 705L366 220Q365 212 361 210T348 208H255Z" />
<glyph unicode="&#xb2;" horiz-adv-x="452" d="M163 593Q212 629 237 650T271 686T281 715Q281 734 271 744T237 755Q211 755 187 737T143 683Q139 677 133 681L43 731Q35 735 48 752Q83 802 135 829T248 857Q302 857 340 840T398 794T419 724Q419 691 408 667T374
622T319 580L209 509Q204 505 204 503T207 500H378Q392 500 391 488L379 394Q378 389 375 387T364 384H12Q-7 384 -5 403L4 466Q6 471 11 477T45 505L163 593Z" />
<glyph unicode="&#xb3;" horiz-adv-x="467" d="M73 779Q70 782 71 786T77 795Q105 821 154 839T256 857Q340 857 386 826T433 742Q433 704 406 674T343 632Q339 631 339 629T342 625Q378 615 397 589T417 531Q417 477 389 443T311 394T198 378Q154 378 118 390T55
422T16 469Q10 480 14 483L87 531Q96 536 100 530Q126 502 148 489T203 476Q235 476 256 492T278 533Q278 545 271 554T251 568T220 574L161 575Q153 575 153 583L164 666Q165 672 176 672L218 673Q239 674 256 682T283 703T293 731Q293 745 281 753T249 761Q221
761 199 750T145 716Q138 710 132 716L73 779V779Z" />
<glyph unicode="&#xb4;" horiz-adv-x="320" d="M362 653Q364 642 362 636T344 625L103 569Q90 566 83 572T74 588L65 631Q61 648 70 652L322 750Q329 753 334 751T343 734L362 653Z" />
<glyph unicode="&#xb5;" horiz-adv-x="601" d="M258 130Q284 130 306 144T345 175L394 507Q396 522 402 526T426 530H569Q583 530 590 521T595 498L523 16Q522 6 519 3T506 0H348Q340 0 334 8T329 26L336 70Q337 76 332 74T318 61Q303 42 287 30T255 10T223 -4Q210
-6 204 -12T195 -28L179 -142Q177 -158 171 -161T147 -165H7Q-8 -165 -14 -156T-20 -134L70 506Q72 521 78 525T100 530H246Q259 530 265 521T269 498L223 173Q221 158 224 149T237 135T258 130V130Z" />
<glyph unicode="&#xb6;" horiz-adv-x="631" d="M598 633Q591 633 585 626T578 613L481 -73Q480 -80 479 -82T469 -85H385Q375 -85 370 -77T365 -61L462 627Q463 632 462 632T453 633H414Q408 633 402 626T394 613L297 -74Q296 -81 294 -83T284 -85H198Q191 -85
186 -79T181 -62L233 305Q233 310 233 310T230 312Q180 317 137 342T72 415T59 536Q68 595 101 641T191 715T326 742H643Q651 742 656 737T659 723L648 640Q647 633 646 633T636 633H598Z" />
<glyph unicode="&#xb7;" horiz-adv-x="279" d="M235 304Q234 290 229 287T208 284H75Q62 284 56 292T51 312L70 449Q72 460 75 461T85 463H238Q246 463 251 456T254 439L235 304Z" />
<glyph unicode="&#xb8;" horiz-adv-x="287" d="M219 -148Q214 -185 174 -205T83 -225Q47 -225 15 -218T-41 -194Q-48 -193 -51 -189T-53 -179L-30 -138Q-28 -133 -26 -137T-23 -145Q-5 -151 14 -156T51 -161Q75 -161 92 -150T111 -123Q113 -109 97 -102T32 -95Q22
-95 16 -91T14 -78L65 5H148L123 -49Q120 -53 118 -53T118 -53Q159 -53 182 -68T213 -104T219 -148V-148Z" />
<glyph unicode="&#xb9;" horiz-adv-x="367" d="M284 483Q296 483 294 472L283 390Q282 380 269 380H-3Q-17 380 -14 392L-3 475Q-2 483 10 483H68Q76 483 77 493L106 703Q107 708 99 707L43 695Q26 690 28 707L37 767Q39 775 40 777T49 783L169 839Q180 844 186
845T202 847H259Q270 847 267 834L219 489Q218 483 224 483H284V483Z" />
<glyph unicode="&#xba;" horiz-adv-x="391" d="M255 752Q310 752 347 728T402 662T412 567Q406 520 380 484T313 428T223 408Q170 408 132 431T77 496T67 589Q74 639 100 675T167 732T255 752V752ZM260 674Q232 674 215 649T190 570Q183 525 189 507T218 488Q247
488 265 514T290 592Q296 637 290 655T260 674V674Z" />
<glyph unicode="&#xbb;" horiz-adv-x="513" d="M106 249Q109 256 111 262T112 275L79 452Q78 460 79 461T88 463H163Q174 463 179 448L248 273Q252 263 253 252T246 230L130 65Q127 61 124 61T115 60H42Q32 60 26 65T23 78L106 249V249ZM314 249Q317 256 319 262T320
275L287 452Q286 460 287 461T296 463H371Q382 463 387 448L456 273Q460 263 461 252T454 230L338 65Q335 61 332 61T323 60H250Q240 60 234 65T231 78L314 249V249Z" />
<glyph unicode="&#xbc;" horiz-adv-x="973" d="M333 379Q345 379 343 368L332 286Q331 276 318 276H46Q32 276 35 288L46 371Q47 379 59 379H117Q125 379 126 389L155 599Q156 604 148 603L92 591Q75 586 77 603L86 663Q88 671 89 673T98 679L218 735Q229 740
235 741T251 743H308Q319 743 316 730L268 385Q267 379 273 379H333V379ZM276 3Q271 -4 265 -4T248 -4L196 -3Q180 -3 177 11T180 36L750 742Q758 752 763 751T777 750H843Q851 750 858 743T857 725L276 3ZM743 454Q751 462 756 464T775 467H881Q894 467 891 454L855
199Q855 195 860 195H910Q922 195 921 184L910 110Q909 104 907 102T896 100H849Q840 100 840 91L830 14Q829 5 825 3T810 0H702Q684 0 685 14L696 95Q697 100 691 100H508Q494 100 495 112L505 183Q506 190 511 198T528 220L743 454V454ZM704 195Q713 195 713
203L730 321Q732 328 730 328T722 321L618 202Q612 195 619 195H704Z" />
<glyph unicode="&#xbd;" horiz-adv-x="1020" d="M341 379Q353 379 351 368L340 286Q339 276 326 276H54Q40 276 43 288L54 371Q55 379 67 379H125Q133 379 134 389L163 599Q164 604 156 603L100 591Q83 586 85 603L94 663Q96 671 97 673T106 679L226 735Q237 740
243 741T259 743H316Q327 743 324 730L276 385Q275 379 281 379H341V379ZM252 3Q247 -4 241 -4T224 -4L172 -3Q156 -3 153 11T156 36L726 742Q734 752 739 751T753 750H819Q827 750 834 743T833 725L252 3ZM715 209Q764 245 789 266T823 302T833 331Q833 350 823
360T789 371Q763 371 739 353T695 299Q691 293 685 297L595 347Q587 351 600 368Q635 418 687 445T800 473Q854 473 892 456T950 410T971 340Q971 307 960 283T926 238T871 196L761 125Q756 121 756 119T759 116H930Q944 116 943 104L931 10Q930 5 927 3T916 0H564Q545
0 547 19L556 82Q558 87 563 93T597 121L715 209Z" />
<glyph unicode="&#xbe;" horiz-adv-x="1063" d="M96 674Q93 677 94 681T100 690Q128 716 177 734T279 752Q363 752 409 721T456 637Q456 599 429 569T366 527Q362 526 362 524T365 520Q401 510 420 484T440 426Q440 372 412 338T334 289T221 273Q177 273 141 285T78
317T39 364Q33 375 37 378L110 426Q119 431 123 425Q149 397 171 384T226 371Q258 371 279 387T301 428Q301 440 294 449T274 463T243 469L184 470Q176 470 176 478L187 561Q188 567 199 567L241 568Q262 569 279 577T306 598T316 626Q316 640 304 648T272 656Q244
656 222 645T168 611Q161 605 155 611L96 674V674ZM336 3Q331 -4 325 -4T308 -4L256 -3Q240 -3 237 11T240 36L810 742Q818 752 823 751T837 750H903Q911 750 918 743T917 725L336 3ZM833 454Q841 462 846 464T865 467H971Q984 467 981 454L945 199Q945 195 950
195H1000Q1012 195 1011 184L1000 110Q999 104 997 102T986 100H939Q930 100 930 91L920 14Q919 5 915 3T900 0H792Q774 0 775 14L786 95Q787 100 781 100H598Q584 100 585 112L595 183Q596 190 601 198T618 220L833 454V454ZM794 195Q803 195 803 203L820 321Q822
328 820 328T812 321L708 202Q702 195 709 195H794Z" />
<glyph unicode="&#xbf;" horiz-adv-x="544" d="M221 507Q223 523 229 526T253 530H404Q419 530 425 521T430 499L409 349Q408 338 405 336T392 333H219Q211 333 205 341T200 359L221 507ZM499 15Q508 13 511 2T510 -22Q466 -98 395 -136T226 -175Q137 -175 82
-149T3 -82T-14 8Q-9 44 8 69T50 113T100 147T151 177T191 212T212 258Q214 271 235 271H340Q352 271 359 260T364 231Q359 192 340 164T295 114T244 75T200 39T179 -3Q177 -19 192 -29T231 -40Q254 -40 276 -30T318 -2T350 42Q356 48 355 46T365 42L499 15Z" />
<glyph unicode="&#xc0;" horiz-adv-x="799" d="M-4 0Q-15 0 -15 10T-5 42L334 724Q340 736 349 739T372 742H569Q582 742 587 732T594 710L739 29Q741 19 738 10T724 0H528Q514 0 509 22L486 135Q485 144 473 144H263Q251 144 244 131L184 10Q181 4 177 2T162
0H-4V0ZM446 314Q463 314 458 334L422 501Q421 511 416 511T406 502L323 330Q319 320 321 317T332 314H446ZM369 951Q373 960 379 962T393 961L615 860Q624 856 626 851T625 837L604 790Q600 782 594 781T576 783L351 839Q335 843 332 849T332 866L369 951V951Z"
/>
<glyph unicode="&#xc1;" horiz-adv-x="799" d="M-4 0Q-15 0 -15 10T-5 42L334 724Q340 736 349 739T372 742H569Q582 742 587 732T594 710L739 29Q741 19 738 10T724 0H528Q514 0 509 22L486 135Q485 144 473 144H263Q251 144 244 131L184 10Q181 4 177 2T162
0H-4V0ZM446 314Q463 314 458 334L422 501Q421 511 416 511T406 502L323 330Q319 320 321 317T332 314H446ZM627 865Q629 854 627 848T609 837L368 781Q355 778 348 784T339 800L330 843Q326 860 335 864L587 962Q594 965 599 963T608 946L627 865Z" />
<glyph unicode="&#xc2;" horiz-adv-x="799" d="M-4 0Q-15 0 -15 10T-5 42L334 724Q340 736 349 739T372 742H569Q582 742 587 732T594 710L739 29Q741 19 738 10T724 0H528Q514 0 509 22L486 135Q485 144 473 144H263Q251 144 244 131L184 10Q181 4 177 2T162
0H-4V0ZM446 314Q463 314 458 334L422 501Q421 511 416 511T406 502L323 330Q319 320 321 317T332 314H446ZM498 875Q491 886 486 886T470 876L412 818Q405 811 400 809T384 807H281Q272 807 272 813T277 825L408 953Q416 961 424 962T446 964H541Q552 964 557
958T566 947L660 821Q667 811 664 809T650 807H554Q545 807 541 810T532 821L498 875Z" />
<glyph unicode="&#xc3;" horiz-adv-x="799" d="M-4 0Q-15 0 -15 10T-5 42L334 724Q340 736 349 739T372 742H569Q582 742 587 732T594 710L739 29Q741 19 738 10T724 0H528Q514 0 509 22L486 135Q485 144 473 144H263Q251 144 244 131L184 10Q181 4 177 2T162
0H-4V0ZM446 314Q463 314 458 334L422 501Q421 511 416 511T406 502L323 330Q319 320 321 317T332 314H446ZM666 840Q647 833 620 826T565 818Q534 818 508 826T459 841T408 849Q384 849 370 840T330 817Q320 812 314 818T306 837L296 891Q295 899 292 908T303
926Q324 939 347 948T402 958Q436 958 464 950T517 933T563 924Q581 924 595 931T623 948T647 959Q658 961 665 955T673 937L678 873Q679 864 679 855T666 840V840Z" />
<glyph unicode="&#xc4;" horiz-adv-x="799" d="M-4 0Q-15 0 -15 10T-5 42L334 724Q340 736 349 739T372 742H569Q582 742 587 732T594 710L739 29Q741 19 738 10T724 0H528Q514 0 509 22L486 135Q485 144 473 144H263Q251 144 244 131L184 10Q181 4 177 2T162
0H-4V0ZM446 314Q463 314 458 334L422 501Q421 511 416 511T406 502L323 330Q319 320 321 317T332 314H446ZM439 829Q438 816 433 814T412 811H292Q279 811 274 819T270 839L284 940Q286 950 288 952T298 954H437Q445 954 450 946T454 930L439 829ZM679 829Q678
816 673 814T652 811H532Q519 811 514 819T510 839L524 940Q526 950 528 952T538 954H677Q685 954 690 946T694 930L679 829Z" />
<glyph unicode="&#xc5;" horiz-adv-x="799" d="M-4 0Q-15 0 -15 10T-5 42L334 724Q340 736 349 739T372 742H569Q582 742 587 732T594 710L739 29Q741 19 738 10T724 0H528Q514 0 509 22L486 135Q485 144 473 144H263Q251 144 244 131L184 10Q181 4 177 2T162
0H-4V0ZM446 314Q463 314 458 334L422 501Q421 511 416 511T406 502L323 330Q319 320 321 317T332 314H446ZM593 832Q586 786 551 756T469 726Q435 726 409 743T370 790T362 856Q368 900 404 929T485 958Q520 958 546 941T585 896T593 832V832ZM526 853Q528 870
518 879T491 889Q469 889 449 872T425 831Q424 815 434 804T461 793Q484 793 503 811T526 853V853Z" />
<glyph unicode="&#xc6;" horiz-adv-x="1123" d="M1050 164Q1061 164 1067 157T1072 139L1055 16Q1054 7 1050 4T1033 0H498Q483 0 477 9T471 31L486 136Q487 143 487 143T478 144H277Q271 144 265 139T256 128L180 10Q174 0 155 0H3Q-8 0 -12 13T-7 42L444 724Q452
736 458 739T477 742H1126Q1135 742 1140 734T1144 715L1127 599Q1126 587 1121 583T1102 578H802Q791 578 782 571T771 553L760 468Q759 458 761 456T771 453H951Q962 453 968 445T973 427L955 303Q954 296 952 294T940 292H755Q748 292 741 285T732 272L718 172Q717
164 717 164T725 164H1050V164ZM488 314Q497 314 505 322T515 340L543 541Q546 564 533 560T505 532L373 330Q366 320 364 317T371 314H488V314Z" />
<glyph unicode="&#xc7;" horiz-adv-x="737" d="M445 752Q532 752 595 721T695 635T734 511Q735 487 716 486L547 476Q531 475 529 506Q526 546 510 572T446 598Q404 598 375 576T326 518T295 439T280 354T275 276Q275 208 298 181T366 154Q419 154 463 181T538
270Q546 287 569 281L704 249Q716 246 703 210Q698 196 682 170T638 112T569 54T474 8T352 -10Q255 -10 186 32T80 147T43 317Q43 387 59 451T109 570T190 666T303 729T445 752V752ZM463 -148Q458 -185 418 -205T327 -225Q291 -225 259 -218T203 -194Q196 -193
193 -189T191 -179L214 -138Q216 -133 218 -137T221 -145Q239 -151 258 -156T295 -161Q319 -161 336 -150T355 -123Q357 -109 341 -102T276 -95Q266 -95 260 -91T258 -78L309 5H392L367 -49Q364 -53 362 -53T362 -53Q403 -53 426 -68T457 -104T463 -148V-148Z"
/>
<glyph unicode="&#xc8;" horiz-adv-x="671" d="M117 725Q119 736 122 739T134 742H678Q697 742 692 715L675 599Q674 587 669 583T650 578H340Q331 578 327 575T321 560L308 468Q307 458 309 456T319 453H508Q519 453 521 449T522 436L504 305Q503 292 488 292H295Q283
292 280 276L266 177Q265 164 273 164H606Q617 164 619 160T620 145L603 16Q602 7 598 4T581 0H43Q15 0 19 31L117 725V725ZM310 951Q314 960 320 962T334 961L556 860Q565 856 567 851T566 837L545 790Q541 782 535 781T517 783L292 839Q276 843 273 849T273 866L310
951V951Z" />
<glyph unicode="&#xc9;" horiz-adv-x="671" d="M117 725Q119 736 122 739T134 742H678Q697 742 692 715L675 599Q674 587 669 583T650 578H340Q331 578 327 575T321 560L308 468Q307 458 309 456T319 453H508Q519 453 521 449T522 436L504 305Q503 292 488 292H295Q283
292 280 276L266 177Q265 164 273 164H606Q617 164 619 160T620 145L603 16Q602 7 598 4T581 0H43Q15 0 19 31L117 725V725ZM568 865Q570 854 568 848T550 837L309 781Q296 778 289 784T280 800L271 843Q267 860 276 864L528 962Q535 965 540 963T549 946L568 865Z"
/>
<glyph unicode="&#xca;" horiz-adv-x="671" d="M117 725Q119 736 122 739T134 742H678Q697 742 692 715L675 599Q674 587 669 583T650 578H340Q331 578 327 575T321 560L308 468Q307 458 309 456T319 453H508Q519 453 521 449T522 436L504 305Q503 292 488 292H295Q283
292 280 276L266 177Q265 164 273 164H606Q617 164 619 160T620 145L603 16Q602 7 598 4T581 0H43Q15 0 19 31L117 725V725ZM439 875Q432 886 427 886T411 876L353 818Q346 811 341 809T325 807H222Q213 807 213 813T218 825L349 953Q357 961 365 962T387 964H482Q493
964 498 958T507 947L601 821Q608 811 605 809T591 807H495Q486 807 482 810T473 821L439 875Z" />
<glyph unicode="&#xcb;" horiz-adv-x="671" d="M117 725Q119 736 122 739T134 742H678Q697 742 692 715L675 599Q674 587 669 583T650 578H340Q331 578 327 575T321 560L308 468Q307 458 309 456T319 453H508Q519 453 521 449T522 436L504 305Q503 292 488 292H295Q283
292 280 276L266 177Q265 164 273 164H606Q617 164 619 160T620 145L603 16Q602 7 598 4T581 0H43Q15 0 19 31L117 725V725ZM380 829Q379 816 374 814T353 811H233Q220 811 215 819T211 839L225 940Q227 950 229 952T239 954H378Q386 954 391 946T395 930L380 829ZM620
829Q619 816 614 814T593 811H473Q460 811 455 819T451 839L465 940Q467 950 469 952T479 954H618Q626 954 631 946T635 930L620 829Z" />
<glyph unicode="&#xcc;" horiz-adv-x="331" d="M328 742Q345 742 342 715L245 23Q243 7 237 4T213 0H39Q23 0 21 9T19 31L117 725Q119 736 122 739T134 742H328ZM140 951Q144 960 150 962T164 961L386 860Q395 856 397 851T396 837L375 790Q371 782 365 781T347
783L122 839Q106 843 103 849T103 866L140 951V951Z" />
<glyph unicode="&#xcd;" horiz-adv-x="331" d="M328 742Q345 742 342 715L245 23Q243 7 237 4T213 0H39Q23 0 21 9T19 31L117 725Q119 736 122 739T134 742H328ZM398 865Q400 854 398 848T380 837L139 781Q126 778 119 784T110 800L101 843Q97 860 106 864L358
962Q365 965 370 963T379 946L398 865Z" />
<glyph unicode="&#xce;" horiz-adv-x="331" d="M328 742Q345 742 342 715L245 23Q243 7 237 4T213 0H39Q23 0 21 9T19 31L117 725Q119 736 122 739T134 742H328ZM269 875Q262 886 257 886T241 876L183 818Q176 811 171 809T155 807H52Q43 807 43 813T48 825L179
953Q187 961 195 962T217 964H312Q323 964 328 958T337 947L431 821Q438 811 435 809T421 807H325Q316 807 312 810T303 821L269 875Z" />
<glyph unicode="&#xcf;" horiz-adv-x="331" d="M328 742Q345 742 342 715L245 23Q243 7 237 4T213 0H39Q23 0 21 9T19 31L117 725Q119 736 122 739T134 742H328ZM210 829Q209 816 204 814T183 811H63Q50 811 45 819T41 839L55 940Q57 950 59 952T69 954H208Q216
954 221 946T225 930L210 829ZM450 829Q449 816 444 814T423 811H303Q290 811 285 819T281 839L295 940Q297 950 299 952T309 954H448Q456 954 461 946T465 930L450 829Z" />
<glyph unicode="&#xd0;" horiz-adv-x="754" d="M419 315Q417 300 411 297T387 293H38Q23 293 17 302T12 324L25 417Q27 428 30 431T43 434H414Q422 434 428 426T432 408L419 315ZM31 0Q16 0 9 10T3 36L99 723Q101 735 105 738T124 742H374Q495 742 576 702T700
590T742 429Q742 301 686 204T530 54T294 0H31V0ZM321 157Q385 157 426 196T486 299T506 442Q506 489 491 521T449 569T384 585H325Q307 585 304 565L251 176Q250 167 253 162T264 157H321Z" />
<glyph unicode="&#xd1;" horiz-adv-x="761" d="M762 742Q776 742 774 726L673 12Q672 0 653 0H516Q509 0 504 5T492 20L267 393Q264 398 260 397T254 385L202 19Q201 7 197 4T178 0H34Q23 0 20 7T18 26L117 725Q119 736 122 739T137 742H300Q312 742 318 736T331
719L526 387Q531 378 537 379T545 392L592 727Q594 737 597 739T612 742H762ZM652 840Q633 833 606 826T551 818Q520 818 494 826T445 841T394 849Q370 849 356 840T316 817Q306 812 300 818T292 837L282 891Q281 899 278 908T289 926Q310 939 333 948T388 958Q422
958 450 950T503 933T549 924Q567 924 581 931T609 948T633 959Q644 961 651 955T659 937L664 873Q665 864 665 855T652 840V840Z" />
<glyph unicode="&#xd2;" horiz-adv-x="780" d="M360 -10Q260 -10 189 28T80 138T42 306Q42 323 43 342T47 380Q63 494 118 577T259 706T451 752Q549 752 620 713T729 601T767 431Q767 414 766 396T762 358Q746 246 692 163T552 35T360 -10V-10ZM366 146Q434 146
472 199T527 377Q531 406 533 430T535 476Q535 541 514 569T446 598Q378 598 339 541T282 355Q278 327 276 304T274 260Q274 198 296 172T366 146V146ZM364 951Q368 960 374 962T388 961L610 860Q619 856 621 851T620 837L599 790Q595 782 589 781T571 783L346
839Q330 843 327 849T327 866L364 951V951Z" />
<glyph unicode="&#xd3;" horiz-adv-x="780" d="M360 -10Q260 -10 189 28T80 138T42 306Q42 323 43 342T47 380Q63 494 118 577T259 706T451 752Q549 752 620 713T729 601T767 431Q767 414 766 396T762 358Q746 246 692 163T552 35T360 -10V-10ZM366 146Q434 146
472 199T527 377Q531 406 533 430T535 476Q535 541 514 569T446 598Q378 598 339 541T282 355Q278 327 276 304T274 260Q274 198 296 172T366 146V146ZM622 865Q624 854 622 848T604 837L363 781Q350 778 343 784T334 800L325 843Q321 860 330 864L582 962Q589
965 594 963T603 946L622 865Z" />
<glyph unicode="&#xd4;" horiz-adv-x="780" d="M360 -10Q260 -10 189 28T80 138T42 306Q42 323 43 342T47 380Q63 494 118 577T259 706T451 752Q549 752 620 713T729 601T767 431Q767 414 766 396T762 358Q746 246 692 163T552 35T360 -10V-10ZM366 146Q434 146
472 199T527 377Q531 406 533 430T535 476Q535 541 514 569T446 598Q378 598 339 541T282 355Q278 327 276 304T274 260Q274 198 296 172T366 146V146ZM493 875Q486 886 481 886T465 876L407 818Q400 811 395 809T379 807H276Q267 807 267 813T272 825L403 953Q411
961 419 962T441 964H536Q547 964 552 958T561 947L655 821Q662 811 659 809T645 807H549Q540 807 536 810T527 821L493 875Z" />
<glyph unicode="&#xd5;" horiz-adv-x="780" d="M360 -10Q260 -10 189 28T80 138T42 306Q42 323 43 342T47 380Q63 494 118 577T259 706T451 752Q549 752 620 713T729 601T767 431Q767 414 766 396T762 358Q746 246 692 163T552 35T360 -10V-10ZM366 146Q434 146
472 199T527 377Q531 406 533 430T535 476Q535 541 514 569T446 598Q378 598 339 541T282 355Q278 327 276 304T274 260Q274 198 296 172T366 146V146ZM661 840Q642 833 615 826T560 818Q529 818 503 826T454 841T403 849Q379 849 365 840T325 817Q315 812 309
818T301 837L291 891Q290 899 287 908T298 926Q319 939 342 948T397 958Q431 958 459 950T512 933T558 924Q576 924 590 931T618 948T642 959Q653 961 660 955T668 937L673 873Q674 864 674 855T661 840V840Z" />
<glyph unicode="&#xd6;" horiz-adv-x="780" d="M360 -10Q260 -10 189 28T80 138T42 306Q42 323 43 342T47 380Q63 494 118 577T259 706T451 752Q549 752 620 713T729 601T767 431Q767 414 766 396T762 358Q746 246 692 163T552 35T360 -10V-10ZM366 146Q434 146
472 199T527 377Q531 406 533 430T535 476Q535 541 514 569T446 598Q378 598 339 541T282 355Q278 327 276 304T274 260Q274 198 296 172T366 146V146ZM434 829Q433 816 428 814T407 811H287Q274 811 269 819T265 839L279 940Q281 950 283 952T293 954H432Q440
954 445 946T449 930L434 829ZM674 829Q673 816 668 814T647 811H527Q514 811 509 819T505 839L519 940Q521 950 523 952T533 954H672Q680 954 685 946T689 930L674 829Z" />
<glyph unicode="&#xd7;" horiz-adv-x="600" d="M461 134Q449 124 440 128T420 145L101 515Q92 526 91 534T99 551L174 617Q184 625 191 622T203 612L536 226Q541 221 542 214T537 200L461 134ZM60 202Q50 213 50 223T62 245L485 615Q497 626 504 622T519 608L577
542Q583 534 585 527T583 512L142 127Q135 121 129 125T117 136L60 202Z" />
<glyph unicode="&#xd8;" horiz-adv-x="786" d="M832 682Q837 676 839 669T834 655L742 580Q761 536 768 481T765 358Q749 246 695 163T555 35T363 -10Q291 -10 235 10T141 66L73 3Q60 -8 51 -5T32 11L-2 51Q-12 62 -15 70T-8 88L74 154Q55 199 48 255T50 380Q66
494 121 577T262 706T454 752Q527 752 583 730T679 670L755 741Q764 749 772 747T784 738L832 682V682ZM285 355Q284 350 283 342T280 324L529 544Q519 575 499 586T449 598Q381 598 342 541T285 355V355ZM530 377Q531 383 532 391T534 409L287 190Q298 165 318
156T369 146Q437 146 475 199T530 377V377Z" />
<glyph unicode="&#xd9;" horiz-adv-x="728" d="M687 287Q671 172 623 107T501 16T333 -10Q177 -10 111 53T45 234Q45 254 47 275T52 319L109 725Q111 736 114 739T126 742H316Q325 742 330 734T334 715L274 283Q273 271 272 261T270 240Q270 189 293 169T357 149Q390
149 420 163T472 210T502 298L562 725Q564 736 567 739T579 742H729Q738 742 743 734T747 715L687 287V287ZM355 951Q359 960 365 962T379 961L601 860Q610 856 612 851T611 837L590 790Q586 782 580 781T562 783L337 839Q321 843 318 849T318 866L355 951V951Z"
/>
<glyph unicode="&#xda;" horiz-adv-x="728" d="M687 287Q671 172 623 107T501 16T333 -10Q177 -10 111 53T45 234Q45 254 47 275T52 319L109 725Q111 736 114 739T126 742H316Q325 742 330 734T334 715L274 283Q273 271 272 261T270 240Q270 189 293 169T357 149Q390
149 420 163T472 210T502 298L562 725Q564 736 567 739T579 742H729Q738 742 743 734T747 715L687 287V287ZM613 865Q615 854 613 848T595 837L354 781Q341 778 334 784T325 800L316 843Q312 860 321 864L573 962Q580 965 585 963T594 946L613 865Z" />
<glyph unicode="&#xdb;" horiz-adv-x="728" d="M687 287Q671 172 623 107T501 16T333 -10Q177 -10 111 53T45 234Q45 254 47 275T52 319L109 725Q111 736 114 739T126 742H316Q325 742 330 734T334 715L274 283Q273 271 272 261T270 240Q270 189 293 169T357 149Q390
149 420 163T472 210T502 298L562 725Q564 736 567 739T579 742H729Q738 742 743 734T747 715L687 287V287ZM484 875Q477 886 472 886T456 876L398 818Q391 811 386 809T370 807H267Q258 807 258 813T263 825L394 953Q402 961 410 962T432 964H527Q538 964 543
958T552 947L646 821Q653 811 650 809T636 807H540Q531 807 527 810T518 821L484 875Z" />
<glyph unicode="&#xdc;" horiz-adv-x="728" d="M687 287Q671 172 623 107T501 16T333 -10Q177 -10 111 53T45 234Q45 254 47 275T52 319L109 725Q111 736 114 739T126 742H316Q325 742 330 734T334 715L274 283Q273 271 272 261T270 240Q270 189 293 169T357 149Q390
149 420 163T472 210T502 298L562 725Q564 736 567 739T579 742H729Q738 742 743 734T747 715L687 287V287ZM425 829Q424 816 419 814T398 811H278Q265 811 260 819T256 839L270 940Q272 950 274 952T284 954H423Q431 954 436 946T440 930L425 829ZM665 829Q664
816 659 814T638 811H518Q505 811 500 819T496 839L510 940Q512 950 514 952T524 954H663Q671 954 676 946T680 930L665 829Z" />
<glyph unicode="&#xdd;" horiz-adv-x="774" d="M803 742Q816 742 818 734T816 718L525 336Q517 326 513 314T504 269L469 23Q467 7 461 4T437 0H261Q248 0 245 5T242 24L280 294Q282 310 281 318T275 337L94 719Q88 731 90 736T109 742H310Q324 742 330 735T341
716L434 494Q438 484 445 494L605 726Q613 737 618 739T638 742H803V742ZM635 865Q637 854 635 848T617 837L376 781Q363 778 356 784T347 800L338 843Q334 860 343 864L595 962Q602 965 607 963T616 946L635 865Z" />
<glyph unicode="&#xde;" horiz-adv-x="743" d="M729 361Q720 292 680 243T575 168T428 142H278Q271 142 266 136T259 125L245 23Q243 7 237 4T213 0H45Q30 0 24 9T19 31L117 725Q119 736 122 739T134 742H324Q333 742 338 734T342 715L328 614Q327 608 327 608T333
608H459Q541 608 606 580T706 498T729 361V361ZM501 386Q506 416 486 432T431 448H332Q319 448 311 440T301 421L286 318Q285 307 286 305T297 302H408Q444 302 470 327T501 386V386Z" />
<glyph unicode="&#xdf;" horiz-adv-x="676" d="M406 742Q481 742 532 722T608 664T625 570Q621 538 604 513T555 465T468 421Q464 422 460 418T454 407Q454 409 454 408T455 402Q495 386 532 367T597 321T638 257T644 168Q636 109 603 69T518 10T396 -10Q351 -10
323 -1T279 22Q269 24 266 30T265 43L319 132Q324 139 328 135T336 125Q347 123 361 118T394 113Q420 113 442 127T468 169Q470 181 464 189T443 205T406 226Q375 239 351 259T316 310T309 379Q314 415 332 441T372 491Q389 504 405 517T433 545T447 579Q449 596
438 606T397 617Q354 617 329 591T298 529L225 17Q227 6 225 3T213 0H50Q42 0 36 8T31 26L78 357Q79 362 79 362T74 361H48Q38 361 32 368T26 386L39 480Q41 489 44 492T61 496H79Q89 496 94 505T102 525Q109 565 128 603T182 673T272 723T406 742V742Z" />
<glyph unicode="&#xe0;" horiz-adv-x="573" d="M296 40Q271 13 231 2T147 -10Q77 -10 38 28T-1 123Q-1 182 30 222T112 286T220 321T330 332H337Q356 332 359 352L362 369Q363 373 363 376T363 383Q363 403 352 412T318 421Q294 421 269 413T227 372Q224 366 219
364T201 364L74 390Q66 392 62 400T66 432Q98 491 165 515T328 540Q413 540 462 522T533 472T554 398Q554 391 554 384T552 369L503 21Q501 6 498 3T481 0H344Q331 0 328 9T323 32L322 44Q320 66 296 40V40ZM342 230Q344 239 343 241T333 242L319 241Q304 240 283
235T242 220T209 194T196 155Q196 139 207 128T240 116Q263 116 280 122T307 136Q317 144 325 155T335 177L342 230ZM241 739Q245 748 251 750T265 749L487 648Q496 644 498 639T497 625L476 578Q472 570 466 569T448 571L223 627Q207 631 204 637T204 654L241
739V739Z" />
<glyph unicode="&#xe1;" horiz-adv-x="573" d="M296 40Q271 13 231 2T147 -10Q77 -10 38 28T-1 123Q-1 182 30 222T112 286T220 321T330 332H337Q356 332 359 352L362 369Q363 373 363 376T363 383Q363 403 352 412T318 421Q294 421 269 413T227 372Q224 366 219
364T201 364L74 390Q66 392 62 400T66 432Q98 491 165 515T328 540Q413 540 462 522T533 472T554 398Q554 391 554 384T552 369L503 21Q501 6 498 3T481 0H344Q331 0 328 9T323 32L322 44Q320 66 296 40V40ZM342 230Q344 239 343 241T333 242L319 241Q304 240 283
235T242 220T209 194T196 155Q196 139 207 128T240 116Q263 116 280 122T307 136Q317 144 325 155T335 177L342 230ZM499 653Q501 642 499 636T481 625L240 569Q227 566 220 572T211 588L202 631Q198 648 207 652L459 750Q466 753 471 751T480 734L499 653Z" />
<glyph unicode="&#xe2;" horiz-adv-x="573" d="M296 40Q271 13 231 2T147 -10Q77 -10 38 28T-1 123Q-1 182 30 222T112 286T220 321T330 332H337Q356 332 359 352L362 369Q363 373 363 376T363 383Q363 403 352 412T318 421Q294 421 269 413T227 372Q224 366 219
364T201 364L74 390Q66 392 62 400T66 432Q98 491 165 515T328 540Q413 540 462 522T533 472T554 398Q554 391 554 384T552 369L503 21Q501 6 498 3T481 0H344Q331 0 328 9T323 32L322 44Q320 66 296 40V40ZM342 230Q344 239 343 241T333 242L319 241Q304 240 283
235T242 220T209 194T196 155Q196 139 207 128T240 116Q263 116 280 122T307 136Q317 144 325 155T335 177L342 230ZM370 663Q363 674 358 674T342 664L284 606Q277 599 272 597T256 595H153Q144 595 144 601T149 613L280 741Q288 749 296 750T318 752H413Q424
752 429 746T438 735L532 609Q539 599 536 597T522 595H426Q417 595 413 598T404 609L370 663Z" />
<glyph unicode="&#xe3;" horiz-adv-x="573" d="M296 40Q271 13 231 2T147 -10Q77 -10 38 28T-1 123Q-1 182 30 222T112 286T220 321T330 332H337Q356 332 359 352L362 369Q363 373 363 376T363 383Q363 403 352 412T318 421Q294 421 269 413T227 372Q224 366 219
364T201 364L74 390Q66 392 62 400T66 432Q98 491 165 515T328 540Q413 540 462 522T533 472T554 398Q554 391 554 384T552 369L503 21Q501 6 498 3T481 0H344Q331 0 328 9T323 32L322 44Q320 66 296 40V40ZM342 230Q344 239 343 241T333 242L319 241Q304 240 283
235T242 220T209 194T196 155Q196 139 207 128T240 116Q263 116 280 122T307 136Q317 144 325 155T335 177L342 230ZM538 628Q519 621 492 614T437 606Q406 606 380 614T331 629T280 637Q256 637 242 628T202 605Q192 600 186 606T178 625L168 679Q167 687 164
696T175 714Q196 727 219 736T274 746Q308 746 336 738T389 721T435 712Q453 712 467 719T495 736T519 747Q530 749 537 743T545 725L550 661Q551 652 551 643T538 628V628Z" />
<glyph unicode="&#xe4;" horiz-adv-x="573" d="M296 40Q271 13 231 2T147 -10Q77 -10 38 28T-1 123Q-1 182 30 222T112 286T220 321T330 332H337Q356 332 359 352L362 369Q363 373 363 376T363 383Q363 403 352 412T318 421Q294 421 269 413T227 372Q224 366 219
364T201 364L74 390Q66 392 62 400T66 432Q98 491 165 515T328 540Q413 540 462 522T533 472T554 398Q554 391 554 384T552 369L503 21Q501 6 498 3T481 0H344Q331 0 328 9T323 32L322 44Q320 66 296 40V40ZM342 230Q344 239 343 241T333 242L319 241Q304 240 283
235T242 220T209 194T196 155Q196 139 207 128T240 116Q263 116 280 122T307 136Q317 144 325 155T335 177L342 230ZM311 617Q310 604 305 602T284 599H164Q151 599 146 607T142 627L156 728Q158 738 160 740T170 742H309Q317 742 322 734T326 718L311 617ZM551
617Q550 604 545 602T524 599H404Q391 599 386 607T382 627L396 728Q398 738 400 740T410 742H549Q557 742 562 734T566 718L551 617Z" />
<glyph unicode="&#xe5;" horiz-adv-x="573" d="M296 40Q271 13 231 2T147 -10Q77 -10 38 28T-1 123Q-1 182 30 222T112 286T220 321T330 332H337Q356 332 359 352L362 369Q363 373 363 376T363 383Q363 403 352 412T318 421Q294 421 269 413T227 372Q224 366 219
364T201 364L74 390Q66 392 62 400T66 432Q98 491 165 515T328 540Q413 540 462 522T533 472T554 398Q554 391 554 384T552 369L503 21Q501 6 498 3T481 0H344Q331 0 328 9T323 32L322 44Q320 66 296 40V40ZM342 230Q344 239 343 241T333 242L319 241Q304 240 283
235T242 220T209 194T196 155Q196 139 207 128T240 116Q263 116 280 122T307 136Q317 144 325 155T335 177L342 230ZM472 679Q465 633 430 603T348 573Q314 573 288 590T249 637T241 703Q247 747 283 776T364 805Q399 805 425 788T464 743T472 679V679ZM405 700Q407
717 397 726T370 736Q348 736 328 719T304 678Q303 662 313 651T340 640Q363 640 382 658T405 700V700Z" />
<glyph unicode="&#xe6;" horiz-adv-x="914" d="M565 229Q558 229 551 222T542 201Q538 173 548 156T578 130T626 122Q645 122 663 128T702 148T747 186Q752 187 755 184T768 177L853 140Q861 137 864 129T861 108Q817 60 777 35T694 0T596 -10Q552 -10 515 1T448
32T398 79Q394 79 389 73T382 62Q348 35 314 19T241 -3T159 -10Q71 -10 31 36T1 154Q12 231 88 277T310 331L333 332Q339 332 348 337T358 352L361 369Q365 397 355 409T317 421Q293 421 268 409T226 364Q220 358 217 360T200 364L73 390Q66 392 64 405T65 432Q90
468 121 492T200 528T323 540Q393 539 437 528T504 500Q542 522 580 531T654 540Q735 540 793 505T878 403T892 243Q891 234 890 232T876 229H565V229ZM662 423Q640 423 619 412T582 380T563 327L689 332Q699 332 706 338T714 357Q716 368 712 383T697 411T662
423V423ZM340 222Q342 231 340 232T328 234L314 233Q295 232 268 221T220 191T194 145Q192 127 203 118T241 108Q262 108 282 115T316 136T332 166L340 222V222Z" />
<glyph unicode="&#xe7;" horiz-adv-x="556" d="M329 540Q403 540 450 512T522 443T547 359Q547 350 544 347T527 343L395 336Q387 335 384 342T379 362Q378 373 376 385T364 405T332 414Q298 414 276 392T241 336T223 266T217 202Q217 153 235 134T285 114Q329
114 353 134T401 194Q404 199 419 197L511 179Q519 178 522 170T520 146Q514 129 496 103T447 51T371 8T267 -10Q193 -10 137 20T50 104T19 229Q19 292 41 348T105 448T203 515T329 540V540ZM377 -148Q372 -185 332 -205T241 -225Q205 -225 173 -218T117 -194Q110
-193 107 -189T105 -179L128 -138Q130 -133 132 -137T135 -145Q153 -151 172 -156T209 -161Q233 -161 250 -150T269 -123Q271 -109 255 -102T190 -95Q180 -95 174 -91T172 -78L223 5H306L281 -49Q278 -53 276 -53T276 -53Q317 -53 340 -68T371 -104T377 -148V-148Z"
/>
<glyph unicode="&#xe8;" horiz-adv-x="590" d="M272 -10Q197 -10 140 20T51 103T18 226Q18 288 42 344T108 444T207 514T330 540Q402 540 456 511T541 428T572 298Q572 285 571 271T568 243Q567 234 562 232T544 229H235Q223 229 220 214T217 187Q217 153 241
138T302 122Q331 122 358 134T416 176Q422 182 428 182T444 177L529 140Q555 129 537 108Q493 60 453 35T370 0T272 -10V-10ZM365 327Q375 327 382 335T390 362Q390 382 378 402T333 423Q313 423 293 412T258 380T239 327H365ZM245 739Q249 748 255 750T269 749L491
648Q500 644 502 639T501 625L480 578Q476 570 470 569T452 571L227 627Q211 631 208 637T208 654L245 739V739Z" />
<glyph unicode="&#xe9;" horiz-adv-x="590" d="M272 -10Q197 -10 140 20T51 103T18 226Q18 288 42 344T108 444T207 514T330 540Q402 540 456 511T541 428T572 298Q572 285 571 271T568 243Q567 234 562 232T544 229H235Q223 229 220 214T217 187Q217 153 241
138T302 122Q331 122 358 134T416 176Q422 182 428 182T444 177L529 140Q555 129 537 108Q493 60 453 35T370 0T272 -10V-10ZM365 327Q375 327 382 335T390 362Q390 382 378 402T333 423Q313 423 293 412T258 380T239 327H365ZM503 653Q505 642 503 636T485 625L244
569Q231 566 224 572T215 588L206 631Q202 648 211 652L463 750Q470 753 475 751T484 734L503 653Z" />
<glyph unicode="&#xea;" horiz-adv-x="590" d="M272 -10Q197 -10 140 20T51 103T18 226Q18 288 42 344T108 444T207 514T330 540Q402 540 456 511T541 428T572 298Q572 285 571 271T568 243Q567 234 562 232T544 229H235Q223 229 220 214T217 187Q217 153 241
138T302 122Q331 122 358 134T416 176Q422 182 428 182T444 177L529 140Q555 129 537 108Q493 60 453 35T370 0T272 -10V-10ZM365 327Q375 327 382 335T390 362Q390 382 378 402T333 423Q313 423 293 412T258 380T239 327H365ZM374 663Q367 674 362 674T346 664L288
606Q281 599 276 597T260 595H157Q148 595 148 601T153 613L284 741Q292 749 300 750T322 752H417Q428 752 433 746T442 735L536 609Q543 599 540 597T526 595H430Q421 595 417 598T408 609L374 663Z" />
<glyph unicode="&#xeb;" horiz-adv-x="590" d="M272 -10Q197 -10 140 20T51 103T18 226Q18 288 42 344T108 444T207 514T330 540Q402 540 456 511T541 428T572 298Q572 285 571 271T568 243Q567 234 562 232T544 229H235Q223 229 220 214T217 187Q217 153 241
138T302 122Q331 122 358 134T416 176Q422 182 428 182T444 177L529 140Q555 129 537 108Q493 60 453 35T370 0T272 -10V-10ZM365 327Q375 327 382 335T390 362Q390 382 378 402T333 423Q313 423 293 412T258 380T239 327H365ZM315 617Q314 604 309 602T288 599H168Q155
599 150 607T146 627L160 728Q162 738 164 740T174 742H313Q321 742 326 734T330 718L315 617ZM555 617Q554 604 549 602T528 599H408Q395 599 390 607T386 627L400 728Q402 738 404 740T414 742H553Q561 742 566 734T570 718L555 617Z" />
<glyph unicode="&#xec;" horiz-adv-x="282" d="M207 23Q205 7 199 4T175 0H34Q19 0 13 9T8 31L76 513Q78 524 81 527T93 530H256Q264 530 270 522T275 504L207 23ZM85 739Q89 748 95 750T109 749L331 648Q340 644 342 639T341 625L320 578Q316 570 310 569T292
571L67 627Q51 631 48 637T48 654L85 739V739Z" />
<glyph unicode="&#xed;" horiz-adv-x="282" d="M207 23Q205 7 199 4T175 0H34Q19 0 13 9T8 31L76 513Q78 524 81 527T93 530H256Q264 530 270 522T275 504L207 23ZM343 653Q345 642 343 636T325 625L84 569Q71 566 64 572T55 588L46 631Q42 648 51 652L303 750Q310
753 315 751T324 734L343 653Z" />
<glyph unicode="&#xee;" horiz-adv-x="282" d="M207 23Q205 7 199 4T175 0H34Q19 0 13 9T8 31L76 513Q78 524 81 527T93 530H256Q264 530 270 522T275 504L207 23ZM214 663Q207 674 202 674T186 664L128 606Q121 599 116 597T100 595H-3Q-12 595 -12 601T-7 613L124
741Q132 749 140 750T162 752H257Q268 752 273 746T282 735L376 609Q383 599 380 597T366 595H270Q261 595 257 598T248 609L214 663Z" />
<glyph unicode="&#xef;" horiz-adv-x="282" d="M207 23Q205 7 199 4T175 0H34Q19 0 13 9T8 31L76 513Q78 524 81 527T93 530H256Q264 530 270 522T275 504L207 23ZM155 617Q154 604 149 602T128 599H8Q-5 599 -10 607T-14 627L0 728Q2 738 4 740T14 742H153Q161
742 166 734T170 718L155 617ZM395 617Q394 604 389 602T368 599H248Q235 599 230 607T226 627L240 728Q242 738 244 740T254 742H393Q401 742 406 734T410 718L395 617Z" />
<glyph unicode="&#xf0;" horiz-adv-x="600" d="M580 271Q568 184 525 121T416 24T268 -10Q184 -10 125 26T38 124T21 263Q32 339 75 397T185 487T328 520Q334 520 337 525T342 535Q330 551 317 564T286 593L181 533Q172 529 167 534T159 548L146 572Q137 588 145
591L228 631Q211 641 193 649T155 667Q148 667 144 672T144 681L239 750Q245 755 247 753T256 746Q290 741 319 730T374 704L456 752Q462 756 467 751T473 742L490 704Q492 700 493 698T490 692L433 666Q517 601 557 497T580 271V271ZM271 118Q300 118 321 135T357
185T377 267Q384 312 381 340T365 382T326 396Q298 396 277 379T241 329T220 245Q214 201 217 173T233 131T271 118V118Z" />
<glyph unicode="&#xf1;" horiz-adv-x="604" d="M25 0Q12 0 10 9T8 31L76 513Q78 524 81 527T93 530H264Q270 530 273 528T274 515L267 470Q266 457 279 469Q314 500 356 520T442 540Q507 540 546 502T585 401Q585 394 585 387T583 372L534 24Q532 9 526 5T503
0H350Q337 0 335 8T335 31L380 351Q381 356 381 360T382 366Q382 383 372 391T342 399Q325 399 309 393T280 374T254 344L207 23Q205 7 198 4T173 0H25V0ZM545 628Q526 621 499 614T444 606Q413 606 387 614T338 629T287 637Q263 637 249 628T209 605Q199 600 193
606T185 625L175 679Q174 687 171 696T182 714Q203 727 226 736T281 746Q315 746 343 738T396 721T442 712Q460 712 474 719T502 736T526 747Q537 749 544 743T552 725L557 661Q558 652 558 643T545 628V628Z" />
<glyph unicode="&#xf2;" horiz-adv-x="600" d="M268 -10Q192 -10 136 20T50 104T19 228Q19 298 44 355T112 454T212 517T331 540Q408 540 464 509T550 424T580 298Q580 210 539 140T428 30T268 -10V-10ZM271 118Q302 118 327 142T368 215T384 339Q384 380 371
398T329 416Q299 416 274 392T233 319T217 193Q217 153 230 136T271 118V118ZM244 739Q248 748 254 750T268 749L490 648Q499 644 501 639T500 625L479 578Q475 570 469 569T451 571L226 627Q210 631 207 637T207 654L244 739V739Z" />
<glyph unicode="&#xf3;" horiz-adv-x="600" d="M268 -10Q192 -10 136 20T50 104T19 228Q19 298 44 355T112 454T212 517T331 540Q408 540 464 509T550 424T580 298Q580 210 539 140T428 30T268 -10V-10ZM271 118Q302 118 327 142T368 215T384 339Q384 380 371
398T329 416Q299 416 274 392T233 319T217 193Q217 153 230 136T271 118V118ZM502 653Q504 642 502 636T484 625L243 569Q230 566 223 572T214 588L205 631Q201 648 210 652L462 750Q469 753 474 751T483 734L502 653Z" />
<glyph unicode="&#xf4;" horiz-adv-x="600" d="M268 -10Q192 -10 136 20T50 104T19 228Q19 298 44 355T112 454T212 517T331 540Q408 540 464 509T550 424T580 298Q580 210 539 140T428 30T268 -10V-10ZM271 118Q302 118 327 142T368 215T384 339Q384 380 371
398T329 416Q299 416 274 392T233 319T217 193Q217 153 230 136T271 118V118ZM373 663Q366 674 361 674T345 664L287 606Q280 599 275 597T259 595H156Q147 595 147 601T152 613L283 741Q291 749 299 750T321 752H416Q427 752 432 746T441 735L535 609Q542 599
539 597T525 595H429Q420 595 416 598T407 609L373 663Z" />
<glyph unicode="&#xf5;" horiz-adv-x="600" d="M268 -10Q192 -10 136 20T50 104T19 228Q19 298 44 355T112 454T212 517T331 540Q408 540 464 509T550 424T580 298Q580 210 539 140T428 30T268 -10V-10ZM271 118Q302 118 327 142T368 215T384 339Q384 380 371
398T329 416Q299 416 274 392T233 319T217 193Q217 153 230 136T271 118V118ZM541 628Q522 621 495 614T440 606Q409 606 383 614T334 629T283 637Q259 637 245 628T205 605Q195 600 189 606T181 625L171 679Q170 687 167 696T178 714Q199 727 222 736T277 746Q311
746 339 738T392 721T438 712Q456 712 470 719T498 736T522 747Q533 749 540 743T548 725L553 661Q554 652 554 643T541 628V628Z" />
<glyph unicode="&#xf6;" horiz-adv-x="600" d="M268 -10Q192 -10 136 20T50 104T19 228Q19 298 44 355T112 454T212 517T331 540Q408 540 464 509T550 424T580 298Q580 210 539 140T428 30T268 -10V-10ZM271 118Q302 118 327 142T368 215T384 339Q384 380 371
398T329 416Q299 416 274 392T233 319T217 193Q217 153 230 136T271 118V118ZM314 617Q313 604 308 602T287 599H167Q154 599 149 607T145 627L159 728Q161 738 163 740T173 742H312Q320 742 325 734T329 718L314 617ZM554 617Q553 604 548 602T527 599H407Q394
599 389 607T385 627L399 728Q401 738 403 740T413 742H552Q560 742 565 734T569 718L554 617Z" />
<glyph unicode="&#xf7;" horiz-adv-x="602" d="M371 81Q369 67 364 64T342 61H206Q193 61 187 69T182 89L202 229Q204 240 207 241T217 243H374Q382 243 387 236T391 219L371 81ZM570 325Q569 310 562 307T538 303H75Q60 303 54 312T50 334L63 427Q65 438 68 441T80
444H565Q573 444 579 436T584 418L570 325ZM433 524Q432 510 427 507T405 504H269Q256 504 250 512T245 533L264 672Q266 683 269 684T279 686H436Q444 686 449 679T453 662L433 524Z" />
<glyph unicode="&#xf8;" horiz-adv-x="604" d="M61 8Q48 -3 38 0T20 16L3 36Q-6 47 -9 56T-3 73L546 524Q557 532 564 530T576 521L606 485Q611 479 613 472T608 458L61 8ZM261 -10Q185 -10 129 20T43 104T12 228Q12 298 37 355T105 454T205 517T324 540Q401 540
457 509T543 424T573 298Q573 210 532 140T421 30T261 -10V-10ZM264 118Q295 118 320 142T361 215T377 339Q377 380 364 398T322 416Q292 416 267 392T226 319T210 193Q210 153 223 136T264 118V118Z" />
<glyph unicode="&#xf9;" horiz-adv-x="601" d="M154 -10Q94 -10 57 27T20 130Q20 138 20 147T22 163L70 506Q72 521 78 525T100 530H246Q259 530 265 521T269 498L223 176Q222 172 222 169T222 163Q222 145 232 138T258 130Q284 130 306 144T345 175L394 507Q396
522 402 526T426 530H569Q583 530 590 521T595 498L523 16Q522 6 519 3T506 0H348Q340 0 335 3T330 16L337 60Q338 66 334 66T321 59Q284 23 243 7T154 -10V-10ZM243 739Q247 748 253 750T267 749L489 648Q498 644 500 639T499 625L478 578Q474 570 468 569T450
571L225 627Q209 631 206 637T206 654L243 739V739Z" />
<glyph unicode="&#xfa;" horiz-adv-x="601" d="M154 -10Q94 -10 57 27T20 130Q20 138 20 147T22 163L70 506Q72 521 78 525T100 530H246Q259 530 265 521T269 498L223 176Q222 172 222 169T222 163Q222 145 232 138T258 130Q284 130 306 144T345 175L394 507Q396
522 402 526T426 530H569Q583 530 590 521T595 498L523 16Q522 6 519 3T506 0H348Q340 0 335 3T330 16L337 60Q338 66 334 66T321 59Q284 23 243 7T154 -10V-10ZM501 653Q503 642 501 636T483 625L242 569Q229 566 222 572T213 588L204 631Q200 648 209 652L461
750Q468 753 473 751T482 734L501 653Z" />
<glyph unicode="&#xfb;" horiz-adv-x="601" d="M154 -10Q94 -10 57 27T20 130Q20 138 20 147T22 163L70 506Q72 521 78 525T100 530H246Q259 530 265 521T269 498L223 176Q222 172 222 169T222 163Q222 145 232 138T258 130Q284 130 306 144T345 175L394 507Q396
522 402 526T426 530H569Q583 530 590 521T595 498L523 16Q522 6 519 3T506 0H348Q340 0 335 3T330 16L337 60Q338 66 334 66T321 59Q284 23 243 7T154 -10V-10ZM372 663Q365 674 360 674T344 664L286 606Q279 599 274 597T258 595H155Q146 595 146 601T151 613L282
741Q290 749 298 750T320 752H415Q426 752 431 746T440 735L534 609Q541 599 538 597T524 595H428Q419 595 415 598T406 609L372 663Z" />
<glyph unicode="&#xfc;" horiz-adv-x="601" d="M154 -10Q94 -10 57 27T20 130Q20 138 20 147T22 163L70 506Q72 521 78 525T100 530H246Q259 530 265 521T269 498L223 176Q222 172 222 169T222 163Q222 145 232 138T258 130Q284 130 306 144T345 175L394 507Q396
522 402 526T426 530H569Q583 530 590 521T595 498L523 16Q522 6 519 3T506 0H348Q340 0 335 3T330 16L337 60Q338 66 334 66T321 59Q284 23 243 7T154 -10V-10ZM313 617Q312 604 307 602T286 599H166Q153 599 148 607T144 627L158 728Q160 738 162 740T172 742H311Q319
742 324 734T328 718L313 617ZM553 617Q552 604 547 602T526 599H406Q393 599 388 607T384 627L398 728Q400 738 402 740T412 742H551Q559 742 564 734T568 718L553 617Z" />
<glyph unicode="&#xfd;" horiz-adv-x="589" d="M34 -165Q6 -165 -4 -160T-12 -140L2 -38Q3 -32 12 -27T38 -22H109Q126 -22 139 -18T161 -7T173 8T174 26L45 496Q36 530 62 530H245Q263 530 266 515L318 275Q321 262 327 263T340 277L454 505Q461 519 468 524T485
530H597Q619 530 605 506L343 36Q308 -26 277 -65T211 -126T134 -156T34 -165V-165ZM528 653Q530 642 528 636T510 625L269 569Q256 566 249 572T240 588L231 631Q227 648 236 652L488 750Q495 753 500 751T509 734L528 653Z" />
<glyph unicode="&#xfe;" horiz-adv-x="614" d="M279 742Q293 742 300 734T305 712L272 479Q271 473 276 479T285 492Q307 508 329 518T375 534T428 540Q486 540 527 509T587 415T592 256Q578 158 544 100T461 16T359 -10Q322 -10 292 3T238 49Q213 63 208 30L183
-151Q182 -161 179 -163T167 -165H4Q-4 -165 -10 -157T-15 -137L105 722Q107 735 111 738T131 742H279V742ZM222 146Q233 128 246 120T281 111Q308 111 330 126T368 180T394 284Q402 340 398 369T380 408T341 419Q320 419 301 410T269 387T254 357L222 146V146Z"
/>
<glyph unicode="&#xff;" horiz-adv-x="589" d="M34 -165Q6 -165 -4 -160T-12 -140L2 -38Q3 -32 12 -27T38 -22H109Q126 -22 139 -18T161 -7T173 8T174 26L45 496Q36 530 62 530H245Q263 530 266 515L318 275Q321 262 327 263T340 277L454 505Q461 519 468 524T485
530H597Q619 530 605 506L343 36Q308 -26 277 -65T211 -126T134 -156T34 -165V-165ZM340 617Q339 604 334 602T313 599H193Q180 599 175 607T171 627L185 728Q187 738 189 740T199 742H338Q346 742 351 734T355 718L340 617ZM580 617Q579 604 574 602T553 599H433Q420
599 415 607T411 627L425 728Q427 738 429 740T439 742H578Q586 742 591 734T595 718L580 617Z" />
<glyph unicode="&#x2013;" horiz-adv-x="602" d="M554 205Q552 190 545 187T521 183H58Q43 183 37 192T33 214L46 306Q48 317 51 320T63 323H548Q556 323 562 315T566 297L554 205Z" />
<glyph unicode="&#x2014;" horiz-adv-x="928" d="M880 205Q878 190 871 187T847 183H58Q43 183 37 192T33 214L46 306Q48 317 51 320T63 323H874Q882 323 888 315T892 297L880 205Z" />
<glyph unicode="&#x2018;" horiz-adv-x="253" d="M301 742Q317 742 308 725L251 623Q237 595 261 590L277 588Q291 587 293 585T294 570L276 438Q275 428 267 420T250 411H103Q95 411 93 413T92 423L109 550Q110 555 113 559T118 565L240 716Q248 727 261 734T285
742H301V742Z" />
<glyph unicode="&#x2019;" horiz-adv-x="253" d="M77 411Q62 411 70 428L127 530Q141 558 117 563L101 565Q88 567 85 569T84 583L102 715Q104 726 112 734T128 742H275Q283 742 285 740T286 730L269 603Q268 599 265 595T260 588L138 437Q131 427 118 419T93
411H77V411Z" />
<glyph unicode="&#x201a;" horiz-adv-x="253" d="M-3 -155Q-18 -155 -10 -138L48 -36Q61 -8 37 -3L22 -1Q9 1 6 3T4 17L23 149Q25 160 32 168T48 176H195Q203 176 205 174T207 164L189 37Q188 33 186 29T181 22L59 -129Q52 -139 38 -147T13 -155H-3V-155Z" />
<glyph unicode="&#x201c;" horiz-adv-x="509" d="M322 411Q314 411 312 413T310 423L328 550Q329 555 332 559T336 565L458 716Q466 727 480 734T504 742H520Q536 742 527 725L469 623Q456 595 480 590L495 588Q509 587 512 585T513 570L494 438Q493 428 485 420T469
411H322V411ZM66 411Q58 411 56 413T54 423L72 550Q73 555 76 559T80 565L202 716Q210 727 224 734T248 742H264Q280 742 271 725L213 623Q200 595 224 590L239 588Q253 587 256 585T257 570L238 438Q237 428 229 420T213 411H66V411Z" />
<glyph unicode="&#x201d;" horiz-adv-x="513" d="M333 411Q318 411 326 428L383 530Q397 558 373 563L357 565Q344 567 341 569T340 583L358 715Q360 726 368 734T384 742H531Q539 742 541 740T542 730L525 603Q524 599 521 595T516 588L394 437Q387 427 374 419T349
411H333V411ZM77 411Q62 411 70 428L127 530Q141 558 117 563L101 565Q88 567 85 569T84 583L102 715Q104 726 112 734T128 742H275Q283 742 285 740T286 730L269 603Q268 599 265 595T260 588L138 437Q131 427 118 419T93 411H77V411Z" />
<glyph unicode="&#x201e;" horiz-adv-x="476" d="M216 -155Q201 -155 209 -138L267 -36Q280 -8 256 -3L241 -1Q228 1 225 3T223 17L242 149Q244 160 251 168T267 176H414Q422 176 424 174T426 164L408 37Q407 33 405 29T400 22L278 -129Q271 -139 257 -147T232
-155H216V-155ZM216 -155Q201 -155 209 -138L267 -36Q280 -8 256 -3L241 -1Q228 1 225 3T223 17L242 149Q244 160 251 168T267 176H414Q422 176 424 174T426 164L408 37Q407 33 405 29T400 22L278 -129Q271 -139 257 -147T232 -155H216V-155Z" />
<glyph unicode="&#x2022;" horiz-adv-x="357" d="M178 223Q134 223 100 245T50 305T39 388Q45 428 69 460T129 512T205 531Q250 531 283 509T334 449T344 366Q339 326 315 294T255 242T178 223V223Z" />
<glyph unicode="&#x2039;" horiz-adv-x="305" d="M225 68Q227 61 226 61T213 60H140Q135 60 130 65T125 75L55 240Q51 251 51 262T56 283L174 458Q179 465 181 464T190 463H265Q272 463 277 457T280 442L197 265Q194 258 192 252T190 239L225 68Z" />
<glyph unicode="&#x203a;" horiz-adv-x="305" d="M106 249Q109 256 111 262T112 275L79 452Q78 460 79 461T88 463H163Q174 463 179 448L248 273Q252 263 253 252T246 230L130 65Q127 61 124 61T115 60H42Q32 60 26 65T23 78L106 249V249Z" />
</font>
</defs>
</svg>
