<?xml version="1.0" standalone="no"?>
<!DOCTYPE svg PUBLIC "-//W3C//DTD SVG 1.1//EN" "http://www.w3.org/Graphics/SVG/1.1/DTD/svg11.dtd">
<svg xmlns="http://www.w3.org/2000/svg">
<defs >
<font id="LibreFranklin" horiz-adv-x="567" ><font-face
    font-family="Libre Franklin Thin"
    units-per-em="1000"
    panose-1="0 0 0 0 0 0 0 0 0 0"
    ascent="966"
    descent="-246"
    alphabetic="0" />
<glyph unicode=" " horiz-adv-x="206" />
<glyph unicode="!" horiz-adv-x="264" d="M179 19Q178 6 173 3T153 0H35Q22 0 17 7T13 25L30 149Q32 159 35 161T44 163H181Q189 163 193 157T197 142L179 19ZM180 250Q177 238 173 235T154 232H101Q89 232 85 239T81 256L109 728Q109 737 112 739T122 742H269Q275
742 280 735T284 721L180 250Z" />
<glyph unicode="&quot;" horiz-adv-x="469" d="M382 470Q379 457 375 454T356 451H321Q309 451 304 458T300 475L302 729Q302 738 305 740T315 742H436Q444 742 448 736T452 721L382 470ZM416 470Q413 457 409 454T390 451H355Q343 451 338 458T334 475L336 729Q336
738 339 740T349 742H470Q478 742 482 736T486 721L416 470Z" />
<glyph unicode="#" horiz-adv-x="603" d="M149 20Q146 6 143 3T125 1L92 5Q80 7 73 12T69 28L271 727Q274 736 277 739T286 741L335 736Q343 735 348 729T351 715L149 20ZM367 20Q364 6 361 3T343 1L310 5Q298 7 291 12T287 28L488 727Q492 736 495 739T504 741L553
736Q561 735 566 729T569 715L367 20ZM551 248Q549 236 544 233T525 230H36Q24 230 19 237T15 254L21 296Q22 305 26 307T38 309H545Q552 309 555 303T557 289L551 248ZM614 458Q612 446 607 443T588 440H98Q86 440 81 447T78 464L84 506Q85 515 89 517T101 519H608Q615
519 618 513T619 499L614 458Z" />
<glyph unicode="$" horiz-adv-x="655" d="M612 206Q604 149 571 104T486 31T365 -4Q352 -5 347 -10T339 -25L335 -60Q333 -72 329 -75T310 -79H256Q244 -79 239 -72T235 -54L241 -14Q242 -5 242 -5T234 -4Q159 0 109 25T21 94Q9 101 5 108T8 123L77 188Q86 197
93 193T104 180Q129 152 161 133T238 106Q249 106 255 110T262 122L286 294Q287 302 286 305T279 312Q198 329 153 361T93 438T85 536Q92 587 122 628T203 699T323 741Q331 741 341 747T352 761L357 799Q358 805 360 806T367 808H434Q444 808 449 802T453 785L447
745Q447 741 448 740T453 737Q507 727 547 708T616 660Q624 658 627 651T624 636L560 569Q553 563 548 565T536 579Q521 593 498 606T448 629Q440 630 435 624T428 613L404 444Q403 439 404 439T412 435L466 421Q516 405 551 375T603 301T612 206V206ZM332 624Q334
630 333 630T326 628Q277 621 248 596T214 536Q211 518 217 504T239 478T283 456Q295 455 303 461T312 481L332 624ZM357 109Q357 105 359 107T365 110Q413 114 444 139T480 200Q484 230 467 251T402 287Q383 289 380 271L357 109V109Z" />
<glyph unicode="%" horiz-adv-x="944" d="M292 753Q346 753 385 723T443 643T454 533Q446 476 416 431T342 359T245 332Q190 332 150 361T90 439T80 549Q88 606 118 652T194 726T292 753V753ZM242 410Q270 410 290 427T324 475T342 548Q351 609 340 642T292 675Q265
675 245 658T211 608T191 532Q183 474 194 442T242 410V410ZM731 411Q786 411 825 381T883 301T894 191Q886 134 856 89T782 17T685 -10Q629 -10 589 19T531 97T520 207Q529 264 559 310T634 384T731 411V411ZM682 68Q710 68 730 85T764 133T783 206Q788 247 785
275T769 318T732 333Q706 333 686 316T652 266T631 190Q626 152 629 125T646 83T682 68V68ZM228 3Q224 -3 219 -3T204 -4L162 -3Q149 -3 146 8T149 29L726 743Q732 751 737 751T749 750H801Q808 750 814 745T813 730L228 3Z" />
<glyph unicode="&amp;" horiz-adv-x="838" d="M438 753Q505 753 554 732T627 674T645 586Q641 555 619 522T559 457T473 403Q450 400 458 387L549 271Q554 264 559 268T572 284Q586 296 600 311T628 342T653 376T671 410Q676 415 681 414T694 411L767 386Q776
383 780 373T781 352Q768 329 748 303T704 248T650 185Q641 180 638 177T640 166Q655 156 674 149T715 137T760 130Q772 130 778 124T782 108L771 20Q769 9 765 5T752 0Q704 0 662 9T584 36T523 76Q513 80 508 77T495 64Q439 29 380 12T252 -5Q134 -5 76 50T30
201Q38 258 82 306T220 405Q234 410 237 415T235 433Q209 463 197 501T189 578Q197 629 231 668T320 730T438 753V753ZM444 660Q416 660 394 648T359 616T342 574Q340 563 344 548T358 519L387 480Q390 476 396 480T406 488Q453 507 480 534T512 596Q516 627 497
643T444 660V660ZM317 318Q311 327 304 323T291 313Q253 297 227 267T196 202Q191 163 217 136T288 109Q320 109 353 122T409 157Q417 159 422 164T422 178L317 318V318Z" />
<glyph unicode="&apos;" horiz-adv-x="248" d="M197 470Q194 457 190 454T171 451H136Q124 451 119 458T115 475L117 729Q117 738 120 740T130 742H251Q259 742 263 736T267 721L197 470Z" />
<glyph unicode="(" horiz-adv-x="314" d="M146 -165Q132 -165 130 -147Q98 -78 76 -11T47 131T52 293Q69 415 122 528T250 737Q260 742 274 742H351Q359 742 361 735T362 722Q320 658 284 586T223 436T186 276Q171 166 183 62T231 -159Q238 -165 226 -165H146V-165Z" />
<glyph unicode=")" horiz-adv-x="314" d="M-30 -165Q-38 -165 -41 -158T-41 -145Q1 -81 36 -9T98 141T135 301Q150 412 138 516T90 736Q82 742 94 742H175Q188 742 191 724Q223 655 244 588T273 446T268 284Q251 162 198 49T71 -160Q61 -165 47 -165H-30V-165Z" />
<glyph unicode="*" horiz-adv-x="465" d="M270 468Q268 471 265 468T260 461L167 336Q164 332 159 334T147 341L97 380Q92 385 90 390T92 401L199 508Q201 511 203 513T199 517L79 553Q73 554 70 561T70 576L101 635Q104 641 107 641T115 637L228 585Q233 582
238 587T244 597L253 734Q253 738 254 740T263 742H336Q342 742 346 736T349 725L318 587Q316 582 317 583T323 586L453 640Q461 644 466 639T472 625L483 567Q485 560 484 557T475 551L346 514Q341 513 338 509T336 501L409 398Q413 393 413 387T404 374L350 341Q342
335 335 339T326 348L270 468Z" />
<glyph unicode="+" horiz-adv-x="583" d="M545 335Q545 324 539 321T520 318L80 317Q68 317 63 324T59 342L70 415Q72 424 74 426T83 429H541Q547 429 552 423T556 409L545 335ZM244 130Q232 130 226 138T222 161L284 601Q285 613 288 615T303 617H376Q385 617
390 611T394 598L331 140Q330 134 327 132T317 130H244Z" />
<glyph unicode="," horiz-adv-x="253" d="M-10 -156Q-22 -156 -14 -139L51 -30Q60 -14 57 -7T43 0H23Q11 0 8 3T6 17L24 142Q26 151 31 157T42 164H181Q196 164 193 148L176 32Q175 26 173 21T168 13L49 -134Q38 -147 30 -151T12 -156H-10V-156Z" />
<glyph unicode="-" horiz-adv-x="380" d="M325 226Q324 214 319 211T300 208H65Q53 208 49 215T44 232L55 305Q57 314 59 316T69 319H321Q328 319 333 313T336 299L325 226Z" />
<glyph unicode="." horiz-adv-x="251" d="M173 19Q171 6 167 3T146 0H28Q16 0 11 7T6 25L24 152Q26 162 29 164T39 166H176Q183 166 187 160T190 145L173 19Z" />
<glyph unicode="/" horiz-adv-x="365" d="M-18 -17Q-27 -17 -31 -11T-33 2L320 731Q324 738 328 740T340 742H407Q419 742 423 734T422 712L78 0Q72 -12 66 -14T49 -17H-18V-17Z" />
<glyph unicode="0" horiz-adv-x="708" d="M418 753Q498 753 557 715T649 607T683 442Q683 423 682 403T677 361Q661 247 611 164T486 36T323 -9Q241 -9 181 28T88 134T55 297Q55 316 56 336T61 377Q73 462 105 531T186 650T293 726T418 753V753ZM328 115Q373 115
407 141T465 225T502 377Q506 410 508 437T511 488Q511 564 486 597T412 631Q368 631 333 603T274 516T236 360Q232 329 230 303T227 255Q227 180 253 148T328 115V115Z" />
<glyph unicode="1" horiz-adv-x="509" d="M440 129Q456 129 454 114L440 13Q439 6 436 3T421 0H21Q11 0 8 3T6 16L20 118Q21 125 24 127T36 129H143Q154 129 155 141L214 561Q215 565 214 567T205 567L99 537Q77 532 80 553L91 627Q92 638 95 641T106 649L284
732Q299 739 307 740T328 742H401Q415 742 412 724L329 137Q328 129 336 129H440V129Z" />
<glyph unicode="2" horiz-adv-x="644" d="M275 324Q344 378 385 415T444 483T463 543Q463 570 452 588T420 615T370 624Q328 624 284 597T205 515Q200 507 191 512L83 575Q79 577 79 583T89 602Q143 675 221 713T385 752Q460 752 515 728T601 660T632 554Q632
499 611 456T551 376T458 299L263 156Q256 152 256 148T262 144H564Q584 144 581 128L566 14Q565 6 562 3T547 0H26Q0 0 3 26L14 102Q15 109 18 114T31 129T65 156L275 324Z" />
<glyph unicode="3" horiz-adv-x="667" d="M114 633Q104 643 117 655Q150 684 193 706T285 740T386 752Q510 752 578 703T646 575Q646 534 626 498T572 434T498 395Q492 393 492 390T497 384Q553 369 586 328T620 231Q620 152 578 98T460 17T286 -10Q218 -10 166
7T76 55T17 121Q9 135 15 140L105 200Q112 204 116 203T122 199Q161 153 200 133T294 113Q337 113 372 128T429 170T450 232Q450 260 434 280T390 311T327 322L234 323Q222 323 223 335L236 436Q237 444 252 444L321 446Q362 446 397 462T453 504T474 562Q474 592
448 612T378 632Q343 632 315 623T260 597T203 557Q192 549 183 558L114 633V633Z" />
<glyph unicode="4" horiz-adv-x="689" d="M426 726Q437 736 443 739T466 742H596Q612 742 610 725L550 301Q549 294 557 294H643Q652 294 656 292T658 280L645 189Q644 181 641 178T626 175H543Q532 175 530 162L511 19Q509 7 504 4T485 0H355Q331 0 334 19L355
167Q356 175 347 175H41Q22 175 25 192L37 281Q39 291 45 301T67 329L426 726V726ZM362 294Q374 294 375 306L410 553Q413 570 397 551L182 306Q176 299 176 297T183 294H362Z" />
<glyph unicode="5" horiz-adv-x="676" d="M633 742Q646 742 649 737T649 720L630 616Q628 608 624 605T608 602H289Q281 602 277 599T271 587L241 455Q240 451 241 449T249 449Q290 462 323 470T396 478Q465 478 519 455T604 386T635 274Q635 185 592 122T473
24T302 -10Q236 -10 182 6T87 52T21 118Q14 129 15 134T24 144L114 203Q120 207 125 204T139 191Q166 160 198 137T288 113Q340 113 379 133T441 187T463 263Q463 291 450 311T411 343T349 354Q325 354 303 349T259 333T214 311Q207 308 202 308T189 313L99 366Q91
371 91 380T93 402L168 723Q171 736 176 739T203 742H633Z" />
<glyph unicode="6" horiz-adv-x="685" d="M433 751Q475 751 514 739T584 706T634 659T657 602Q658 594 649 591L539 556Q530 554 517 576Q503 600 484 614T430 629Q378 629 339 603T275 532T241 428Q240 424 240 422T240 417Q240 414 242 414T252 416Q286 432
325 443T412 454Q484 454 536 429T616 361T644 259Q644 200 618 151T548 66T446 11T326 -9Q240 -9 179 27T86 129T53 284Q53 303 54 322T59 364Q76 485 128 571T258 704T433 751V751ZM372 339Q350 339 325 334T278 320T242 303Q226 293 222 276T218 232Q218 206
224 184T244 143T277 116T325 106Q365 106 398 127T452 181T472 252Q472 293 444 316T372 339V339Z" />
<glyph unicode="7" horiz-adv-x="619" d="M628 742Q643 742 647 734T649 716L639 661Q636 645 628 630T609 602Q565 548 524 487T446 360T380 233T329 116T299 19Q296 8 292 4T278 0H119Q108 0 103 9T103 33Q126 86 155 145T224 272T316 417T440 589Q445 595 444
598T433 602H99Q87 602 84 608T83 622L109 729Q111 737 116 739T131 742H628Z" />
<glyph unicode="8" horiz-adv-x="683" d="M399 752Q474 752 531 728T620 661T652 562Q652 527 640 501T609 455T568 421T528 396Q522 392 522 390T528 382Q541 374 559 363T595 335T625 291T637 224Q637 166 611 122T537 49T428 5T298 -10Q218 -10 157 10T63 71T29
169Q29 212 46 246T96 308T172 358Q179 361 180 365T173 374Q155 388 137 403T108 443T97 505Q97 572 135 628T240 718T399 752V752ZM400 637Q359 637 328 622T279 581T262 528Q262 505 275 490T319 464L393 441Q412 435 431 444T467 471T495 512T505 557Q505 594
477 615T400 637V637ZM305 105Q356 105 391 119T445 157T463 212Q463 238 448 256T395 286L303 315Q288 320 267 311T226 283T193 239T179 186Q179 148 212 127T305 105V105Z" />
<glyph unicode="9" horiz-adv-x="684" d="M282 -9Q231 -9 192 5T124 40T78 87T55 135Q53 146 63 151L171 184Q187 189 195 169Q209 143 229 128T286 113Q337 113 376 138T439 209T472 314Q473 324 470 325T456 323Q421 307 386 298T303 288Q231 288 179 313T99
382T71 483Q71 543 97 592T168 676T270 731T389 751Q475 751 536 715T629 614T661 458Q661 366 635 282T560 132T441 29T282 -9V-9ZM342 403Q365 403 387 408T431 422T469 442Q487 452 492 469T497 511Q497 537 491 559T471 599T438 626T391 636Q351 636 318 615T264
561T243 490Q243 449 271 426T342 403V403Z" />
<glyph unicode=":" horiz-adv-x="251" d="M223 374Q221 362 216 359T196 355H78Q66 355 61 362T56 381L73 504Q75 513 78 515T88 518H225Q233 518 237 512T240 497L223 374ZM173 22Q172 10 167 7T146 3H28Q16 3 11 10T7 29L24 152Q26 162 29 164T39 166H176Q183
166 187 160T190 145L173 22Z" />
<glyph unicode=";" horiz-adv-x="259" d="M-2 -159Q-10 -159 -15 -151T-17 -134L49 -22Q55 -10 56 -5T47 0H29Q17 0 12 7T8 24L25 151Q27 160 30 162T40 164H177Q185 164 189 158T192 143L175 23Q174 14 171 9L52 -145Q44 -153 35 -156T16 -159H-2V-159ZM77 350Q65
350 60 357T55 375L73 502Q75 511 78 513T88 516H225Q232 516 236 510T240 495L222 369Q220 356 216 353T195 350H77V350Z" />
<glyph unicode="&lt;" horiz-adv-x="577" d="M499 133Q497 117 489 115T469 118L69 281Q60 285 54 293T49 311L61 400Q62 412 68 417T84 426L529 590Q543 595 552 586T560 564L549 488Q548 475 540 468T512 454L222 351L476 247Q494 240 503 231T509 207L499 133Z" />
<glyph unicode="=" horiz-adv-x="583" d="M560 432Q558 421 553 418T534 415H94Q82 415 77 421T73 439L83 512Q85 521 87 523T97 526H555Q561 526 566 520T570 506L560 432ZM526 198Q525 186 520 183T501 180H61Q49 180 44 187T40 204L50 277Q52 286 54 288T64
291H522Q528 291 533 285T537 271L526 198Z" />
<glyph unicode="&gt;" horiz-adv-x="577" d="M53 216Q54 231 62 237T90 250L379 351L125 456Q88 472 92 497L103 573Q107 598 133 587L532 423Q541 420 548 412T553 391L540 302Q539 292 534 287T518 278L73 115Q60 110 50 118T42 142L53 216V216Z" />
<glyph unicode="?" horiz-adv-x="536" d="M299 19Q297 6 292 3T272 0H154Q141 0 136 7T132 25L150 149Q151 159 153 161T164 163H301Q308 163 313 157T316 142L299 19ZM64 579Q56 581 54 589T55 608Q98 678 167 715T326 752Q402 752 454 728T533 661T552 569Q545
523 521 491T464 432T398 381T341 323T309 246Q307 235 291 235H209Q199 235 193 243T189 266Q196 318 218 355T270 421T327 474T376 522T400 578Q405 610 383 628T323 647Q295 647 268 636T218 604T181 556Q176 551 173 552T161 555L64 579Z" />
<glyph unicode="@" horiz-adv-x="834" d="M624 -52Q583 -76 521 -94T384 -113Q291 -113 221 -83T107 0T46 122T39 270Q50 350 88 420T187 545T327 630T499 661Q568 661 631 642T741 582T810 479T821 330Q811 256 779 200T699 113T594 81Q564 81 544 89T514 110T501
135Q498 138 495 134T487 120Q461 97 426 82T349 67Q305 67 272 90T224 155T217 252Q225 311 256 362T336 444T445 475Q489 475 512 458T547 418Q551 418 555 422T561 432L567 446Q568 450 569 450T575 449H645Q650 449 653 445T655 437L589 225Q578 190 583 179T604
167Q630 167 656 187T702 245T730 341Q739 408 724 453T675 526T596 565T499 577Q416 577 352 551T242 481T169 378T132 255Q122 186 135 133T183 42T272 -15T398 -35Q443 -35 474 -27T531 -6T580 23Q590 26 595 22T601 13L629 -29Q632 -35 631 -40T624 -52V-52ZM324
246Q319 209 331 184T377 159Q407 159 434 177T481 225T507 287Q514 316 509 337T489 371T452 383Q423 383 396 365T349 316T324 246V246Z" />
<glyph unicode="A" horiz-adv-x="771" d="M4 0Q-5 0 -6 8T1 33L348 726Q354 737 361 739T380 742H530Q541 742 546 734T552 716L702 23Q704 15 701 8T689 0H543Q529 0 526 18L495 163Q494 171 483 171H241Q230 171 224 159L148 9Q146 3 143 2T130 0H4V0ZM461 304Q476
304 472 321L420 552Q419 562 415 562T405 552L289 319Q285 309 286 307T295 304H461Z" />
<glyph unicode="B" horiz-adv-x="723" d="M48 0Q39 0 37 5T36 23L134 725Q137 742 155 742H425Q560 742 632 698T704 569Q704 495 661 450T549 382Q542 381 542 378T546 372Q611 353 642 317T673 224Q673 157 646 113T571 45T465 10T344 0H48V0ZM345 118Q372 118
398 125T447 147T482 185T495 240Q495 265 482 281T444 306T387 314H268Q259 314 255 311T249 297L226 132Q225 124 227 121T236 118H345ZM397 436Q432 436 461 449T510 489T529 550Q529 587 500 605T420 624H314Q303 624 299 620T292 606L271 450Q270 441 272
439T280 436H397Z" />
<glyph unicode="C" horiz-adv-x="725" d="M445 752Q525 752 585 722T679 640T716 523Q716 504 701 504L571 496Q557 495 556 520Q552 568 526 599T444 630Q395 630 360 607T300 546T261 461T241 366T234 276Q234 193 265 156T361 119Q421 119 469 149T551 246Q557
260 576 255L680 229Q691 226 681 198Q672 179 655 152T610 97T544 44T457 5T350 -10Q257 -10 191 29T90 140T55 305Q55 373 70 438T117 560T195 660T304 728T445 752V752Z" />
<glyph unicode="D" horiz-adv-x="751" d="M59 0Q47 0 41 8T37 29L134 726Q136 736 140 739T155 742H366Q487 742 567 705T687 599T727 439Q727 305 673 206T519 54T278 0H59V0ZM297 123Q384 123 439 165T519 280T545 449Q545 508 525 545T466 600T370 618H310Q294
618 292 601L229 141Q228 132 230 128T241 123H297Z" />
<glyph unicode="E" horiz-adv-x="654" d="M135 727Q137 737 139 739T150 742H657Q673 742 669 720L656 631Q655 621 651 618T635 614H308Q301 614 298 611T292 599L271 449Q270 441 272 439T280 436H499Q508 436 510 433T511 422L497 321Q496 310 483 310H262Q251
310 249 296L227 140Q226 128 234 128H581Q590 128 592 125T593 113L580 13Q579 6 576 3T563 0H56Q33 0 36 25L135 727V727Z" />
<glyph unicode="F" horiz-adv-x="631" d="M135 727Q137 737 140 739T150 742H652Q664 742 662 726L648 631Q647 621 644 618T628 614H305Q299 614 296 611T291 595L269 439Q268 432 270 430T279 427H504Q511 427 513 425T514 416L500 315Q499 307 496 305T483
302H262Q255 302 252 299T247 284L210 18Q209 6 205 3T189 0H51Q38 0 36 4T36 25L135 727V727Z" />
<glyph unicode="G" horiz-adv-x="752" d="M345 -10Q254 -10 189 28T89 135T54 299Q54 392 82 474T162 618T286 716T449 752Q533 752 593 720T687 638T722 532Q722 513 715 512L578 492Q573 491 571 496T565 517Q562 548 548 573T507 614T442 629Q385 629 346 597T282
513T246 398T234 274Q234 186 268 150T362 113Q395 113 422 123T469 150T503 188T527 230L533 258Q540 271 524 271H401Q391 271 392 284L401 366Q402 377 411 377L697 376Q709 376 712 373T714 359L665 13Q663 0 649 0H619Q603 0 598 15L581 87Q578 94 573 93T561
85Q543 63 514 41T443 5T345 -10V-10Z" />
<glyph unicode="H" horiz-adv-x="751" d="M265 317Q259 317 256 314T250 300L210 19Q209 6 204 3T185 0H52Q39 0 37 4T35 19L135 727Q137 737 140 739T150 742H300Q307 742 309 739T309 727L273 465Q272 456 274 454T283 451H520Q528 451 531 457T535 472L572
729Q574 738 577 740T587 742H736Q743 742 745 738T745 718L646 16Q645 5 642 3T626 0H493Q480 0 476 5T473 23L512 309Q513 317 500 317H265Z" />
<glyph unicode="I" horiz-adv-x="315" d="M296 742Q311 742 308 720L210 20Q209 6 204 3T184 0H53Q40 0 38 7T36 25L135 727Q137 737 140 739T150 742H296Z" />
<glyph unicode="J" horiz-adv-x="447" d="M372 188Q362 116 334 73T258 10T142 -10Q106 -10 76 -5T22 8Q7 12 2 16T-2 29L23 131Q24 140 28 143T40 144Q54 141 69 138T103 134Q145 134 170 159T204 240L273 728Q274 737 277 739T288 742H435Q450 742 446 720L372
188V188Z" />
<glyph unicode="K" horiz-adv-x="744" d="M673 21Q682 0 661 0H511Q492 0 488 20L370 334Q367 341 363 336T351 322L247 216Q243 212 240 207T235 194L210 19Q209 8 204 4T185 0H52Q41 0 38 7T36 25L135 728Q137 737 140 739T150 742H294Q301 742 305 736T309
720L267 422Q265 412 268 416T277 426L562 729Q570 738 576 740T597 742H730Q744 742 746 737T740 722L510 491Q504 485 502 480T500 466L673 21V21Z" />
<glyph unicode="L" horiz-adv-x="627" d="M134 725Q137 742 150 742H298Q313 742 308 720L228 143Q225 128 237 128H558Q574 128 571 108L558 13Q557 5 553 3T540 0H56Q33 0 36 25L134 725V725Z" />
<glyph unicode="M" horiz-adv-x="949" d="M49 0Q39 0 37 5T37 27L135 727Q137 738 139 740T151 742H359Q369 742 374 738T381 724L474 305Q475 298 478 299T485 306L691 723Q698 742 713 742H932Q946 742 944 727L844 19Q843 6 838 3T820 0H692Q679 0 674 5T670
25L739 514Q741 521 738 521T731 513L486 12Q482 5 478 3T465 0H381Q372 0 368 4T361 20L258 510Q256 518 252 518T246 511L176 14Q175 5 172 3T159 0H49V0Z" />
<glyph unicode="N" horiz-adv-x="759" d="M744 742Q756 742 754 727L653 11Q652 0 637 0H535Q528 0 523 4T512 16L254 463Q251 469 247 468T241 457L179 16Q178 6 174 3T159 0H49Q40 0 37 6T35 22L135 727Q137 737 140 739T152 742H273Q284 742 289 738T299 723L535
306Q540 297 546 298T554 310L612 729Q614 738 617 740T629 742H744Z" />
<glyph unicode="O" horiz-adv-x="774" d="M355 -10Q260 -10 193 26T91 132T55 297Q55 315 56 335T60 377Q77 494 130 578T265 707T450 752Q543 752 610 715T712 607T748 440Q748 422 747 402T742 361Q726 245 674 162T540 35T355 -10V-10ZM360 113Q445 113 493
175T561 375Q565 404 567 428T569 474Q569 555 539 592T446 630Q362 630 312 565T241 358Q237 331 235 308T233 264Q233 185 264 149T360 113V113Z" />
<glyph unicode="P" horiz-adv-x="715" d="M261 284Q253 284 250 280T245 269L210 19Q209 6 204 3T185 0H50Q31 0 36 25L135 727Q137 736 139 739T150 742H449Q524 742 583 720T678 653T713 539Q713 458 674 401T566 314T412 284H261ZM535 539Q535 580 506 598T428
616H312Q301 616 297 612T291 598L267 424Q266 414 268 412T277 409H399Q439 409 469 426T517 473T535 539V539Z" />
<glyph unicode="Q" horiz-adv-x="775" d="M60 377Q77 495 130 578T265 707T449 752Q543 752 610 715T713 608T749 441Q749 422 748 402T743 361Q729 261 690 187T585 63Q574 55 577 48Q581 38 595 28T630 9T674 -3Q682 -4 685 -7T687 -17L674 -107Q673 -119 667
-122T641 -126Q605 -126 570 -114T503 -75T447 -6Q441 3 428 -1Q409 -6 391 -8T355 -10Q261 -10 194 26T91 132T55 297Q55 316 56 336T60 377V377ZM241 359Q237 331 235 307T233 263Q233 184 264 149T360 113Q444 113 493 175T562 376Q566 404 568 428T570 474Q570
554 540 592T445 630Q361 630 311 565T241 359V359Z" />
<glyph unicode="R" horiz-adv-x="722" d="M637 23Q645 0 623 0H476Q468 0 463 5T455 21L386 302Q385 308 382 310T370 312H264Q252 312 250 300L210 19Q209 6 203 3T182 0H55Q42 0 39 7T36 25L135 727Q137 737 139 739T150 742H462Q586 742 653 695T720 562Q720
511 700 467T645 389T560 338Q550 334 548 331T546 322L637 23V23ZM401 430Q443 430 474 445T522 487T539 551Q539 588 513 606T441 625H308Q296 625 293 608L269 443Q268 435 271 433T279 430H401V430Z" />
<glyph unicode="S" horiz-adv-x="677" d="M543 574Q523 596 487 613T396 630Q355 630 324 619T276 587T258 536Q258 520 267 507T292 483T331 465L482 413Q560 387 597 347T634 245Q634 163 591 106T473 20T307 -10Q199 -10 127 26T20 126Q16 136 16 141T24 152L103
200Q115 208 124 205T140 192Q163 165 185 146T238 117T322 107Q361 107 392 116T443 147T463 204Q463 229 445 246T387 276L241 325Q168 349 131 395T94 502Q94 559 118 605T186 684T284 734T403 752Q463 752 512 737T597 698T656 643Q663 635 663 629T657 619L568
560Q563 557 557 561T543 574V574Z" />
<glyph unicode="T" horiz-adv-x="681" d="M99 728Q100 736 103 739T117 742H699Q709 742 711 739T712 728L698 627Q697 620 693 618T681 616H494Q485 616 482 613T478 602L395 16Q394 7 390 4T379 0H237Q226 0 223 5T221 22L303 604Q304 616 293 616H99Q83 616
85 629L99 728Z" />
<glyph unicode="U" horiz-adv-x="721" d="M660 270Q645 165 601 104T488 16T328 -10Q185 -10 123 49T60 219Q60 238 61 257T66 298L127 727Q128 737 131 739T141 742H284Q293 742 297 735T300 720L237 266Q236 254 235 244T233 223Q233 165 262 140T346 115Q389
115 424 131T484 184T517 278L580 728Q582 737 584 739T594 742H708Q716 742 720 735T723 720L660 270V270Z" />
<glyph unicode="V" horiz-adv-x="733" d="M757 742Q778 742 768 721L426 17Q421 6 415 3T395 0H270Q257 0 251 3T242 17L99 722Q94 742 113 742H260Q274 742 277 721L370 220Q373 203 381 219L614 729Q618 737 623 739T635 742H757V742Z" />
<glyph unicode="W" horiz-adv-x="1084" d="M1102 742Q1118 742 1119 735T1113 707L811 17Q805 6 800 3T781 0H673Q660 0 653 3T645 18L578 459Q577 466 575 466T568 459L377 17Q372 6 366 3T347 0H234Q210 0 207 20L99 714Q97 728 101 735T121 742H248Q261 742
266 736T272 721L337 269Q339 260 342 260T349 269L544 729Q548 737 553 739T571 742H681Q694 742 697 737T702 721L769 263Q770 257 774 257T781 265L974 729Q977 737 982 739T1000 742H1102V742Z" />
<glyph unicode="X" horiz-adv-x="729" d="M653 35Q664 13 661 7T642 0H503Q492 0 485 3T474 15L363 246Q358 256 354 256T342 245L164 12Q159 3 151 2T131 0H14Q-2 0 -4 10T9 43L265 364Q274 373 276 379T274 396L107 722Q103 731 105 736T119 742H265Q278 742
283 739T293 726L390 522Q396 507 407 522L565 730Q571 738 577 740T595 742H724Q738 742 737 732T730 713L482 405Q473 395 473 390T475 377L653 35V35Z" />
<glyph unicode="Y" horiz-adv-x="735" d="M759 742Q770 742 772 736T769 721L477 333Q470 325 467 315T460 279L423 20Q421 6 416 3T396 0H264Q253 0 250 5T248 21L287 295Q289 308 288 315T283 331L100 722Q95 732 97 737T113 742H263Q275 742 280 737T290 721L402
460Q407 447 416 460L605 728Q612 738 616 740T633 742H759V742Z" />
<glyph unicode="Z" horiz-adv-x="681" d="M21 0Q9 0 4 4T0 21L5 61Q7 72 10 80T25 101L437 603Q443 610 443 611T436 613H130Q110 613 113 637L126 730Q128 738 130 740T139 742H696Q710 742 708 724L701 680Q700 671 698 665T687 648L263 138Q255 130 265 130H605Q614
130 617 128T618 116L603 13Q602 6 599 3T586 0H21V0Z" />
<glyph unicode="[" horiz-adv-x="316" d="M30 -165Q20 -165 13 -157T7 -140L129 729Q130 738 133 740T148 742H353Q359 742 363 738T366 727L357 662Q356 656 355 656T347 655H267Q257 655 250 648T240 629L142 -66Q141 -76 143 -77T155 -78H235Q243 -78 247 -84T251
-96L242 -154Q241 -163 240 -164T229 -165H30V-165Z" />
<glyph unicode="\" horiz-adv-x="365" d="M242 -17Q219 -17 216 7L72 719Q68 733 70 737T84 742H152Q159 742 165 736T172 724L320 -6Q321 -13 320 -15T309 -17H242V-17Z" />
<glyph unicode="]" horiz-adv-x="316" d="M-29 -165Q-36 -165 -40 -161T-43 -150L-34 -85Q-33 -79 -31 -79T-23 -78H56Q67 -78 74 -71T83 -52L181 643Q182 654 181 654T169 655H88Q81 655 77 661T73 673L81 731Q83 740 84 741T94 742H294Q305 742 311 734T317
717L195 -152Q194 -161 191 -163T176 -165H-29V-165Z" />
<glyph unicode="^" horiz-adv-x="475" d="M261 364Q259 373 253 370T242 356L117 130Q114 124 110 124T97 125H29Q21 125 18 132T18 149L221 508Q234 531 254 537T292 535T316 501L419 139Q422 130 420 128T409 125H344Q337 125 330 128T321 137L261 364Z" />
<glyph unicode="_" horiz-adv-x="544" d="M441 -125Q440 -137 435 -140T415 -143H15Q3 -143 -2 -136T-5 -119L5 -46Q7 -37 9 -35T19 -32H436Q443 -32 448 -38T451 -52L441 -125Z" />
<glyph unicode="`" horiz-adv-x="306" d="M99 741Q103 748 108 749T119 749L339 651Q346 647 348 643T347 631L330 593Q326 586 322 586T307 587L84 649Q71 652 68 657T69 672L99 741V741Z" />
<glyph unicode="a" horiz-adv-x="563" d="M321 49Q289 18 247 4T157 -10Q86 -10 47 26T7 120Q7 177 36 215T112 278T214 313T321 325L357 328Q376 328 379 347L382 368Q383 372 383 376T383 384Q383 414 365 429T314 444Q282 444 251 431T197 382Q194 377 190
376T175 376L78 399Q72 401 69 408T73 432Q106 488 170 514T322 540Q397 540 443 522T510 472T531 397Q531 390 531 383T529 368L479 18Q478 5 475 3T461 0H358Q348 0 345 7T341 26L342 52Q340 70 321 49V49ZM364 241Q365 249 364 251T354 253L318 250Q297 249
270 243T218 226T177 194T160 144Q160 121 177 106T225 91Q253 91 275 99T314 119Q331 132 342 146T355 176L364 241Z" />
<glyph unicode="b" horiz-adv-x="609" d="M44 0Q31 0 26 7T22 26L121 727Q122 737 125 739T135 742H264Q272 742 273 735T273 719L242 493Q241 485 244 484T255 490Q274 504 296 515T344 533T399 540Q460 540 499 514T559 440T580 327Q580 269 565 210T518 100T436
20T316 -10Q280 -10 252 1T203 32T169 73Q166 78 161 77T151 64L137 18Q134 7 129 4T114 0H44ZM197 178Q194 149 203 128T232 95T277 84Q319 84 348 110T393 175T418 257T426 336Q426 391 406 416T345 442Q310 442 281 426T228 385L197 178Z" />
<glyph unicode="c" horiz-adv-x="551" d="M330 540Q396 540 439 516T507 456T538 380Q538 372 536 369T523 365L422 356Q416 355 413 361T408 377Q400 394 392 408T371 430T333 439Q293 439 264 417T217 358T191 282T182 206Q182 146 207 118T279 89Q326 89 355
110T414 176Q418 181 430 178L501 161Q508 160 510 153T509 134Q498 114 478 89T428 42T357 5T265 -10Q194 -10 141 19T58 101T28 224Q28 286 49 343T110 444T206 514T330 540V540Z" />
<glyph unicode="d" horiz-adv-x="609" d="M389 0Q381 0 375 4T369 18L374 47Q376 55 372 56T360 50Q342 35 320 21T271 -1T209 -10Q128 -10 78 43T28 202Q28 267 46 327T98 435T179 512T286 540Q328 540 356 525T408 481Q416 473 423 475T433 500L466 727Q467
736 472 739T485 742H607Q620 742 618 718L518 19Q517 8 512 4T494 0H389ZM420 395Q402 419 382 430T335 441Q292 441 263 417T217 354T191 273T182 196Q182 157 193 133T224 97T270 86Q300 86 325 100T368 135T387 179L420 395Z" />
<glyph unicode="e" horiz-adv-x="586" d="M269 -10Q197 -10 143 19T59 101T28 222Q28 284 50 340T113 442T209 514T332 540Q401 540 452 513T532 433T561 307Q561 294 560 280T557 251Q556 243 551 240T534 236H197Q187 236 184 223T181 193Q181 145 212 120T291
95Q329 95 362 110T427 161Q432 166 437 166T450 162L516 131Q536 122 523 105Q483 61 445 36T364 0T269 -10V-10ZM396 316Q406 316 413 324T420 355Q420 391 399 418T333 446Q300 446 271 429T223 383T200 316H396Z" />
<glyph unicode="f" horiz-adv-x="402" d="M403 530Q413 530 416 526T417 515L407 438Q404 424 390 424H303Q295 424 292 409L237 14Q236 5 233 3T222 0H99Q92 0 87 6T83 22L139 416Q141 424 133 424H56Q48 424 47 430T45 444L56 517Q57 524 60 527T73 530H140Q147
530 152 535T158 549L166 610Q175 675 216 708T327 742H428Q439 742 445 737T450 723L442 651Q441 639 426 639H374Q352 639 334 624T312 583L306 541Q305 530 318 530H403V530Z" />
<glyph unicode="g" horiz-adv-x="633" d="M221 -174Q100 -174 31 -143T-38 -56Q-38 -16 -7 9T67 50Q77 53 79 58T71 66Q49 76 38 91T26 130Q26 156 42 175T83 207T131 228Q142 232 144 236T137 245Q101 260 81 288T61 356Q61 404 82 438T140 494T220 527T312 538Q384
538 424 523T485 488Q492 482 501 488T517 502Q532 518 552 529T592 546T626 553Q637 553 643 550T648 534L638 466Q637 452 633 448T619 444Q604 444 588 444T564 441Q530 437 539 416Q542 410 543 402T545 381Q545 334 521 302T459 249T375 219T287 209Q279 209
260 208T220 203T183 191T167 169Q167 160 180 156T223 150L365 142Q459 136 502 100T545 4Q545 -39 526 -70T473 -121T397 -152T310 -169T221 -174V-174ZM229 -101Q269 -101 302 -96T358 -81T394 -56T407 -19Q407 2 391 11T337 23L185 31Q166 29 144 21T107 -2T91
-39Q91 -70 124 -85T229 -101V-101ZM291 285Q322 285 348 297T391 333T407 392Q407 423 384 442T314 461Q283 461 257 447T214 409T197 351Q197 322 222 304T291 285V285Z" />
<glyph unicode="h" horiz-adv-x="597" d="M43 0Q32 0 27 7T22 25L121 728Q123 737 127 739T139 742H259Q274 742 272 724L237 480Q235 465 245 472Q281 497 310 512T367 533T421 540Q491 540 528 505T565 407Q565 400 565 392T562 376L512 20Q510 8 506 4T488
0H377Q354 0 358 25L406 363Q407 367 407 371T407 379Q407 404 393 416T349 429Q327 429 307 421T267 399T225 363L176 19Q174 6 169 3T150 0H43Z" />
<glyph unicode="i" horiz-adv-x="265" d="M175 20Q173 6 168 3T149 0H43Q30 0 26 7T22 25L91 515Q92 525 95 527T106 530H233Q240 530 242 523T244 508L175 20ZM260 615Q258 602 253 598T233 594H118Q108 594 105 602T104 621L119 722Q122 742 137 742H264Q271
742 273 735T274 719L260 615Z" />
<glyph unicode="j" horiz-adv-x="265" d="M173 1Q161 -87 114 -128T-27 -170Q-72 -170 -85 -164T-97 -145L-86 -66Q-85 -60 -82 -56T-71 -49L-29 -44Q-10 -42 3 -29T21 17L91 515Q93 525 96 527T107 530H229Q237 530 241 523T245 508L173 1V1ZM260 615Q258 602
253 598T233 594H118Q108 594 105 602T104 621L119 722Q122 742 137 742H264Q271 742 273 735T274 719L260 615Z" />
<glyph unicode="k" horiz-adv-x="604" d="M547 20Q550 12 548 6T534 0H403Q393 0 388 7T379 24L304 228Q299 243 286 230L206 158Q202 154 198 148T191 132L176 20Q174 6 169 3T150 0H45Q31 0 26 7T22 25L121 727Q123 737 126 739T136 742H264Q271 742 273 735T274
720L217 309Q216 304 217 305T225 314L443 518Q451 526 457 528T471 530H578Q592 530 596 521T591 502L429 360Q423 354 420 349T419 331L547 20V20Z" />
<glyph unicode="l" horiz-adv-x="266" d="M176 20Q174 6 169 3T149 0H43Q30 0 25 7T21 25L124 727Q125 737 127 739T138 742H264Q277 742 274 723L176 20Z" />
<glyph unicode="m" horiz-adv-x="919" d="M43 0Q31 0 26 7T22 25L91 516Q92 525 95 527T105 530H232Q240 530 241 526T241 513L235 472Q233 459 243 467Q273 490 301 506T359 532T418 541Q472 541 504 516T547 449Q549 444 553 446T566 457Q594 481 625 499T687
529T749 540Q813 540 849 504T886 405Q886 398 886 391T884 374L835 20Q833 8 829 4T811 0H700Q677 0 681 25L728 357Q730 362 730 368T730 379Q730 403 717 416T675 429Q654 429 635 421T598 401T568 375Q561 368 557 361T551 346L504 20Q503 8 499 4T481 0H371Q361
0 356 7T352 25L400 363Q404 396 391 412T345 429Q324 429 304 421T265 399T225 363L175 19Q173 6 169 3T149 0H43V0Z" />
<glyph unicode="n" horiz-adv-x="596" d="M36 0Q26 0 24 7T22 25L91 516Q92 525 95 527T105 530H233Q239 530 241 528T242 517L235 467Q234 455 245 465Q286 499 330 519T420 540Q488 540 526 503T564 406Q564 399 564 392T562 378L512 20Q510 8 505 4T487 0H372Q361
0 359 7T358 25L405 359Q406 365 406 370T407 378Q407 403 393 416T348 429Q326 429 306 421T266 399T225 363L175 19Q173 6 168 3T148 0H36V0Z" />
<glyph unicode="o" horiz-adv-x="599" d="M266 -10Q193 -10 140 19T57 101T28 223Q28 293 52 351T119 452T216 517T333 540Q406 540 459 510T541 426T570 302Q570 213 530 142T421 31T266 -10V-10ZM270 92Q311 92 344 119T398 200T418 332Q418 386 396 413T331
441Q290 441 256 413T202 331T182 199Q182 146 204 119T270 92V92Z" />
<glyph unicode="p" horiz-adv-x="609" d="M8 -165Q1 -165 -1 -158T-1 -142L90 513Q92 524 95 527T112 530H222Q233 530 238 527T242 513L238 483Q237 477 242 478T255 485Q274 498 294 511T341 532T403 540Q480 540 530 488T580 330Q580 273 566 214T523 103T445
21T329 -10Q288 -10 255 5T199 48Q189 59 184 52T176 31L151 -152Q150 -161 148 -163T137 -165H8V-165ZM274 87Q317 87 346 112T392 177T418 260T427 339Q427 378 416 400T385 433T339 443Q310 443 284 430T242 398T223 359L189 134Q206 111 226 99T274 87V87Z"
/>
<glyph unicode="q" horiz-adv-x="609" d="M353 -165Q339 -165 342 -143L367 28Q369 37 367 38T355 34Q324 15 289 3T217 -10Q128 -10 79 47T29 207Q29 262 43 320T89 429T171 510T290 541Q334 541 364 529T414 497T445 457Q448 452 452 453T463 468L483 513Q487
524 491 527T505 530H573Q583 530 586 525T588 503L496 -151Q495 -160 489 -162T475 -165H353V-165ZM269 86Q301 86 329 99T379 135L412 351Q417 380 409 401T381 435T334 448Q293 448 264 423T218 358T192 277T183 198Q183 140 206 113T269 86V86Z" />
<glyph unicode="r" horiz-adv-x="426" d="M43 0Q31 0 26 7T22 25L91 516Q92 525 95 527T105 530H224Q232 530 236 525T238 509L231 464Q230 454 233 454T244 459Q267 484 294 502T349 530T400 540Q420 540 430 537T440 525L424 413Q423 402 421 399T412 397Q392
400 374 401T344 402Q324 402 303 395T262 374T231 344T216 311L175 19Q173 6 168 3T149 0H43V0Z" />
<glyph unicode="s" horiz-adv-x="530" d="M237 -10Q140 -10 82 24T2 106Q-5 121 9 129L74 160Q84 165 91 164T105 153Q120 126 148 107T233 87Q246 87 265 89T303 98T335 117T348 150Q348 165 334 176T286 197L187 222Q120 239 87 270T54 352Q54 414 88 455T179
518T299 540Q378 540 428 510T502 438Q506 433 506 427T497 417L431 387Q424 384 419 386T404 399Q390 419 363 432T296 446Q273 446 250 441T211 422T195 388Q195 374 204 365T242 346L352 319Q424 302 455 264T486 177Q486 129 465 94T407 35T327 1T237 -10V-10Z"
/>
<glyph unicode="t" horiz-adv-x="432" d="M231 0Q167 0 130 28T93 109Q93 115 93 121T94 134L134 412Q135 419 131 421T118 424H56Q43 424 45 446L56 519Q57 527 60 528T72 530H141Q146 530 150 534T156 545L192 697Q195 710 211 710H319Q326 710 329 705T331
687L309 542Q308 537 311 534T319 531H422Q430 531 435 528T439 517L428 437Q427 429 424 427T409 424H303Q290 424 287 408L253 166Q252 161 252 157T252 148Q252 125 265 117T309 108H363Q370 108 374 101T378 87L368 25Q366 6 349 4Q332 3 311 2T268 1T231 0V0Z"
/>
<glyph unicode="u" horiz-adv-x="592" d="M170 -10Q109 -10 71 27T33 126Q33 133 33 141T34 156L84 510Q86 522 90 526T108 530H218Q229 530 234 523T237 504L190 171Q189 166 189 162T189 154Q189 126 204 114T244 101Q278 101 308 119T367 163L418 511Q419 523
424 526T443 530H551Q563 530 568 523T572 504L500 14Q499 5 497 3T486 0H367Q360 0 356 3T352 14L360 63Q361 69 357 69T346 63Q300 23 258 7T170 -10V-10Z" />
<glyph unicode="v" horiz-adv-x="573" d="M572 530Q582 530 586 521T587 503L320 17Q314 6 308 3T288 0H217Q205 0 197 7T188 25L57 510Q53 530 71 530H198Q206 530 212 524T219 510L293 214Q298 199 309 223L464 518Q472 530 485 530H572V530Z" />
<glyph unicode="w" horiz-adv-x="818" d="M815 530Q825 530 829 521T830 503L597 12Q594 3 590 2T577 0H495Q472 0 471 22L422 297Q420 308 416 304T408 290L281 12Q277 3 274 2T260 0H175Q153 0 152 22L58 510Q54 530 72 530H190Q197 530 203 524T210 510L261
226Q262 217 266 221T275 235L402 518Q408 530 423 530H507Q514 530 520 524T527 510L575 226Q577 217 581 221T589 235L716 518Q724 530 738 530H815V530Z" />
<glyph unicode="x" horiz-adv-x="591" d="M526 30Q537 11 536 6T517 0H392Q380 0 372 6T360 20L277 163Q271 174 266 172T251 158L126 12Q120 4 109 2T86 0H-4Q-20 0 -20 11T-1 44L193 254Q202 264 204 270T202 286L69 506Q64 515 66 522T83 530H205Q218 530 225
525T235 510L310 379Q314 373 318 376T327 387L435 518Q441 527 447 528T468 530H565Q580 530 580 521T572 503L393 301Q384 292 383 286T385 271L526 30V30Z" />
<glyph unicode="y" horiz-adv-x="566" d="M37 -165Q9 -165 -3 -161T-13 -145L-2 -68Q-1 -61 7 -57T33 -53H99Q118 -53 134 -45T161 -24T177 3T179 29L51 502Q44 530 66 530H203Q219 530 221 517L291 219Q293 207 299 207T311 221L459 510Q465 521 471 525T485
530H571Q590 530 578 511L301 4Q272 -48 245 -81T188 -132T122 -157T37 -165V-165Z" />
<glyph unicode="z" horiz-adv-x="519" d="M6 0Q-6 0 -9 4T-11 19L-6 54Q-4 67 1 74T19 97L309 415Q315 422 313 427T298 433H84Q74 433 72 438T71 453L80 515Q82 523 88 526T101 530H513Q526 530 524 516L518 475Q517 465 512 458T497 439L204 118Q197 110 200
104T212 98H453Q469 98 466 82L457 17Q456 10 453 5T438 0H6V0Z" />
<glyph unicode="{" horiz-adv-x="366" d="M221 -165Q190 -165 162 -157T113 -132T81 -92T74 -37L103 171Q106 195 99 213T71 243T15 254Q9 254 5 260T1 275L8 320Q10 329 10 330T13 332Q71 332 101 357T139 428L167 624Q173 665 199 691T263 729T339 742H402Q409
742 413 738T416 727L407 662Q406 656 404 656T396 655H364Q335 655 320 647T298 625T289 598L260 395Q254 359 235 338T192 308T144 294Q136 294 132 292T130 288Q156 287 180 276T219 241T229 175L200 -29Q196 -57 207 -67T255 -78H285Q292 -78 296 -84T301 -96L292
-154Q291 -163 290 -164T279 -165H221V-165Z" />
<glyph unicode="|" horiz-adv-x="251" d="M35 -165Q23 -165 18 -157T14 -135L149 831Q151 843 154 845T168 847H242Q251 847 256 841T260 826L123 -154Q122 -161 119 -163T108 -165H35Z" />
<glyph unicode="}" horiz-adv-x="366" d="M-29 -165Q-36 -165 -40 -161T-43 -150L-34 -85Q-33 -79 -31 -79T-23 -78H9Q39 -78 54 -70T76 -48T84 -21L113 182Q119 218 138 239T181 270T229 283Q238 283 242 285T243 289Q218 290 193 301T154 336T144 402L173 606Q177
635 167 645T118 655H88Q81 655 77 661T72 673L81 731Q83 740 84 741T94 742H152Q183 742 211 734T260 709T292 669T299 614L270 406Q267 382 274 364T301 334T357 323Q363 323 367 317T371 302L364 257Q363 248 362 247T359 245Q301 245 271 220T234 149L206 -47Q201
-87 175 -113T111 -152T34 -165H-29V-165Z" />
<glyph unicode="~" horiz-adv-x="609" d="M566 365Q536 329 497 311T417 293Q385 293 361 302T317 324T277 347T233 357Q195 357 166 335T112 287Q106 285 102 289T95 299L70 353Q68 359 68 364T75 379Q116 410 153 431T235 453Q267 453 291 444T334 422T373 400T416
390Q451 390 478 409T525 454Q533 459 539 454T548 439L568 395Q574 383 566 365V365Z" />
<glyph unicode="&#xa0;" horiz-adv-x="206" />
<glyph unicode="&#xa1;" horiz-adv-x="264" d="M232 379Q231 371 229 369T219 367H82Q75 367 70 373T66 390L84 514Q86 525 89 527T105 530H223Q238 530 244 523T249 502L232 379V379ZM162 -153Q162 -161 160 -163T150 -165H3Q-4 -165 -9 -158T-12 -142L85 283Q89
293 91 295T106 298H159Q173 298 179 291T184 271L162 -153V-153Z" />
<glyph unicode="&#xa2;" horiz-adv-x="558" d="M316 20Q314 7 310 4T291 0H239Q226 0 221 8T216 27L234 156Q236 168 241 171T258 174H313Q325 174 330 167T334 149L316 20V20ZM396 587Q394 575 389 572T370 568H318Q305 568 300 575T296 594L314 723Q316 735
321 738T338 742H393Q405 742 410 735T414 717L396 587V587ZM308 651Q374 651 417 627T485 567T516 491Q516 483 514 480T501 476L400 467Q394 466 391 472T386 488Q378 505 370 519T349 541T311 550Q271 550 242 528T195 469T169 393T160 317Q160 257 185 229T257
200Q304 200 333 221T392 287Q396 292 408 289L479 272Q486 271 488 264T487 245Q476 225 456 200T406 153T335 116T243 101Q172 101 119 130T36 212T6 335Q6 397 27 454T88 555T184 625T308 651V651Z" />
<glyph unicode="&#xa3;" horiz-adv-x="645" d="M-7 0Q-14 0 -19 7T-23 21L-9 119Q-7 126 -6 126T2 127H25Q63 127 92 154T131 239Q133 252 134 276T138 346Q137 348 136 348T129 347H44Q39 347 36 352T33 364L42 426Q43 431 44 431T49 432H116Q121 432 126 437T132
448L133 530Q134 584 156 626T214 696T297 738T392 752Q440 752 486 736T566 688T612 606Q616 602 615 601T606 597L498 565Q491 563 486 568T479 581Q470 602 455 616T410 630Q385 630 364 619T329 586T310 536Q308 517 308 490T309 434Q310 432 318 432H447Q452
432 456 427T459 418L450 353Q449 348 448 348T442 348H329Q321 348 317 343T310 329Q308 303 304 280T293 231Q287 208 277 190T257 159T236 135Q228 131 227 130T233 128H350Q394 128 424 146T472 205Q476 209 480 208T492 205L583 186Q592 184 597 177T598 158Q565
80 501 40T350 0H-7V0Z" />
<glyph unicode="&#xa4;" horiz-adv-x="575" d="M279 148Q245 148 217 158T167 185Q160 186 155 183T147 176L87 124Q83 120 79 123T69 132L30 177Q26 182 25 186T27 195L88 247Q96 256 95 270Q84 293 79 319T79 381Q83 410 94 438T123 494Q133 500 129 505L84
557Q81 561 80 566T82 576L134 622Q139 627 143 624T151 616L197 564Q200 560 204 564T211 571Q240 583 269 590T326 597Q360 597 389 587T440 560Q446 560 450 563T456 569L515 620Q518 622 520 619T524 613L570 560Q572 556 573 554T573 548L513 496Q507 490
507 482Q520 458 525 429T526 365Q522 336 511 306T478 248Q476 249 474 248T474 244L518 192Q521 189 522 186T522 179L462 127Q459 124 457 127T452 134L407 185Q405 187 402 184T396 177Q367 164 338 156T279 148V148ZM279 249Q316 249 348 268T401 317T428
381Q432 412 421 438T385 481T326 497Q289 497 257 478T204 429T178 365Q174 334 185 308T221 265T279 249V249Z" />
<glyph unicode="&#xa5;" horiz-adv-x="658" d="M718 742Q729 742 733 735T732 719L443 335Q436 327 432 317T425 282L388 20Q386 6 381 3T361 0H236Q223 0 218 7T214 26L252 296Q254 309 253 316T248 332L66 722Q61 732 63 737T79 742H230Q243 742 248 737T256
721L368 460Q372 451 376 454T385 466L571 728Q578 739 583 740T600 742H718V742ZM579 292Q578 281 573 278T554 275L120 274Q108 274 103 281T99 299L106 344Q108 353 110 355T119 357L570 358Q577 358 582 351T586 337L579 292ZM556 131Q555 119 550 116T531
113H97Q85 113 80 120T76 137L83 182Q85 191 87 193T97 196H547Q554 196 559 190T563 176L556 131Z" />
<glyph unicode="&#xa6;" horiz-adv-x="251" d="M118 429Q106 429 101 437T98 458L149 831Q151 843 154 845T168 847H242Q251 847 256 841T260 826L206 439Q205 432 202 431T191 429H118ZM35 -165Q23 -165 18 -157T14 -135L66 237Q67 249 70 251T84 253H158Q167
253 172 247T177 232L123 -154Q122 -161 119 -163T108 -165H35Z" />
<glyph unicode="&#xa7;" horiz-adv-x="506" d="M385 213Q426 189 444 157T455 79Q449 32 419 -4T338 -60T215 -80Q127 -80 72 -48T0 28Q-7 37 -7 41T-4 46L74 81Q82 85 86 80T94 67Q112 46 139 30T213 13Q255 13 284 29T318 77Q321 93 308 108T251 140L177 170Q99
201 66 240T42 341Q48 386 76 418T149 472Q122 490 107 509T87 552T85 601Q92 644 121 678T197 732T308 752Q386 752 437 721T503 649Q510 641 510 637T506 631L429 597Q421 593 417 598T409 611Q391 629 369 644T312 659Q275 659 250 642T222 599Q220 587 229
576T271 550L343 521Q425 488 459 447T485 343Q479 298 453 267T385 213V213ZM281 265Q302 264 318 273T345 298T359 331Q361 344 358 355T341 378T294 404L251 420Q228 418 210 407T181 380T167 347Q164 328 176 316T233 284L281 265V265Z" />
<glyph unicode="&#xa8;" horiz-adv-x="359" d="M197 628Q196 617 192 615T174 612H81Q69 612 65 618T62 635L75 729Q77 738 79 740T88 742H196Q203 742 207 736T210 722L197 628ZM400 628Q399 617 395 615T377 612H283Q272 612 268 618T265 635L278 729Q280 738
282 740T291 742H399Q406 742 410 736T413 722L400 628Z" />
<glyph unicode="&#xa9;" horiz-adv-x="830" d="M382 -10Q302 -10 236 20T125 103T59 228T50 379Q61 457 99 524T196 643T326 723T477 752Q556 752 622 722T734 638T800 514T810 363Q799 284 760 217T662 98T532 19T382 -10V-10ZM382 75Q447 75 503 96T605 158T679
254T719 379Q729 445 716 498T669 589T588 648T478 668Q412 668 355 646T254 584T180 487T140 363Q131 297 144 244T189 152T271 95T382 75V75ZM457 586Q508 586 542 567T595 518T619 458Q621 454 620 453T612 450L528 441Q523 440 520 445T517 459Q511 477 500
491T462 505Q435 505 412 490T373 443T350 365Q341 299 359 270T418 240Q455 240 479 261T523 313Q525 313 527 312T535 308L590 294Q601 292 597 272Q589 257 573 238T534 201T480 172T409 160Q348 160 304 188T240 266T228 380Q237 442 269 488T351 560T457 586V586Z"
/>
<glyph unicode="&#xaa;" horiz-adv-x="390" d="M251 751Q306 751 337 737T379 698T386 640L362 470Q360 456 360 446T361 420Q364 414 358 414T341 413H282Q273 413 271 418T267 430V445Q266 449 263 446T254 435Q227 420 207 414T161 407Q107 407 80 436T60 510Q67
557 113 584T247 616L274 619Q280 619 285 624T291 634L293 645Q295 668 286 678T252 688Q231 688 212 679T179 645Q176 643 175 645T166 648L102 663Q100 665 99 672T98 686Q121 718 155 734T251 751V751ZM156 499Q154 485 164 477T195 469Q212 469 227 476T251
493Q260 497 267 504T275 521L280 560Q281 565 281 565T272 565L248 564Q226 562 206 554T173 532T156 499V499Z" />
<glyph unicode="&#xab;" horiz-adv-x="487" d="M407 72Q409 66 408 66T397 65H342Q337 65 333 69T329 77L246 243Q243 252 242 261T246 278L378 453Q382 459 384 459T391 458H449Q455 458 459 453T461 440L362 264Q359 258 358 253T356 242L407 72ZM211 72Q213
66 212 66T201 65H145Q141 65 137 69T132 77L50 243Q46 252 46 261T50 278L182 453Q186 459 188 459T195 458H253Q258 458 263 453T265 440L166 264Q163 258 162 253T160 242L211 72Z" />
<glyph unicode="&#xac;" horiz-adv-x="583" d="M545 335Q545 324 539 321T520 318L80 317Q68 317 63 324T59 342L70 415Q72 424 74 426T83 429H541Q547 429 552 423T556 409L545 335ZM523 178Q522 167 519 165T501 162H419Q409 162 404 168T400 184L427 379Q429
388 431 389T439 391H537Q544 391 548 385T551 370L523 178Z" />
<glyph unicode="&#xad;" horiz-adv-x="380" d="M544 226Q543 214 538 211T519 208H284Q272 208 268 215T263 232L274 305Q276 314 278 316T288 319H540Q547 319 552 313T555 299L544 226Z" />
<glyph unicode="&#xae;" horiz-adv-x="545" d="M280 275Q213 275 162 308T86 397T70 521Q79 586 117 638T213 721T335 752Q402 752 453 719T529 629T545 505Q536 441 497 389T402 306T280 275V275ZM276 336Q330 336 373 358T444 423T481 521Q488 573 473 611T424
670T339 691Q285 691 242 668T170 603T134 505Q123 426 161 381T276 336V336ZM392 398Q393 395 393 395T390 394H339Q336 394 334 397T332 403L312 496Q311 498 311 497T304 496H275Q273 496 271 493T267 488L254 397Q254 393 254 393T248 394H204Q200 394 198
398T196 405L227 628Q228 632 227 631T229 630H335Q378 630 401 611T419 558Q417 537 404 523T373 501Q370 503 368 501T365 496L392 398V398ZM319 538Q334 538 345 547T359 571Q360 580 354 584T330 588H291Q287 588 284 586T280 579L274 539Q274 536 274 537T276
538H319V538Z" />
<glyph unicode="&#xaf;" horiz-adv-x="385" d="M429 653Q428 642 424 640T407 638H83Q73 638 69 644T65 660L74 725Q76 733 78 734T86 736H425Q431 736 435 730T439 717L429 653Z" />
<glyph unicode="&#xb0;" horiz-adv-x="464" d="M463 676Q456 627 429 590T362 533T273 512Q222 512 185 535T130 599T119 693Q126 742 152 779T220 836T309 857Q360 857 397 834T452 770T463 676V676ZM372 692Q378 727 361 747T307 768Q268 768 240 742T206 675Q202
640 219 619T271 598Q311 598 339 624T372 692V692Z" />
<glyph unicode="&#xb1;" horiz-adv-x="583" d="M506 53Q504 41 499 38T480 35H40Q28 35 24 42T20 59L30 132Q31 141 34 143T44 146H501Q508 146 513 140T516 126L506 53ZM558 423Q556 411 551 408T532 405H92Q81 405 76 412T72 430L82 503Q83 512 86 514T96 517H554Q560
517 565 511T569 496L558 423ZM256 218Q244 218 239 226T234 249L297 689Q298 701 301 703T315 705H388Q397 705 403 699T407 685L343 228Q342 221 339 220T329 218H256Z" />
<glyph unicode="&#xb2;" horiz-adv-x="452" d="M171 588Q215 622 240 645T277 687T289 725Q289 751 274 764T231 777Q204 777 177 760T127 708Q123 702 118 706L50 746Q44 749 54 763Q88 809 137 833T240 857Q287 857 322 842T376 799T396 732Q396 698 383 671T345
621T286 572L164 483Q159 479 159 477T163 474H353Q364 474 363 464L354 393Q353 388 351 386T342 384H14Q-2 384 0 400L7 448Q8 454 13 460T39 482L171 588Z" />
<glyph unicode="&#xb3;" horiz-adv-x="467" d="M79 782Q77 785 77 789T82 796Q113 824 158 840T251 857Q328 857 371 827T414 746Q414 707 387 676T321 632Q317 631 317 629T320 626Q356 616 377 590T398 530Q398 480 372 446T298 395T188 378Q145 378 112 389T56
418T19 460Q14 469 17 472L74 510Q81 514 84 509Q109 481 134 468T193 455Q234 455 262 476T291 530Q291 548 281 560T253 579T214 586L155 587Q148 587 148 594L157 658Q157 663 167 663L210 664Q236 665 258 675T293 701T306 737Q306 757 290 769T246 781Q213
781 189 769T136 734Q129 729 123 735L79 782V782Z" />
<glyph unicode="&#xb4;" horiz-adv-x="306" d="M351 671Q353 662 351 657T336 648L96 586Q85 583 80 588T72 601L65 636Q62 650 69 653L318 750Q324 753 328 751T336 738L351 671Z" />
<glyph unicode="&#xb5;" horiz-adv-x="592" d="M245 101Q278 101 308 119T367 163L418 511Q419 523 424 526T443 530H551Q563 530 568 523T572 504L500 14Q499 5 497 3T486 0H367Q360 0 355 6T351 21L359 71Q360 77 356 76T344 65Q321 42 300 29T260 7T220 -6Q200
-7 187 -8T165 -9L146 -145Q144 -159 139 -162T120 -165H15Q2 -165 -3 -158T-7 -140L84 510Q86 522 90 526T108 530H218Q229 530 234 523T237 504L189 162Q187 143 193 130T213 109T245 101V101Z" />
<glyph unicode="&#xb6;" horiz-adv-x="603" d="M558 655Q552 655 547 650T542 639L441 -75Q440 -81 440 -83T431 -85H364Q356 -85 352 -78T349 -66L449 650Q450 654 449 654T442 655H404Q399 655 394 650T388 639L287 -76Q287 -82 285 -83T277 -85H208Q203 -85
199 -80T195 -67L247 304Q247 308 247 308T245 310Q188 313 145 339T80 414T68 530Q77 588 110 636T199 713T334 742H605Q612 742 616 738T618 727L609 661Q608 655 607 655T600 655H558Z" />
<glyph unicode="&#xb7;" horiz-adv-x="248" d="M207 315Q206 304 202 301T184 298H72Q61 298 56 305T52 321L69 436Q70 446 72 447T81 449H210Q217 449 221 443T223 429L207 315Z" />
<glyph unicode="&#xb8;" horiz-adv-x="261" d="M194 -143Q189 -180 151 -199T66 -219Q34 -219 6 -212T-43 -191Q-48 -190 -51 -186T-53 -178L-33 -143Q-31 -139 -29 -142T-26 -149Q-11 -155 6 -160T42 -165Q68 -165 85 -154T104 -125Q107 -108 91 -100T28 -92Q20
-92 16 -88T14 -78L64 5H133L106 -51Q103 -54 102 -54T102 -54Q140 -55 161 -69T189 -103T194 -143V-143Z" />
<glyph unicode="&#xb9;" horiz-adv-x="367" d="M262 461Q272 461 270 452L261 388Q260 380 250 380H-2Q-13 380 -11 390L-2 454Q-1 461 8 461H75Q81 461 83 469L120 733Q121 738 113 737L47 718Q33 714 35 728L42 774Q44 781 45 783T52 788L164 840Q173 845 178
846T191 847H237Q246 847 244 836L192 466Q191 461 196 461H262V461Z" />
<glyph unicode="&#xba;" horiz-adv-x="399" d="M261 752Q314 752 350 729T402 664T411 569Q404 522 379 486T314 429T225 408Q173 408 137 431T85 494T76 586Q84 637 109 674T174 731T261 752V752ZM264 686Q228 686 206 657T176 572Q168 522 179 498T222 474Q259
474 281 504T312 589Q319 638 308 662T264 686V686Z" />
<glyph unicode="&#xbb;" horiz-adv-x="486" d="M122 250Q125 256 127 261T127 272L78 448Q77 455 78 456T85 458H143Q152 458 156 446L239 270Q242 262 242 253T237 235L107 70Q105 66 102 66T95 65H39Q31 65 26 69T23 80L122 250V250ZM318 250Q321 256 323 261T323
272L274 448Q273 455 274 456T282 458H339Q348 458 353 446L435 270Q438 262 439 253T433 235L304 70Q301 66 298 66T291 65H235Q227 65 222 69T220 80L318 250V250Z" />
<glyph unicode="&#xbc;" horiz-adv-x="941" d="M311 357Q321 357 319 348L310 284Q309 276 299 276H47Q36 276 38 286L47 350Q48 357 57 357H124Q130 357 132 365L169 629Q170 634 162 633L96 614Q82 610 84 624L91 670Q93 677 94 679T101 684L213 736Q222 741
227 742T240 743H286Q295 743 293 732L241 362Q240 357 245 357H311V357ZM246 3Q241 -3 236 -3T221 -4L179 -3Q166 -3 163 8T167 29L743 743Q749 751 754 751T766 750H819Q826 750 831 745T830 730L246 3ZM730 457Q736 463 740 465T755 467H837Q848 467 846 456L808
189Q808 185 812 185H866Q877 185 876 176L867 119Q867 113 865 112T856 110H804Q796 110 796 102L784 11Q783 4 780 2T767 0H685Q671 0 672 12L685 105Q686 110 680 110H488Q476 110 477 121L485 177Q486 183 490 189T504 207L730 457V457ZM690 185Q697 185 698
192L720 348Q721 354 719 354T712 347L576 193Q570 185 577 185H690Z" />
<glyph unicode="&#xbd;" horiz-adv-x="992" d="M322 357Q332 357 330 348L321 284Q320 276 310 276H58Q47 276 49 286L58 350Q59 357 68 357H135Q141 357 143 365L180 629Q181 634 173 633L107 614Q93 610 95 624L102 670Q104 677 105 679T112 684L224 736Q233
741 238 742T251 743H297Q306 743 304 732L252 362Q251 357 256 357H322V357ZM224 3Q219 -3 214 -3T199 -4L157 -3Q144 -3 141 8T145 29L721 743Q727 751 732 751T744 750H797Q804 750 809 745T808 730L224 3ZM703 204Q747 238 772 261T809 303T821 341Q821 367
806 380T763 393Q736 393 709 376T659 324Q655 318 650 322L582 362Q576 365 586 379Q620 425 669 449T772 473Q819 473 854 458T908 415T928 348Q928 314 915 287T877 237T818 188L696 99Q691 95 691 93T695 90H885Q896 90 895 80L886 9Q885 4 883 2T874 0H546Q530
0 532 16L539 64Q540 70 545 76T571 98L703 204Z" />
<glyph unicode="&#xbe;" horiz-adv-x="1011" d="M101 677Q99 680 99 684T104 691Q135 719 180 735T273 752Q350 752 393 722T436 641Q436 602 409 571T343 527Q339 526 339 524T342 521Q378 511 399 485T420 425Q420 375 394 341T320 290T210 273Q167 273 134
284T78 313T41 355Q36 364 39 367L96 405Q103 409 106 404Q131 376 156 363T215 350Q256 350 284 371T313 425Q313 443 303 455T275 474T236 481L177 482Q170 482 170 489L179 553Q179 558 189 558L232 559Q258 560 280 570T315 596T328 632Q328 652 312 664T268
676Q235 676 211 664T158 629Q151 624 145 630L101 677V677ZM303 3Q298 -3 293 -3T278 -4L236 -3Q223 -3 220 8T224 29L800 743Q806 751 811 751T823 750H876Q883 750 888 745T887 730L303 3ZM809 457Q815 463 819 465T834 467H916Q927 467 925 456L887 189Q887
185 891 185H945Q956 185 955 176L946 119Q946 113 944 112T935 110H883Q875 110 875 102L863 11Q862 4 859 2T846 0H764Q750 0 751 12L764 105Q765 110 759 110H567Q555 110 556 121L564 177Q565 183 569 189T583 207L809 457V457ZM769 185Q776 185 777 192L799
348Q800 354 798 354T791 347L655 193Q649 185 656 185H769Z" />
<glyph unicode="&#xbf;" horiz-adv-x="533" d="M234 511Q236 524 241 527T261 530H380Q392 530 397 523T401 505L383 381Q382 372 380 370T369 367H232Q225 367 221 373T217 388L234 511ZM476 -2Q483 -4 485 -12T484 -31Q442 -101 373 -138T213 -175Q131 -175
79 -150T4 -84T-12 8Q-6 46 12 73T54 120T107 157T160 192T202 234T225 291Q227 302 243 302H326Q335 302 341 294T345 271Q339 225 318 193T268 138T211 94T163 51T139 -1Q135 -30 157 -48T217 -67Q245 -67 272 -56T323 -25T359 21Q364 26 364 25T372 21L476 -2Z"
/>
<glyph unicode="&#xc0;" horiz-adv-x="771" d="M4 0Q-5 0 -6 8T1 33L348 726Q354 737 361 739T380 742H530Q541 742 546 734T552 716L702 23Q704 15 701 8T689 0H543Q529 0 526 18L495 163Q494 171 483 171H241Q230 171 224 159L148 9Q146 3 143 2T130 0H4V0ZM461
304Q476 304 472 321L420 552Q419 562 415 562T405 552L289 319Q285 309 286 307T295 304H461ZM353 953Q357 960 362 961T373 961L593 863Q600 859 602 855T601 843L584 805Q580 798 576 798T561 799L338 861Q325 864 322 869T323 884L353 953V953Z" />
<glyph unicode="&#xc1;" horiz-adv-x="771" d="M4 0Q-5 0 -6 8T1 33L348 726Q354 737 361 739T380 742H530Q541 742 546 734T552 716L702 23Q704 15 701 8T689 0H543Q529 0 526 18L495 163Q494 171 483 171H241Q230 171 224 159L148 9Q146 3 143 2T130 0H4V0ZM461
304Q476 304 472 321L420 552Q419 562 415 562T405 552L289 319Q285 309 286 307T295 304H461ZM610 883Q612 874 610 869T595 860L355 798Q344 795 339 800T331 813L324 848Q321 862 328 865L577 962Q583 965 587 963T595 950L610 883Z" />
<glyph unicode="&#xc2;" horiz-adv-x="771" d="M4 0Q-5 0 -6 8T1 33L348 726Q354 737 361 739T380 742H530Q541 742 546 734T552 716L702 23Q704 15 701 8T689 0H543Q529 0 526 18L495 163Q494 171 483 171H241Q230 171 224 159L148 9Q146 3 143 2T130 0H4V0ZM461
304Q476 304 472 321L420 552Q419 562 415 562T405 552L289 319Q285 309 286 307T295 304H461ZM483 885Q476 895 472 895T458 885L397 830Q390 824 386 823T372 821H288Q280 821 280 826T285 837L410 951Q417 958 424 959T443 961H516Q525 961 529 956T538 946L630
834Q636 825 634 823T622 821H542Q535 821 531 824T522 833L483 885Z" />
<glyph unicode="&#xc3;" horiz-adv-x="771" d="M4 0Q-5 0 -6 8T1 33L348 726Q354 737 361 739T380 742H530Q541 742 546 734T552 716L702 23Q704 15 701 8T689 0H543Q529 0 526 18L495 163Q494 171 483 171H241Q230 171 224 159L148 9Q146 3 143 2T130 0H4V0ZM461
304Q476 304 472 321L420 552Q419 562 415 562T405 552L289 319Q285 309 286 307T295 304H461ZM637 858Q621 851 597 844T545 837Q516 837 493 844T448 859T402 866Q378 866 364 857T329 837Q320 834 316 838T309 853L300 896Q299 903 297 910T305 924Q325 936
346 945T396 954Q427 954 452 946T500 930T544 922Q561 922 573 928T597 942T619 952Q629 954 635 949T642 935L647 884Q648 877 648 870T637 858V858Z" />
<glyph unicode="&#xc4;" horiz-adv-x="771" d="M4 0Q-5 0 -6 8T1 33L348 726Q354 737 361 739T380 742H530Q541 742 546 734T552 716L702 23Q704 15 701 8T689 0H543Q529 0 526 18L495 163Q494 171 483 171H241Q230 171 224 159L148 9Q146 3 143 2T130 0H4V0ZM461
304Q476 304 472 321L420 552Q419 562 415 562T405 552L289 319Q285 309 286 307T295 304H461ZM429 840Q428 829 424 827T406 824H313Q301 824 297 830T294 847L307 941Q309 950 311 952T320 954H428Q435 954 439 948T442 934L429 840ZM632 840Q631 829 627 827T609
824H515Q504 824 500 830T497 847L510 941Q512 950 514 952T523 954H631Q638 954 642 948T645 934L632 840Z" />
<glyph unicode="&#xc5;" horiz-adv-x="771" d="M4 0Q-5 0 -6 8T1 33L348 726Q354 737 361 739T380 742H530Q541 742 546 734T552 716L702 23Q704 15 701 8T689 0H543Q529 0 526 18L495 163Q494 171 483 171H241Q230 171 224 159L148 9Q146 3 143 2T130 0H4V0ZM461
304Q476 304 472 321L420 552Q419 562 415 562T405 552L289 319Q285 309 286 307T295 304H461ZM574 841Q567 796 533 767T454 737Q421 737 397 753T360 798T352 860Q358 902 393 930T472 959Q505 959 529 943T566 901T574 841V841ZM514 857Q517 876 506 887T475
899Q453 899 433 882T408 840Q407 822 418 809T448 796Q472 796 491 814T514 857V857Z" />
<glyph unicode="&#xc6;" horiz-adv-x="1077" d="M999 128Q1008 128 1013 123T1017 108L1004 13Q1003 6 1000 3T986 0H490Q478 0 473 7T468 25L488 164Q488 170 488 170T481 171H265Q259 171 254 167T246 157L146 9Q140 0 124 0H9Q0 0 -4 10T0 33L470 726Q476 737
481 739T498 742H1077Q1085 742 1089 736T1092 720L1079 630Q1078 621 1074 618T1059 614H748Q738 614 731 608T722 593L703 449Q702 440 704 438T713 436H918Q927 436 932 430T936 416L922 320Q921 314 920 312T909 310H700Q694 310 688 305T681 293L659 136Q658
129 658 129T665 128H999V128ZM488 304Q496 304 503 310T510 325L546 581Q549 600 538 597T515 573L340 317Q334 309 333 307T338 304H488V304Z" />
<glyph unicode="&#xc7;" horiz-adv-x="725" d="M445 752Q525 752 585 722T679 640T716 523Q716 504 701 504L571 496Q557 495 556 520Q552 568 526 599T444 630Q395 630 360 607T300 546T261 461T241 366T234 276Q234 193 265 156T361 119Q421 119 469 149T551
246Q557 260 576 255L680 229Q691 226 681 198Q672 179 655 152T610 97T544 44T457 5T350 -10Q257 -10 191 29T90 140T55 305Q55 373 70 438T117 560T195 660T304 728T445 752V752ZM445 -143Q440 -180 402 -199T317 -219Q285 -219 257 -212T208 -191Q203 -190 200
-186T198 -178L218 -143Q220 -139 222 -142T225 -149Q240 -155 257 -160T293 -165Q319 -165 336 -154T355 -125Q358 -108 342 -100T279 -92Q271 -92 267 -88T265 -78L315 5H384L357 -51Q354 -54 353 -54T353 -54Q391 -55 412 -69T440 -103T445 -143V-143Z" />
<glyph unicode="&#xc8;" horiz-adv-x="654" d="M135 727Q137 737 139 739T150 742H657Q673 742 669 720L656 631Q655 621 651 618T635 614H308Q301 614 298 611T292 599L271 449Q270 441 272 439T280 436H499Q508 436 510 433T511 422L497 321Q496 310 483 310H262Q251
310 249 296L227 140Q226 128 234 128H581Q590 128 592 125T593 113L580 13Q579 6 576 3T563 0H56Q33 0 36 25L135 727V727ZM310 953Q314 960 319 961T330 961L550 863Q557 859 559 855T558 843L541 805Q537 798 533 798T518 799L295 861Q282 864 279 869T280 884L310
953V953Z" />
<glyph unicode="&#xc9;" horiz-adv-x="654" d="M135 727Q137 737 139 739T150 742H657Q673 742 669 720L656 631Q655 621 651 618T635 614H308Q301 614 298 611T292 599L271 449Q270 441 272 439T280 436H499Q508 436 510 433T511 422L497 321Q496 310 483 310H262Q251
310 249 296L227 140Q226 128 234 128H581Q590 128 592 125T593 113L580 13Q579 6 576 3T563 0H56Q33 0 36 25L135 727V727ZM567 883Q569 874 567 869T552 860L312 798Q301 795 296 800T288 813L281 848Q278 862 285 865L534 962Q540 965 544 963T552 950L567 883Z"
/>
<glyph unicode="&#xca;" horiz-adv-x="654" d="M135 727Q137 737 139 739T150 742H657Q673 742 669 720L656 631Q655 621 651 618T635 614H308Q301 614 298 611T292 599L271 449Q270 441 272 439T280 436H499Q508 436 510 433T511 422L497 321Q496 310 483 310H262Q251
310 249 296L227 140Q226 128 234 128H581Q590 128 592 125T593 113L580 13Q579 6 576 3T563 0H56Q33 0 36 25L135 727V727ZM440 885Q433 895 429 895T415 885L354 830Q347 824 343 823T329 821H245Q237 821 237 826T242 837L367 951Q374 958 381 959T400 961H473Q482
961 486 956T495 946L587 834Q593 825 591 823T579 821H499Q492 821 488 824T479 833L440 885Z" />
<glyph unicode="&#xcb;" horiz-adv-x="654" d="M135 727Q137 737 139 739T150 742H657Q673 742 669 720L656 631Q655 621 651 618T635 614H308Q301 614 298 611T292 599L271 449Q270 441 272 439T280 436H499Q508 436 510 433T511 422L497 321Q496 310 483 310H262Q251
310 249 296L227 140Q226 128 234 128H581Q590 128 592 125T593 113L580 13Q579 6 576 3T563 0H56Q33 0 36 25L135 727V727ZM386 840Q385 829 381 827T363 824H270Q258 824 254 830T251 847L264 941Q266 950 268 952T277 954H385Q392 954 396 948T399 934L386 840ZM589
840Q588 829 584 827T566 824H472Q461 824 457 830T454 847L467 941Q469 950 471 952T480 954H588Q595 954 599 948T602 934L589 840Z" />
<glyph unicode="&#xcc;" horiz-adv-x="315" d="M296 742Q311 742 308 720L210 20Q209 6 204 3T184 0H53Q40 0 38 7T36 25L135 727Q137 737 140 739T150 742H296ZM129 953Q133 960 138 961T149 961L369 863Q376 859 378 855T377 843L360 805Q356 798 352 798T337
799L114 861Q101 864 98 869T99 884L129 953V953Z" />
<glyph unicode="&#xcd;" horiz-adv-x="315" d="M296 742Q311 742 308 720L210 20Q209 6 204 3T184 0H53Q40 0 38 7T36 25L135 727Q137 737 140 739T150 742H296ZM387 883Q389 874 387 869T372 860L132 798Q121 795 116 800T108 813L101 848Q98 862 105 865L354
962Q360 965 364 963T372 950L387 883Z" />
<glyph unicode="&#xce;" horiz-adv-x="315" d="M296 742Q311 742 308 720L210 20Q209 6 204 3T184 0H53Q40 0 38 7T36 25L135 727Q137 737 140 739T150 742H296ZM260 885Q253 895 249 895T235 885L174 830Q167 824 163 823T149 821H65Q57 821 57 826T62 837L187
951Q194 958 201 959T220 961H293Q302 961 306 956T315 946L407 834Q413 825 411 823T399 821H319Q312 821 308 824T299 833L260 885Z" />
<glyph unicode="&#xcf;" horiz-adv-x="315" d="M296 742Q311 742 308 720L210 20Q209 6 204 3T184 0H53Q40 0 38 7T36 25L135 727Q137 737 140 739T150 742H296ZM206 840Q205 829 201 827T183 824H90Q78 824 74 830T71 847L84 941Q86 950 88 952T97 954H205Q212
954 216 948T219 934L206 840ZM409 840Q408 829 404 827T386 824H292Q281 824 277 830T274 847L287 941Q289 950 291 952T300 954H408Q415 954 419 948T422 934L409 840Z" />
<glyph unicode="&#xd0;" horiz-adv-x="729" d="M395 329Q393 316 388 313T368 310H38Q26 310 21 317T17 335L27 408Q29 418 31 420T42 423H390Q397 423 402 416T405 402L395 329ZM36 0Q25 0 19 8T14 29L112 726Q113 736 117 739T133 742H343Q464 742 544 705T664
599T704 439Q704 305 651 206T497 54T255 0H36V0ZM274 123Q361 123 416 165T496 280T522 449Q522 508 502 545T443 600T347 618H287Q271 618 269 601L206 141Q205 132 208 128T218 123H274Z" />
<glyph unicode="&#xd1;" horiz-adv-x="759" d="M744 742Q756 742 754 727L653 11Q652 0 637 0H535Q528 0 523 4T512 16L254 463Q251 469 247 468T241 457L179 16Q178 6 174 3T159 0H49Q40 0 37 6T35 22L135 727Q137 737 140 739T152 742H273Q284 742 289 738T299
723L535 306Q540 297 546 298T554 310L612 729Q614 738 617 740T629 742H744ZM640 858Q624 851 600 844T548 837Q519 837 496 844T451 859T405 866Q381 866 367 857T332 837Q323 834 319 838T312 853L303 896Q302 903 300 910T308 924Q328 936 349 945T399 954Q430
954 455 946T503 930T547 922Q564 922 576 928T600 942T622 952Q632 954 638 949T645 935L650 884Q651 877 651 870T640 858V858Z" />
<glyph unicode="&#xd2;" horiz-adv-x="774" d="M355 -10Q260 -10 193 26T91 132T55 297Q55 315 56 335T60 377Q77 494 130 578T265 707T450 752Q543 752 610 715T712 607T748 440Q748 422 747 402T742 361Q726 245 674 162T540 35T355 -10V-10ZM360 113Q445 113
493 175T561 375Q565 404 567 428T569 474Q569 555 539 592T446 630Q362 630 312 565T241 358Q237 331 235 308T233 264Q233 185 264 149T360 113V113ZM358 953Q362 960 367 961T378 961L598 863Q605 859 607 855T606 843L589 805Q585 798 581 798T566 799L343
861Q330 864 327 869T328 884L358 953V953Z" />
<glyph unicode="&#xd3;" horiz-adv-x="774" d="M355 -10Q260 -10 193 26T91 132T55 297Q55 315 56 335T60 377Q77 494 130 578T265 707T450 752Q543 752 610 715T712 607T748 440Q748 422 747 402T742 361Q726 245 674 162T540 35T355 -10V-10ZM360 113Q445 113
493 175T561 375Q565 404 567 428T569 474Q569 555 539 592T446 630Q362 630 312 565T241 358Q237 331 235 308T233 264Q233 185 264 149T360 113V113ZM615 883Q617 874 615 869T600 860L360 798Q349 795 344 800T336 813L329 848Q326 862 333 865L582 962Q588
965 592 963T600 950L615 883Z" />
<glyph unicode="&#xd4;" horiz-adv-x="774" d="M355 -10Q260 -10 193 26T91 132T55 297Q55 315 56 335T60 377Q77 494 130 578T265 707T450 752Q543 752 610 715T712 607T748 440Q748 422 747 402T742 361Q726 245 674 162T540 35T355 -10V-10ZM360 113Q445 113
493 175T561 375Q565 404 567 428T569 474Q569 555 539 592T446 630Q362 630 312 565T241 358Q237 331 235 308T233 264Q233 185 264 149T360 113V113ZM488 885Q481 895 477 895T463 885L402 830Q395 824 391 823T377 821H293Q285 821 285 826T290 837L415 951Q422
958 429 959T448 961H521Q530 961 534 956T543 946L635 834Q641 825 639 823T627 821H547Q540 821 536 824T527 833L488 885Z" />
<glyph unicode="&#xd5;" horiz-adv-x="774" d="M355 -10Q260 -10 193 26T91 132T55 297Q55 315 56 335T60 377Q77 494 130 578T265 707T450 752Q543 752 610 715T712 607T748 440Q748 422 747 402T742 361Q726 245 674 162T540 35T355 -10V-10ZM360 113Q445 113
493 175T561 375Q565 404 567 428T569 474Q569 555 539 592T446 630Q362 630 312 565T241 358Q237 331 235 308T233 264Q233 185 264 149T360 113V113ZM642 858Q626 851 602 844T550 837Q521 837 498 844T453 859T407 866Q383 866 369 857T334 837Q325 834 321
838T314 853L305 896Q304 903 302 910T310 924Q330 936 351 945T401 954Q432 954 457 946T505 930T549 922Q566 922 578 928T602 942T624 952Q634 954 640 949T647 935L652 884Q653 877 653 870T642 858V858Z" />
<glyph unicode="&#xd6;" horiz-adv-x="774" d="M355 -10Q260 -10 193 26T91 132T55 297Q55 315 56 335T60 377Q77 494 130 578T265 707T450 752Q543 752 610 715T712 607T748 440Q748 422 747 402T742 361Q726 245 674 162T540 35T355 -10V-10ZM360 113Q445 113
493 175T561 375Q565 404 567 428T569 474Q569 555 539 592T446 630Q362 630 312 565T241 358Q237 331 235 308T233 264Q233 185 264 149T360 113V113ZM434 840Q433 829 429 827T411 824H318Q306 824 302 830T299 847L312 941Q314 950 316 952T325 954H433Q440
954 444 948T447 934L434 840ZM637 840Q636 829 632 827T614 824H520Q509 824 505 830T502 847L515 941Q517 950 519 952T528 954H636Q643 954 647 948T650 934L637 840Z" />
<glyph unicode="&#xd7;" horiz-adv-x="576" d="M449 149Q439 141 432 144T416 158L104 520Q97 528 96 534T102 548L161 600Q169 607 175 604T184 596L507 222Q511 218 512 212T508 201L449 149ZM62 203Q54 211 54 219T63 237L477 599Q486 608 492 605T504 593L550
541Q555 535 557 529T555 518L127 144Q121 139 116 142T107 151L62 203Z" />
<glyph unicode="&#xd8;" horiz-adv-x="764" d="M808 695Q812 690 814 684T810 672L715 590Q735 546 741 489T737 361Q721 245 669 162T535 35T350 -10Q278 -10 224 11T133 71L60 1Q49 -9 42 -6T25 7L-3 40Q-12 49 -14 56T-9 70L78 145Q59 191 52 249T55 377Q72
494 125 578T260 707T445 752Q516 752 571 730T663 667L743 743Q750 750 756 748T767 741L808 695V695ZM237 358Q234 336 234 316T235 277L547 568Q533 602 506 616T440 630Q356 630 307 565T237 358V358ZM556 375Q559 398 559 419T556 458L246 169Q261 139 288
127T355 114Q440 114 488 176T556 375V375Z" />
<glyph unicode="&#xd9;" horiz-adv-x="721" d="M660 270Q645 165 601 104T488 16T328 -10Q185 -10 123 49T60 219Q60 238 61 257T66 298L127 727Q128 737 131 739T141 742H284Q293 742 297 735T300 720L237 266Q236 254 235 244T233 223Q233 165 262 140T346 115Q389
115 424 131T484 184T517 278L580 728Q582 737 584 739T594 742H708Q716 742 720 735T723 720L660 270V270ZM344 953Q348 960 353 961T364 961L584 863Q591 859 593 855T592 843L575 805Q571 798 567 798T552 799L329 861Q316 864 313 869T314 884L344 953V953Z"
/>
<glyph unicode="&#xda;" horiz-adv-x="721" d="M660 270Q645 165 601 104T488 16T328 -10Q185 -10 123 49T60 219Q60 238 61 257T66 298L127 727Q128 737 131 739T141 742H284Q293 742 297 735T300 720L237 266Q236 254 235 244T233 223Q233 165 262 140T346 115Q389
115 424 131T484 184T517 278L580 728Q582 737 584 739T594 742H708Q716 742 720 735T723 720L660 270V270ZM602 883Q604 874 602 869T587 860L347 798Q336 795 331 800T323 813L316 848Q313 862 320 865L569 962Q575 965 579 963T587 950L602 883Z" />
<glyph unicode="&#xdb;" horiz-adv-x="721" d="M660 270Q645 165 601 104T488 16T328 -10Q185 -10 123 49T60 219Q60 238 61 257T66 298L127 727Q128 737 131 739T141 742H284Q293 742 297 735T300 720L237 266Q236 254 235 244T233 223Q233 165 262 140T346 115Q389
115 424 131T484 184T517 278L580 728Q582 737 584 739T594 742H708Q716 742 720 735T723 720L660 270V270ZM475 885Q468 895 464 895T450 885L389 830Q382 824 378 823T364 821H280Q272 821 272 826T277 837L402 951Q409 958 416 959T435 961H508Q517 961 521
956T530 946L622 834Q628 825 626 823T614 821H534Q527 821 523 824T514 833L475 885Z" />
<glyph unicode="&#xdc;" horiz-adv-x="721" d="M660 270Q645 165 601 104T488 16T328 -10Q185 -10 123 49T60 219Q60 238 61 257T66 298L127 727Q128 737 131 739T141 742H284Q293 742 297 735T300 720L237 266Q236 254 235 244T233 223Q233 165 262 140T346 115Q389
115 424 131T484 184T517 278L580 728Q582 737 584 739T594 742H708Q716 742 720 735T723 720L660 270V270ZM421 840Q420 829 416 827T398 824H305Q293 824 289 830T286 847L299 941Q301 950 303 952T312 954H420Q427 954 431 948T434 934L421 840ZM624 840Q623
829 619 827T601 824H507Q496 824 492 830T489 847L502 941Q504 950 506 952T515 954H623Q630 954 634 948T637 934L624 840Z" />
<glyph unicode="&#xdd;" horiz-adv-x="735" d="M759 742Q770 742 772 736T769 721L477 333Q470 325 467 315T460 279L423 20Q421 6 416 3T396 0H264Q253 0 250 5T248 21L287 295Q289 308 288 315T283 331L100 722Q95 732 97 737T113 742H263Q275 742 280 737T290
721L402 460Q407 447 416 460L605 728Q612 738 616 740T633 742H759V742ZM606 883Q608 874 606 869T591 860L351 798Q340 795 335 800T327 813L320 848Q317 862 324 865L573 962Q579 965 583 963T591 950L606 883Z" />
<glyph unicode="&#xde;" horiz-adv-x="723" d="M700 369Q691 298 651 250T547 178T403 153H243Q237 153 233 149T227 139L210 19Q209 6 204 3T185 0H57Q45 0 40 7T36 25L135 727Q137 737 140 739T150 742H293Q301 742 305 735T308 720L293 605Q292 600 292 600T297
600H439Q519 600 582 574T678 497T700 369V369ZM524 388Q531 433 501 453T417 474H297Q286 474 280 468T271 452L248 293Q247 284 248 282T258 279H390Q443 279 480 308T524 388V388Z" />
<glyph unicode="&#xdf;" horiz-adv-x="649" d="M397 742Q468 742 513 722T579 665T592 581Q588 546 570 521T521 477T443 437Q426 430 417 423T405 404Q405 398 409 394T426 383Q461 370 496 353T558 312T599 251T606 165Q598 107 566 68T483 10T369 -10Q327 -10
297 -1T248 22Q240 24 238 29T237 40L281 110Q285 116 289 113T295 105Q310 100 326 95T366 89Q405 89 434 108T468 166Q472 187 462 200T433 224T387 247Q358 258 334 275T298 320T290 385Q295 421 316 446T369 497Q388 509 406 522T437 551T453 589Q456 613 441
627T388 642Q338 642 305 611T265 530L192 15Q193 5 191 3T181 0H58Q51 0 46 6T42 21L95 394Q96 399 96 399T90 400H54Q46 400 41 405T37 419L47 493Q48 500 51 503T64 506H95Q104 506 108 513T114 529Q121 572 140 610T193 678T277 725T397 742V742Z" />
<glyph unicode="&#xe0;" horiz-adv-x="563" d="M321 49Q289 18 247 4T157 -10Q86 -10 47 26T7 120Q7 177 36 215T112 278T214 313T321 325L357 328Q376 328 379 347L382 368Q383 372 383 376T383 384Q383 414 365 429T314 444Q282 444 251 431T197 382Q194 377
190 376T175 376L78 399Q72 401 69 408T73 432Q106 488 170 514T322 540Q397 540 443 522T510 472T531 397Q531 390 531 383T529 368L479 18Q478 5 475 3T461 0H358Q348 0 345 7T341 26L342 52Q340 70 321 49V49ZM364 241Q365 249 364 251T354 253L318 250Q297
249 270 243T218 226T177 194T160 144Q160 121 177 106T225 91Q253 91 275 99T314 119Q331 132 342 146T355 176L364 241ZM229 741Q233 748 238 749T249 749L469 651Q476 647 478 643T477 631L460 593Q456 586 452 586T437 587L214 649Q201 652 198 657T199 672L229
741V741Z" />
<glyph unicode="&#xe1;" horiz-adv-x="563" d="M321 49Q289 18 247 4T157 -10Q86 -10 47 26T7 120Q7 177 36 215T112 278T214 313T321 325L357 328Q376 328 379 347L382 368Q383 372 383 376T383 384Q383 414 365 429T314 444Q282 444 251 431T197 382Q194 377
190 376T175 376L78 399Q72 401 69 408T73 432Q106 488 170 514T322 540Q397 540 443 522T510 472T531 397Q531 390 531 383T529 368L479 18Q478 5 475 3T461 0H358Q348 0 345 7T341 26L342 52Q340 70 321 49V49ZM364 241Q365 249 364 251T354 253L318 250Q297
249 270 243T218 226T177 194T160 144Q160 121 177 106T225 91Q253 91 275 99T314 119Q331 132 342 146T355 176L364 241ZM486 671Q488 662 486 657T471 648L231 586Q220 583 215 588T207 601L200 636Q197 650 204 653L453 750Q459 753 463 751T471 738L486 671Z"
/>
<glyph unicode="&#xe2;" horiz-adv-x="563" d="M321 49Q289 18 247 4T157 -10Q86 -10 47 26T7 120Q7 177 36 215T112 278T214 313T321 325L357 328Q376 328 379 347L382 368Q383 372 383 376T383 384Q383 414 365 429T314 444Q282 444 251 431T197 382Q194 377
190 376T175 376L78 399Q72 401 69 408T73 432Q106 488 170 514T322 540Q397 540 443 522T510 472T531 397Q531 390 531 383T529 368L479 18Q478 5 475 3T461 0H358Q348 0 345 7T341 26L342 52Q340 70 321 49V49ZM364 241Q365 249 364 251T354 253L318 250Q297
249 270 243T218 226T177 194T160 144Q160 121 177 106T225 91Q253 91 275 99T314 119Q331 132 342 146T355 176L364 241ZM359 673Q352 683 348 683T334 673L273 618Q266 612 262 611T248 609H164Q156 609 156 614T161 625L286 739Q293 746 300 747T319 749H392Q401
749 405 744T414 734L506 622Q512 613 510 611T498 609H418Q411 609 407 612T398 621L359 673Z" />
<glyph unicode="&#xe3;" horiz-adv-x="563" d="M321 49Q289 18 247 4T157 -10Q86 -10 47 26T7 120Q7 177 36 215T112 278T214 313T321 325L357 328Q376 328 379 347L382 368Q383 372 383 376T383 384Q383 414 365 429T314 444Q282 444 251 431T197 382Q194 377
190 376T175 376L78 399Q72 401 69 408T73 432Q106 488 170 514T322 540Q397 540 443 522T510 472T531 397Q531 390 531 383T529 368L479 18Q478 5 475 3T461 0H358Q348 0 345 7T341 26L342 52Q340 70 321 49V49ZM364 241Q365 249 364 251T354 253L318 250Q297
249 270 243T218 226T177 194T160 144Q160 121 177 106T225 91Q253 91 275 99T314 119Q331 132 342 146T355 176L364 241ZM513 646Q497 639 473 632T421 625Q392 625 369 632T324 647T278 654Q254 654 240 645T205 625Q196 622 192 626T185 641L176 684Q175 691
173 698T181 712Q201 724 222 733T272 742Q303 742 328 734T376 718T420 710Q437 710 449 716T473 730T495 740Q505 742 511 737T518 723L523 672Q524 665 524 658T513 646V646Z" />
<glyph unicode="&#xe4;" horiz-adv-x="563" d="M321 49Q289 18 247 4T157 -10Q86 -10 47 26T7 120Q7 177 36 215T112 278T214 313T321 325L357 328Q376 328 379 347L382 368Q383 372 383 376T383 384Q383 414 365 429T314 444Q282 444 251 431T197 382Q194 377
190 376T175 376L78 399Q72 401 69 408T73 432Q106 488 170 514T322 540Q397 540 443 522T510 472T531 397Q531 390 531 383T529 368L479 18Q478 5 475 3T461 0H358Q348 0 345 7T341 26L342 52Q340 70 321 49V49ZM364 241Q365 249 364 251T354 253L318 250Q297
249 270 243T218 226T177 194T160 144Q160 121 177 106T225 91Q253 91 275 99T314 119Q331 132 342 146T355 176L364 241ZM305 628Q304 617 300 615T282 612H189Q177 612 173 618T170 635L183 729Q185 738 187 740T196 742H304Q311 742 315 736T318 722L305 628ZM508
628Q507 617 503 615T485 612H391Q380 612 376 618T373 635L386 729Q388 738 390 740T399 742H507Q514 742 518 736T521 722L508 628Z" />
<glyph unicode="&#xe5;" horiz-adv-x="563" d="M321 49Q289 18 247 4T157 -10Q86 -10 47 26T7 120Q7 177 36 215T112 278T214 313T321 325L357 328Q376 328 379 347L382 368Q383 372 383 376T383 384Q383 414 365 429T314 444Q282 444 251 431T197 382Q194 377
190 376T175 376L78 399Q72 401 69 408T73 432Q106 488 170 514T322 540Q397 540 443 522T510 472T531 397Q531 390 531 383T529 368L479 18Q478 5 475 3T461 0H358Q348 0 345 7T341 26L342 52Q340 70 321 49V49ZM364 241Q365 249 364 251T354 253L318 250Q297
249 270 243T218 226T177 194T160 144Q160 121 177 106T225 91Q253 91 275 99T314 119Q331 132 342 146T355 176L364 241ZM459 685Q452 640 418 611T339 581Q306 581 282 597T245 642T237 704Q243 746 278 774T357 803Q390 803 414 787T451 745T459 685V685ZM399
701Q402 720 391 731T360 743Q338 743 318 726T293 684Q292 666 303 653T333 640Q357 640 376 658T399 701V701Z" />
<glyph unicode="&#xe6;" horiz-adv-x="918" d="M537 236Q529 236 523 229T514 208Q509 175 522 150T561 110T623 95Q652 95 675 103T720 129T764 168Q769 170 771 168T782 162L848 131Q854 129 857 122T854 105Q817 62 779 37T697 1T600 -10Q551 -10 514 4T450
40T405 88Q402 88 398 84T392 75Q362 49 329 30T255 0T164 -10Q78 -10 39 34T9 149Q20 225 93 271T305 324L353 328Q360 328 368 333T378 347L381 368Q386 406 369 425T311 444Q280 444 249 429T195 377Q190 371 187 372T174 376L77 399Q72 401 70 411T72 432Q97
468 129 492T207 528T318 540Q390 539 432 523T493 477Q531 510 574 525T664 540Q741 540 796 506T876 407T889 251Q888 242 886 240T872 236H537V236ZM668 446Q637 446 608 431T558 386T532 316L728 320Q738 320 744 325T751 343Q755 366 747 390T720 430T668
446V446ZM362 235Q364 243 362 245T350 247L312 244Q277 242 243 229T187 195T159 142Q155 116 172 100T226 85Q257 86 284 97T331 128T353 169L362 235V235Z" />
<glyph unicode="&#xe7;" horiz-adv-x="551" d="M330 540Q396 540 439 516T507 456T538 380Q538 372 536 369T523 365L422 356Q416 355 413 361T408 377Q400 394 392 408T371 430T333 439Q293 439 264 417T217 358T191 282T182 206Q182 146 207 118T279 89Q326
89 355 110T414 176Q418 181 430 178L501 161Q508 160 510 153T509 134Q498 114 478 89T428 42T357 5T265 -10Q194 -10 141 19T58 101T28 224Q28 286 49 343T110 444T206 514T330 540V540ZM359 -143Q354 -180 316 -199T231 -219Q199 -219 171 -212T122 -191Q117
-190 114 -186T112 -178L132 -143Q134 -139 136 -142T139 -149Q154 -155 171 -160T207 -165Q233 -165 250 -154T269 -125Q272 -108 256 -100T193 -92Q185 -92 181 -88T179 -78L229 5H298L271 -51Q268 -54 267 -54T267 -54Q305 -55 326 -69T354 -103T359 -143V-143Z"
/>
<glyph unicode="&#xe8;" horiz-adv-x="586" d="M269 -10Q197 -10 143 19T59 101T28 222Q28 284 50 340T113 442T209 514T332 540Q401 540 452 513T532 433T561 307Q561 294 560 280T557 251Q556 243 551 240T534 236H197Q187 236 184 223T181 193Q181 145 212
120T291 95Q329 95 362 110T427 161Q432 166 437 166T450 162L516 131Q536 122 523 105Q483 61 445 36T364 0T269 -10V-10ZM396 316Q406 316 413 324T420 355Q420 391 399 418T333 446Q300 446 271 429T223 383T200 316H396ZM241 741Q245 748 250 749T261 749L481
651Q488 647 490 643T489 631L472 593Q468 586 464 586T449 587L226 649Q213 652 210 657T211 672L241 741V741Z" />
<glyph unicode="&#xe9;" horiz-adv-x="586" d="M269 -10Q197 -10 143 19T59 101T28 222Q28 284 50 340T113 442T209 514T332 540Q401 540 452 513T532 433T561 307Q561 294 560 280T557 251Q556 243 551 240T534 236H197Q187 236 184 223T181 193Q181 145 212
120T291 95Q329 95 362 110T427 161Q432 166 437 166T450 162L516 131Q536 122 523 105Q483 61 445 36T364 0T269 -10V-10ZM396 316Q406 316 413 324T420 355Q420 391 399 418T333 446Q300 446 271 429T223 383T200 316H396ZM498 671Q500 662 498 657T483 648L243
586Q232 583 227 588T219 601L212 636Q209 650 216 653L465 750Q471 753 475 751T483 738L498 671Z" />
<glyph unicode="&#xea;" horiz-adv-x="586" d="M269 -10Q197 -10 143 19T59 101T28 222Q28 284 50 340T113 442T209 514T332 540Q401 540 452 513T532 433T561 307Q561 294 560 280T557 251Q556 243 551 240T534 236H197Q187 236 184 223T181 193Q181 145 212
120T291 95Q329 95 362 110T427 161Q432 166 437 166T450 162L516 131Q536 122 523 105Q483 61 445 36T364 0T269 -10V-10ZM396 316Q406 316 413 324T420 355Q420 391 399 418T333 446Q300 446 271 429T223 383T200 316H396ZM371 673Q364 683 360 683T346 673L285
618Q278 612 274 611T260 609H176Q168 609 168 614T173 625L298 739Q305 746 312 747T331 749H404Q413 749 417 744T426 734L518 622Q524 613 522 611T510 609H430Q423 609 419 612T410 621L371 673Z" />
<glyph unicode="&#xeb;" horiz-adv-x="586" d="M269 -10Q197 -10 143 19T59 101T28 222Q28 284 50 340T113 442T209 514T332 540Q401 540 452 513T532 433T561 307Q561 294 560 280T557 251Q556 243 551 240T534 236H197Q187 236 184 223T181 193Q181 145 212
120T291 95Q329 95 362 110T427 161Q432 166 437 166T450 162L516 131Q536 122 523 105Q483 61 445 36T364 0T269 -10V-10ZM396 316Q406 316 413 324T420 355Q420 391 399 418T333 446Q300 446 271 429T223 383T200 316H396ZM317 628Q316 617 312 615T294 612H201Q189
612 185 618T182 635L195 729Q197 738 199 740T208 742H316Q323 742 327 736T330 722L317 628ZM520 628Q519 617 515 615T497 612H403Q392 612 388 618T385 635L398 729Q400 738 402 740T411 742H519Q526 742 530 736T533 722L520 628Z" />
<glyph unicode="&#xec;" horiz-adv-x="265" d="M175 20Q173 6 168 3T149 0H43Q30 0 26 7T22 25L91 515Q92 525 95 527T105 530H228Q235 530 240 523T244 508L175 20ZM73 741Q77 748 82 749T93 749L313 651Q320 647 322 643T321 631L304 593Q300 586 296 586T281
587L58 649Q45 652 42 657T43 672L73 741V741Z" />
<glyph unicode="&#xed;" horiz-adv-x="265" d="M175 20Q173 6 168 3T149 0H43Q30 0 26 7T22 25L91 515Q92 525 95 527T105 530H228Q235 530 240 523T244 508L175 20ZM330 671Q332 662 330 657T315 648L75 586Q64 583 59 588T51 601L44 636Q41 650 48 653L297 750Q303
753 307 751T315 738L330 671Z" />
<glyph unicode="&#xee;" horiz-adv-x="265" d="M175 20Q173 6 168 3T149 0H43Q30 0 26 7T22 25L91 515Q92 525 95 527T105 530H228Q235 530 240 523T244 508L175 20ZM203 673Q196 683 192 683T178 673L117 618Q110 612 106 611T92 609H8Q0 609 0 614T5 625L130
739Q137 746 144 747T163 749H236Q245 749 249 744T258 734L350 622Q356 613 354 611T342 609H262Q255 609 251 612T242 621L203 673Z" />
<glyph unicode="&#xef;" horiz-adv-x="265" d="M175 20Q173 6 168 3T149 0H43Q30 0 26 7T22 25L91 515Q92 525 95 527T105 530H228Q235 530 240 523T244 508L175 20ZM149 628Q148 617 144 615T126 612H33Q21 612 17 618T14 635L27 729Q29 738 31 740T40 742H148Q155
742 159 736T162 722L149 628ZM352 628Q351 617 347 615T329 612H235Q224 612 220 618T217 635L230 729Q232 738 234 740T243 742H351Q358 742 362 736T365 722L352 628Z" />
<glyph unicode="&#xf0;" horiz-adv-x="599" d="M569 266Q557 182 516 120T410 24T266 -10Q185 -10 129 25T46 122T30 260Q41 337 83 395T189 487T327 520Q347 520 361 518T384 511Q371 538 353 561T304 609L177 539Q169 535 165 539T158 551L146 572Q139 586 146
589L254 642Q235 654 215 664T172 684Q166 684 163 688T163 697L236 749Q242 754 245 753T253 747Q287 739 315 727T369 700L459 752Q465 755 469 751T474 744L489 710Q491 707 492 705T489 699L420 667Q510 598 548 494T569 266V266ZM270 92Q307 92 336 113T385
172T412 264Q420 314 412 349T383 402T328 421Q291 421 261 400T212 340T184 247Q178 198 185 163T214 110T270 92V92Z" />
<glyph unicode="&#xf1;" horiz-adv-x="596" d="M36 0Q26 0 24 7T22 25L91 516Q92 525 95 527T105 530H233Q239 530 241 528T242 517L235 467Q234 455 245 465Q286 499 330 519T420 540Q488 540 526 503T564 406Q564 399 564 392T562 378L512 20Q510 8 505 4T487
0H372Q361 0 359 7T358 25L405 359Q406 365 406 370T407 378Q407 403 393 416T348 429Q326 429 306 421T266 399T225 363L175 19Q173 6 168 3T148 0H36V0ZM529 646Q513 639 489 632T437 625Q408 625 385 632T340 647T294 654Q270 654 256 645T221 625Q212 622 208
626T201 641L192 684Q191 691 189 698T197 712Q217 724 238 733T288 742Q319 742 344 734T392 718T436 710Q453 710 465 716T489 730T511 740Q521 742 527 737T534 723L539 672Q540 665 540 658T529 646V646Z" />
<glyph unicode="&#xf2;" horiz-adv-x="599" d="M266 -10Q193 -10 140 19T57 101T28 223Q28 293 52 351T119 452T216 517T333 540Q406 540 459 510T541 426T570 302Q570 213 530 142T421 31T266 -10V-10ZM270 92Q311 92 344 119T398 200T418 332Q418 386 396 413T331
441Q290 441 256 413T202 331T182 199Q182 146 204 119T270 92V92ZM241 741Q245 748 250 749T261 749L481 651Q488 647 490 643T489 631L472 593Q468 586 464 586T449 587L226 649Q213 652 210 657T211 672L241 741V741Z" />
<glyph unicode="&#xf3;" horiz-adv-x="599" d="M266 -10Q193 -10 140 19T57 101T28 223Q28 293 52 351T119 452T216 517T333 540Q406 540 459 510T541 426T570 302Q570 213 530 142T421 31T266 -10V-10ZM270 92Q311 92 344 119T398 200T418 332Q418 386 396 413T331
441Q290 441 256 413T202 331T182 199Q182 146 204 119T270 92V92ZM498 671Q500 662 498 657T483 648L243 586Q232 583 227 588T219 601L212 636Q209 650 216 653L465 750Q471 753 475 751T483 738L498 671Z" />
<glyph unicode="&#xf4;" horiz-adv-x="599" d="M266 -10Q193 -10 140 19T57 101T28 223Q28 293 52 351T119 452T216 517T333 540Q406 540 459 510T541 426T570 302Q570 213 530 142T421 31T266 -10V-10ZM270 92Q311 92 344 119T398 200T418 332Q418 386 396 413T331
441Q290 441 256 413T202 331T182 199Q182 146 204 119T270 92V92ZM371 673Q364 683 360 683T346 673L285 618Q278 612 274 611T260 609H176Q168 609 168 614T173 625L298 739Q305 746 312 747T331 749H404Q413 749 417 744T426 734L518 622Q524 613 522 611T510
609H430Q423 609 419 612T410 621L371 673Z" />
<glyph unicode="&#xf5;" horiz-adv-x="599" d="M266 -10Q193 -10 140 19T57 101T28 223Q28 293 52 351T119 452T216 517T333 540Q406 540 459 510T541 426T570 302Q570 213 530 142T421 31T266 -10V-10ZM270 92Q311 92 344 119T398 200T418 332Q418 386 396 413T331
441Q290 441 256 413T202 331T182 199Q182 146 204 119T270 92V92ZM525 646Q509 639 485 632T433 625Q404 625 381 632T336 647T290 654Q266 654 252 645T217 625Q208 622 204 626T197 641L188 684Q187 691 185 698T193 712Q213 724 234 733T284 742Q315 742 340
734T388 718T432 710Q449 710 461 716T485 730T507 740Q517 742 523 737T530 723L535 672Q536 665 536 658T525 646V646Z" />
<glyph unicode="&#xf6;" horiz-adv-x="599" d="M266 -10Q193 -10 140 19T57 101T28 223Q28 293 52 351T119 452T216 517T333 540Q406 540 459 510T541 426T570 302Q570 213 530 142T421 31T266 -10V-10ZM270 92Q311 92 344 119T398 200T418 332Q418 386 396 413T331
441Q290 441 256 413T202 331T182 199Q182 146 204 119T270 92V92ZM317 628Q316 617 312 615T294 612H201Q189 612 185 618T182 635L195 729Q197 738 199 740T208 742H316Q323 742 327 736T330 722L317 628ZM520 628Q519 617 515 615T497 612H403Q392 612 388 618T385
635L398 729Q400 738 402 740T411 742H519Q526 742 530 736T533 722L520 628Z" />
<glyph unicode="&#xf7;" horiz-adv-x="584" d="M351 111Q349 99 345 96T326 93H212Q201 93 197 100T193 117L209 234Q211 243 213 244T222 246H353Q360 246 364 240T367 226L351 111ZM545 335Q545 324 539 321T520 318L80 317Q68 317 63 324T59 342L70 415Q72
424 74 426T83 429H541Q547 429 552 423T556 409L545 335ZM408 518Q407 506 403 504T384 501H270Q259 501 254 507T250 524L266 641Q268 650 270 651T279 653H410Q417 653 421 647T425 633L408 518Z" />
<glyph unicode="&#xf8;" horiz-adv-x="596" d="M48 7Q37 -2 29 0T14 13L-1 31Q-8 40 -10 47T-4 62L549 524Q559 531 565 529T575 522L600 492Q604 487 606 481T601 469L48 7ZM258 -10Q185 -10 132 19T49 101T20 223Q20 293 44 351T111 452T208 517T325 540Q398
540 451 510T533 426T562 302Q562 213 522 142T413 31T258 -10V-10ZM261 92Q303 92 336 119T390 200T410 332Q410 386 388 413T323 441Q282 441 248 413T194 331T173 199Q173 146 195 119T261 92V92Z" />
<glyph unicode="&#xf9;" horiz-adv-x="592" d="M170 -10Q109 -10 71 27T33 126Q33 133 33 141T34 156L84 510Q86 522 90 526T108 530H218Q229 530 234 523T237 504L190 171Q189 166 189 162T189 154Q189 126 204 114T244 101Q278 101 308 119T367 163L418 511Q419
523 424 526T443 530H551Q563 530 568 523T572 504L500 14Q499 5 497 3T486 0H367Q360 0 356 3T352 14L360 63Q361 69 357 69T346 63Q300 23 258 7T170 -10V-10ZM231 741Q235 748 240 749T251 749L471 651Q478 647 480 643T479 631L462 593Q458 586 454 586T439
587L216 649Q203 652 200 657T201 672L231 741V741Z" />
<glyph unicode="&#xfa;" horiz-adv-x="592" d="M170 -10Q109 -10 71 27T33 126Q33 133 33 141T34 156L84 510Q86 522 90 526T108 530H218Q229 530 234 523T237 504L190 171Q189 166 189 162T189 154Q189 126 204 114T244 101Q278 101 308 119T367 163L418 511Q419
523 424 526T443 530H551Q563 530 568 523T572 504L500 14Q499 5 497 3T486 0H367Q360 0 356 3T352 14L360 63Q361 69 357 69T346 63Q300 23 258 7T170 -10V-10ZM488 671Q490 662 488 657T473 648L233 586Q222 583 217 588T209 601L202 636Q199 650 206 653L455
750Q461 753 465 751T473 738L488 671Z" />
<glyph unicode="&#xfb;" horiz-adv-x="592" d="M170 -10Q109 -10 71 27T33 126Q33 133 33 141T34 156L84 510Q86 522 90 526T108 530H218Q229 530 234 523T237 504L190 171Q189 166 189 162T189 154Q189 126 204 114T244 101Q278 101 308 119T367 163L418 511Q419
523 424 526T443 530H551Q563 530 568 523T572 504L500 14Q499 5 497 3T486 0H367Q360 0 356 3T352 14L360 63Q361 69 357 69T346 63Q300 23 258 7T170 -10V-10ZM361 673Q354 683 350 683T336 673L275 618Q268 612 264 611T250 609H166Q158 609 158 614T163 625L288
739Q295 746 302 747T321 749H394Q403 749 407 744T416 734L508 622Q514 613 512 611T500 609H420Q413 609 409 612T400 621L361 673Z" />
<glyph unicode="&#xfc;" horiz-adv-x="592" d="M170 -10Q109 -10 71 27T33 126Q33 133 33 141T34 156L84 510Q86 522 90 526T108 530H218Q229 530 234 523T237 504L190 171Q189 166 189 162T189 154Q189 126 204 114T244 101Q278 101 308 119T367 163L418 511Q419
523 424 526T443 530H551Q563 530 568 523T572 504L500 14Q499 5 497 3T486 0H367Q360 0 356 3T352 14L360 63Q361 69 357 69T346 63Q300 23 258 7T170 -10V-10ZM307 628Q306 617 302 615T284 612H191Q179 612 175 618T172 635L185 729Q187 738 189 740T198 742H306Q313
742 317 736T320 722L307 628ZM510 628Q509 617 505 615T487 612H393Q382 612 378 618T375 635L388 729Q390 738 392 740T401 742H509Q516 742 520 736T523 722L510 628Z" />
<glyph unicode="&#xfd;" horiz-adv-x="566" d="M37 -165Q9 -165 -3 -161T-13 -145L-2 -68Q-1 -61 7 -57T33 -53H99Q118 -53 134 -45T161 -24T177 3T179 29L51 502Q44 530 66 530H203Q219 530 221 517L291 219Q293 207 299 207T311 221L459 510Q465 521 471 525T485
530H571Q590 530 578 511L301 4Q272 -48 245 -81T188 -132T122 -157T37 -165V-165ZM504 671Q506 662 504 657T489 648L249 586Q238 583 233 588T225 601L218 636Q215 650 222 653L471 750Q477 753 481 751T489 738L504 671Z" />
<glyph unicode="&#xfe;" horiz-adv-x="607" d="M252 742Q263 742 269 735T273 717L239 476Q238 469 242 473T251 485Q270 498 291 511T340 532T403 540Q463 540 506 510T569 417T575 261Q562 167 527 107T440 19T329 -10Q288 -10 257 4T203 47Q181 60 176 31L151
-152Q150 -161 148 -163T137 -165H14Q7 -165 2 -158T-1 -142L120 725Q122 736 125 739T142 742H252V742ZM189 134Q206 111 226 99T274 87Q310 87 340 106T391 169T422 281Q431 343 423 378T392 428T339 443Q310 443 284 430T242 398T223 359L189 134V134Z" />
<glyph unicode="&#xff;" horiz-adv-x="566" d="M37 -165Q9 -165 -3 -161T-13 -145L-2 -68Q-1 -61 7 -57T33 -53H99Q118 -53 134 -45T161 -24T177 3T179 29L51 502Q44 530 66 530H203Q219 530 221 517L291 219Q293 207 299 207T311 221L459 510Q465 521 471 525T485
530H571Q590 530 578 511L301 4Q272 -48 245 -81T188 -132T122 -157T37 -165V-165ZM323 628Q322 617 318 615T300 612H207Q195 612 191 618T188 635L201 729Q203 738 205 740T214 742H322Q329 742 333 736T336 722L323 628ZM526 628Q525 617 521 615T503 612H409Q398
612 394 618T391 635L404 729Q406 738 408 740T417 742H525Q532 742 536 736T539 722L526 628Z" />
<glyph unicode="&#x2013;" horiz-adv-x="584" d="M529 217Q528 205 522 202T503 199H63Q51 199 46 206T43 223L53 297Q55 306 57 308T67 310L524 311Q531 311 536 304T539 290L529 217Z" />
<glyph unicode="&#x2014;" horiz-adv-x="909" d="M854 217Q852 205 847 202T827 199H63Q51 199 46 206T43 223L53 297Q55 306 57 308T67 310L849 311Q855 311 860 304T864 290L854 217Z" />
<glyph unicode="&#x2018;" horiz-adv-x="241" d="M290 742Q303 742 296 728L238 629Q226 604 246 601L262 599Q274 599 276 597T276 585L261 471Q260 463 254 457T240 450H114Q108 450 106 451T105 460L120 568Q121 572 123 575T127 581L238 722Q244 730 254 736T274
742H290V742Z" />
<glyph unicode="&#x2019;" horiz-adv-x="241" d="M81 450Q69 450 75 464L133 563Q145 587 125 591L109 592Q98 594 96 595T95 607L110 721Q112 729 118 735T131 742H257Q263 742 265 741T266 732L251 624Q250 620 248 617T244 611L133 470Q128 462 118 456T98
450H81V450Z" />
<glyph unicode="&#x201a;" horiz-adv-x="241" d="M-2 -143Q-15 -143 -8 -129L50 -30Q62 -6 41 -2L26 -1Q15 1 13 2T11 14L27 128Q29 136 35 142T47 149H173Q180 149 182 148T183 139L168 31Q167 27 165 24T161 18L50 -123Q45 -131 34 -137T14 -143H-2V-143Z" />
<glyph unicode="&#x201c;" horiz-adv-x="465" d="M301 450Q295 450 293 451T292 460L307 568Q308 572 310 575T314 581L424 722Q431 730 441 736T461 742H477Q490 742 483 728L424 629Q413 604 433 601L449 599Q460 599 462 597T464 585L447 471Q446 463 440 457T427
450H301V450ZM77 450Q70 450 69 451T67 460L83 568Q83 572 85 575T89 581L200 722Q206 730 217 736T236 742H253Q266 742 258 728L200 629Q189 604 209 601L225 599Q236 599 238 597T239 585L223 471Q222 463 216 457T203 450H77V450Z" />
<glyph unicode="&#x201d;" horiz-adv-x="468" d="M306 450Q294 450 300 464L357 563Q370 587 349 591L333 592Q323 594 321 595T319 607L335 721Q336 729 342 735T356 742H481Q488 742 490 741T490 732L476 624Q475 620 473 617T469 611L357 470Q352 462 342 456T322
450H306V450ZM81 450Q69 450 75 464L133 563Q145 587 125 591L109 592Q98 594 96 595T95 607L110 721Q112 729 118 735T131 742H257Q263 742 265 741T266 732L251 624Q250 620 248 617T244 611L133 470Q128 462 118 456T98 450H81V450Z" />
<glyph unicode="&#x201e;" horiz-adv-x="431" d="M185 -143Q172 -143 179 -129L237 -30Q249 -6 228 -2L213 -1Q202 1 200 2T198 14L214 128Q216 136 222 142T234 149H360Q367 149 369 148T370 139L355 31Q354 27 352 24T348 18L237 -123Q232 -131 221 -137T201
-143H185V-143ZM217 -143Q204 -143 211 -129L269 -30Q281 -6 260 -2L245 -1Q234 1 232 2T230 14L246 128Q248 136 254 142T266 149H392Q399 149 401 148T402 139L387 31Q386 27 384 24T380 18L269 -123Q264 -131 253 -137T233 -143H217V-143Z" />
<glyph unicode="&#x2022;" horiz-adv-x="339" d="M171 247Q134 247 106 265T63 316T54 385Q59 420 79 447T130 491T195 507Q233 507 261 489T304 439T312 369Q308 335 288 307T237 263T171 247V247Z" />
<glyph unicode="&#x2039;" horiz-adv-x="290" d="M211 72Q213 66 212 66T201 65H145Q141 65 137 69T132 77L50 243Q46 252 46 261T50 278L182 453Q186 459 188 459T195 458H253Q258 458 263 453T265 440L166 264Q163 258 162 253T160 242L211 72Z" />
<glyph unicode="&#x203a;" horiz-adv-x="290" d="M122 250Q125 256 127 261T128 272L78 448Q77 455 78 456T86 458H143Q152 458 157 446L239 270Q242 262 243 253T237 235L108 70Q105 66 102 66T95 65H39Q31 65 26 69T24 80L122 250V250Z" />
</font>
</defs>
</svg>
